<svg xmlns="http://www.w3.org/2000/svg" viewBox="0 0 1000.32 658.77"><defs><style>.cls-1{fill:#fefefe;}.cls-2{fill:#e5e5e5;}.cls-3{fill:#225675;}.cls-4{fill:#426b7f;}.cls-5{fill:#284a5b;}.cls-6{fill:#f59421;}.cls-7{fill:#027172;}.cls-8{fill:#b2b1b2;}.cls-9{fill:#ef6938;}.cls-10{fill:#efefef;}.cls-11{fill:#00938f;}.cls-12{fill:#666464;}.cls-13{fill:#f4a865;}.cls-14{fill:#743a2c;}.cls-15{fill:#050303;}.cls-16{fill:#d6864d;}.cls-17{fill:#301955;}.cls-18{fill:#ffb031;}.cls-19{fill:#585555;}.cls-20{fill:#4f4d4d;}</style></defs><g id="Layer_2" data-name="Layer 2"><g id="Layer_1-2" data-name="Layer 1"><path class="cls-1" d="M1000.32,587.75v58.54a36.53,36.53,0,0,1-3.76.37q-32,0-64,0c-1.1,0-2.21-.16-3.32-.25,3-3.49,5.19-7.21,3.16-12.61H914.91q0-45.3,0-90.59c0-.64,0-1.28,0-1.92-.17-3.52-1.4-4.85-4.9-5.18-1.26-.11-2.55,0-3.83,0q-37.17,0-74.33,0c-4.32,0-8.63-.09-13-.14l0-43.16c1.6,0,3.2-.12,4.8-.12H996c1.43,0,2.87.06,4.31.1V559c-4.16,2.93-6.24-.77-8.94-2.59v-7.72l-7.25-2-3.68,6.57c-1.36.21-2.45.42-3.56.55s-2.16.19-3.08.27l-4.9-5.69c-2.47,1.37-4.66,2.59-7,3.89.84,2.75,1.57,5.13,2.26,7.37-1.54,1.91-2.82,3.51-4.19,5.2l-7.22-.57a17.3,17.3,0,0,0-.83,1.84c-.53,1.82-1,3.66-1.55,5.68l3.39,1.87,2.81,1.62c1.94,5,.71,8.48-3.57,10.85-.34.19-.46.79-.74,1.31l3.65,6.4,7.11-2,5.47,4.47c-.21,2.31-.41,4.51-.64,7.1l7.77,2.07,3.32-6.13,6.92-.93c.82.91,1.55,1.74,2.31,2.54S990,602.6,991,603.6l6.72-3.76c-.81-2.61-1.46-4.71-2.19-7Zm-45-71.55c-1.85,1.77-2.5,3.81-5.21,3.82-3,0-3.14-2.91-5.26-4l-4,1.77c-.42,2.41.92,4.59-1.21,6.6s-4.29-.22-6.44.63c-.57,1.43-1.13,2.87-1.67,4.22,3.7,3,3.7,3,3.29,7.27l-3.6,3c.67,1.5,1.24,2.8,1.77,4,4.87,0,7.11,1.06,7.67,3.39l-.65,4.26,4.73,1.88c1.55-3.09,3.72-4.58,7.1-3.3l2.94,3.49,4-1.77c0-4.6,1.19-7.09,3.56-7.68l4,.78c.63-1.62,1.24-3.16,1.9-4.88-3.24-1.52-4.25-3.75-3.32-7.06l3.61-2.85c-.69-1.57-1.32-3-2-4.48-3.23.68-6.06.76-7.57-2.86.23-1.2.51-2.58.84-4.23Z"/><path class="cls-2" d="M972.91,427.61l-76.31-.1c-1.44,0-2.88,0-4.32,0-5.36-.05-9-3.48-9-8.9-.11-7.35,0-14.71,0-22.07q0-41.73,0-83.47A22.79,22.79,0,0,1,884,307c1.12-4,2.78-5.13,6.9-5.16,7,0,14.08,0,21.12,0l88.31,0v8.64c-1.75.07-3.51.2-5.26.2H892.34v91.73c4.67,0,9.09,0,13.52,0,.39,0,.78-.5,1.16-.76h93.3v25.91Zm17.68-12.35c-.11-2.1-1.55-3.2-3.08-3a2.57,2.57,0,0,0-2.48,2.85c0,1.61,1.34,3.09,2.59,2.55A12.67,12.67,0,0,0,990.59,415.26Z"/><path class="cls-3" d="M824.54,465.39a92.22,92.22,0,0,0,9.55.05c2.2-.21,4.33-1.22,6.55-1.9V421.67l-3.36-1.61c3.24-1.69,6.5-1.15,9.69-1.27l6.86-.22,14.95.13c.27.58.55,1.15.83,1.73a21.74,21.74,0,0,0-2.68.46c-.42.12-.74.57-1.1.88a22.08,22.08,0,0,0-.35,2.8q0,18.06,0,36.13a18.66,18.66,0,0,0,.28,2.34l1.12.76,2.9,1.16a9.2,9.2,0,0,0,2.48.84c3.68.09,7.36,0,11,0q42.45-.07,84.9-.13c10.71,0,21.42.11,32.13.18v13.43H786.41c-4.16,0-8.31,0-12.47-.05-.33-.29-1-.59-1-.89-.06-4.06,0-8.12,0-12.57l15.85-.6a39.6,39.6,0,0,0,4.69.53q13.41.09,26.82,0C821.71,465.75,823.13,465.51,824.54,465.39ZM852.19,421c-1.9,0-3.8-.16-5.69,0a18.9,18.9,0,0,0-3.32.81l0,41.22,1.64.83h16.36l1.72-.82q0-20.16,0-40.3c.24-1.14-.14-1.82-1.39-1.8L854,421Z"/><path class="cls-4" d="M773.94,479.27c4.16,0,8.31.05,12.47.05h213.91v13.44c-1.44,0-2.88-.1-4.31-.1H823.73c-1.6,0-3.2.08-4.8.12l-13.81.06c-6.18-.06-12.36-.11-18.54-.19-4.13-.06-4.26-.19-4.33-4.29,0-2.66,0-5.33,0-8Z"/><path class="cls-5" d="M907,401.59c-.38.26-.77.75-1.16.76-4.43,0-8.85,0-13.52,0V310.65H995.06c1.75,0,3.51-.13,5.26-.2V320l-36.64.15v11l-56.72.15V346c-.09.95-.24,1.89-.25,2.83q0,24.75,0,49.48C906.72,399.4,906.92,400.49,907,401.59Z"/><path class="cls-5" d="M0,629V587.75l3.33-1.33c2.39.05,4.77.15,7.16.14q45.54,0,91.09-.08c11.18,0,22.36.08,33.54.13,3.34,0,6.74,1,10-.61l3.66-.14a30,30,0,0,1,1.05,4.41c.28,3.28-.72,4.45-4,5-.6.11-1.22.12-1.84.17a27,27,0,0,0-2.84-.28q-13.2,0-26.39,0-50.62,0-101.25,0c-5.52,0-6.57.92-7.76,6.26a31.31,31.31,0,0,0,0,13.79c1.18,5.32,2.26,6.19,7.76,6.19q62.63,0,125.24,0c1.75,0,3.51-.14,5.26-.22,6,.65,7.38,3.23,4.68,8.72-.13.27-.31.53-.47.8l-9.09.06-28.71.19H78.87l-10.48,0c-3.33-1.2-11.59-1.3-15.6-.19l-14.38.07a28.81,28.81,0,0,0-4.55-.76c-10.35-.07-20.69,0-31,0Z"/><path class="cls-1" d="M1000.32,401.6H963.85c0-2.22,0-4.44,0-6.66l-.15-1q0-12.48,0-25l0-18.07.07-5,0-10.53h36.47v26.87a12.1,12.1,0,0,0-1,3.29c-.1,6.19,0,12.38-.07,18.57,0,3.47-.23,6.95-.36,10.43l-2.14-.1c-.16-6.13-.33-12.27-.49-18.37h-12.8c-.13,6.28-.26,12.31-.38,18.33l-3.64-.32V378.25c0-4.94,0-9.89,0-14.83s0-10.08,0-15.12c-1.44,4.3-1.35,43.41-.37,47.54h21.31ZM988.8,372l-2.5-1.87a1.9,1.9,0,0,0,1.52,2.74l2.07,1.81c2.52-2,2.36-2,2.87-4.82.22-1.19,0-1.72-.91-2.25-1.37-.78-1.38-1.9-.72-3.27l2.38,1.46c.28-3-2.43-3.23-3.57-4.73-.64.44-1.31.84-1.91,1.33-2.87,2.38-3,3.19-.07,5.78C989.36,369.37,989,370.57,988.8,372Z"/><path class="cls-6" d="M1000.32,587.75l-4.83,5c.73,2.33,1.38,4.43,2.19,7L991,603.6c-1-1-1.89-1.85-2.75-2.74s-1.49-1.63-2.31-2.54l-6.92.93-3.32,6.13-7.77-2.07c.23-2.59.43-4.79.64-7.1l-5.47-4.47-7.11,2-3.65-6.4c.28-.52.4-1.12.74-1.31,4.28-2.37,5.51-5.85,3.57-10.85l-2.81-1.62-3.39-1.87c.54-2,1-3.86,1.55-5.68a17.3,17.3,0,0,1,.83-1.84l7.22.57c1.37-1.69,2.65-3.29,4.19-5.2-.69-2.24-1.42-4.62-2.26-7.37,2.31-1.3,4.5-2.52,7-3.89l4.9,5.69c.92-.08,2-.14,3.08-.27s2.2-.34,3.56-.55l3.68-6.57,7.25,2v7.72c2.7,1.82,4.78,5.52,8.94,2.59Zm-7.5-11.47a13,13,0,0,0-12.61-13.1,13.37,13.37,0,0,0-13.36,13,13,13,0,0,0,13.23,13A12.69,12.69,0,0,0,992.82,576.28Z"/><path class="cls-7" d="M0,547.45V495.63l4.79.35a29,29,0,0,0-.92,5c-.07,13.59-.05,27.17,0,40.76,0,1.39.19,2.78.3,4.25h7a13.66,13.66,0,0,0,.31-1.86c0-14.86,0-29.72,0-44.58a15.53,15.53,0,0,0-.92-3.62l20.19-.28,4.73.79v50.38c-1.7.17-3.4.45-5.11.48-6,.12-11.94.16-17.9.23l-4.88,0-5.68,0Z"/><path class="cls-8" d="M1000.32,465.89c-10.71-.07-21.42-.19-32.13-.18q-42.45,0-84.9.13c-3.67,0-7.35.05-11,0a9.2,9.2,0,0,1-2.48-.84l89.08-.07h5.66c3.09-12.5,6.26-24.77,8.39-37.28l27.41-.1Z"/><path class="cls-3" d="M929.22,646.42c1.11.09,2.22.25,3.32.25q32,0,64,0a36.53,36.53,0,0,0,3.76-.37V657.8c-1.76,0-3.51.13-5.27.13q-41,0-81.95,0a30.22,30.22,0,0,0-4.94.79H895.68c.3-3.52-.8-7.17,1-10.56,2.12-.52,4.22-1.41,6.34-1.47C911.73,646.49,920.48,646.5,929.22,646.42Z"/><path class="cls-9" d="M110.43,631l28.71-.19,9.09-.06,3.45,0v28H110.4Z"/><path class="cls-9" d="M201.6,658.76H160.32q0-12.09,0-24.17c0-1.81-.05-3.57,2.29-4,2.85.06,5.7.15,8.55.18l30.41.19Q201.57,644.86,201.6,658.76Z"/><path class="cls-7" d="M2.82,630.11c10.35,0,20.69,0,31,0a28.81,28.81,0,0,1,4.55.76q0,13.92,0,27.85H0V630.93Z"/><path class="cls-3" d="M30.76,495.7,10.57,496H4.79L0,495.63V465.89c4.73-.12,9.46-.31,14.19-.32,5.53,0,11.06.13,16.59.21Q30.77,480.74,30.76,495.7Z"/><path class="cls-9" d="M233.11,631q.09,13.86.17,27.73h-24q0-13.89,0-27.79Z"/><path class="cls-9" d="M78.87,631h22.87q0,13.88,0,27.77h-23Z"/><path class="cls-10" d="M1000.32,335.39H963.85c-.05-1.41-.11-2.82-.17-4.23v-11l36.64-.15Zm-4.39-7.58c-1.32-1.05-2-1.93-2.86-2.17a1.81,1.81,0,0,0-2.26,2.15,3.1,3.1,0,0,0,2.11,1.86C993.67,329.72,994.52,328.73,995.93,327.81Zm-19.42.51c-1.21-1.26-1.76-2.26-2.56-2.57a1.71,1.71,0,0,0-2.4,1.51c-.21,1.26.24,2.34,1.57,2.36C974,329.64,974.88,329,976.51,328.32Zm10.14-.9c-1.52-.84-2.47-1.8-3.23-1.66a3,3,0,0,0-1.89,2.12,1.69,1.69,0,0,0,2.22,1.76C984.62,329.4,985.3,328.49,986.65,327.42Z"/><path class="cls-7" d="M52.79,630.84c4-1.11,12.27-1,15.6.19,0,5,.16,9.9.13,14.85,0,4.29-.23,8.59-.36,12.88H52.8Z"/><path class="cls-11" d="M52.79,630.84v27.92H38.4V630.91Z"/><path class="cls-10" d="M68.16,658.76c.13-4.29.33-8.59.36-12.88,0-5-.08-9.9-.13-14.85l10.48,0-.15,27.78Z"/><path class="cls-6" d="M162.59,630.6c-2.34.42-2.29,2.18-2.29,4q0,12.07,0,24.17h-8.64v-28l10.71-.42Z"/><path class="cls-6" d="M101.76,658.76q0-13.89,0-27.77h8.69l0,27.78Z"/><path class="cls-6" d="M209.32,631q0,13.89,0,27.79H201.6q0-13.89,0-27.79Z"/><path class="cls-8" d="M908.16,658.76a30.22,30.22,0,0,1,4.94-.79q41-.08,81.95,0c1.76,0,3.51-.09,5.27-.13-.16.32-.3.91-.48.92-1.28.08-2.56,0-3.84,0Z"/><path class="cls-6" d="M0,547.45l1.92.13q0,19.08,0,38.16L0,585.83Z"/><path class="cls-12" d="M996.74,394.45l2.14.1,1.44.33v1H979c-1-4.13-1.07-43.24.37-47.54q0,7.56,0,15.12c0,4.94,0,9.89,0,14.83v15.84l3.64.32Z"/><path class="cls-9" d="M1000.32,394.88l-1.44-.33c.13-3.48.33-7,.36-10.43.06-6.19,0-12.38.07-18.57a12.1,12.1,0,0,1,1-3.29Z"/><path class="cls-8" d="M0,585.83l1.94-.09,1.39.68L0,587.75Z"/><path class="cls-8" d="M2.82,630.11,0,630.93V629Z"/><path class="cls-9" d="M209.31,131.11c4.14,1.6,8.24,3.34,12.44,4.77a23.79,23.79,0,0,1,12,9.07,215.22,215.22,0,0,1,12.6,19.17c6.11,11,11.62,22.35,17.37,33.55.66,1.27,1.26,2.56,1.94,4,13.66,2.91,26.28,8.54,38.7,14.69L301.32,230c-3.76-.7-7.54-1.25-11.25-2.12-10.05-2.35-20.1-4.74-30.1-7.29a23.5,23.5,0,0,1-13.78-9.65c-3.72-5.35-7.4-10.74-11.14-16.08-.79-1.14-1.73-2.18-2.6-3.26l-5.1-.23q.41-9.59.82-19.17c-.22-3.54-.22-3.55-3.07-4.14-.93-.2-1.88-.3-2.83-.42-7.41-.92-14.83-1.88-22.25-2.72-6.79-.77-13.59-1.42-20.38-2.12-2.62-.56-2.83,1.09-2.94,3.05-.53,10.17-1.13,20.35-1.68,30.52a12,12,0,0,0,.36,2.14h29.06l3.09,10.37c-.49.57-.86,1.39-1.48,1.67-5.53,2.46-11.06,4.91-16.67,7.19-4,1.63-8.08,3-12.12,4.48-1.16.42-2.3.9-3.3,1.3-.78,7.31-.78,7.31.66,10.2L224,238.16c.21-2.07.44-3.74.55-5.42.62-8.92,1.2-17.83,1.8-26.75l2.25-3a18.11,18.11,0,0,1-.27,2.86,32.79,32.79,0,0,0,.24,15.66c1.23,5.12,2.25,10.29,3.4,15.43,2.34,10.45,4.92,20.92,4.92,31.66,0,15.18-.16,30.38-1.08,45.53-1.07,17.69-3,35.33-4.63,53-.28,3-.7,5.95-1.06,9L220,377.69l-22.3.95h-6.53l-22.27-1-7-1.73c-.47-3.48-1.05-7.21-1.47-10.95-1.56-13.79-3.16-27.58-4.57-41.38-.87-8.57-1.7-17.17-2-25.77-.42-11-.58-22-.33-33,.3-13.49,4.33-26,11.05-37.72.31-.55.59-1.12.87-1.69.06-.13,0-.3,0-.83-1.77-.1-3.6-.29-5.42-.28-2.94,0-5.06-1.36-7.09-3.39-4.87-4.86-6.1-11.11-6.84-17.48a212,212,0,0,1-1.07-38.7,35.64,35.64,0,0,1,2.86-12.52c2.7-6,6.41-11,12.67-13.72q8.53-3.69,17-7.43a10.67,10.67,0,0,0,.78,3.18c5,8,12.76,12,22.28,9.7a10,10,0,0,0,7.18-6.39A40.44,40.44,0,0,0,209.31,131.11Z"/><path class="cls-7" d="M661.8,443.07c-.68-1.38-1.77-2.71-2-4.16-1.47-11.08-2.77-22.17-4.11-33.26-1.82-15-3.67-30.1-5.43-45.16-1.47-12.52-2.9-25.05-4.22-37.58-1.48-14-3-27.94-4.14-41.93-.62-7.46-.53-15-.75-22.48,1.27,0,2.55.1,3.81,0,8.47-.49,16.87-7.19,16.53-16.93-.08-2.38.1-4.77.17-7.15h7.4l8.58-.11,8.59.16c0,2.21.22,4.43.12,6.64-.4,8.43,8.1,17,16.65,16.6,1.74-.09,3.48,0,5.22,0,.78,4.46,1.72,8.87,5.18,13.08,1.05-3.29,1.91-6,2.77-8.64l1.57-1.94,1.21.16c0,6.7.26,13.42-.19,20.09q-1.9,27.94-4.36,55.85c-1.51,17-3.27,34-5.13,51-1.81,16.49-3.85,33-5.88,49.43-.21,1.72.23,4.1-2.58,4.41l-10.8.25-2.46-.56Q684.5,388,681.45,335.5a27.1,27.1,0,0,0-1.68-13v11q-2,48.07-4.1,96.13c-.15,3.51-.46,7-.61,10.51-.06,1.3-.47,2.13-1.84,2.32-3-.15-5.89-.36-8.85-.39-.62,0-1.25.67-1.88,1A2,2,0,0,0,661.8,443.07Z"/><path class="cls-3" d="M402.26,288.55c.22,20,.7,39.92.58,59.87-.1,16.12-1,32.23-1.41,48.34-.29,10.7-.4,21.39-.61,32.09,0,1.59-.17,3.18-.23,4.78s-1.34,1.48-2.38,1.7l-18.55,1.12c-1.91-1.4-1.18-3.5-1.29-5.29-1.13-18.47-2.17-37-3.27-55.42a28.44,28.44,0,0,0-.63-3.39c-4.81,10.68-8.81,21.41-12.71,32.17S354,426.29,350.07,437.3l-3.21-.82c-1.35-.37-2.69-.79-4.05-1.09-3.51-.76-7-1.47-10.56-2.21-2.1-.88-2.4-2.48-2.12-4.58,1.57-11.39,3.16-22.77,4.49-34.17.87-7.42,3.35-14.26,6.47-20.93,2.16-4.63,4.55-9.14,6.64-13.8a16.66,16.66,0,0,0,1.56-5.88c1-24.71,2.29-49.41,2-74.16l.3.15c5.45,2.07,10.62,4.92,16.51,5.77a5.64,5.64,0,0,1,1.64.83c-.36,3.14-.74,6.29-1.07,9.44-.7,6.61-1.24,13.25-2.07,19.85-1.11,8.78-2.47,17.53-3.63,26.31a37.81,37.81,0,0,0,0,4.88c3.33-15.82,4.14-31.92,6.89-47.3l8.41-1.63,1.07-.74-1.06.75-8.11-.21c.15-4.15.27-7.73.4-11.3a21.68,21.68,0,0,1,3.33.12,101,101,0,0,0,20.31,1.81C396.87,288.34,399.57,288.49,402.26,288.55Zm-46.11,87.13c.28-.66.56-1.32.83-2l-.67-.19-.15,2.18-1,2.88-.82,2,.67.19.15-2.18C355.52,377.61,355.84,376.64,356.15,375.68ZM340.8,427.5l.83-2-.68-.19-.15,2.19c-.27.66-.55,1.33-.83,2l.67.19C340.69,429,340.75,428.23,340.8,427.5ZM358.07,369l1-2.88.84-2-.67-.19-.15,2.18-1,2.88c-.28.66-.56,1.32-.83,2l.67.18C358,370.42,358,369.7,358.07,369Zm-15.35,51.81,1-2.87c.27-.67.55-1.33.82-2l-.67-.18-.15,2.18-1,2.88-.83,2,.68.18Zm36.48-63.33c.31-1,.63-1.92.95-2.88l1-2.88,1-2.87c.28-.66.56-1.33.83-2l-.66-.19-.15,2.19-1,2.87-1,2.88-1,2.88c-.27.66-.55,1.32-.83,2l.67.18Zm-33.6,53.74c.27-.67.55-1.33.83-2l-.68-.19-.15,2.19c-.27.66-.55,1.32-.83,2l.67.19C345.49,412.64,345.54,411.92,345.6,411.19Zm1.92-6.72,1-2.88.82-2-.67-.19-.15,2.19-1,2.88-.83,2,.68.19Zm2.88-9.59c.27-.67.55-1.33.83-2l-.67-.19-.16,2.18-.83,2,.67.19C350.29,396.33,350.34,395.6,350.4,394.88ZM384,342.1l.84-2-.67-.19-.15,2.18-.83,2,.67.18C383.9,343.55,384,342.83,384,342.1Zm-30.71,43.18.82-2-.67-.19-.15,2.19c-.27.66-.55,1.32-.83,2l.67.19Zm34.55-56.61,1-3.84a7.8,7.8,0,0,0,1.74-6.17c-2.16,1.89-1.64,4.11-1.72,6.18l-1,3.83c-.27.66-.55,1.33-.83,2l.67.19Zm6.72-25.91,1-3.84c1.2-.87,1.11-1.9.22-3.87-.1,1.85-.15,2.86-.2,3.88l-1,3.84-.83,2,.66.19ZM361,360.33c1.21-1.18,1.37-2.43,0-4.43v4.44l-.36,1.31Zm26.12-26.67-1.12-.45-1.13,4.1,1,.29Zm-24.41,16h-.45v3.94h.45ZM391,316.48h.37v-1.54H391Zm1.92-7.67h.37v-1.55h-.37Zm-.57,2.3H392v1.54h.4ZM351.7,389.79l-.14.37.54,0a1.59,1.59,0,0,0-.09-.39C352,389.77,351.81,389.8,351.7,389.79ZM339.22,432l-.13.37.53.05a1.17,1.17,0,0,0-.09-.39C339.49,432,339.33,432,339.22,432Z"/><path class="cls-3" d="M708.25,257.73c-1.74,0-3.48-.08-5.22,0-8.55.44-17-8.17-16.65-16.6.1-2.21-.07-4.43-.12-6.64l-.06-5.58a17.22,17.22,0,0,0,.19-1.9c0-26,1.31-52,2.64-78,.66-12.91,2.78-25.33,8-37.16l5.7,1.84c-.5,3.17,1.69,6.38-.13,9.54-1.47,2.57-3,5.14-4.38,7.62-.3-.32-.83-.89-1.37-1.45a14.59,14.59,0,0,0-.34,7.25c.73,3.24.82,6.16-2.39,8.51,4.73,4,4.2,8.57,2.73,13.4-2.72,9-5.35,18-8,27a12.45,12.45,0,0,0-.22,2.3,3.87,3.87,0,0,0,1.76-2.34c2.83-9.77,5.61-19.56,8.5-29.31a14.86,14.86,0,0,1,1.83-3.09l.34,1.18.49-.33-.71-.94a20.81,20.81,0,0,0-.72-4.15c-2.48-6.34-2.07-12.54.49-18.74.9-2.17,1.5-4.45,2.24-6.69.59-.78,1.6-1.51,1.7-2.36a59.31,59.31,0,0,0,.11-6.54c4.21,1.43,8.49,2.7,12.62,4.34,3.55,1.42,5.83,4.3,7.57,7.66A75.17,75.17,0,0,1,731.23,146a245.3,245.3,0,0,1,5.27,48.4c0,7.88-1.32,15.55-3,23.18a213.12,213.12,0,0,1-10.43,34.72c-1.14,2.78-2.72,5.38-4.09,8.07l-1.21-.16a16.63,16.63,0,0,0-6.28-10.72c-.38,1.46-.74,2.81-1.09,4.16Zm4.13-70.17-.23-2.17-.7.13.82,2.13c.37,4.23.63,4.91,2.89,6.68C714.23,192.07,714.42,189.41,712.38,187.56Zm3.83,14.4c-.06-1.33-.13-2.65-.2-4-.65,1.4-1.45,2.83.1,4.06-.05,3.18.26,6.42-.2,9.55-1.35,9.39-3,18.75-4.53,28.12-.4,2.45-.7,4.92-1,7.38l.95.14q4.43-22,6.77-44.29l6-1c-2.38-1.17-4.36-.78-5.94,1Zm-5.68,17,.51-1.21c-.67-.74-1.31-2.07-2-2.11a88.41,88.41,0,0,0-12.39,0c-.89,2.15-.1,3.29,1.27,3.42A55.08,55.08,0,0,0,710.53,218.94Zm7.05-21.86c3,.46,3,.46,5.14-2Zm-8.49-20.36c-.12,0-.29,0-.34.09a1.12,1.12,0,0,0-.08.42l.57-.12ZM707.17,171c-.12,0-.29,0-.34.09a1.36,1.36,0,0,0-.08.42l.57-.12Zm3,9.24.07-.43-.57.12c.05.13.07.29.17.37S710,180.22,710.14,180.2Zm-7.68-23,.07-.43-.57.12c0,.13.07.29.17.37S702.35,157.19,702.46,157.17Zm8.64,25.91.07-.43-.57.11c0,.14.07.3.17.38S711,183.1,711.1,183.08Zm-7.62-23.32c-.08-.12-.13-.29-.24-.33s-.22.11-.33.18l.4.53Zm.81,2.57c-.12,0-.29,0-.34.09a1.07,1.07,0,0,0-.08.41l.57-.11Zm.68,2.9-.14.4.57.05a1.08,1.08,0,0,0-.11-.41C705.25,165.21,705.08,165.24,705,165.23Zm3.25,9.21.07-.43-.57.12a1,1,0,0,0,.17.37C707.94,174.55,708.11,174.46,708.22,174.44Zm-1.85-6.1-.26-.35a2.49,2.49,0,0,0-.29.29,3.54,3.54,0,0,0,.41.45Z"/><path class="cls-2" d="M929.22,646.42c-8.74.08-17.49.07-26.24.31-2.12.06-4.22.95-6.34,1.47a27,27,0,0,0-5-.91q-33.33-.1-66.65,0-31.65,0-63.29,0c-2.86,0-5.35-.53-7.4-2.64a8.24,8.24,0,0,1-2.68-5.93c0-1.41-.14-2.81-.25-4.8-15.16-.22-30.11,0-45.24-.13a19.19,19.19,0,0,1-.54-3q0-27.32.09-54.63l54.58.1v56.7c3.26,1.65,6.48.58,9.55.92H932.38C934.41,639.21,932.24,642.93,929.22,646.42Z"/><path class="cls-7" d="M209.32,631h-7.77l-30.41-.19c-2.85,0-5.7-.12-8.55-.18l-.2-.25c0-2.07,0-4.14,0-6.21q-.09-19.1-.19-38.18l6.77-.1,7.59,0,41.5,0,8.4,0h41.44l8.41,0,21.17.28c-1.7.23-3.39.51-5.09.68s-3.36.21-5.36.33v14.39c0,4.8.06,9.59,0,14.38-.07,4.56.35,9.16-.35,14.09h-5.6c-13.91,0-27.81,0-41.72,0a40.66,40.66,0,0,0-5.12.63l-1.12.42Zm-31.74-44v21.38c0,3.67-.12,7.35,0,11,.14,3.43-.74,7,.76,10.51,4.19-.13,8.28.58,12.25-.46.86-6.6.59-38.86-.38-42.44Z"/><path class="cls-3" d="M661.69,234.45c-.07,2.38-.25,4.77-.17,7.15.34,9.74-8.06,16.44-16.53,16.93-1.26.07-2.54,0-3.81,0-1.71-.9-1.14-2.45-1.06-3.82q1.05-17.7,2.13-35.4l2.38,0c1.74,0,3.49,0,5.23,0,1.34,0,2.65-.44,2.76-2,.14-1.92-1.44-1.74-2.66-1.77-2.54,0-5.07,0-7.61,0L643.43,178c1.44-.15,1.84-1.12,1.72-2.37-.29-3.32-.84-6.63-.92-9.95-.15-5.91-.34-11.84.06-17.73.37-5.36,1.44-10.68,2.31-16,.37-2.29,1-4.54,1.55-6.8l-1-.28-3,10.1-1.47-.25c.14,4.37.81,8.7.3,12.89-.79,6.37-1.16,12.63,0,19,.26,1.45-.44,3.07-.7,4.61-4.47,4.54-9.06,9-13.4,13.65-4.76,5.13-9.42,10.38-13.9,15.76-2,2.44-4.11,4.15-7.44,4.55-10.92,1.32-21.79,3-32.72,4.32-5.66.66-11.39.75-17.09,1.09-.4-1-.81-1.94-1.21-2.92-.12-1.6-.23-3.21-.34-4.82-.12-.87-.23-1.75-.35-2.63-.19-.71-.37-1.42-.56-2.14-.13-.56-.26-1.13-.38-1.7l-.9-2.17a.63.63,0,0,0,0-.78l0-.05,2.85-.89,2.82-.14c8.5.22,16.68-2,25-3.3,5.32-.83,10.44-3,16-2.4,2.2.26,4.37.64,6.56,1l.18-.7-7.92-2.71,6.48-1.73a9.75,9.75,0,0,0-5-.12c-1.4.31-1.67-.42-1.88-1.43a62.54,62.54,0,0,1,3.22-5.79c9.82-13.93,19.75-27.79,29.54-41.74a26,26,0,0,0,3.4-6.73c1.65-5,4.41-8.67,9.76-10.16,3.66-1,7.19-2.5,10.78-3.78l.84,2.84c-1.62.8-2,2.24-1.9,3.86-.32,1-.65,1.91-1,2.87l-1,1.91-1,2.9-1,2.87c-.32,1.27-.65,2.55-1,3.83-1.72,2.08-2.81,4.25-1,6.84l1,1,.95,1,1,.95c.33.92.65,1.84,1,2.77l-1,1.92-1,.93c-.49,1.24-1.53,2.57-1.34,3.69a48.42,48.42,0,0,0,2.3,7c.32,1,.65,1.91,1,2.86-.06,2.74.14,5.41,1.91,7.7,0,2.12.09,4.22,1.93,5.73-.08,3.52.57,6.82,2.87,9.62.39.94.79,1.87,1.18,2.81.21,2.83.55,5.67.62,8.51.23,10.61.36,21.23.54,31.85C661.76,230.76,661.72,232.61,661.69,234.45ZM641.36,129.62l-1.05.48,1.16,2.37.73-.29Z"/><path class="cls-9" d="M345.62,172.39c2.5.44,5,.74,7.48,1.35,3.78.93,5.73,3.8,7,7.21a4.94,4.94,0,0,0,1.93.25c2.56-.76,5.07-1.67,7.6-2.52l6.28,0,2.51.46,2.6.83,0,0,2.65,1.65,4.65,5.94-1.59,0c-5.55-2-11-4.11-17-4.86-7.11-.9-12.19,4.65-11.32,12.36a65.94,65.94,0,0,1,.54,9.51c-.18,5.59-.64,11.16-1.05,16.73-.79,10.67-1.69,21.33-2.4,32-.24,3.58,0,7.2,0,11.24,9.09-3.2,17.93-6.31,25.63-12,3.52-2.59,5.43-6.3,6.46-10.37a36.8,36.8,0,0,0,1.16-9c0-6.54-.35-13.08-.56-19.63l2.66,0,.36,0,2.3.87c.4,7.3.92,14.6,1.17,21.91.37,11-4.66,18.81-14.16,24.13a73.48,73.48,0,0,1-25.87,9.15l-3.12,10.11-.3-.15a15.53,15.53,0,0,1-12.11,4.66c-6.19-.33-12.37-1-18.55-1.63a15.82,15.82,0,0,1-3.68-.95,11.13,11.13,0,0,1-7.9-9.32c-.41-2.67-.6-5.37-.88-8.06a47.08,47.08,0,0,1,.14-6.18c1.15-7.79,2.26-15.59,3.77-23.32,1.7-8.66,3.81-17.24,5.73-25.85q3.39-12.67,6.77-25.34c.24-.92.58-1.81.89-2.72,3-8.58,6.27-10.55,15.51-9.17-.69,4.05-1.43,8.09-2.05,12.15-1.69,11.09-3.43,22.17-4.94,33.28-.83,6.09-1.23,12.25-1.83,18.38-1,0-1.91,0-2.87,0-3.26,0-5.46,1.33-6.23,4.67s-1.57,6.45-2.35,9.67c-.34,3.62-.92,7.23-1,10.86s1.55,5.58,5.23,6.33c3.09.63,6.29.74,9.43,1.1,3.29.39,5.29-1.39,6-4.25,1-4,1.55-8.06,2.29-12.09.33-2.79.88-5.58.94-8.38.1-5-1.47-6.52-6.67-7-.31-5.41.71-10.68,1.62-16,.87-5.12,1.44-10.29,2.19-15.44.81-5.61,1.69-11.21,2.52-16.81Q344.48,180.34,345.62,172.39Z"/><path class="cls-6" d="M352.26,547l-28.29.22-24.46.23-23.13,0-8.53,0H226.53l-6.48-.41q.07-22.78.18-45.55c0-1.73.3-3.46.46-5.18,1.71-.15,3.43-.38,5.14-.41,6.63-.11,13.26-.15,19.88-.22h13.54l16-.05h19.46l57.6.07Zm-27.08-39.22a7.18,7.18,0,0,0-1.69-.55q-43.86-.06-87.74-.06c-1.11,0-2.22.16-3.32.27-.14,0-.26.16-.38.26l-.34.33c-.83,7.21-.53,24.23.48,27.51,6.14.83,89.36.56,93-.37Z"/><path class="cls-8" d="M914.91,633.81H769.85q0-45.21,0-90.4c0-6.49.85-7.3,7.54-7.33l27.75-.11.22-.22.31.08c3.65,1.82,7.55.44,11.31.79.47,0,1-.54,1.49-.83l.27-.1.16.24c4.32,0,8.63.14,13,.14q37.15,0,74.33,0c1.28,0,2.57-.08,3.83,0,3.5.33,4.73,1.66,4.9,5.18,0,.64,0,1.28,0,1.92Q914.92,588.5,914.91,633.81ZM795.7,625.15l1.1-.06c.8,0,1.59.1,2.39.1l89.78,0c3,0,6.08.08,9.12.06s6.26-.09,9.28-.13c1-7.67.66-77-.31-80.28-7.64-.74-126.22-.44-129.75.33-.83,5.52-.64,76.34.27,80Z"/><path class="cls-6" d="M112.45,495.58l8.47,0,14.42.06h14.44c1.6.07,3.19.19,4.78.19,12.95,0,25.9,0,38.85,0,1.74,0,3.48.27,5.22.42,2.25,1.38,2.41,3.53,1.87,5.74s-2.55,2.93-4.66,3.15c-1-.08-1.91-.24-2.86-.24q-64.74,0-129.49,0c-5,0-6.16.75-7.53,5.5a38.12,38.12,0,0,0-.24,20.81c1.53,5.69,2.85,6.58,8.73,6.58H191.06c1.59,0,3.19-.12,4.78-.18,5,1.34,6.15,3.78,3.7,8.19a7.66,7.66,0,0,1-.87,1.12c-1.75.07-3.5.19-5.26.21-5.59.09-11.19.14-16.78.21h-7.7l-23.68,0h-8.92c-2.4,0-4.8-.06-7.19,0s-4.64.19-7.24.3v13c0,4.15,0,8.3,0,12.46s.32,8.2-.31,12.6l-5.33-.37c-.2-12.79.07-25.18-.16-37.66H110.4v37.9l-4.79-.28V572.54c0-4.16.11-8.31,0-12.46s.64-8.23-.63-12.66H99.63l-47-.14c-.19-.7-.19-1.57-.62-2.06a24.84,24.84,0,0,1-5.14-10.64A53.81,53.81,0,0,1,46.44,510c1-5,2.66-9.88,6.78-13.39,1.75-.08,3.51-.22,5.26-.22,16.28,0,32.57,0,48.86,0A36.11,36.11,0,0,0,112.45,495.58Z"/><path class="cls-2" d="M733.37,461.12c9.12.34,15.29,5.68,16.56,15.63.88,6.85.69,13.64.74,20.46.13,19,.1,37.93.13,56.9l-.31.16a19.34,19.34,0,0,0-4.08-.92c-10-.06-20.07,0-30.11,0,0-17.78-.07-35.56-.18-53.34a61,61,0,0,0-.7-6.57c2.32-.26,1.55-2.09,1.57-3.34.09-6.83-.37-13.69,1.11-20.44l-.05.07,1-1-.05.06c1.46-.94,2.81-2,2.92-3.9l-.05.05Zm3,15.82c0-2.18-1-3.27-3.08-3.39s-3.53.95-3.58,2.85a3.84,3.84,0,0,0,3.48,3.82C735.1,480.35,736.33,479.07,736.35,476.94Z"/><path class="cls-10" d="M661.8,228.92c-.18-10.62-.31-21.24-.54-31.85-.07-2.84-.41-5.68-.62-8.51l-.12-2.86c-.51-10.3-.66-20.64-1.6-30.91-1.32-14.44-2.57-28.81,1.53-43l.24-1c2.36.28,4.21-.18,4.91-2.88.11-.45,1.23-.64,1.88-1,.3.87.65,1.74.89,2.63.79,2.93,2.35,5.14,5.49,6.18a37.9,37.9,0,0,0,16.36-10.71,5.83,5.83,0,0,1,1,1.53,6.45,6.45,0,0,0,5.86,5.26c-5.23,11.83-7.35,24.25-8,37.16-1.33,26-2.6,52-2.64,78a17.22,17.22,0,0,1-.19,1.9l-8.47.17-5.76-1c0-3.19,0-6.38.14-9.56.13-4.27.33-8.54.5-12.81a34,34,0,0,0,1.27-5.44c.49-7.11.82-14.23,1.18-21.35.82-16,2.61-32,.57-48.06-.4-3.14.29-5.63,2.59-7.73a40.68,40.68,0,0,1,4.26,2.6c2.74,2.14,3.17,2.08,5-1.34l2.89-3.81c2.46-1.77,2.87-4.42,3.12-7.14-1.78,2-3.19,4.16-3.35,6.91-2.08.44-2.41,2.2-2.89,3.84-1.3,1.07-2.37.94-3.66-.24a48.34,48.34,0,0,0-4.77-3.46l-.11-.1-.84-.85-.12-.11-.87-.84-3.67-2.33-5,3.65a14.23,14.23,0,0,0,1,3.44c1.7,2.76,1.22,5.3-.1,8.05A23.14,23.14,0,0,0,666.91,142q.66,29.4,1.15,58.81a11.54,11.54,0,0,0,2.16,7.16,26.39,26.39,0,0,1,.87,4.51c.09,5.18,0,10.36,0,15.55l-2.89,1Zm1.74-106.56c1-.51,1.79-.77,1.77-.9-.48-2.9-1-5.79-1.77-9.59Zm12.39,90.78-1-1.08c-.3.29-.82.55-.84.86s.42.69.66,1Zm-1,8.43c-.23.16-.6.3-.64.49s.2.52.32.78l.91-.72Z"/><path class="cls-2" d="M649.92,488.92c0,4.32.11,8.64,0,12.95a4.75,4.75,0,0,0,2.94,4.89,30.64,30.64,0,0,1,13.88,14.63c6.47,14-1.12,31.89-12.48,36.44-.18-1.28-.39-2.44-.49-3.6-.28-3.16-.56-6.32-.74-9.48-.23-4.11-3-6.64-5.8-9-3.32-2.72-11.57-2.57-14.93.1-4.1,3.26-6.47,7.4-6.36,12.78.07,2.86,0,5.72,0,8.73-2.49.44-3.8-.89-5.19-2.15-15.71-14.28-12.6-37.66,5-47.87,3.18-1.84,4.1-3.77,4-7.14-.15-6.39.08-12.78.16-19.17l1.72,1.17-.05-.06c.42.83.63,1.93,1.29,2.45,2.89,2.26,6,4.21,9.84,4.23C645.16,488.86,647.54,488.9,649.92,488.92Z"/><path class="cls-2" d="M425.32,471.79c-.65,2.58-1.45,5.13-1.92,7.74-.64,3.57.91,6.8,1.93,10.1-1.76.07-3.51.21-5.26.21q-57.06,0-114.12,0c-2.31,0-5,1-6.86-1-2.21-2.36-1.94-5.63-2.23-8.62a9.3,9.3,0,0,1,.35-2.36c1-6,1.23-6.26,7.29-6.26h116C422.13,471.6,423.73,471.72,425.32,471.79Z"/><path class="cls-2" d="M700.6,459.79c1,1.7,2.72,1.27,4.24,1.28,5,0,10.06,0,15.08,0,1.72,0,3.44.2,5.16.31L721.89,465l.05-.05c-1.53.88-2.86,1.92-2.92,3.9l.05-.06-1,1,.05-.07c-2.14,2.36-2.73,5.27-2.81,8.3-.1,3.32-.06,6.64-.09,10l-62.56-.06a10.85,10.85,0,0,0-2.6-.76c-2.37-.11-4.74-.13-7.11,0a10.21,10.21,0,0,1-8.15-3.05,15,15,0,0,0-3.13-1.9l.05.06q-1-3.87-2-7.76A13.73,13.73,0,0,1,634.35,464a11.36,11.36,0,0,0,1.43-2.33,37.89,37.89,0,0,0,15-1c4.54-1.27,9.19-2.19,13.83-3.27l1.5,3.28,5,.49L667,466.63c-1.14,2.29.53,3.31,2.13,3.81a13.48,13.48,0,0,0,5.14.46,22.29,22.29,0,0,0,17-9.83l-.07.07C694.57,462.41,697.54,460.8,700.6,459.79Zm-58,18.4a3.87,3.87,0,0,0,3.46-3.3c.18-1.82-1.51-3.94-3.21-4-1.5-.08-3.29,1.63-3.47,3.31A3.93,3.93,0,0,0,642.61,478.19Z"/><path class="cls-7" d="M351.58,279.81l3.12-10.11a73.48,73.48,0,0,0,25.87-9.15c9.5-5.32,14.53-13.16,14.16-24.13-.25-7.31-.77-14.61-1.17-21.91l0-1,0,0,1-1.24,11.4,2.52c.33,11.8,1.1,23.6.85,35.38-.24,11.61-1.5,23.21-2.35,34.81-.11,1.53,0,3.36-2.27,3.57-2.69-.06-5.39-.21-8.09-.16a101,101,0,0,1-20.31-1.81,21.68,21.68,0,0,0-3.33-.12,3.05,3.05,0,0,0-.8,0,5.64,5.64,0,0,0-1.64-.83C362.2,284.73,357,281.88,351.58,279.81Z"/><path class="cls-9" d="M425.32,471.79c-1.59-.07-3.19-.19-4.78-.19h-116c-6.06,0-6.32.23-7.29,6.26a9.3,9.3,0,0,0-.35,2.36c.29,3,0,6.26,2.23,8.62,1.85,2,4.55,1,6.86,1q57.06.09,114.12,0c1.75,0,3.5-.14,5.26-.21.91.22,2.2.16,2.66.75a4.75,4.75,0,0,1,1,3.34c-.14.78-1.41,1.47-2.3,2a4.12,4.12,0,0,1-1.88.17l-49.37-.13-16.42,0h-6.67l-57.6-.07c-5.67-7.43-5.57-15.69-3.22-24.14,1.44-5.19,2.77-6,8.23-6l41.21,0,2.61.27c6,.06,12,.14,17.93.14a8,8,0,0,0,2.2-.65l17.33-.05a42.91,42.91,0,0,0,4.62.59c4.88.1,9.77.09,14.65.11l10.69,0,16.26-.25a2.92,2.92,0,0,1,1.93,3.68C428.77,471.4,427,471.61,425.32,471.79Z"/><path class="cls-13" d="M209.31,131.11a40.44,40.44,0,0,1-1.48,6.44,10,10,0,0,1-7.18,6.39c-9.52,2.28-17.25-1.66-22.28-9.7a10.67,10.67,0,0,1-.78-3.18c1.07-1.87,2.66.2,3.88-.5.24.73.26,1.75.76,2.12,4.41,3.33,9.27,5.49,15,5a8.41,8.41,0,0,0,7.66-6.08c-.42-.3-.56-.48-.67-.46-.44.06-1.12.05-1.26.31-2.13,4-5.7,3.91-9.49,3.72a14.59,14.59,0,0,1-8.72-3.19,30.76,30.76,0,0,0-3.22-2c.53-4.73,1.11-9.46,1.56-14.2a10.61,10.61,0,0,0-.51-2.77c.23-1.73.47-3.47.7-5.2-.05-1.24.51-2.87-1.73-2.71-.62-1-1.17-2.14-1.87-3.13-2.44-3.44-2.44-6.37.39-9.62l4.39,3.83a30,30,0,0,0,0-3.86,7.53,7.53,0,0,1,3.23-7.5,30.82,30.82,0,0,1,5.25-3.25c2.83-1.39,5.77-2.55,8.55-3.76L207.38,80c3.85,1.47,6.47,3.89,6.89,8.29.11,1.16.93,2.26,1.42,3.38A42.29,42.29,0,0,0,214,103c-.07,6.3-3.18,11.21-7.71,15.33-1,1-2.23,1.77-3.49,2.75.17,2.75.35,5.55.52,8.4ZM196.73,109l1.15,1.71c-.18.24-.55.56-.49.71.88,2.42,2.92,2.46,5,2.36s3.09-1.29,3-3.37l0-1.32c0-.38.12-1,0-1.1C202.28,106.54,199.32,106.23,196.73,109Zm1.32-18.55c-1.82-2.9-3-2.91-6.71,0ZM196,93.09c-.82,1-1.64,1.58-1.61,2.09,0,.75.7,1.46,1.1,2.19.52-.45,1.44-.86,1.49-1.35C197,95.28,196.47,94.48,196,93.09Zm16.69,2.42-2.1-1.75c-.42.6-1.26,1.29-1.15,1.78.15.7,1,1.25,1.54,1.86Zm-5.83-5.07h5.48C209.43,88.4,209.42,88.42,206.82,90.44Z"/><path class="cls-14" d="M406,214.79l-11.4-2.52c-.05-.57-.11-1.14-.16-1.71l5.94-16.12,1.22-.16c6,2.1,11.91,5,18.11,6.08,6,1.09,12.41.41,18.63.48,7.51.09,15,.21,22.53.2a11.49,11.49,0,0,0,4.58-.87c3.63-1.62,7.15-3.48,10.68-5.3,2.67-1.39,5.3-2.87,8.2-4.44,2,4-2.29,4.86-3.72,7.45,4,.72,7.82,1.37,11.63,2.12a17.09,17.09,0,0,1,3.56,1.24,9.06,9.06,0,0,1-.42,1.76h-5.77l-.08.66,4.83,1.11,3.62,1.75-.18,1.06-5.69.57,4.13,2.72c-2.23,2-4.73.41-7,1.1l1.5,1.83c-1.61,1.42-3.4.83-5,.54-5.31-1-10.56-2.43-15.9-3.23a36.36,36.36,0,0,0-9.94-.07c-10.27,1.32-20.54,2.71-30.73,4.54A53.16,53.16,0,0,1,406,214.79Z"/><path class="cls-15" d="M366.87,163.66A24.42,24.42,0,0,1,351.74,152a7.53,7.53,0,0,0-2.88-2.21c-3.73-2.14-4.17-3.56-2.09-7.94-1-1.72-3.18-3.35-2.08-5.78.52-1.13,1.82-1.91,2.93-3-1.17-5.48-.41-6.55,5.86-7.8,1-5.56,2.26-6.37,7.42-5.08,1.13-1.48,1.94-3.41,3.35-4.09s3.25.1,5.56.28c.89-.45,2.54-1.94,4.16-1.91s3.2,1.59,5,2.59c1.12-1.16,2.43-2.84,4.87-1.94,2.68,1,2.84,3.14,2.49,5.44,2.24.36,4.86-.92,6,2,1.05,2.74.27,5-2,6.77a2.55,2.55,0,0,0-.5.78c-2.45,1.07-5,2-7.34,3.24a5.83,5.83,0,0,0-3.34,5.85c.25,3.3.54,6.6.72,9.9,0,.52-.42,1.06-.75,1.81-1.39-1-2.47-1.9-3.67-2.6-1.86-1.06-3.44-.74-4.61.81a3.09,3.09,0,0,0-.19,4c1.75,2.38.91,4.49-.53,6.54C369.06,161,367.93,162.29,366.87,163.66Z"/><path class="cls-13" d="M168.86,377.66l22.27,1q-2,22.83-4,45.65c-.41,4.76-.27,9.61-1.14,14.27-1.05,5.61,1.25,9.58,4.91,13.2,1.69,1.68,3.55,3.19,5.34,4.77a10,10,0,0,1-11.63,1.89,18.06,18.06,0,0,1-10.1-11.83c1.8-5.59-.36-11-1-16.4-1.11-10.24-2.65-20.43-3.61-30.68C169.21,392.26,169.18,385,168.86,377.66Z"/><path class="cls-16" d="M690.22,105.07a37.9,37.9,0,0,1-16.36,10.71c-3.14-1-4.7-3.25-5.49-6.18-.24-.89-.59-1.76-.89-2.63-.5-1.46-.61-3.26-1.56-4.29-4.22-4.58-5.42-10.27-6.44-16a24.68,24.68,0,0,1,1.19-13.5c2.7-.69,5.56,1.09,8.58-.46C667.4,69.37,664,71,661.18,69.8c1.37-2.66,2.53-5.07,3.83-7.39.78-1.39,2.11-2.14,3.64-1.36,4.3,2.17,8.89,2.22,13.53,2.21,5,0,8,3,9.61,7.3,1.32,3.41.61,6.94-.58,10.29-.79,2.23-1.83,4.37-2.88,6.85l2.71.93.85.75c-.47,1.45-.94,2.9-1.42,4.35a50.53,50.53,0,0,0-.8,5.82A43,43,0,0,0,690.22,105.07ZM674.53,93.18l-9-1.65C667.56,96.22,669.57,96.63,674.53,93.18Zm1.57-17.83c2.75,1.89,4.81,3.39,7.74,3.6C682.31,74.83,680.84,74.08,676.1,75.35Zm3,6.13c-.78-.73-1.21-1.36-1.79-1.58-.24-.09-1.18.76-1.15,1.12,0,.63.62,1.21,1,1.81Zm-15-2.48c.78-.83,1.5-1.26,1.46-1.6a5.88,5.88,0,0,0-.91-1.87c-.43.33-1.19.62-1.23,1A8,8,0,0,0,664.11,79Z"/><path class="cls-3" d="M39.31,465.81c9.36-.09,18.71-.22,28.06-.24,4.44,0,8.87.17,13.3.26,0,3.35,0,6.7,0,10.05,0,3.19.1,6.38,0,9.57s.65,6.63-.58,9.8H39.31Z"/><path class="cls-7" d="M824.54,465.39c-1.41.12-2.83.36-4.24.36q-13.41.06-26.82,0a39.6,39.6,0,0,1-4.69-.53c-3.8-4.32-4-6.27-1.21-10.91s5.74-9.5,8.84-14.09c2.76-4.08,4.34-8.39,4-13.36a14.57,14.57,0,0,1,.21-2.36l12.57.08c0,1.26.17,2.53.11,3.79a18.23,18.23,0,0,0,3.28,11.17c3.13,4.75,6.07,9.64,9.06,14.49S828.45,460.72,824.54,465.39Z"/><path class="cls-2" d="M705.77,574.51V554.92c3.41-1.47,6.93-.42,10.31-.78a11.91,11.91,0,0,0,3.08.88q14.36.11,28.71,0a9.48,9.48,0,0,0,2.62-.75l.31-.16h9.48c.08,7.16.12,13.74,0,20.32Z"/><path class="cls-14" d="M215.69,91.7c-.49-1.12-1.31-2.22-1.42-3.38-.42-4.4-3-6.82-6.89-8.29l-5.95-2.23c-2.78,1.21-5.72,2.37-8.55,3.76a30.82,30.82,0,0,0-5.25,3.25,7.53,7.53,0,0,0-3.23,7.5,30,30,0,0,1,0,3.86L180,92.34c-2.83,3.25-2.83,6.18-.39,9.62.7,1,1.25,2.08,1.87,3.13-.27.74-.55,1.49-.82,2.24l2.55.47c-.23,1.73-.47,3.47-.7,5.2-5.79-4-9.21-9.58-11-16.15-10.09-3.79-13.64-10.52-10.16-19,3.1-7.61,10.19-10.07,18.76-6.39,6.9-3.85,14.26-3.74,21.73-1.76a20.11,20.11,0,0,1,10.44,6.45C216.17,80.69,217.55,85.85,215.69,91.7Z"/><path class="cls-4" d="M276.38,547.48l23.13,0q.06,19.2.13,38.4l-2.15.24-21.17-.28Z"/><path class="cls-14" d="M366.87,163.66c1.06-1.37,2.19-2.7,3.18-4.11,1.44-2.05,2.28-4.16.53-6.54a3.09,3.09,0,0,1,.19-4c1.17-1.55,2.75-1.87,4.61-.81,1.2.7,2.28,1.61,3.67,2.6.33-.75.78-1.29.75-1.81-.18-3.3-.47-6.6-.72-9.9a5.83,5.83,0,0,1,3.34-5.85c2.36-1.25,4.89-2.17,7.34-3.24a10.85,10.85,0,0,1,4.8,9.38c-.13,4.52,1.12,7.74,5.54,9.37.38.14.59.71,1.08,1.35-2.44,2.07-2.78,4.66-2.39,7.86.69,5.63-1.26,7.77-6.94,8.68-1.86.3-3.76.34-6.15.54l-.82,6.3a61,61,0,0,1-6-.87c-4.41-1.07-8.77-2.33-13.15-3.51C366.08,167.31,366.47,165.49,366.87,163.66Zm22.91-21.17c.44,1.56-.54,3.84,2.13,4.43.52-3.14.52-3.14-2.17-4.39l3.87-3.35c-4.29.12-4.82.48-6.11,3.9Z"/><path class="cls-6" d="M359,495.71l16.42,0c-.14,1.74-.41,3.47-.42,5.2q0,20.09,0,40.16v5.12c-2.88,1.7-5.64.81-8.26.94s-5.09-.11-7.63-.18Z"/><path class="cls-15" d="M691,88.63l-2.71-.93c1-2.48,2.09-4.62,2.88-6.85,1.19-3.35,1.9-6.88.58-10.29-1.66-4.28-4.59-7.31-9.61-7.3-4.64,0-9.23,0-13.53-2.21-1.53-.78-2.86,0-3.64,1.36-1.3,2.32-2.46,4.73-3.83,7.39,2.81,1.19,6.22-.43,8.07,2.88-3,1.55-5.88-.23-8.58.46-1.63-4.64-1.33-9.44-1.07-14.22.13-2.35,1.18-4.49,3.43-5.36a4.12,4.12,0,0,0,2.61-3c1.69-4.6,6.13-6.28,10.42-3.91,1.85,1,3.38,2.18,5.59.92a3.07,3.07,0,0,1,2.34.05c6.17,2.48,12.77,4.34,16.64,10.46a22.15,22.15,0,0,1,2.51,19.14L702.57,79c-4.13-1.83-5.62-1.47-7.65,2.11C693.54,83.6,692.33,86.13,691,88.63ZM690.09,57a9.65,9.65,0,0,1-6.69,2.12c-2.24-.14-4.45.07-6.21,2.27a58,58,0,0,0,7.61-.6c2.19-.45,5-.31,5.62-3.5.2-.38.42-.76.59-1.16,0-.06-.21-.21-.32-.32ZM673.3,49.34a7.07,7.07,0,0,1-2.64,6.2c-1.31,1.07-2.21,3.09-.55,4.72a36.81,36.81,0,0,1,3.27-5C675.18,53.29,675.33,51.48,673.3,49.34Zm8.88-.22c-.93,3.77-1,3.72-4.91,6.42-1.9,1.3-3.79,2.74-3.21,5.27a61.55,61.55,0,0,1,5.74-4.7C682.5,54.38,683.21,52.23,682.18,49.12Z"/><path class="cls-11" d="M297.49,586.08l2.15-.24c4.43,0,8.86,0,13.29.17a21.27,21.27,0,0,1,3.56.68l-14.49.24c-1.07,6.68-.75,39.53.43,43h14.16a8.43,8.43,0,0,1-2.48.86q-39.47,0-78.94,0a5.4,5.4,0,0,1-.94-.19,40.66,40.66,0,0,1,5.12-.63c13.91-.05,27.81,0,41.72,0h5.6c.7-4.93.28-9.53.35-14.09.08-4.79,0-9.58,0-14.38V587.09c2-.12,3.69-.17,5.36-.33S295.79,586.31,297.49,586.08Z"/><path class="cls-3" d="M88.3,465.85h23.41l.27.3c.11.12.3.24.3.36q0,14.1,0,28.18a16.61,16.61,0,0,1-3.63.9c-5.89.09-11.78.05-17.67,0A15.78,15.78,0,0,1,88.3,495Z"/><path class="cls-7" d="M853.83,418.57l-6.86.22,5.24-.68c-1.37-2.61-3.15-2-4.72-2.14,0,.1,0-.15,0-.15,1.36,0,2.72,0,4.54,0,.17-2.45.32-4.58.49-7-3.16-.72-6.52-.66-8.66-3.38a9,9,0,0,1-1.94-6.67c4.16-.84,7.66.24,10.45,4.42v-5.06l-6.55-1.34c-2.59-2.15-4.21-4.73-3.87-8.46,4.2-1.41,7.36.27,10.37,3.72v-4.7c-5.87-.72-10.85-2.56-10.27-9.92,2.72-1.34,4.92,0,7.2.49a.62.62,0,0,0,.4.59l2.49,3.36c.88-2.09.39-3.37-1.2-4.28a1.18,1.18,0,0,0-.55-.51c-2.15-6.1-1.74-7.92,2.73-11.77,4.8,3.78,5.21,8.24,1.68,13.52,3.22-1,5.84-2.73,8.9-1.74.94,6.33-1.13,8.57-9.62,10.32v4c3-2.65,6-4.31,9.7-3.33.66,6.54-1.41,8.69-9.77,10.15v3.48c1.71-1.05,3-2.2,4.57-2.73a24.16,24.16,0,0,1,5-.65c.88,5.74-.37,7.61-6.42,10.09-1.1.23-2.67-1.07-3.22,1,0,.59,0,1.18.07,1.77Z"/><path class="cls-7" d="M316.59,630H302.43c-1.18-3.49-1.5-36.34-.43-43l14.49-.24a19.24,19.24,0,0,1,.45,2.77q0,19.08,0,38.16A15.62,15.62,0,0,1,316.59,630Z"/><path class="cls-16" d="M519.36,205.72h-6.52c1.72-3.46,5.14-3.58,7.86-4.76s5.47-2.17,9-3.55c-3.16-1.86-7.16-.07-8.5-4.51,1.72-.2,3.2-.33,4.68-.55,7.73-1.17,15.24-.71,22.31,3a17.83,17.83,0,0,1,1.45,4c.31,2.72,2.06,5.4.48,8.24-1.92.69-3.87,1.31-5.75,2.08-6,2.47-12,5-18,7.47a10.5,10.5,0,0,1-3.21.79c-1.21.09-1.64-.7-1.38-1.86l1.35-.74,1-.83,1.25-.35-.46-.46-.78.82-1,0-2.09.72-5.45.82c-.2-2.47,1.77-2.66,2.73-3.66l2.86-1.79,2.88-1c.41-.11.83-.22.17,0,.49-.42.18-.16-.12.1l-2.88.95-2.91.64-6,.76c1.24-4,4.67-4,7-5.57l4.87-1.84-.32-.82Z"/><path class="cls-6" d="M317.8,209c-1.92,8.61-4,17.19-5.73,25.85-1.51,7.73-2.62,15.53-3.77,23.32a47.08,47.08,0,0,0-.14,6.18c-7.31-.26-9.63-2.57-9.83-9.83a26.68,26.68,0,0,1,.09-4.29c.92-6.75,1.92-13.5,2.9-20.25l3.06-13.66a8.39,8.39,0,0,0,1.16-1.39c2.09-4,5.58-5.69,9.93-5.89C316.25,209,317,209,317.8,209Z"/><path class="cls-3" d="M805.12,492.84l13.81-.06,0,43.16-.16-.24-.27.1-12.8,0-.31-.08-.22.22Q805.13,514.41,805.12,492.84Z"/><path class="cls-4" d="M88.3,465.85V495a15.78,15.78,0,0,0,2.64.58c5.89,0,11.78.08,17.67,0a16.61,16.61,0,0,0,3.63-.9,1.18,1.18,0,0,1,.21.89,36.11,36.11,0,0,1-5.11.72c-16.29.06-32.58,0-48.86,0-1.75,0-3.51.14-5.26.22l-17.73-.07-4.73-.79q0-15,0-29.92l8.53,0v29.44H80c1.23-3.17.44-6.53.58-9.8s0-6.38,0-9.57c0-3.35,0-6.7,0-10.05Z"/><path class="cls-17" d="M174.46,446.59a18.06,18.06,0,0,0,10.1,11.83,10,10,0,0,0,11.63-1.89l5.63,2.89a44.67,44.67,0,0,0-.66-5.25,10.25,10.25,0,0,1,1.15-8.18,22.94,22.94,0,0,0,5.86,9.64c4.08,4.17,9.61,4.66,14.63,1.42,3.63,1.82,7.63,3.29,7.74,8.83H245c-1.73-.07-3.46-.21-5.2-.22q-14.26,0-28.54,0-2.22-3.18-4.45-6.34l-.72.11.42,6.28-21.89,0c-1.56-2.48-2.83-5.21-6.26-6.64.16,2.5.29,4.55.42,6.6h-3.81l-24.77.19,0-.06h24.23c1-4.13-.57-7.58-1.06-11.09C172.88,451.84,172.76,449.13,174.46,446.59Z"/><path class="cls-7" d="M135.34,495.68l-14.42-.06V465.89h14.53Q135.4,480.79,135.34,495.68Z"/><path class="cls-11" d="M135.34,495.68q.06-14.9.11-29.79l14.67,0,0,.06c-.13,1.4-.37,2.8-.37,4.21,0,8.51,0,17,0,25.55Z"/><path class="cls-6" d="M400.52,444.4c.15.06.34.07.44.18,5.67,6.5,13.42,9.09,21.35,11.3,2.22.62,4.27,1.34,4.52,4.1-5.07,0-10.14.06-15.21.2a33.87,33.87,0,0,0-4.54.76c-4.15.06-8.31.21-12.46.16s-8.22.53-12.56-.42v-4.92c.26-1.56.53-3.12.79-4.68a11.18,11.18,0,0,1,2.28.56c2.84,1.39,5.49,1,8.18-.47A19.07,19.07,0,0,0,400.52,444.4Z"/><path class="cls-9" d="M667,466.63l4.13-5.48,3.87-3.71,3.74-2.31,4.22,2.21.51-1-3.87-2,1.19-1.11,4.83,2.11c.33-.79.58-1.36.82-1.93a3.25,3.25,0,0,1,3.31,1.28c.91,1.14,2.25,1.06,3.36.06a2.33,2.33,0,0,0,.19-3.42c-.94-1.23-2-2.32-3.07-3.47-1-1.47-2.37-1.41-3.84-1.16a2.52,2.52,0,0,0-.07-.72l3.83-3.35c1.76.53,4.22.52,5.12,1.7,1.79,2.35,3.61,1.65,5.66,1.21,2.37,3.12,1.77,6.46.7,9.84-2.52.85-5.09,1.59-7.56,2.59-1.37.55-3.12,1.05-2.83,3.19l.07-.07c-1.42.94-2.92,1.78-4.23,2.84a22.55,22.55,0,0,1-13.61,5.1C670.92,469.11,668.67,468.61,667,466.63Z"/><path class="cls-18" d="M359,495.71,359.1,547h-6.84l.08-51.29Z"/><path class="cls-6" d="M345.62,172.39q-1.15,8-2.31,15.9c-.83,5.6-1.71,11.2-2.52,16.81-.75,5.15-1.32,10.32-2.19,15.44-.91,5.3-1.93,10.57-1.62,16l-4.83-.93c.6-6.13,1-12.29,1.83-18.38,1.51-11.11,3.25-22.19,4.94-33.28.62-4.06,1.36-8.1,2.05-12.15Z"/><path class="cls-9" d="M661.8,443.07a2,2,0,0,1,.69,0c.85.33,1.93.43,2.5,1,2,2.13,4.25,1.52,6.52.68.59-.21,1.17-.47,1.75-.71,2.21,3.61,2.33,7.46,1.37,11.44a46.78,46.78,0,0,0-16.42,1.63c-7.28,2.21-14.73,3.65-22.42,3.19-.54-2.86.54-5.07,3.14-6.17,4.59-2,9.3-3.65,14-5.45l.28.28.66,2.13.74-.21c-.17-.69-.35-1.37-.53-2.06l1.66-.21,3.07,6.88c3.73-2.35,4.09-2.84,3.09-5.75a34,34,0,0,0-2.61-4.9Z"/><path class="cls-14" d="M400.52,444.4a19.07,19.07,0,0,1-7.21,6.77c-2.69,1.46-5.34,1.86-8.18.47a11.18,11.18,0,0,0-2.28-.56c-.23-4.18-.55-8.35-.67-12.53-.06-1.84-1.49-1.64-2.52-2.1l18.55-1.12A17.57,17.57,0,0,0,400.52,444.4Z"/><path class="cls-7" d="M365.69,169.14c4.38,1.18,8.74,2.44,13.15,3.51a61,61,0,0,0,6,.87.31.31,0,0,1,.14.46,15.87,15.87,0,0,0-.9,3.54c0,2.19-1.38,2.46-3,2.51l0,0-2.6-.83-2.51-.46-9.21-1.65,0,0-1.88-.94,0,0-.73-.73-.29-.28Q364.72,172.12,365.69,169.14Z"/><path class="cls-2" d="M427.16,461l.09,3c-7.9.08-15.8.14-23.71.27a17.61,17.61,0,0,0-3.15.64l-18.52,0c.13-.89.27-1.78.46-3.08,7.26,0,14.28.11,21.3,0,6.38-.12,12.75-.49,19.12-.75Z"/><path class="cls-4" d="M635.79,460.3c7.69.46,15.14-1,22.42-3.19a46.78,46.78,0,0,1,16.42-1.63l.32,2-3.87,3.71-5-.49-1.5-3.28c-4.64,1.08-9.29,2-13.83,3.27a37.89,37.89,0,0,1-15,1C635.78,461.21,635.79,460.76,635.79,460.3Z"/><path class="cls-8" d="M705.77,574.51l54.47-.08.06,1.77-54.58-.1C705.73,575.57,705.75,575,705.77,574.51Z"/><path class="cls-4" d="M642.25,171.25c.26-1.54,1-3.16.7-4.61-1.14-6.35-.77-12.61,0-19,.51-4.19-.16-8.52-.3-12.89l1.47.25,3-10.1,1,.28c-.53,2.26-1.18,4.51-1.55,6.8-.87,5.31-1.94,10.63-2.31,16-.4,5.89-.21,11.82-.06,17.73.08,3.32.63,6.63.92,9.95.12,1.25-.28,2.22-1.72,2.37-.06-1.67,0-3.34-.22-5A5.73,5.73,0,0,0,642.25,171.25Z"/><path class="cls-4" d="M599,181c.21,1,.48,1.74,1.88,1.43a9.75,9.75,0,0,1,5,.12l-6.48,1.73,7.92,2.71-.18.7c-2.19-.32-4.36-.7-6.56-1-5.53-.63-10.65,1.57-16,2.4-8.3,1.31-16.48,3.52-25,3.3,4.83-.86,9.67-1.68,14.49-2.6,5.49-1,10.94-2.27,16.45-3.23A11.57,11.57,0,0,0,599,181Z"/><path class="cls-2" d="M813.15,424.57l-12.57-.08c0-2.19,0-4.38,0-6.56l12.47-.05Q813.12,421.23,813.15,424.57Z"/><path class="cls-7" d="M388.38,187.62l-4.65-5.94L386,177.3l2.48.81.21.21,2.68,2.67.2.21,2.19,2.59,3.58,4.92c.2,1.39-.56,1.83-1.79,1.82l-.09-.06-2.79-.9-.1-.06-2.79-.91-.07,0Z"/><path class="cls-2" d="M800.42,416a8.5,8.5,0,0,1-1.7-.68c-.35-.24-.5-.76-.74-1.16a3.81,3.81,0,0,1,3.86-2.91c3.3,0,6.62-.14,9.91.07a4.26,4.26,0,0,1,3,1.69c.79,1.28-.29,2.31-1.46,3Z"/><path class="cls-16" d="M691,88.63c1.29-2.5,2.5-5,3.88-7.48,2-3.58,3.52-3.94,7.65-2.11C703,84,700,86.75,696.31,89.15l-4.42.23Z"/><path class="cls-2" d="M853.83,418.57l.24-7.46c3.15.57,6.64-1,9.89,1.56l-3.14,4.48,8,1.55Z"/><path class="cls-2" d="M181.49,130a30.76,30.76,0,0,1,3.22,2,14.59,14.59,0,0,0,8.72,3.19c3.79.19,7.36.23,9.49-3.72.14-.26.82-.25,1.26-.31.11,0,.25.16.67.46a8.41,8.41,0,0,1-7.66,6.08c-5.69.53-10.55-1.63-15-5-.5-.37-.52-1.39-.76-2.12A.76.76,0,0,1,181.49,130Z"/><path class="cls-8" d="M750.49,554.27a9.48,9.48,0,0,1-2.62.75q-14.36.09-28.71,0a11.91,11.91,0,0,1-3.08-.88,5.07,5.07,0,0,0,.22-.76c10,0,20.07-.09,30.11,0A19.34,19.34,0,0,1,750.49,554.27Z"/><path class="cls-8" d="M715.2,488c0-3.33,0-6.65.09-10,.08-3,.67-5.94,2.81-8.3-1.48,6.75-1,13.61-1.11,20.44,0,1.25.75,3.08-1.57,3.34C715.35,491.63,715.28,489.79,715.2,488Z"/><path class="cls-17" d="M691.19,461.14c-.29-2.14,1.46-2.64,2.83-3.19,2.47-1,5-1.74,7.56-2.59-.33,1.47-.65,2.95-1,4.43C697.54,460.8,694.57,462.41,691.19,461.14Z"/><path class="cls-14" d="M659.26,444.84a34,34,0,0,1,2.61,4.9c1,2.91.64,3.4-3.09,5.75l-3.07-6.88,2.7-3.64A1.46,1.46,0,0,1,659.26,444.84Zm1,4.79h-.49v3.08h.49Z"/><path class="cls-8" d="M631.65,482.17a15,15,0,0,1,3.13,1.9,10.21,10.21,0,0,0,8.15,3.05c2.37-.11,4.74-.09,7.11,0a10.85,10.85,0,0,1,2.6.76l-2.72,1c-2.38,0-4.76-.06-7.14-.07-3.88,0-6.95-2-9.84-4.23C632.28,484.1,632.07,483,631.65,482.17Z"/><path class="cls-8" d="M550.13,207.57c1.58-2.84-.17-5.52-.48-8.24a17.83,17.83,0,0,0-1.45-4,1.88,1.88,0,0,1,2.09-1.93l3.67,0a.63.63,0,0,1,0,.78l-3.87.55c.82,4.49,1.59,8.65,2.38,12.91h4c.4,1,.81,2,1.21,2.92a6.53,6.53,0,0,1-1.16.39C555.18,208.4,551.07,210.9,550.13,207.57Z"/><path class="cls-4" d="M642.35,215.41c2.54,0,5.07,0,7.61,0,1.22,0,2.8-.15,2.66,1.77-.11,1.56-1.42,2-2.76,2-1.74.06-3.49,0-5.23,0l-2.38,0C642.28,218,642.32,216.7,642.35,215.41Z"/><path class="cls-5" d="M700.88,445.52c-2,.44-3.87,1.14-5.66-1.21-.9-1.18-3.36-1.17-5.12-1.7l-.06-1.23,10.8-.25C700.85,442.59,700.86,444.05,700.88,445.52Z"/><path class="cls-16" d="M400.39,464.93a17.61,17.61,0,0,1,3.15-.64c7.91-.13,15.81-.19,23.71-.27a2,2,0,0,1,0,.87c-4.27,0-8.54-.07-12.8,0a15.1,15.1,0,0,0-3.44.91l-10.69,0Z"/><path class="cls-12" d="M658.41,445l-2.7,3.64-1.66.21a1.27,1.27,0,0,0-.87.14l-.28-.28,1-1.07-3.39-2.6C653.43,442.34,655.92,444.17,658.41,445Z"/><path class="cls-7" d="M369.67,178.68c-2.53.85-5,1.76-7.6,2.52a4.94,4.94,0,0,1-1.93-.25l3.62-5.88.29.28.73.73,0,0,1.88.94,0,0Z"/><path class="cls-8" d="M800.42,416h12.84l-.16,1.9-12.47.05Z"/><path class="cls-2" d="M845.83,396.77l6.55,1.34v5.06c-2.79-4.18-6.29-5.26-10.45-4.42Z"/><path class="cls-8" d="M721.89,465l3.19-3.54c1.8-.32,3.58-.75,5.39-.89a10.14,10.14,0,0,1,2.9.6Z"/><path class="cls-17" d="M691.89,89.38l4.42-.23a10.6,10.6,0,0,1-5.84,4.58C691,92.28,691.42,90.83,691.89,89.38Z"/><path class="cls-9" d="M427.16,461l-4.41.12-15.67-.16a33.87,33.87,0,0,1,4.54-.76c5.07-.14,10.14-.15,15.21-.2Z"/><path class="cls-5" d="M388.5,178.11,386,177.3l-2.29,4.38L381.08,180c1.66-.05,3-.32,3-2.51A15.87,15.87,0,0,1,385,174Z"/><path class="cls-4" d="M704.68,114.55a59.31,59.31,0,0,1-.11,6.54c-.1.85-1.11,1.58-1.7,2.36l-.26-.21c1.82-3.16-.37-6.37.13-9.54Z"/><path class="cls-8" d="M411,465.84a15.1,15.1,0,0,1,3.44-.91c4.26-.11,8.53,0,12.8,0a1,1,0,0,1,0,.7Z"/><path class="cls-17" d="M395.57,190.53c1.23,0,2-.43,1.79-1.82,1.17,1.16,2.41,2.27,3.49,3.52a6.78,6.78,0,0,1,.78,2.05l-1.22.16c-.08-2.86-2.2-1.76-3.62-1.81Z"/><path class="cls-8" d="M629.74,474.47q1,3.88,2,7.76L630,481.06a33.86,33.86,0,0,1-.72-4.08A9.84,9.84,0,0,1,629.74,474.47Z"/><path class="cls-8" d="M494.39,204.77l-4.83-1.11.08-.66h5.77Z"/><path class="cls-2" d="M519.36,205.72l4.51-1.88.32.82-4.87,1.84A2.56,2.56,0,0,1,519.36,205.72Z"/><path class="cls-12" d="M432.13,0c.58.83,1.2,1.32,1.15,1.74s-.73.84-1.13,1.26c-.4-.42-1-.8-1.12-1.26S431.58.82,432.13,0Z"/><path class="cls-4" d="M656.57,115.59l-.84-2.84,2.24-.88a4.55,4.55,0,0,0,.8.23l-2.08,3.58Z"/><path class="cls-2" d="M865.83,421.77c.36-.31.68-.76,1.1-.88a21.74,21.74,0,0,1,2.68-.46C868.92,422.48,867.16,421.54,865.83,421.77Z"/><path class="cls-5" d="M391.39,181l-2.68-2.67Z"/><path class="cls-5" d="M393.78,183.79l-2.19-2.59Z"/><path class="cls-2" d="M854,409.34c.55-2,2.12-.74,3.22-1Z"/><path class="cls-2" d="M518.39,211.31l2.91-.64,0,0-2.86,1.79Z"/><path class="cls-8" d="M556.86,192.52l-2.85.89C554.58,191.92,555.74,192.28,556.86,192.52Z"/><path class="cls-12" d="M658.77,112.1a4.55,4.55,0,0,1-.8-.23l2.72-1.07-.24,1Z"/><path class="cls-2" d="M866.88,463.8l-1.12-.76Z"/><path class="cls-9" d="M955.37,516.2l4.54,2c-.33,1.65-.61,3-.84,4.23,1.51,3.62,4.34,3.54,7.57,2.86.67,1.51,1.3,2.91,2,4.48L965,532.59c-.93,3.31.08,5.54,3.32,7.06-.66,1.72-1.27,3.26-1.9,4.88l-4-.78c-2.37.59-3.54,3.08-3.56,7.68l-4,1.77-2.94-3.49c-3.38-1.28-5.55.21-7.1,3.3l-4.73-1.88.65-4.26c-.56-2.33-2.8-3.36-7.67-3.39-.53-1.2-1.1-2.5-1.77-4l3.6-3c.41-4.22.41-4.22-3.29-7.27.54-1.35,1.1-2.79,1.67-4.22,2.15-.85,4.27,1.42,6.44-.63s.79-4.19,1.21-6.6l4-1.77c2.12,1.11,2.24,4,5.26,4C952.87,520,953.52,518,955.37,516.2Zm2.91,18.65a8.24,8.24,0,0,0-8.34-8.5,8.34,8.34,0,0,0-8.24,8.16,8.29,8.29,0,0,0,16.58.34Z"/><path class="cls-10" d="M963.82,345.93l-.07,5c-.9,1.64-1.93,3.22-2.7,4.92-2.39,5.33-4.69,10.71-7.33,16.75-3.93-4.65-6.15-9.79-10.12-14.06l-9.93,14c-2.69-.34-5.09-.46-7.39-1a4.06,4.06,0,0,0-4.23,1.33c-2.25,2.25-4.61,4.39-6.92,6.57l-.43-21.28-.78,0v21.33c-.07,4.45-.15,8.91-.19,13.36,0,.9-.14,2,1.31,2l48.8,0c0,2.22,0,4.44,0,6.66H907c-.1-1.1-.3-2.19-.3-3.29q0-24.74,0-49.48c0-.94.16-1.88.25-2.83Z"/><path class="cls-8" d="M990.59,415.26a12.67,12.67,0,0,1-3,2.38c-1.25.54-2.58-.94-2.59-2.55a2.57,2.57,0,0,1,2.48-2.85C989,412.06,990.48,413.16,990.59,415.26Z"/><path class="cls-10" d="M843.14,463l0-41.22c1.78-.11,2.71.62,2.59,2.5,0,.8,0,1.6,0,2.4-.09,4-.22,7.93-.26,11.9,0,4.61-.11,9.23.08,13.84a7.06,7.06,0,0,0,6.16,6.81c4.18.56,7.3-1.26,8.5-5.18a16.42,16.42,0,0,0,.62-4.69c0-7.47,0-15,0-22.42.07-1.09.21-2.18.2-3.27,0-1.58.86-1.33,1.82-1q0,20.15,0,40.3l-1.72.82H844.78Z"/><path class="cls-2" d="M862.9,422.7c-1-.37-1.83-.62-1.82,1,0,1.09-.13,2.18-.2,3.27l-6.91-.34c0-1.85,0-3.7,0-5.56l7.53-.13C862.76,420.88,863.14,421.56,862.9,422.7Z"/><path class="cls-2" d="M845.81,426.67c0-.8-.09-1.6,0-2.4.12-1.88-.81-2.61-2.59-2.5a18.9,18.9,0,0,1,3.32-.81c1.89-.12,3.79,0,5.69,0,0,1.86.09,3.73.14,5.6Z"/><path class="cls-11" d="M852.33,426.6c-.05-1.87-.09-3.74-.14-5.6l1.79,0c0,1.86,0,3.71,0,5.56Z"/><path class="cls-2" d="M861.14,463.82l1.72-.82Z"/><path class="cls-2" d="M843.14,463l1.64.83Z"/><path class="cls-2" d="M963.82,345.93,907,346V331.32l56.72-.15c.06,1.41.12,2.82.17,4.23Zm-46.75-5.14c.37-.52,1.36-1.3,1.45-2.17a1.89,1.89,0,0,0-2.36-2.15,3.56,3.56,0,0,0-2,2.11C913.76,339.66,915.31,340.94,917.07,340.79ZM938,339.32c-.06-2-.8-3.09-2.23-2.86a3.13,3.13,0,0,0-2.1,2,1.9,1.9,0,0,0,2.14,2.35C936.68,340.68,937.45,339.73,938,339.32Zm-11.72-3.78c-.91,1.48-1.74,2.27-1.86,3.16-.19,1.3.85,2,2.09,2a1.78,1.78,0,0,0,1.89-2.19C928.22,337.62,927.33,336.92,926.3,335.54Z"/><path class="cls-9" d="M52.64,547.28l47,.14H105c1.27,4.43.49,8.58.63,12.66s0,8.3,0,12.46V585.4l4.79.28v-37.9h5.68c.23,12.48,0,24.87.16,37.66l5.33.37c.63-4.4.24-8.52.31-12.6s0-8.31,0-12.46v-13c2.6-.11,4.92-.26,7.24-.3s4.79,0,7.19,0c0,2.4,0,4.79.06,7.19l.21,31.16-1.48.81c-11.18-.05-22.36-.14-33.54-.13q-45.54,0-91.09.08c-2.39,0-4.77-.09-7.16-.14l-1.39-.68q0-19.08,0-38.16l5.68,0,.13,38.12,4.75-.41V547.58c6-.07,11.93-.11,17.9-.23,1.71,0,3.41-.31,5.11-.48Z"/><path class="cls-2" d="M144,621.21c-1.75.08-3.51.22-5.26.22q-62.62,0-125.24,0c-5.5,0-6.58-.87-7.76-6.19a31.31,31.31,0,0,1,0-13.79C7,596.12,8,595.2,13.52,595.2q50.63,0,101.25,0,13.19,0,26.39,0a27,27,0,0,1,2.84.28c-1,3.81-2.18,7.58-2.81,11.44C140.38,612,142.31,616.6,144,621.21Z"/><path class="cls-4" d="M145.25,547.46l23.68,0a170.8,170.8,0,0,0,0,38.42l-6.77.1-13.45-.1-3.66.14-.14-.16c.06-1.74.14-3.47.15-5.21Q145.2,564.06,145.25,547.46Z"/><path class="cls-1" d="M148.76,585.86l13.45.1q.09,19.1.19,38.18c0,2.07,0,4.14,0,6.21l-10.71.42-3.45,0c.16-.27.34-.53.47-.8,2.7-5.49,1.31-8.07-4.68-8.72-1.71-4.61-3.64-9.26-2.83-14.29.63-3.86,1.85-7.63,2.81-11.44.62-.05,1.24-.06,1.84-.17,3.25-.59,4.25-1.76,4-5A30,30,0,0,0,148.76,585.86Z"/><path class="cls-4" d="M135.12,586.61l1.48-.81,8.36,0,.14.16C141.86,587.58,138.46,586.57,135.12,586.61Z"/><path class="cls-9" d="M963.73,369q0,12.48,0,25h-8.12L915,393.79c0-2.22.09-4.45.13-6.68,1.36-.83,2.71-1.67,4.08-2.48,3-1.78,6-3.11,9.45-1.39.69.34,1.61.19,2.31.53,1.74.84,3,.29,4.26-1q3-3.12,6.08-6.12c2.71-2.62,3-2.57,5.86.06,2,1.79,3.52,4.19,6.74,4.55.59-.87,1.24-1.75,1.79-2.69,1.44-2.48,2.92-4.94,4.21-7.49A3.39,3.39,0,0,1,963.73,369Z"/><path class="cls-6" d="M963.73,369a3.39,3.39,0,0,0-3.87,2.06c-1.29,2.55-2.77,5-4.21,7.49-.55.94-1.2,1.82-1.79,2.69-3.22-.36-4.78-2.76-6.74-4.55-2.87-2.63-3.15-2.68-5.86-.06q-3.1,3-6.08,6.12c-1.23,1.29-2.52,1.84-4.26,1-.7-.34-1.62-.19-2.31-.53-3.5-1.72-6.5-.39-9.45,1.39-1.37.81-2.72,1.65-4.08,2.48l-.26-7.43.31-.23c2.31-2.18,4.67-4.32,6.92-6.57a4.06,4.06,0,0,1,4.23-1.33c2.3.53,4.7.65,7.39,1l9.93-14c4,4.27,6.19,9.41,10.12,14.06,2.64-6,4.94-11.42,7.33-16.75.77-1.7,1.8-3.28,2.7-4.92Z"/><path class="cls-6" d="M996.74,394.45l-13.67,0c.12-6,.25-12.05.38-18.33h12.8C996.41,382.18,996.58,388.32,996.74,394.45Z"/><path class="cls-12" d="M988.8,372c.23-1.38.56-2.58-.84-3.82-2.91-2.59-2.8-3.4.07-5.78.6-.49,1.27-.89,1.91-1.33,1.14,1.5,3.85,1.69,3.57,4.73l-2.38-1.46c-.66,1.37-.65,2.49.72,3.27.93.53,1.13,1.06.91,2.25-.51,2.83-.35,2.86-2.87,4.82l-2.07-1.81Zm-.6-5.14,1-.28-.66-2.7-1,.27Z"/><path class="cls-14" d="M915,393.79l40.62.17h8.12l.15,1-48.8,0Z"/><path class="cls-19" d="M988.8,372l-1,.87a1.9,1.9,0,0,1-1.52-2.74Z"/><path class="cls-1" d="M992.82,576.28a12.69,12.69,0,0,1-12.74,12.84,13,13,0,0,1-13.23-13,13.37,13.37,0,0,1,13.36-13A13,13,0,0,1,992.82,576.28Z"/><path class="cls-1" d="M52.64,547.28l-17.15-.41V496.49l17.73.07c-4.12,3.51-5.74,8.38-6.78,13.39a53.81,53.81,0,0,0,.44,24.63A24.84,24.84,0,0,0,52,545.22C52.45,545.71,52.45,546.58,52.64,547.28Z"/><path class="cls-11" d="M4.79,496h5.78a15.53,15.53,0,0,1,.92,3.62c0,14.86,0,29.72,0,44.58a13.66,13.66,0,0,1-.31,1.86h-7c-.11-1.47-.3-2.86-.3-4.25,0-13.59,0-27.17,0-40.76A29,29,0,0,1,4.79,496Z"/><path class="cls-6" d="M12.48,547.58v37.76l-4.75.41L7.6,547.63Z"/><path class="cls-4" d="M995.93,327.81c-1.41.92-2.26,1.91-3,1.84a3.1,3.1,0,0,1-2.11-1.86,1.81,1.81,0,0,1,2.26-2.15C993.93,325.88,994.61,326.76,995.93,327.81Z"/><path class="cls-17" d="M976.51,328.32c-1.63.66-2.52,1.32-3.39,1.3-1.33,0-1.78-1.1-1.57-2.36a1.71,1.71,0,0,1,2.4-1.51C974.75,326.06,975.3,327.06,976.51,328.32Z"/><path class="cls-17" d="M986.65,327.42c-1.35,1.07-2,2-2.9,2.22a1.69,1.69,0,0,1-2.22-1.76,3,3,0,0,1,1.89-2.12C984.18,325.62,985.13,326.58,986.65,327.42Z"/><path class="cls-1" d="M245,465.88H230.54c-.11-5.54-4.11-7-7.74-8.83-1-1-2-2.07-3.05-3-3.46-3-5.25-6.55-4.87-11.31.61-7.6.82-15.23,1.29-22.84.24-4,.69-7.91,1.05-11.86q1.36-15.18,2.74-30.35l10.14-1.64c.36-3,.78-6,1.06-9,1.6-17.66,3.56-35.3,4.63-53,.92-15.15,1.08-30.35,1.08-45.53,0-10.74-2.58-21.21-4.92-31.66-1.15-5.14-2.17-10.31-3.4-15.43a32.79,32.79,0,0,1-.24-15.66,18.11,18.11,0,0,0,.27-2.86l3.87-11.36c.87,1.08,1.81,2.12,2.6,3.26,3.74,5.34,7.42,10.73,11.14,16.08A23.5,23.5,0,0,0,260,220.58c10,2.55,20,4.94,30.1,7.29,3.71.87,7.49,1.42,11.25,2.12-1,6.75-2,13.5-2.9,20.25a26.68,26.68,0,0,0-.09,4.29c.2,7.26,2.52,9.57,9.83,9.83.28,2.69.47,5.39.88,8.06a11.13,11.13,0,0,0,7.9,9.32,15.82,15.82,0,0,0,3.68.95c6.18.62,12.36,1.3,18.55,1.63a15.53,15.53,0,0,0,12.11-4.66c.3,24.75-1,49.45-2,74.16a16.66,16.66,0,0,1-1.56,5.88c-2.09,4.66-4.48,9.17-6.64,13.8-3.12,6.67-5.6,13.51-6.47,20.93-1.33,11.4-2.92,22.78-4.49,34.17-.28,2.1,0,3.7,2.12,4.58-1.28,3.21-2.46,6.44-5.16,8.87a10.91,10.91,0,0,0-1.66,2.8,27.38,27.38,0,0,0-4.61,11.1l9.08,3.85,1.39,1.22,9.67,4.45-41.21,0c-5.46,0-6.79.79-8.23,6-2.35,8.45-2.45,16.71,3.22,24.14H275.28V465.91H245.8A.68.68,0,0,0,245,465.88Z"/><path class="cls-13" d="M220,377.69q-1.36,15.17-2.74,30.35c-.36,3.95-.81,7.9-1.05,11.86-.47,7.61-.68,15.24-1.29,22.84-.38,4.76,1.41,8.31,4.87,11.31,1.08.93,2,2,3.05,3-5,3.24-10.55,2.75-14.63-1.42a22.94,22.94,0,0,1-5.86-9.64c1.32-4.1.25-8.18-.17-12.25-1.09-10.58-2.41-21.15-3.31-31.75-.66-7.76-.79-15.56-1.17-23.35Z"/><path class="cls-3" d="M226.33,206c-.6,8.92-1.18,17.83-1.8,26.75-.11,1.68-.34,3.35-.55,5.42l-49.36-4.45c-1.44-2.89-1.44-2.89-.66-10.2,1-.4,2.14-.88,3.3-1.3,4-1.49,8.14-2.85,12.12-4.48,5.61-2.28,11.14-4.73,16.67-7.19.62-.28,1-1.1,1.48-1.67Z"/><path class="cls-3" d="M228.17,172.19q-.42,9.59-.82,19.17l-5.57,1.11c1-1.78,2.93-2.65,1.74-4.75L217,189.5v-8.28c-10.34-2-20.34-2.81-30.67-4.07-.17,6-.41,11.33,0,16.79,5.37.49,10.26.91,15.14,1.4,2.69.27,5.36.66,8,1-1,2.4-3.36,1.53-5.09,2.17H175.38a12,12,0,0,1-.36-2.14c.55-10.17,1.15-20.35,1.68-30.52.11-2,.32-3.61,2.94-3.05a3,3,0,0,0,0,1c.18,2.6,2.24,1.6,3.62,1.88,3,.49,5.89,1.07,8.85,1.44,11.45,1.41,22.91,2.75,34.36,4.11Z"/><path class="cls-1" d="M197.66,378.64c.38,7.79.51,15.59,1.17,23.35.9,10.6,2.22,21.17,3.31,31.75.42,4.07,1.49,8.15.17,12.25a10.25,10.25,0,0,0-1.15,8.18,44.67,44.67,0,0,1,.66,5.25l-5.63-2.89c-1.79-1.58-3.65-3.09-5.34-4.77-3.66-3.62-6-7.59-4.91-13.2.87-4.66.73-9.51,1.14-14.27q2-22.83,4-45.65Z"/><path class="cls-13" d="M217,189.5l6.48-1.78c1.19,2.1-.7,3-1.74,4.75l5.57-1.11,5.1.23L228.58,203l-2.25,3-18.8,2.88-3.09-10.37c1.73-.64,4.1.23,5.09-2.17Z"/><path class="cls-20" d="M228.17,172.19l-1.67-1c0-1.5-1-1.71-2.19-1.85-4.09-.47-8.16-1.06-12.25-1.55q-12.94-1.54-25.9-3.05l-6.49-1a3,3,0,0,1,0-1c6.79.7,13.59,1.35,20.38,2.12,7.42.84,14.84,1.8,22.25,2.72.95.12,1.9.22,2.83.42C228,168.64,228,168.65,228.17,172.19Z"/><path class="cls-1" d="M690,441.38l.06,1.23L686.27,446c-2.86.62-6.31-.49-8.84,3.13l5,2-.89,1.23-.77.85-1.19,1.11-.86.81L675,457.44l-.32-2c1-4,.84-7.83-1.37-11.44l0-1.63c1.37-.19,1.78-1,1.84-2.32.15-3.51.46-7,.61-10.51q2.07-48.06,4.1-96.13l1.68,2.05q3.06,52.61,6.13,105.32Z"/><path class="cls-16" d="M708.25,257.73l2.15-4.06c3.33,1.88,3.87,5.67,5.8,8.5-.86,2.67-1.72,5.35-2.77,8.64C710,266.6,709,262.19,708.25,257.73Z"/><path class="cls-6" d="M668.2,229.1l2.89-1,.44.07.44-.08,5.76,1-.06,5.25-8.58.11C668.79,232.67,668.5,230.88,668.2,229.1Z"/><path class="cls-9" d="M677.67,234.34l.06-5.25,8.47-.17.06,5.58Z"/><path class="cls-2" d="M716.2,262.17c-1.93-2.83-2.47-6.62-5.8-8.5.35-1.35.71-2.7,1.09-4.16a16.63,16.63,0,0,1,6.28,10.72Z"/><path class="cls-9" d="M668.2,229.1c.3,1.78.59,3.57.89,5.35h-7.4c0-1.84.07-3.69.11-5.53Z"/><path class="cls-17" d="M673.22,442.41l0,1.63c-.58.24-1.16.5-1.75.71-2.27.84-4.48,1.45-6.52-.68-.57-.59-1.65-.69-2.5-1,.63-.36,1.26-1,1.88-1C667.33,442.05,670.27,442.26,673.22,442.41Z"/><path class="cls-8" d="M681.45,335.5l-1.68-2.05v-11A27.1,27.1,0,0,1,681.45,335.5Z"/><path class="cls-1" d="M379.66,436.45c1,.46,2.46.26,2.52,2.1.12,4.18.44,8.35.67,12.53-.26,1.56-.53,3.12-.79,4.68-.26,3.07-.51,6.13-.76,9.2l-.27.22-17.33.05.08-.3-.39-2.89-.41-1a3.54,3.54,0,0,0-2.73-3.95,41.65,41.65,0,0,0-4.61-1.2,6.38,6.38,0,0,1-5.06-3.82c-1.65-3.44-3.44-6.81-5.18-10.2.49-1.81,1-3.62,1.46-5.43l3.21.82c3.92-11,7.75-21.91,11.69-32.78s7.9-21.49,12.71-32.17a28.44,28.44,0,0,1,.63,3.39c1.1,18.47,2.14,36.95,3.27,55.42C378.48,433,377.75,435.05,379.66,436.45Z"/><path class="cls-14" d="M346.86,436.48c-.49,1.81-1,3.62-1.46,5.43a16.18,16.18,0,0,1-8.54,3.75c-3.51.35-5.32-2.29-7.75-3.89l-3.58,4a2.8,2.8,0,0,0-.1-.91,10.91,10.91,0,0,1,1.66-2.8c2.7-2.43,3.88-5.66,5.16-8.87,3.52.74,7.05,1.45,10.56,2.21C344.17,435.69,345.51,436.11,346.86,436.48Z"/><path class="cls-4" d="M369.73,286.41a3.05,3.05,0,0,1,.8,0c-.13,3.57-.25,7.15-.4,11.3l8.11.21h0l-8.41,1.63c-2.75,15.38-3.56,31.48-6.89,47.3a37.81,37.81,0,0,1,0-4.88c1.16-8.78,2.52-17.53,3.63-26.31.83-6.6,1.37-13.24,2.07-19.85C369,292.7,369.37,289.55,369.73,286.41Z"/><path class="cls-4" d="M388.81,324.84c.08-2.07-.44-4.29,1.72-6.18a7.8,7.8,0,0,1-1.74,6.17Z"/><path class="cls-4" d="M387.08,333.66l-1.29,3.94-1-.29,1.13-4.1Z"/><path class="cls-4" d="M362.67,349.66v3.94h-.45v-3.94Z"/><path class="cls-4" d="M361,360.34V355.9c1.37,2,1.21,3.25,0,4.43Z"/><path class="cls-4" d="M395.53,298.93c.05-1,.1-2,.2-3.88.89,2,1,3-.22,3.87Z"/><path class="cls-4" d="M395.51,298.92l-1,3.84h0l1-3.84Z"/><path class="cls-4" d="M387.84,328.67l1-3.83h0l-1,3.84Z"/><path class="cls-4" d="M391,316.48v-1.55h.37v1.54Z"/><path class="cls-4" d="M355.2,378.57l-.15,2.18-.67-.19.82-2Z"/><path class="cls-4" d="M387.83,328.67l-.15,2.18-.67-.19c.28-.66.56-1.33.83-2Z"/><path class="cls-4" d="M353.28,385.29l.15-2.19.67.19-.82,2Z"/><path class="cls-4" d="M353.28,385.28l-.16,2.18-.67-.19c.28-.66.56-1.32.83-2Z"/><path class="cls-4" d="M384,342.11l.15-2.18.67.19-.84,2Z"/><path class="cls-4" d="M350.4,394.88l.16-2.18.67.19c-.28.66-.56,1.32-.83,2Z"/><path class="cls-4" d="M350.4,394.88c-.06.72-.11,1.45-.16,2.18l-.67-.19.83-2Z"/><path class="cls-4" d="M384,342.1c0,.73-.09,1.45-.14,2.18l-.67-.18.83-2Z"/><path class="cls-4" d="M381.13,351.7l1-2.87h0l-1,2.87Z"/><path class="cls-4" d="M348.48,401.6l.15-2.19.67.19-.82,2Z"/><path class="cls-4" d="M348.48,401.59l-1,2.88h0l1-2.88Z"/><path class="cls-4" d="M347.52,404.47l-.15,2.19-.68-.19c.28-.66.56-1.33.83-2Z"/><path class="cls-4" d="M345.6,411.2l.15-2.19.68.19c-.28.66-.56,1.32-.83,2Z"/><path class="cls-4" d="M380.17,354.58l1-2.88h0l-1,2.88Z"/><path class="cls-4" d="M345.6,411.19c-.06.73-.11,1.45-.16,2.18l-.67-.19c.28-.66.56-1.32.83-2Z"/><path class="cls-4" d="M380.15,354.57c-.32,1-.64,1.92-.95,2.88h0l1-2.88Z"/><path class="cls-4" d="M379.2,357.45l-.16,2.17-.67-.18c.28-.66.56-1.32.83-2Z"/><path class="cls-4" d="M359.05,366.1l.15-2.18.67.19-.84,2Z"/><path class="cls-4" d="M343.68,417.91l.15-2.18.67.18-.82,2Z"/><path class="cls-4" d="M382.09,348.83l.15-2.19.66.19c-.27.66-.55,1.33-.83,2Z"/><path class="cls-4" d="M342.72,420.79l1-2.88h0l-1,2.87Z"/><path class="cls-4" d="M358.09,369l1-2.88h0l-1,2.88Z"/><path class="cls-4" d="M358.07,369c0,.73-.09,1.45-.14,2.18l-.67-.18c.27-.67.55-1.33.83-2Z"/><path class="cls-4" d="M342.72,420.78l-.15,2.19-.68-.18.83-2Z"/><path class="cls-4" d="M340.8,427.51l.15-2.19.68.19-.83,2Z"/><path class="cls-4" d="M340.8,427.5l-.16,2.19-.67-.19c.28-.66.56-1.33.83-2Z"/><path class="cls-4" d="M356.16,375.69l.15-2.18.67.19c-.27.66-.55,1.32-.83,2Z"/><path class="cls-4" d="M355.2,378.57l1-2.88h0c-.31,1-.63,1.93-.95,2.89Z"/><path class="cls-4" d="M394.55,302.76l-.15,2.18-.66-.19.83-2Z"/><path class="cls-4" d="M392.93,308.81v-1.54h.37v1.55Z"/><path class="cls-4" d="M392.36,311.11v1.55H392v-1.54Z"/><path class="cls-4" d="M351.7,389.79c.11,0,.27,0,.31,0a1.59,1.59,0,0,1,.09.39l-.54,0Z"/><path class="cls-4" d="M339.22,432c.11,0,.27,0,.31,0a1.17,1.17,0,0,1,.09.39l-.53-.05Z"/><path class="cls-4" d="M378.24,298l1.06-.75-1.07.74Z"/><path class="cls-4" d="M361,360.33l-.36,1.32.36-1.31Z"/><path class="cls-4" d="M702.87,123.45c-.74,2.24-1.34,4.52-2.24,6.69-2.56,6.2-3,12.4-.49,18.74a20.81,20.81,0,0,1,.72,4.15l-.12.09a14.86,14.86,0,0,0-1.83,3.09c-2.89,9.75-5.67,19.54-8.5,29.31a3.87,3.87,0,0,1-1.76,2.34,12.45,12.45,0,0,1,.22-2.3c2.64-9,5.27-18,8-27,1.47-4.83,2-9.44-2.73-13.4,3.21-2.35,3.12-5.27,2.39-8.51a14.59,14.59,0,0,1,.34-7.25c.54.56,1.07,1.13,1.37,1.45,1.43-2.48,2.91-5.05,4.38-7.62Z"/><path class="cls-4" d="M718.06,203q-2.31,22.32-6.77,44.29l-.95-.14c.34-2.46.64-4.93,1-7.38,1.51-9.37,3.18-18.73,4.53-28.12.46-3.13.15-6.37.2-9.55l.1-.09,1.88,1Z"/><path class="cls-4" d="M710.53,218.94a55.08,55.08,0,0,1-12.64.07c-1.37-.13-2.16-1.27-1.27-3.42a88.41,88.41,0,0,1,12.39,0c.72,0,1.36,1.37,2,2.11Z"/><path class="cls-4" d="M712.38,187.56c2,1.85,1.85,4.51,2.78,6.77-2.26-1.77-2.52-2.45-2.89-6.68Z"/><path class="cls-4" d="M717.58,197.08l5.14-2C720.55,197.54,720.55,197.54,717.58,197.08Z"/><path class="cls-4" d="M718.09,203c1.58-1.82,3.56-2.21,5.94-1l-6,1Z"/><path class="cls-4" d="M716.11,202.05c-1.55-1.23-.75-2.66-.1-4.06.07,1.32.14,2.64.2,4Z"/><path class="cls-4" d="M712.27,187.65l-.82-2.13.7-.13c.08.72.15,1.45.23,2.17Z"/><path class="cls-4" d="M709.09,176.72l.15.39-.57.12a1.12,1.12,0,0,1,.08-.42C708.8,176.74,709,176.75,709.09,176.72Z"/><path class="cls-4" d="M707.17,171l.15.39-.57.12a1.36,1.36,0,0,1,.08-.42C706.88,171,707.05,171,707.17,171Z"/><path class="cls-4" d="M710.14,180.2c-.11,0-.29.11-.33.06s-.12-.24-.17-.37l.57-.12Z"/><path class="cls-4" d="M700.86,153l.71.94-.49.33c-.11-.39-.22-.78-.34-1.18Z"/><path class="cls-4" d="M702.46,157.17c-.11,0-.28.11-.33.06s-.12-.24-.17-.37l.57-.12Z"/><path class="cls-4" d="M711.1,183.08c-.12,0-.29.11-.33.06s-.12-.24-.17-.38l.57-.11Z"/><path class="cls-4" d="M703.48,159.76l-.17.38-.4-.53c.11-.07.26-.22.33-.18S703.4,159.64,703.48,159.76Z"/><path class="cls-4" d="M704.29,162.33l.15.39-.57.11a1.07,1.07,0,0,1,.08-.41C704,162.35,704.17,162.36,704.29,162.33Z"/><path class="cls-4" d="M705,165.23c.11,0,.28,0,.32,0a1.08,1.08,0,0,1,.11.41l-.57-.05Z"/><path class="cls-4" d="M708.22,174.44c-.11,0-.28.11-.33.06a1,1,0,0,1-.17-.37l.57-.12Z"/><path class="cls-4" d="M706.37,168.34l-.14.39a3.54,3.54,0,0,1-.41-.45,2.49,2.49,0,0,1,.29-.29Z"/><path class="cls-4" d="M176.63,547.45c5.59-.07,11.19-.12,16.78-.21,1.76,0,3.51-.14,5.26-.21l19.24.4q.08,19.19.16,38.37l-41.5,0Z"/><path class="cls-4" d="M226.53,547.45h41.32l.06,38.39H226.47Z"/><path class="cls-11" d="M177.58,587h12.67c1,3.58,1.24,35.84.38,42.44-4,1-8.06.33-12.25.46-1.5-3.55-.62-7.08-.76-10.51-.16-3.66,0-7.34,0-11V587Z"/><path class="cls-3" d="M267.91,585.84l-.06-38.39,8.53,0-.06,38.32Z"/><path class="cls-3" d="M226.53,547.45l-.06,38.38-8.4,0q-.07-19.18-.16-38.37l2.14-.39Z"/><path class="cls-3" d="M176.63,547.45l-.06,38.38-7.59,0a170.8,170.8,0,0,1,0-38.42Z"/><path class="cls-10" d="M556.49,207.7h-4c-.79-4.26-1.56-8.42-2.38-12.91l3.87-.55.9,2.17c.12.57.25,1.14.38,1.7.19.72.37,1.43.56,2.14.12.88.23,1.76.35,2.63C556.26,204.49,556.37,206.1,556.49,207.7Z"/><path class="cls-4" d="M651.78,159.84a48.42,48.42,0,0,1-2.3-7c-.19-1.12.85-2.45,1.34-3.69l.12.12.94,10.48Z"/><path class="cls-4" d="M659.46,185.75c-2.3-2.8-3-6.1-2.87-9.62l.08,0a20.15,20.15,0,0,1,2.89,9.58Z"/><path class="cls-4" d="M654.66,170.4c-1.77-2.29-2-5-1.91-7.7l.08,0c1.76,2.27,2,4.93,1.93,7.67Z"/><path class="cls-4" d="M648.89,140.67c-1.84-2.59-.75-4.76,1-6.84l.09.07-.93,6.65Z"/><path class="cls-4" d="M656.59,176.13c-1.84-1.51-1.93-3.61-1.93-5.73l.1-.08c1.8,1.53,2,3.62,1.91,5.76Z"/><path class="cls-4" d="M641.36,129.62l.84,2.56-.73.29-1.16-2.37Z"/><path class="cls-4" d="M652.74,146.31c-.33-.93-.65-1.85-1-2.77l.13-.12,2.53,1.66-1.57,1.33Z"/><path class="cls-4" d="M654.67,119.45c-.06-1.62.28-3.06,1.9-3.86l.12.09c0,1.62-.24,3.08-1.93,3.83Z"/><path class="cls-4" d="M649.86,133.83c.32-1.28.65-2.56,1-3.83l.08.06-1,3.84Z"/><path class="cls-4" d="M653.7,122.32c.32-1,.65-1.91,1-2.87l.09.06-1,2.88Z"/><path class="cls-4" d="M651.79,127.13l1-2.9.09.08-1,2.88Z"/><path class="cls-8" d="M556.15,202.88c-.12-.87-.23-1.75-.35-2.63C555.92,201.13,556,202,556.15,202.88Z"/><path class="cls-4" d="M660.52,185.7l.12,2.86c-.39-.94-.79-1.87-1.18-2.81l.1-.09Z"/><path class="cls-4" d="M652.75,162.7c-.32-.95-.65-1.9-1-2.86l.1-.08c.32,1,.63,1.93,1,2.89Z"/><path class="cls-4" d="M650.83,130l1-2.87.09.06c-.32,1-.65,1.92-1,2.87Z"/><path class="cls-4" d="M651.78,148.23l1-1.92.11.1-1,1.89Z"/><path class="cls-8" d="M555.24,198.11c-.13-.56-.26-1.13-.38-1.7C555,197,555.11,197.55,555.24,198.11Z"/><path class="cls-4" d="M652.75,124.23l1-1.91.1.07-1,1.92Z"/><path class="cls-4" d="M650.82,149.16l1-.93.09.07-.93,1Z"/><path class="cls-4" d="M651.76,143.54l-1-.95.12-.12,1,.95Z"/><path class="cls-4" d="M649.85,141.64l-1-1,.13-.12.94,1Z"/><path class="cls-4" d="M650.8,142.59l-.95-1,.11-.13,1,1Z"/><path class="cls-7" d="M395.57,190.53l1.22,2.1c1.42.05,3.54-1,3.62,1.81l-5.94,16.12-.86,2.95,0,0-2.33.11-.36,0,.69-6.86-.53-.12c-.58,1.9-1.16,3.8-1.77,5.78l-2.42.18-2.6-.84-.16.66,2.79.16,1.34,1.09c.21,6.55.56,13.09.56,19.63a36.8,36.8,0,0,1-1.16,9c-1,4.07-2.94,7.78-6.46,10.37-7.7,5.65-16.54,8.76-25.63,12,0-4-.2-7.66,0-11.24.71-10.67,1.61-21.33,2.4-32,.41-5.57.87-11.14,1.05-16.73a65.94,65.94,0,0,0-.54-9.51c-.87-7.71,4.21-13.26,11.32-12.36,5.94.75,11.42,2.86,17,4.86l2.94,1,.07,0,2.79.91.1.06,2.79.9Zm-31.74,14.36-.4-.24.42.23a1.23,1.23,0,0,0,.17.32c.05.05.15.05.23.07Zm13.74,5.44V210h-1.48v.34Zm2.36.63v.33h1.5V211Zm12.41-6.79.07-.4-.49.11a1.13,1.13,0,0,0,.14.36S392.24,204.19,392.34,204.17Zm2.66-7.54c.1-.07.25-.12.28-.21a.88.88,0,0,0,0-.39l-.45.26ZM393.36,201l-.2-.34-.28.2c.1.18.22.34.33.5Zm-24.7,6.51.32-.2c-.09-.08-.22-.26-.26-.24a2,2,0,0,0-.4.32Z"/><path class="cls-6" d="M342.71,251.9c-.74,4-1.28,8.12-2.29,12.09-.73,2.86-2.73,4.64-6,4.25-3.14-.36-6.34-.47-9.43-1.1-3.68-.75-5.26-2.63-5.23-6.33s.62-7.24,1-10.86c1.57.07,3.15.06,4.72.21C331.19,250.71,337,251.31,342.71,251.9Z"/><path class="cls-18" d="M342.71,251.9c-5.76-.59-11.52-1.19-17.29-1.74-1.57-.15-3.15-.14-4.72-.21.78-3.22,1.61-6.44,2.35-9.67s3-4.69,6.23-4.67c1,0,1.91,0,2.87,0l4.83.93c5.2.48,6.77,2,6.67,7C343.59,246.32,343,249.11,342.71,251.9Z"/><path class="cls-3" d="M386.87,212.57l2.42-.18c.61-2,1.19-3.88,1.77-5.78l.53.12-.69,6.86-2.66,0-1.34-1.09Z"/><path class="cls-5" d="M369.67,178.68l-2.93-1.61,9.21,1.65Z"/><path class="cls-5" d="M378.46,179.18l2.6.83Z"/><path class="cls-5" d="M389.73,188.55l-2.94-1,1.59,0Z"/><path class="cls-5" d="M391.26,213.64l2.33-.11,0,1Z"/><path class="cls-7" d="M149.78,495.68c0-8.52,0-17,0-25.55,0-1.41.24-2.81.37-4.21l24.77-.19h3.81l5.84,0,21.89,0,4.75-.05q14.28,0,28.54,0c1.74,0,3.47.15,5.2.22a.68.68,0,0,1,.85,0l-.09,29.77c-6.62.07-13.25.11-19.88.22-1.71,0-3.43.26-5.14.41H198.63c-1.74-.15-3.48-.41-5.22-.42-12.95,0-25.9,0-38.85,0C153,495.87,151.38,495.75,149.78,495.68Z"/><path class="cls-18" d="M325.18,507.77v27.39c-3.63.93-86.85,1.2-93,.37-1-3.28-1.31-20.3-.48-27.51l.34-.33c.12-.1.24-.25.38-.26,1.1-.11,2.21-.27,3.32-.27q43.88,0,87.74.06A7.18,7.18,0,0,1,325.18,507.77Z"/><path class="cls-1" d="M198.63,496.32h22.06c-.16,1.72-.45,3.45-.46,5.18q-.14,22.77-.18,45.55l-2.14.39-19.24-.4a7.66,7.66,0,0,0,.87-1.12c2.45-4.41,1.34-6.85-3.7-8.19-.65-1.27-1.42-2.5-2-3.83-2-4.89-3.42-9.93-2.64-15.27a36.73,36.73,0,0,1,4.59-13.41c2.11-.22,4.09-.82,4.66-3.15S200.88,497.7,198.63,496.32Z"/><path class="cls-7" d="M259.14,465.91h16.14v29.72l-16,.05Q259.19,480.8,259.14,465.91Z"/><path class="cls-11" d="M259.14,465.91q.06,14.88.11,29.77H245.71l.09-29.77Z"/><path class="cls-1" d="M889,625.17l-89.78,0c-.8,0-1.59-.07-2.39-.1l-.85-.87c-.06-6-.17-12.06-.16-18.08,0-14.12.1-28.25.15-42.37h92.84c.06,1.75.16,3.51.16,5.26Q889,597.11,889,625.17Zm-74.71-9.58c.45.31.9.89,1.35.89q10,.09,19.95,0c.45,0,.9-.57,1.35-.88-.47-.3-.94-.87-1.41-.87q-9.91-.09-19.83,0C815.2,614.73,814.73,615.29,814.26,615.59Zm22.65-26.86c-.47-.3-.94-.86-1.41-.87q-9.9-.08-19.81,0c-.48,0-1,.57-1.43.87.45.31.89.88,1.33.89q10,.07,20,0C836,589.61,836.46,589,836.91,588.73Zm13.5-8.68c-.46-.3-.92-.87-1.39-.87q-10.47-.09-20.94,0c-.47,0-.94.57-1.41.87.46.32.91.91,1.37.91q10.5.09,21,0C849.49,581,850,580.37,850.41,580.05Zm-23.67,26.12-.2.91a4.32,4.32,0,0,0,1.49.65c7,0,14,.06,21,0,.54,0,1.08-.67,2.43-1.55Zm-22.37-8.9c5.48,1.61,18.44,1.4,22.18.24-.67-.38-1.07-.79-1.47-.8q-9.58-.09-19.17-.08A4.59,4.59,0,0,0,804.37,597.27ZM804,571c6,1.26,19.64.93,21.85-.43-2.36-.79-16.74-1.34-20.29-.7C805.1,569.9,804.7,570.45,804,571ZM856.61,589c-2.06-1.3-6.55-1.69-14.2-1.14-.76.05-1.48.62-2.79,1.21C844.85,590.06,853.3,590,856.61,589Zm0,27.21c-3-2.12-13.64-2.07-17.05.16A120.16,120.16,0,0,0,856.61,616.25Zm7.51-36.08c-4.53-1.53-7.67-1.42-10.09.06C857.22,581.37,859.58,581.41,864.12,580.17Zm-.84,26.58c-5.24-1.13-6.42-1.06-9.77.38C857.18,608.11,860.26,608.29,863.28,606.75Zm-40.89.07c-4.79-1.18-5.57-1.13-8.57.35C817,608.09,819.67,608.15,822.39,606.82Zm-8.17-26.61c2.74.8,5.48,1.19,8.18-.07A9,9,0,0,0,814.22,580.21Zm26.67,18c-4-2.12-6.18-2-8.55,0Zm-8.27-27.43c4.82,1.05,5.39,1,8.63-.34C838,569.51,835.34,569.44,832.62,570.78Z"/><path class="cls-5" d="M795.94,563.77c-.05,14.12-.13,28.25-.15,42.37,0,6,.1,12.05.16,18.08l-.25.93H777.58c-.91-3.66-1.1-74.48-.27-80,3.53-.77,122.11-1.07,129.75-.33,1,3.27,1.3,72.61.31,80.28-3,0-6.15.12-9.28.13s-6.08,0-9.12-.06q0-28.06,0-56.13c0-1.75-.1-3.51-.16-5.26.09-2.22.29-4.45.22-6.67s.56-4.72-.51-6.84H795.94Z"/><path class="cls-4" d="M805.67,535.84l12.8,0c-.5.29-1,.87-1.49.83C813.22,536.28,809.32,537.66,805.67,535.84Z"/><path class="cls-10" d="M795.7,625.15l.25-.93.85.87Z"/><path class="cls-2" d="M195.84,505.21a36.73,36.73,0,0,0-4.59,13.41c-.78,5.34.68,10.38,2.64,15.27.53,1.33,1.3,2.56,2,3.83-1.59.06-3.19.18-4.78.18H64.45c-5.88,0-7.2-.89-8.73-6.58A38.12,38.12,0,0,1,56,510.52c1.37-4.75,2.54-5.5,7.53-5.5q64.74,0,129.49,0C193.93,505,194.88,505.13,195.84,505.21Z"/><path class="cls-1" d="M145,585.84l-8.36,0-.21-31.16c0-2.4,0-4.79-.06-7.19h8.92q-.06,16.59-.14,33.17C145.1,582.37,145,584.1,145,585.84Z"/><path class="cls-8" d="M736.35,476.94c0,2.13-1.25,3.41-3.18,3.28a3.84,3.84,0,0,1-3.48-3.82c0-1.9,1.38-3,3.58-2.85S736.37,474.76,736.35,476.94Z"/><path class="cls-8" d="M719,468.8c.06-2,1.39-3,2.92-3.9C721.83,466.84,720.48,467.86,719,468.8Z"/><path class="cls-8" d="M718.05,469.76l1-1Z"/><path class="cls-7" d="M678.22,123.1c-2.3,2.1-3,4.59-2.59,7.73,2,16,.25,32-.57,48.06-.36,7.12-.69,14.24-1.18,21.35a34,34,0,0,1-1.27,5.44c-.8.77-1.6,1.54-2.39,2.32a11.54,11.54,0,0,1-2.16-7.16q-.52-29.4-1.15-58.81a23.14,23.14,0,0,1,2.22-10.66c1.32-2.75,1.8-5.29.1-8.05a14.23,14.23,0,0,1-1-3.44l5-3.65,3.67,2.33.87.84.12.11.84.85.11.1C678.61,121.34,678.41,122.22,678.22,123.1Z"/><path class="cls-5" d="M650.92,142.47l-1-1-.94-1,.93-6.65,1-3.84c.32-.95.65-1.91,1-2.87l1-2.88,1-1.92,1-2.88c1.69-.75,2-2.21,1.93-3.83l2.08-3.58,1.68-.33c-4.1,14.21-2.85,28.58-1.53,43,.94,10.27,1.09,20.61,1.6,30.91l-1,0a20.15,20.15,0,0,0-2.89-9.58c0-2.14-.11-4.23-1.91-5.76.06-2.74-.17-5.4-1.93-7.67l-1-2.89-.94-10.48.93-1,1-1.89,1.57-1.33-2.53-1.66Z"/><path class="cls-8" d="M670.22,208c.79-.78,1.59-1.55,2.39-2.32-.17,4.27-.37,8.54-.5,12.81-.1,3.18-.1,6.37-.14,9.56l-.44.08-.44-.07c0-5.19.09-10.37,0-15.55A26.39,26.39,0,0,0,670.22,208Z"/><path class="cls-2" d="M678.22,123.1c.19-.88.39-1.76.58-2.64a48.34,48.34,0,0,1,4.77,3.46c1.29,1.18,2.36,1.31,3.66.24l.23.2c-1.81,3.42-2.24,3.48-5,1.34A40.68,40.68,0,0,0,678.22,123.1Z"/><path class="cls-8" d="M663.54,122.36V111.87c.73,3.8,1.29,6.69,1.77,9.59C665.33,121.59,664.57,121.85,663.54,122.36Z"/><path class="cls-2" d="M690.12,120.32c.16-2.75,1.57-4.91,3.35-6.91-.25,2.72-.66,5.37-3.12,7.14Z"/><path class="cls-2" d="M690.35,120.55l-2.89,3.81-.23-.2c.48-1.64.81-3.4,2.89-3.84Z"/><path class="cls-8" d="M675.93,213.14l-1.14.81c-.24-.34-.69-.71-.66-1s.54-.57.84-.86Z"/><path class="cls-8" d="M674.91,221.57l.59.55-.91.72c-.12-.26-.36-.55-.32-.78S674.68,221.73,674.91,221.57Z"/><path class="cls-2" d="M677.73,119.4l-.87-.84Z"/><path class="cls-2" d="M678.69,120.36l-.84-.85Z"/><path class="cls-17" d="M667,466.63c1.72,2,4,2.48,6.47,2.38a22.55,22.55,0,0,0,13.61-5.1c1.31-1.06,2.81-1.9,4.23-2.84a22.29,22.29,0,0,1-17,9.83,13.48,13.48,0,0,1-5.14-.46C667.48,469.94,665.81,468.92,667,466.63Z"/><path class="cls-8" d="M642.61,478.19a3.93,3.93,0,0,1-3.22-4c.18-1.68,2-3.39,3.47-3.31,1.7.09,3.39,2.21,3.21,4A3.87,3.87,0,0,1,642.61,478.19Z"/><path class="cls-5" d="M393.61,213.51c.28-1,.57-2,.86-2.95l.16,1.71Z"/><path class="cls-12" d="M341,465.47,331.29,461c-.08-1.3.77-1.22,1.54-.9,3.61,1.52,7.21,3.11,10.81,4.67a5.07,5.07,0,0,1-.07.95Z"/><path class="cls-14" d="M343.57,465.74a5.07,5.07,0,0,0,.07-.95l20.14.14-.08.3a8,8,0,0,1-2.2.65C355.53,465.88,349.55,465.8,343.57,465.74Z"/><path class="cls-14" d="M400.39,464.93l-.09.95c-4.88,0-9.77,0-14.65-.11a42.91,42.91,0,0,1-4.62-.59l.27-.22.28.06.29-.06Z"/><path class="cls-10" d="M205.37,109.05l0,1.32c-2.46,1.55-5,1.14-7.53.3L196.73,109Z"/><path class="cls-9" d="M197.88,110.67c2.54.84,5.07,1.25,7.53-.3.07,2.08-.9,3.26-3,3.37s-4.12.06-5-2.36C197.33,111.23,197.7,110.91,197.88,110.67Z"/><path class="cls-14" d="M198.05,90.41h-6.71C195.07,87.5,196.23,87.51,198.05,90.41Z"/><path class="cls-9" d="M205.37,109.05l-8.64-.09c2.59-2.73,5.55-2.42,8.61-1C205.49,108,205.37,108.67,205.37,109.05Z"/><path class="cls-17" d="M196,93.09c.51,1.39,1,2.19,1,2.93-.05.49-1,.9-1.49,1.35-.4-.73-1.06-1.44-1.1-2.19C194.32,94.67,195.14,94.1,196,93.09Z"/><path class="cls-20" d="M212.65,95.51l-1.71,1.89c-.55-.61-1.39-1.16-1.54-1.86-.11-.49.73-1.18,1.15-1.78Z"/><path class="cls-14" d="M206.82,90.44c2.6-2,2.61-2,5.48,0Z"/><path class="cls-2" d="M183.24,107.8l-2.55-.47c.27-.75.55-1.5.82-2.24C183.75,104.93,183.19,106.56,183.24,107.8Z"/><path class="cls-2" d="M674.53,93.18c-5,3.45-7,3-9-1.65Z"/><path class="cls-15" d="M676.1,75.35c4.74-1.27,6.21-.52,7.74,3.6C680.91,78.74,678.85,77.24,676.1,75.35Z"/><path class="cls-15" d="M679.13,81.48l-2,1.35c-.35-.6-.92-1.18-1-1.81,0-.36.91-1.21,1.15-1.12C677.92,80.12,678.35,80.75,679.13,81.48Z"/><path class="cls-15" d="M664.11,79a8,8,0,0,1-.68-2.47c0-.38.8-.67,1.23-1a5.88,5.88,0,0,1,.91,1.87C665.61,77.74,664.89,78.17,664.11,79Z"/><path class="cls-15" d="M389.78,142.49l-2.28.59c1.29-3.42,1.82-3.78,6.11-3.9l-3.87,3.35Z"/><path class="cls-15" d="M389.74,142.53c2.69,1.25,2.69,1.25,2.17,4.39-2.67-.59-1.69-2.87-2.13-4.43Z"/><path class="cls-5" d="M690.42,57.26c-.6,3.19-3.43,3.05-5.62,3.5a58,58,0,0,1-7.61.6c1.76-2.2,4-2.41,6.21-2.27A9.65,9.65,0,0,0,690.09,57Z"/><path class="cls-5" d="M673.3,49.34c2,2.14,1.88,3.95.08,5.93a36.81,36.81,0,0,0-3.27,5c-1.66-1.63-.76-3.65.55-4.72A7.07,7.07,0,0,0,673.3,49.34Z"/><path class="cls-5" d="M682.18,49.12c1,3.11.32,5.26-2.38,7a61.55,61.55,0,0,0-5.74,4.7c-.58-2.53,1.31-4,3.21-5.27C681.21,52.84,681.25,52.89,682.18,49.12Z"/><path class="cls-5" d="M690.09,57l.6-1.19c.11.11.34.26.32.32-.17.4-.39.78-.59,1.16Z"/><path class="cls-8" d="M851,377.57c1.59.91,2.08,2.19,1.2,4.28l-2.49-3.36Z"/><path class="cls-1" d="M851,377.57l-1.29.92a.62.62,0,0,1-.4-.59l1.14-.84A1.18,1.18,0,0,1,851,377.57Z"/><path class="cls-2" d="M524.13,209.66l-2.88,1,0,0,2.88-.95Z"/><path class="cls-2" d="M524.17,214.49l.78-.82.46.46-1.25.35Z"/><path class="cls-1" d="M523.19,215.31l-1.35.74-.73-.8,2.09-.72A6.77,6.77,0,0,0,523.19,215.31Z"/><path class="cls-2" d="M524.18,209.72c.3-.26.61-.52.12-.1.66-.18.24-.07-.17,0Z"/><path class="cls-2" d="M523.19,215.31a6.77,6.77,0,0,1,0-.78l1,0h0Z"/><path class="cls-2" d="M184.57,465.77l-5.84,0c-.13-2.05-.26-4.1-.42-6.6C181.74,460.56,183,463.29,184.57,465.77Z"/><path class="cls-2" d="M211.21,465.7l-4.75.05-.42-6.28.72-.11Q209,462.53,211.21,465.7Z"/><path class="cls-12" d="M381.87,465l-.29.06-.28-.06c.25-3.07.5-6.13.76-9.2v4.92c4.34.95,8.47.37,12.56.42s8.31-.1,12.46-.16l15.67.16c-6.37.26-12.74.63-19.12.75-7,.14-14,0-21.3,0C382.14,463.18,382,464.07,381.87,465Z"/><path class="cls-14" d="M690.18,447.84c1,1.15,2.13,2.24,3.07,3.47a2.33,2.33,0,0,1-.19,3.42c-1.11,1-2.45,1.08-3.36-.06a3.25,3.25,0,0,0-3.31-1.28l0,0-3-2.19a5.77,5.77,0,0,1,.2-.82,18.53,18.53,0,0,1,3.05,1.13c1.4.79,1.54-.19,1.83-1.08a2.53,2.53,0,0,1,.67,0c.69,1.16,1.37,2.33,2.27,3.85,1.38-2.63-.88-3.78-1.21-5.44C690.23,448.57,690.2,448.2,690.18,447.84Z"/><path class="cls-12" d="M683.64,450.42a5.77,5.77,0,0,0-.2.82l-1-.11-5-2c2.53-3.62,6-2.51,8.84-3.13a2.52,2.52,0,0,1,.07.72l-.87,1.07c-.26,0-.51-.07-.77-.12-1.68,0-3.49-.59-5.69,1.59l3.72-.2.91.67Z"/><path class="cls-17" d="M685.47,447.75l.87-1.07c1.47-.25,2.88-.31,3.84,1.16,0,.36.05.73.07,1.09l-1.06,1.59a2.53,2.53,0,0,0-.67,0c0-2.19-1.81-1.79-3.1-2.11A.86.86,0,0,0,685.47,447.75Z"/><path class="cls-14" d="M680.74,453.21l.77-.85,4.92,1.07,0,0c-.24.57-.49,1.14-.82,1.93Z"/><path class="cls-14" d="M678.69,455.13l.86-.81,3.87,2-.51,1Z"/><path class="cls-14" d="M653.18,449a1.27,1.27,0,0,1,.87-.14c.18.69.36,1.37.53,2.06l-.74.21Z"/><path class="cls-5" d="M366.7,177.05l-1.88-.94Z"/><path class="cls-5" d="M364.78,176.08l-.73-.73Z"/><path class="cls-5" d="M392.59,189.51l-2.79-.91Z"/><path class="cls-5" d="M395.48,190.47l-2.79-.9Z"/><path class="cls-9" d="M660.21,449.63v3.08h-.49v-3.08Z"/><path class="cls-1" d="M958.28,534.85a8.29,8.29,0,0,1-16.58-.34,8.34,8.34,0,0,1,8.24-8.16A8.24,8.24,0,0,1,958.28,534.85Z"/><path class="cls-12" d="M913.92,379.52V358.19l.78,0q.21,10.65.43,21.28l-.31.23A2.75,2.75,0,0,0,913.92,379.52Z"/><path class="cls-20" d="M913.92,379.52a2.75,2.75,0,0,1,.9.16l.26,7.43c0,2.23-.09,4.46-.13,6.68l.09,1.11c-1.45,0-1.31-1.12-1.31-2C913.77,388.43,913.85,384,913.92,379.52Z"/><path class="cls-6" d="M852.33,426.6H854l6.91.34c0,7.47.07,14.95,0,22.42a16.42,16.42,0,0,1-.62,4.69c-1.2,3.92-4.32,5.74-8.5,5.18a7.06,7.06,0,0,1-6.16-6.81c-.19-4.61-.11-9.23-.08-13.84,0-4,.17-7.93.26-11.9Z"/><path class="cls-4" d="M917.07,340.79c-1.76.15-3.31-1.13-2.94-2.21a3.56,3.56,0,0,1,2-2.11,1.89,1.89,0,0,1,2.36,2.15C918.43,339.49,917.44,340.27,917.07,340.79Z"/><path class="cls-4" d="M938,339.32c-.57.41-1.34,1.36-2.19,1.44a1.9,1.9,0,0,1-2.14-2.35,3.13,3.13,0,0,1,2.1-2C937.22,336.23,938,337.34,938,339.32Z"/><path class="cls-17" d="M926.3,335.54c1,1.38,1.92,2.08,2.12,2.95a1.78,1.78,0,0,1-1.89,2.19c-1.24.05-2.28-.68-2.09-2C924.56,337.81,925.39,337,926.3,335.54Z"/><path class="cls-2" d="M988.2,366.81l-.68-2.71,1-.27.66,2.7Z"/><path class="cls-2" d="M363.78,464.93l-20.14-.14c-3.6-1.56-7.2-3.15-10.81-4.67-.77-.32-1.62-.4-1.54.9l-1.39-1.22c-1.07-.83-2.08-1.74-3.21-2.45-1.4-.88-2.9-1.6-4.58-2.5,1.05-1.54,0-4.08,3-3.39l1,.09,3.83,2.76,1,.12,5.09,2.88-.06,0,4.91,2.83,1.16.83c.95,1.88,2.7,2,4.44,1.93,5.65-.23,11.29-.54,16.94-.82Z"/><path class="cls-12" d="M325.08,451.46c-2.94-.69-1.92,1.85-3,3.39,1.68.9,3.18,1.62,4.58,2.5,1.13.71,2.14,1.62,3.21,2.45L320.82,456a27.38,27.38,0,0,1,4.61-11.1,2.8,2.8,0,0,1,.1.91C325,447.63,324.35,449.49,325.08,451.46Z"/><path class="cls-4" d="M217,189.5l-7.51,6.83c-2.68-.33-5.35-.72-8-1-4.88-.49-9.77-.91-15.14-1.4-.39-5.46-.15-10.79,0-16.79,10.33,1.26,20.33,2.07,30.67,4.07Z"/><path class="cls-8" d="M186.16,164.72q12.94,1.51,25.9,3.05c4.09.49,8.16,1.08,12.25,1.55,1.21.14,2.21.35,2.19,1.85-11.45-1.36-22.91-2.7-34.36-4.11-3-.37-5.9-.95-8.85-1.44Z"/><path class="cls-2" d="M186.16,164.72l-2.87.9c-1.38-.28-3.44.72-3.62-1.88Z"/><path class="cls-9" d="M686.43,453.43l-4.92-1.07.89-1.23,1,.11Z"/><path class="cls-6" d="M325.08,451.46c-.73-2-.08-3.83.45-5.7l3.58-4c2.43,1.6,4.24,4.24,7.75,3.89a16.18,16.18,0,0,0,8.54-3.75c1.74,3.39,3.53,6.76,5.18,10.2a6.38,6.38,0,0,0,5.06,3.82,41.65,41.65,0,0,1,4.61,1.2,3.54,3.54,0,0,1,2.73,3.95l-21-.15-1.16-.83-4.91-2.83.06,0-5.09-2.88-1-.12c-.25-2.35-2-2.56-3.83-2.76Z"/><path class="cls-16" d="M342,460.93l21,.15.41,1c-5.65.28-11.29.59-16.94.82C344.71,462.93,343,462.81,342,460.93Z"/><path class="cls-3" d="M386.9,212.55l-2.79-.16.16-.66,2.6.84Z"/><path class="cls-3" d="M377.57,210.33h-1.49V210h1.48Z"/><path class="cls-3" d="M379.93,211h1.5v.33h-1.5Z"/><path class="cls-3" d="M392.34,204.17c-.1,0-.26.1-.28.07a1.13,1.13,0,0,1-.14-.36l.49-.11Z"/><path class="cls-3" d="M395,196.63l-.2-.34.45-.26a.88.88,0,0,1,0,.39C395.25,196.51,395.1,196.56,395,196.63Z"/><path class="cls-3" d="M393.36,201l-.15.36c-.11-.16-.23-.32-.33-.5l.28-.2Z"/><path class="cls-5" d="M368.66,207.53l-.34-.12a2,2,0,0,1,.4-.32s.17.16.26.24Z"/><path class="cls-5" d="M363.83,204.89l.42.38c-.08,0-.18,0-.23-.07a1.23,1.23,0,0,1-.17-.32Z"/><path class="cls-5" d="M363.85,204.88l-.42-.23.4.24Z"/><path class="cls-10" d="M795.94,563.77v-13.5h92.55c1.07,2.12.44,4.53.51,6.84s-.13,4.45-.22,6.67Zm20.86-7.24c-1.54-.77-2.41-1.54-3.25-1.5-.59,0-1.51,1.08-1.62,1.78a1.65,1.65,0,0,0,2,2C814.76,558.61,815.44,557.64,816.8,556.53Zm5.94-2.31c-1,1-2.2,1.61-2.15,2.12.09.86.93,1.66,1.45,2.48.8-.58,2.05-1,2.26-1.76S823.47,555.45,822.74,554.22Zm-15.26,2.2c-1.58-.73-2.47-1.48-3.27-1.39-.61.06-1.69,1.43-1.54,1.79.35.82,1.29,1.84,2.05,1.89S806.14,557.6,807.48,556.42Z"/><path class="cls-4" d="M826.74,606.17h24.67c-1.35.88-1.89,1.54-2.43,1.55-7,.07-14,0-21,0a4.32,4.32,0,0,1-1.49-.65Z"/><path class="cls-12" d="M804.37,597.27a4.59,4.59,0,0,1,1.54-.64q9.58,0,19.17.08c.4,0,.8.42,1.47.8C822.81,598.67,809.85,598.88,804.37,597.27Z"/><path class="cls-12" d="M804,571c.67-.5,1.07-1.05,1.56-1.13,3.55-.64,17.93-.09,20.29.7C823.67,571.88,810,572.21,804,571Z"/><path class="cls-19" d="M856.61,589c-3.31.92-11.76,1-17,.07,1.31-.59,2-1.16,2.79-1.21C850.06,587.35,854.55,587.74,856.61,589Z"/><path class="cls-12" d="M856.61,616.25a120.16,120.16,0,0,1-17.05.16C843,614.18,853.63,614.13,856.61,616.25Z"/><path class="cls-4" d="M850.41,580.05c-.46.32-.92.91-1.38.91q-10.49.09-21,0c-.46,0-.91-.59-1.37-.91Z"/><path class="cls-19" d="M850.41,580.05H826.67c.47-.3.94-.86,1.41-.87q10.47-.09,20.94,0C849.49,579.18,850,579.75,850.41,580.05Z"/><path class="cls-12" d="M814.26,588.73c.48-.3,1-.86,1.43-.87q9.9-.08,19.81,0c.47,0,.94.57,1.41.87Z"/><path class="cls-17" d="M814.26,588.73h22.65c-.45.31-.9.88-1.35.89q-10,.07-20,0C815.15,589.61,814.71,589,814.26,588.73Z"/><path class="cls-12" d="M814.26,615.59c.47-.3.94-.86,1.41-.86q9.92-.09,19.83,0c.47,0,.94.57,1.41.87Z"/><path class="cls-17" d="M814.26,615.59h22.65c-.45.31-.9.88-1.35.88q-10,.09-19.95,0C815.16,616.48,814.71,615.9,814.26,615.59Z"/><path class="cls-12" d="M864.12,580.17c-4.54,1.24-6.9,1.2-10.09.06C856.45,578.75,859.59,578.64,864.12,580.17Z"/><path class="cls-19" d="M863.28,606.75c-3,1.54-6.1,1.36-9.77.38C856.86,605.69,858,605.62,863.28,606.75Z"/><path class="cls-4" d="M822.39,606.82c-2.72,1.33-5.43,1.27-8.57.35C816.82,605.69,817.6,605.64,822.39,606.82Z"/><path class="cls-19" d="M814.22,580.21a9,9,0,0,1,8.18-.07C819.7,581.4,817,581,814.22,580.21Z"/><path class="cls-19" d="M840.89,598.21h-8.55C834.71,596.22,836.9,596.09,840.89,598.21Z"/><path class="cls-4" d="M832.62,570.78c2.72-1.34,5.42-1.27,8.63-.34C838,571.8,837.44,571.83,832.62,570.78Z"/><path class="cls-9" d="M685.42,448.36c1.29.32,3.07-.08,3.1,2.11-.29.89-.43,1.87-1.83,1.08a18.53,18.53,0,0,0-3.05-1.13v-.73Z"/><path class="cls-9" d="M689.19,450.52l1.06-1.59c.33,1.66,2.59,2.81,1.21,5.44C690.56,452.85,689.88,451.68,689.19,450.52Z"/><path class="cls-2" d="M682.73,449l-3.72.2c2.2-2.18,4-1.61,5.69-1.59C684.05,448.1,683.39,448.56,682.73,449Z"/><path class="cls-19" d="M682.73,449c.66-.46,1.32-.92,2-1.39.26.05.51.09.77.12a.86.86,0,0,1-.05.61l-1.78,1.33Z"/><path class="cls-19" d="M330.91,454.43l5.09,2.88Z"/><path class="cls-19" d="M335.94,457.27l4.91,2.83Z"/><path class="cls-12" d="M326.05,451.55c1.79.2,3.58.41,3.83,2.76Z"/><path class="cls-4" d="M816.8,556.53c-1.36,1.11-2,2.08-2.89,2.25a1.65,1.65,0,0,1-2-2c.11-.7,1-1.76,1.62-1.78C814.39,555,815.26,555.76,816.8,556.53Z"/><path class="cls-4" d="M822.74,554.22c.73,1.23,1.74,2.2,1.56,2.84s-1.46,1.18-2.26,1.76c-.52-.82-1.36-1.62-1.45-2.48C820.54,555.83,821.69,555.21,822.74,554.22Z"/><path class="cls-4" d="M807.48,556.42c-1.34,1.18-2.09,2.34-2.76,2.29s-1.7-1.07-2.05-1.89c-.15-.36.93-1.73,1.54-1.79C805,554.94,805.9,555.69,807.48,556.42Z"/></g></g></svg>