<svg id="Layer_1" data-name="Layer 1" xmlns="http://www.w3.org/2000/svg" viewBox="0 0 1000.32 646.43"><path d="M1000.32,575.41V634a36.53,36.53,0,0,1-3.76.37q-32,0-64,0c-1.1,0-2.21-.16-3.32-.24,3-3.5,5.19-7.22,3.16-12.61H914.91q0-45.3,0-90.6c0-.64,0-1.28,0-1.92-.17-3.51-1.4-4.85-4.9-5.17-1.26-.12-2.55,0-3.83,0q-37.17,0-74.33,0c-4.32,0-8.63-.09-13-.14l0-43.16c1.6,0,3.2-.12,4.8-.12H996c1.43,0,2.87.06,4.31.1v66.21c-4.16,2.93-6.24-.76-8.94-2.59v-7.72l-7.25-2-3.68,6.57c-1.36.21-2.45.42-3.56.55s-2.16.19-3.08.27l-4.9-5.69-7,3.89c.84,2.75,1.57,5.13,2.26,7.37-1.54,1.91-2.82,3.51-4.19,5.2l-7.22-.56a16.36,16.36,0,0,0-.83,1.83c-.53,1.82-1,3.66-1.55,5.68,1.2.67,2.3,1.26,3.39,1.88s2.17,1.24,2.81,1.61c1.94,5,.71,8.48-3.57,10.85-.34.19-.46.79-.74,1.31l3.65,6.4,7.11-2.05,5.47,4.47c-.21,2.32-.41,4.51-.64,7.1l7.77,2.07,3.32-6.13,6.92-.93c.82.91,1.55,1.75,2.31,2.54s1.75,1.75,2.75,2.74l6.72-3.75c-.81-2.62-1.46-4.72-2.19-7Zm-45-71.55c-1.85,1.77-2.5,3.81-5.21,3.82-3,0-3.14-2.91-5.26-4l-4,1.76c-.42,2.42.92,4.59-1.21,6.61s-4.29-.23-6.44.62c-.57,1.43-1.13,2.87-1.67,4.22,3.7,3,3.7,3,3.29,7.28l-3.6,3,1.77,4c4.87,0,7.11,1.06,7.67,3.4l-.65,4.25,4.73,1.88c1.55-3.08,3.72-4.58,7.1-3.3l2.94,3.49,4-1.76c0-4.61,1.19-7.1,3.56-7.68l4,.78c.63-1.62,1.24-3.17,1.9-4.89-3.24-1.51-4.25-3.75-3.32-7l3.61-2.86c-.69-1.57-1.32-3-2-4.48-3.23.68-6.06.77-7.57-2.86.23-1.19.51-2.58.84-4.23Z" fill="#fefefe"/><path d="M972.91,415.27l-76.31-.1h-4.32c-5.36-.06-9-3.49-9-8.91-.11-7.35,0-14.71,0-22.06q0-41.74,0-83.48a22.79,22.79,0,0,1,.75-6.11c1.12-4,2.78-5.13,6.9-5.15,7,0,14.08,0,21.12,0l88.31,0v8.63c-1.75.07-3.51.2-5.26.2H892.34v91.74c4.67,0,9.09,0,13.52,0,.39,0,.78-.49,1.16-.76h93.3v25.91Zm17.68-12.35c-.11-2.1-1.55-3.2-3.08-3a2.56,2.56,0,0,0-2.48,2.84c0,1.61,1.34,3.09,2.59,2.55A12.67,12.67,0,0,0,990.59,402.92Z" fill="#e5e5e5"/><path d="M824.54,453.05a87,87,0,0,0,9.55.05c2.2-.2,4.33-1.22,6.55-1.89V409.33l-3.36-1.61c3.24-1.68,6.5-1.15,9.69-1.27l6.86-.22,14.95.13c.27.58.55,1.15.83,1.73a21.74,21.74,0,0,0-2.68.46c-.42.12-.74.58-1.1.88a22.31,22.31,0,0,0-.35,2.8q0,18.06,0,36.13a18.66,18.66,0,0,0,.28,2.34l1.12.76,2.9,1.16a8.87,8.87,0,0,0,2.48.84c3.68.09,7.36,0,11,0q42.45-.08,84.9-.13c10.71,0,21.42.12,32.13.18V467H786.41c-4.16,0-8.31,0-12.47-.05-.33-.3-1-.59-1-.9-.06-4.05,0-8.11,0-12.56l15.85-.6a44.28,44.28,0,0,0,4.69.53q13.41.07,26.82,0C821.71,453.41,823.13,453.18,824.54,453.05Zm27.65-44.39c-1.9,0-3.8-.16-5.69,0a18.9,18.9,0,0,0-3.32.81l0,41.22,1.64.83h16.36l1.72-.82q0-20.15,0-40.3c.24-1.14-.14-1.82-1.39-1.8l-7.53.14Z" fill="#225675"/><path d="M773.94,466.94c4.16,0,8.31.05,12.47.05h213.91v13.44c-1.44,0-2.88-.1-4.31-.1H823.73c-1.6,0-3.2.08-4.8.12l-13.81.06c-6.18-.06-12.36-.1-18.54-.19-4.13-.06-4.26-.19-4.33-4.29,0-2.66,0-5.32,0-8Z" fill="#426b7f"/><path d="M907,389.25c-.38.27-.77.76-1.16.76-4.43.06-8.85,0-13.52,0V298.31H995.06c1.75,0,3.51-.13,5.26-.2v9.6l-36.64.14v11L907,319v14.68c-.09.94-.24,1.88-.25,2.83q0,24.74,0,49.47C906.72,387.06,906.92,388.16,907,389.25Z" fill="#284a5b"/><path d="M0,616.68V575.41l3.33-1.33c2.39,0,4.77.15,7.16.15q45.54,0,91.09-.09c11.18,0,22.36.08,33.54.13,3.34,0,6.74,1,10-.6l3.66-.15a30,30,0,0,1,1.05,4.41c.28,3.29-.72,4.46-4,5.05-.6.11-1.22.11-1.84.16a27,27,0,0,0-2.84-.28q-13.2,0-26.39,0-50.62,0-101.25,0c-5.52,0-6.57.92-7.76,6.26a31.31,31.31,0,0,0,0,13.79c1.18,5.32,2.26,6.2,7.76,6.2H138.76c1.75,0,3.51-.15,5.26-.22,6,.64,7.38,3.22,4.68,8.71a8,8,0,0,1-.47.8l-9.09.06-28.71.19H78.87l-10.48,0c-3.33-1.19-11.59-1.3-15.6-.19l-14.38.07a28.81,28.81,0,0,0-4.55-.76c-10.35-.07-20.69,0-31,0Z" fill="#284a5b"/><path d="M1000.32,389.26H963.85c0-2.22,0-4.44,0-6.66l-.15-1q0-12.47,0-24.95l0-18.07.07-5,0-10.53h36.47v26.87a12.2,12.2,0,0,0-1,3.29c-.1,6.19,0,12.38-.07,18.57,0,3.48-.23,7-.36,10.43l-2.14-.09c-.16-6.14-.33-12.28-.49-18.37h-12.8c-.13,6.27-.26,12.3-.38,18.32l-3.64-.32V365.91c0-4.94,0-9.88,0-14.83s0-10.07,0-15.11c-1.44,4.3-1.35,43.4-.37,47.53h21.31ZM988.8,359.61l-2.5-1.87a1.91,1.91,0,0,0,1.52,2.75l2.07,1.81c2.52-2,2.36-2,2.87-4.82.22-1.2,0-1.73-.91-2.26-1.37-.78-1.38-1.9-.72-3.27l2.38,1.46c.28-3-2.43-3.23-3.57-4.72-.64.44-1.31.83-1.91,1.32-2.87,2.39-3,3.19-.07,5.78C989.36,357,989,358.23,988.8,359.61Z" fill="#fefefe"/><path d="M1000.32,575.41l-4.83,5.05c.73,2.33,1.38,4.43,2.19,7L991,591.26c-1-1-1.89-1.85-2.75-2.74s-1.49-1.63-2.31-2.54l-6.92.93L975.66,593,967.89,591c.23-2.59.43-4.78.64-7.1l-5.47-4.47L956,581.45l-3.65-6.4c.28-.52.4-1.12.74-1.31,4.28-2.37,5.51-5.85,3.57-10.85-.64-.37-1.72-1-2.81-1.61s-2.19-1.21-3.39-1.88c.54-2,1-3.86,1.55-5.68a16.36,16.36,0,0,1,.83-1.83l7.22.56c1.37-1.69,2.65-3.29,4.19-5.2-.69-2.24-1.42-4.62-2.26-7.37l7-3.89,4.9,5.69c.92-.08,2-.13,3.08-.27s2.2-.34,3.56-.55l3.68-6.57,7.25,2V544c2.7,1.83,4.78,5.52,8.94,2.59Zm-7.5-11.47a13,13,0,0,0-12.61-13.1,13.38,13.38,0,0,0-13.36,13,13,13,0,0,0,13.23,13A12.69,12.69,0,0,0,992.82,563.94Z" fill="#f59421"/><path d="M0,535.11V483.3l4.79.34a29,29,0,0,0-.92,5.06c-.07,13.58-.05,27.16,0,40.75,0,1.39.19,2.78.3,4.26h7a14.17,14.17,0,0,0,.31-1.86c0-14.87,0-29.73,0-44.59a15.33,15.33,0,0,0-.92-3.61l20.19-.29,4.73.79v50.38c-1.7.17-3.4.45-5.11.48-6,.13-11.94.16-17.9.23l-4.88,0-5.68,0Z" fill="#027172"/><path d="M1000.32,453.55c-10.71-.06-21.42-.18-32.13-.18q-42.45,0-84.9.13c-3.67,0-7.35.05-11,0a8.87,8.87,0,0,1-2.48-.84l89.08-.06h5.66c3.09-12.51,6.26-24.78,8.39-37.29l27.41-.1Z" fill="#b2b1b2"/><path d="M929.22,634.09c1.11.08,2.22.24,3.32.24q32,0,64,0a36.53,36.53,0,0,0,3.76-.37v11.51c-1.76,0-3.51.13-5.27.13q-41,0-81.95,0a31.34,31.34,0,0,0-4.94.79H895.68c.3-3.52-.8-7.17,1-10.56,2.12-.51,4.22-1.41,6.34-1.47C911.73,634.15,920.48,634.17,929.22,634.09Z" fill="#225675"/><path d="M110.43,618.64l28.71-.19,9.09-.06,3.45,0v28H110.4Z" fill="#ef6938"/><path d="M201.6,646.42H160.32q0-12.09,0-24.17c0-1.8-.05-3.57,2.29-4,2.85.06,5.7.16,8.55.18l30.41.19Q201.57,632.52,201.6,646.42Z" fill="#ef6938"/><path d="M2.82,617.77c10.35,0,20.69,0,31,0a28.81,28.81,0,0,1,4.55.76q0,13.93,0,27.85H0V618.59Z" fill="#027172"/><path d="M30.76,483.36l-20.19.29H4.79L0,483.3V453.55c4.73-.11,9.46-.31,14.19-.32,5.53,0,11.06.14,16.59.21Q30.77,468.41,30.76,483.36Z" fill="#225675"/><path d="M233.11,618.69q.09,13.88.17,27.73h-24q0-13.89,0-27.79Z" fill="#ef6938"/><path d="M78.87,618.65h22.87q0,13.89,0,27.77h-23Z" fill="#ef6938"/><path d="M1000.32,323.05H963.85c-.05-1.4-.11-2.81-.17-4.22v-11l36.64-.14Zm-4.39-7.58c-1.32-1-2-1.93-2.86-2.17a1.81,1.81,0,0,0-2.26,2.15,3.14,3.14,0,0,0,2.11,1.87C993.67,317.39,994.52,316.39,995.93,315.47Zm-19.42.51c-1.21-1.26-1.76-2.26-2.56-2.56a1.7,1.7,0,0,0-2.4,1.5c-.21,1.26.24,2.34,1.57,2.36C974,317.3,974.88,316.64,976.51,316Zm10.14-.9c-1.52-.84-2.47-1.79-3.23-1.66a3,3,0,0,0-1.89,2.12,1.68,1.68,0,0,0,2.22,1.76C984.62,317.06,985.3,316.15,986.65,315.08Z" fill="#efefef"/><path d="M52.79,618.5c4-1.11,12.27-1,15.6.19,0,4.95.16,9.9.13,14.85,0,4.29-.23,8.59-.36,12.88H52.8Z" fill="#027172"/><path d="M52.79,618.5v27.92H38.4V618.57Z" fill="#00938f"/><path d="M68.16,646.42c.13-4.29.33-8.59.36-12.88,0-4.95-.08-9.9-.13-14.85l10.48,0-.15,27.77Z" fill="#efefef"/><path d="M162.59,618.26c-2.34.42-2.29,2.19-2.29,4q0,12.09,0,24.17h-8.64v-28l10.71-.42Z" fill="#f59421"/><path d="M101.76,646.42q0-13.89,0-27.77h8.69l0,27.78Z" fill="#f59421"/><path d="M209.32,618.63q0,13.9,0,27.79H201.6q0-13.89,0-27.79Z" fill="#f59421"/><path d="M908.16,646.42a31.34,31.34,0,0,1,4.94-.79q41-.07,81.95,0c1.76,0,3.51-.08,5.27-.13-.16.32-.3.91-.48.92-1.28.08-2.56,0-3.84,0Z" fill="#b2b1b2"/><path d="M0,535.11l1.92.13q0,19.08,0,38.16L0,573.5Z" fill="#f59421"/><path d="M996.74,382.12l2.14.09,1.44.33v1H979c-1-4.13-1.07-43.23.37-47.53q0,7.56,0,15.11c0,4.95,0,9.89,0,14.83v15.84l3.64.32Z" fill="#666464"/><path d="M1000.32,382.54l-1.44-.33c.13-3.48.33-6.95.36-10.43.06-6.19,0-12.38.07-18.57a12.2,12.2,0,0,1,1-3.29Z" fill="#ef6938"/><path d="M0,573.5l1.94-.1,1.39.68L0,575.41Z" fill="#b2b1b2"/><path d="M2.82,617.77,0,618.59v-1.91Z" fill="#b2b1b2"/><path d="M209.31,118.77c4.14,1.6,8.24,3.34,12.44,4.77a23.85,23.85,0,0,1,12,9.07,215.22,215.22,0,0,1,12.6,19.17c6.11,11,11.62,22.35,17.37,33.55.66,1.27,1.26,2.57,1.94,4,13.66,2.92,26.28,8.55,38.7,14.69l-3.06,13.67c-3.76-.7-7.54-1.26-11.25-2.13-10.05-2.35-20.1-4.74-30.1-7.29a23.46,23.46,0,0,1-13.78-9.65c-3.72-5.35-7.4-10.73-11.14-16.08-.79-1.14-1.73-2.18-2.6-3.26l-5.1-.22q.41-9.59.82-19.17c-.22-3.54-.22-3.56-3.07-4.15-.93-.2-1.88-.3-2.83-.42-7.41-.92-14.83-1.87-22.25-2.72-6.79-.77-13.59-1.42-20.38-2.12-2.62-.56-2.83,1.09-2.94,3.05-.53,10.17-1.13,20.35-1.68,30.52a12.19,12.19,0,0,0,.36,2.15h29.06l3.09,10.36c-.49.57-.86,1.39-1.48,1.67-5.53,2.46-11.06,4.91-16.67,7.19-4,1.63-8.08,3-12.12,4.48-1.16.43-2.3.91-3.3,1.3-.78,7.31-.78,7.31.66,10.21L224,225.83c.21-2.07.44-3.75.55-5.43.62-8.91,1.2-17.83,1.8-26.75l2.25-3a18,18,0,0,1-.27,2.86,32.79,32.79,0,0,0,.24,15.66c1.23,5.12,2.25,10.29,3.4,15.43,2.34,10.45,4.92,20.92,4.92,31.67,0,15.17-.16,30.38-1.08,45.52-1.07,17.69-3,35.33-4.63,53-.28,3-.7,6-1.06,9L220,365.35l-22.3,1h-6.53l-22.27-1-7-1.73c-.47-3.48-1.05-7.21-1.47-10.95-1.56-13.79-3.16-27.58-4.57-41.38-.87-8.57-1.7-17.17-2-25.77-.42-11-.58-22-.33-33,.3-13.49,4.33-26,11.05-37.72.31-.55.59-1.12.87-1.69.06-.13,0-.3,0-.82-1.77-.1-3.6-.3-5.42-.29-2.94,0-5.06-1.36-7.09-3.39-4.87-4.86-6.1-11.11-6.84-17.48A211.92,211.92,0,0,1,145,152.4a35.64,35.64,0,0,1,2.86-12.53c2.7-6,6.41-11,12.67-13.72,5.69-2.46,11.36-5,17-7.42a10.68,10.68,0,0,0,.78,3.17c5,8,12.76,12,22.28,9.7a10,10,0,0,0,7.18-6.39A40.44,40.44,0,0,0,209.31,118.77Z" fill="#ef6938"/><path d="M661.8,430.73c-.68-1.38-1.77-2.71-2-4.16-1.47-11.07-2.77-22.17-4.11-33.26-1.82-15.05-3.67-30.1-5.43-45.15-1.47-12.53-2.9-25.05-4.22-37.59-1.48-14-3-27.94-4.14-41.93-.62-7.46-.53-15-.75-22.48,1.27,0,2.55.1,3.81,0,8.47-.49,16.87-7.19,16.53-16.93-.08-2.38.1-4.76.17-7.15h7.4l8.58-.11,8.59.16c0,2.21.22,4.43.12,6.64-.4,8.44,8.1,17,16.65,16.6,1.74-.09,3.48,0,5.22,0,.78,4.47,1.72,8.87,5.18,13.08,1.05-3.29,1.91-6,2.77-8.64l1.57-1.94,1.21.16c0,6.7.26,13.42-.19,20.1q-1.9,27.93-4.36,55.84c-1.51,17-3.27,34-5.13,51-1.81,16.5-3.85,33-5.88,49.43-.21,1.72.23,4.1-2.58,4.41L690,429l-2.46-.56q-3.08-52.77-6.13-105.32a27.1,27.1,0,0,0-1.68-13v11q-2,48.06-4.1,96.12c-.15,3.51-.46,7-.61,10.51-.06,1.3-.47,2.14-1.84,2.32-3-.15-5.89-.36-8.85-.39-.62,0-1.25.67-1.88,1A2.28,2.28,0,0,0,661.8,430.73Z" fill="#027172"/><path d="M402.26,276.21c.22,20,.7,39.92.58,59.87-.1,16.12-1,32.23-1.41,48.35-.29,10.69-.4,21.39-.61,32.08,0,1.59-.17,3.19-.23,4.78s-1.34,1.49-2.38,1.71l-18.55,1.11c-1.91-1.39-1.18-3.49-1.29-5.29-1.13-18.47-2.17-36.95-3.27-55.42a28.44,28.44,0,0,0-.63-3.39c-4.81,10.68-8.81,21.41-12.71,32.18S354,414,350.07,425l-3.21-.82c-1.35-.37-2.69-.79-4.05-1.08-3.51-.77-7-1.48-10.56-2.21-2.1-.89-2.4-2.49-2.12-4.59,1.57-11.38,3.16-22.76,4.49-34.17.87-7.41,3.35-14.26,6.47-20.93,2.16-4.63,4.55-9.14,6.64-13.8a16.67,16.67,0,0,0,1.56-5.87c1-24.72,2.29-49.42,2-74.17l.3.15c5.45,2.07,10.62,4.93,16.51,5.77a6.18,6.18,0,0,1,1.64.83c-.36,3.15-.74,6.29-1.07,9.44-.7,6.62-1.24,13.25-2.07,19.85-1.11,8.78-2.47,17.54-3.63,26.31a37.82,37.82,0,0,0,0,4.88c3.33-15.82,4.14-31.92,6.89-47.3l8.41-1.63,1.07-.74-1.06.75-8.11-.21c.15-4.15.27-7.72.4-11.3a23,23,0,0,1,3.33.12,99.6,99.6,0,0,0,20.31,1.81C396.87,276,399.57,276.15,402.26,276.21Zm-46.11,87.14c.28-.67.56-1.33.83-2l-.67-.19-.15,2.18-1,2.88-.82,2,.67.19.15-2.18C355.52,365.27,355.84,364.31,356.15,363.35ZM340.8,415.17l.83-2L341,413l-.15,2.19c-.27.66-.55,1.33-.83,2l.67.19C340.69,416.62,340.75,415.89,340.8,415.17Zm17.27-58.54,1-2.88.84-2-.67-.19-.15,2.18-1,2.88c-.28.66-.56,1.33-.83,2l.67.19C358,358.09,358,357.36,358.07,356.63Zm-15.35,51.82,1-2.88c.27-.67.55-1.33.82-2l-.67-.18-.15,2.18-1,2.88-.83,2,.68.19Zm36.48-63.33c.31-1,.63-1.93.95-2.89l1-2.87,1-2.88c.28-.66.56-1.32.83-2l-.66-.18-.15,2.18-1,2.88-1,2.87-1,2.88c-.27.66-.55,1.32-.83,2l.67.19Zm-33.6,53.73c.27-.66.55-1.33.83-2l-.68-.19-.15,2.19c-.27.66-.55,1.32-.83,2l.67.19C345.49,400.31,345.54,399.58,345.6,398.85Zm1.92-6.72,1-2.87c.27-.67.55-1.33.82-2l-.67-.18-.15,2.18-1,2.88-.83,2,.68.19Zm2.88-9.59c.27-.66.55-1.33.83-2l-.67-.19-.16,2.18-.83,2,.67.19C350.29,384,350.34,383.27,350.4,382.54ZM384,329.76l.84-2-.67-.18-.15,2.17-.83,2,.67.19C383.9,331.22,384,330.49,384,329.76Zm-30.71,43.18.82-2-.67-.19-.15,2.19c-.27.66-.55,1.32-.83,2l.67.19Zm34.55-56.61,1-3.84a7.79,7.79,0,0,0,1.74-6.17c-2.16,1.89-1.64,4.11-1.72,6.18l-1,3.84c-.27.66-.55,1.32-.83,2l.67.19Zm6.72-25.91,1-3.84c1.2-.86,1.11-1.9.22-3.86-.1,1.84-.15,2.85-.2,3.87l-1,3.84-.83,2,.66.19ZM361,348c1.21-1.17,1.37-2.43,0-4.43V348l-.36,1.31Zm26.12-26.66-1.12-.46-1.13,4.1,1,.29Zm-24.41,16h-.45v3.94h.45ZM391,304.14h.37V302.6H391Zm1.92-7.66h.37v-1.55h-.37Zm-.57,2.3H392v1.54h.4ZM351.7,377.45l-.14.37.54.05a1.41,1.41,0,0,0-.09-.38C352,377.43,351.81,377.46,351.7,377.45Zm-12.48,42.22-.13.37.53,0a1.12,1.12,0,0,0-.09-.38C339.49,419.65,339.33,419.68,339.22,419.67Z" fill="#225675"/><path d="M708.25,245.39c-1.74,0-3.48-.08-5.22,0-8.55.44-17-8.16-16.65-16.6.1-2.21-.07-4.43-.12-6.64l-.06-5.58a17.28,17.28,0,0,0,.19-1.89c0-26,1.31-52,2.64-78,.66-12.91,2.78-25.32,8-37.16l5.7,1.84c-.5,3.17,1.69,6.38-.13,9.54-1.47,2.57-3,5.14-4.38,7.62l-1.37-1.45a14.59,14.59,0,0,0-.34,7.25c.73,3.25.82,6.16-2.39,8.52,4.73,3.95,4.2,8.56,2.73,13.39-2.72,9-5.35,18-8,27a12.45,12.45,0,0,0-.22,2.3,3.84,3.84,0,0,0,1.76-2.34c2.83-9.77,5.61-19.55,8.5-29.31a14.54,14.54,0,0,1,1.83-3.08l.34,1.18.49-.34-.71-.94a20.81,20.81,0,0,0-.72-4.15c-2.48-6.34-2.07-12.54.49-18.74.9-2.17,1.5-4.45,2.24-6.68.59-.79,1.6-1.52,1.7-2.36a59.39,59.39,0,0,0,.11-6.54c4.21,1.43,8.49,2.69,12.62,4.34,3.55,1.41,5.83,4.29,7.57,7.66a74.92,74.92,0,0,1,6.36,19.47,245.13,245.13,0,0,1,5.27,48.4c0,7.87-1.32,15.54-3,23.17A212.82,212.82,0,0,1,723.07,240c-1.14,2.79-2.72,5.39-4.09,8.07l-1.21-.16a16.63,16.63,0,0,0-6.28-10.72c-.38,1.46-.74,2.81-1.09,4.17Zm4.13-70.17-.23-2.17-.7.13.82,2.13c.37,4.24.63,4.92,2.89,6.68C714.23,179.74,714.42,177.07,712.38,175.22Zm3.83,14.4c-.06-1.32-.13-2.65-.2-4-.65,1.41-1.45,2.83.1,4.06-.05,3.18.26,6.42-.2,9.55-1.35,9.4-3,18.75-4.53,28.12-.4,2.45-.7,4.92-1,7.38l.95.14q4.43-22,6.77-44.29l6-1c-2.38-1.17-4.36-.78-5.94,1Zm-5.68,17,.51-1.21c-.67-.74-1.31-2.06-2-2.11a88.41,88.41,0,0,0-12.39,0c-.89,2.15-.1,3.29,1.27,3.42A54.52,54.52,0,0,0,710.53,206.6Zm7.05-21.85c3,.45,3,.45,5.14-2Zm-8.49-20.37c-.12,0-.29,0-.34.09a1.12,1.12,0,0,0-.08.42l.57-.12Zm-1.92-5.75c-.12,0-.29,0-.34.08a1.42,1.42,0,0,0-.08.42l.57-.11Zm3,9.23.07-.43-.57.12a.94.94,0,0,0,.17.38S710,167.89,710.14,167.86Zm-7.68-23,.07-.43-.57.12a.94.94,0,0,0,.17.38S702.35,144.86,702.46,144.83Zm8.64,25.91.07-.43-.57.12a.94.94,0,0,0,.17.38S711,170.76,711.1,170.74Zm-7.62-23.32c-.08-.12-.13-.28-.24-.33s-.22.11-.33.18l.4.53Zm.81,2.57c-.12,0-.29,0-.34.09a1.08,1.08,0,0,0-.08.42l.57-.12Zm.68,2.91-.14.39.57.05a1,1,0,0,0-.11-.4C705.25,152.88,705.08,152.91,705,152.9Zm3.25,9.2.07-.43-.57.12a1.1,1.1,0,0,0,.17.38C707.94,162.21,708.11,162.13,708.22,162.1Zm-1.85-6.1-.26-.35a2.49,2.49,0,0,0-.29.29,4.49,4.49,0,0,0,.41.46Z" fill="#225675"/><path d="M929.22,634.09c-8.74.08-17.49.06-26.24.3-2.12.06-4.22,1-6.34,1.47a27,27,0,0,0-5-.91q-33.33-.09-66.65,0c-21.1,0-42.19,0-63.29,0-2.86,0-5.35-.53-7.4-2.64a8.24,8.24,0,0,1-2.68-5.93c0-1.41-.14-2.81-.25-4.8-15.16-.21-30.11,0-45.24-.13a19.19,19.19,0,0,1-.54-3.05q0-27.32.09-54.63l54.58.1v56.7c3.26,1.65,6.48.59,9.55.92H932.38C934.41,626.87,932.24,630.59,929.22,634.09Z" fill="#e5e5e5"/><path d="M209.32,618.63h-7.77l-30.41-.19c-2.85,0-5.7-.12-8.55-.18l-.2-.25c0-2.07,0-4.14,0-6.21q-.09-19.08-.19-38.18l6.77-.1,7.59,0,41.5,0,8.4,0h41.44l8.41,0,21.17.28c-1.7.23-3.39.51-5.09.68s-3.36.21-5.36.33v14.4c0,4.79.06,9.58,0,14.37-.07,4.57.35,9.16-.35,14.09h-5.6c-13.91,0-27.81,0-41.72,0a42.6,42.6,0,0,0-5.12.63l-1.12.42Zm-31.74-44v21.37c0,3.67-.12,7.35,0,11,.14,3.42-.74,6.95.76,10.5,4.19-.12,8.28.59,12.25-.46.86-6.6.59-38.86-.38-42.43Z" fill="#027172"/><path d="M661.69,222.11c-.07,2.39-.25,4.77-.17,7.15.34,9.74-8.06,16.44-16.53,16.93-1.26.07-2.54,0-3.81,0-1.71-.89-1.14-2.44-1.06-3.82q1.05-17.7,2.13-35.4l2.38,0c1.74,0,3.49,0,5.23,0,1.34,0,2.65-.44,2.76-2,.14-1.92-1.44-1.74-2.66-1.76-2.54-.06-5.07,0-7.61,0l1.08-37.38c1.44-.15,1.84-1.11,1.72-2.36-.29-3.32-.84-6.63-.92-10-.15-5.91-.34-11.84.06-17.73.37-5.36,1.44-10.67,2.31-16,.37-2.29,1-4.54,1.55-6.8l-1-.28-3,10.1-1.47-.25c.14,4.37.81,8.7.3,12.89-.79,6.37-1.16,12.63,0,19,.26,1.45-.44,3.07-.7,4.61-4.47,4.54-9.06,9-13.4,13.64-4.76,5.13-9.42,10.38-13.9,15.76-2,2.44-4.11,4.15-7.44,4.55-10.92,1.32-21.79,3-32.72,4.32-5.66.66-11.39.75-17.09,1.1-.4-1-.81-1.95-1.21-2.93-.12-1.6-.23-3.21-.34-4.81-.12-.88-.23-1.76-.35-2.64-.19-.71-.37-1.42-.56-2.13s-.26-1.14-.38-1.71l-.9-2.17a.63.63,0,0,0,0-.78l0-.05,2.85-.89,2.82-.13c8.5.22,16.68-2,25-3.31,5.32-.83,10.44-3,16-2.39,2.2.25,4.37.63,6.56,1l.18-.7-7.92-2.71,6.48-1.73a9.75,9.75,0,0,0-5-.12c-1.4.31-1.67-.42-1.88-1.43a62.54,62.54,0,0,1,3.22-5.79c9.82-13.93,19.75-27.79,29.54-41.74a26,26,0,0,0,3.4-6.73c1.65-5,4.41-8.67,9.76-10.16,3.66-1,7.19-2.5,10.78-3.78l.84,2.85c-1.62.8-2,2.23-1.9,3.86l-1,2.86c-.32.64-.64,1.28-1,1.92l-1,2.89-1,2.87c-.32,1.27-.65,2.55-1,3.83-1.72,2.08-2.81,4.26-1,6.84l1,1,.95.95,1,1,1,2.76-1,1.92-1,.93c-.49,1.24-1.53,2.57-1.34,3.69a49,49,0,0,0,2.3,7l1,2.85c-.06,2.74.14,5.42,1.91,7.7,0,2.13.09,4.23,1.93,5.74-.08,3.51.57,6.81,2.87,9.62.39.93.79,1.86,1.18,2.8.21,2.83.55,5.67.62,8.51.23,10.61.36,21.23.54,31.85C661.76,218.42,661.72,220.27,661.69,222.11ZM641.36,117.28l-1.05.48,1.16,2.37.73-.29Z" fill="#225675"/><path d="M345.62,160.06c2.5.43,5,.73,7.48,1.34,3.78.94,5.73,3.8,7,7.22a5.12,5.12,0,0,0,1.93.24c2.56-.76,5.07-1.66,7.6-2.52l6.28,0,2.51.45,2.6.84h0l2.65,1.65,4.65,5.95-1.59,0c-5.55-2-11-4.1-17-4.86-7.11-.9-12.19,4.65-11.32,12.36a66,66,0,0,1,.54,9.52c-.18,5.58-.64,11.15-1.05,16.73-.79,10.66-1.69,21.32-2.4,32-.24,3.58,0,7.2,0,11.24,9.09-3.19,17.93-6.3,25.63-12a17.69,17.69,0,0,0,6.46-10.37,36.8,36.8,0,0,0,1.16-9c0-6.54-.35-13.08-.56-19.62l2.66-.06.36.05,2.3.87c.4,7.3.92,14.6,1.17,21.91.37,11-4.66,18.81-14.16,24.13a73.28,73.28,0,0,1-25.87,9.15l-3.12,10.11-.3-.15A15.53,15.53,0,0,1,339.17,272c-6.19-.32-12.37-1-18.55-1.62a16.36,16.36,0,0,1-3.68-1,11.12,11.12,0,0,1-7.9-9.32c-.41-2.67-.6-5.37-.88-8.06a47.08,47.08,0,0,1,.14-6.18c1.15-7.79,2.26-15.59,3.77-23.32,1.7-8.66,3.81-17.24,5.73-25.85q3.39-12.67,6.77-25.34c.24-.92.58-1.81.89-2.71,3-8.59,6.27-10.55,15.51-9.18-.69,4.05-1.43,8.1-2.05,12.16-1.69,11.08-3.43,22.16-4.94,33.27-.83,6.1-1.23,12.25-1.83,18.38-1,0-1.91,0-2.87,0-3.26,0-5.46,1.33-6.23,4.67s-1.57,6.45-2.35,9.67c-.34,3.62-.92,7.24-1,10.86s1.55,5.58,5.23,6.34c3.09.63,6.29.73,9.43,1.1,3.29.38,5.29-1.4,6-4.26,1-4,1.55-8.06,2.29-12.09.33-2.79.88-5.58.94-8.38.1-5-1.47-6.52-6.67-7-.31-5.41.71-10.68,1.62-16,.87-5.13,1.44-10.3,2.19-15.45.81-5.61,1.69-11.21,2.52-16.81Q344.48,168,345.62,160.06Z" fill="#ef6938"/><path d="M352.26,534.65l-28.29.22q-12.24.11-24.46.24l-23.13,0-8.53,0H226.53l-6.48-.42q.07-22.77.18-45.55c0-1.73.3-3.45.46-5.18,1.71-.14,3.43-.38,5.14-.41,6.63-.11,13.26-.15,19.88-.21h13.54l16-.05h19.46l57.6.07Zm-27.08-39.22a7,7,0,0,0-1.69-.54q-43.86-.06-87.74-.07c-1.11,0-2.22.16-3.32.27-.14,0-.26.17-.38.27s-.23.22-.34.32c-.83,7.21-.53,24.23.48,27.51,6.14.84,89.36.56,93-.37Z" fill="#f59421"/><path d="M914.91,621.48H769.85q0-45.19,0-90.4c0-6.49.85-7.3,7.54-7.33l27.75-.11.22-.22.31.08c3.65,1.82,7.55.44,11.31.79.47,0,1-.53,1.49-.82l.27-.11.16.24c4.32,0,8.63.14,13,.14q37.15,0,74.33,0c1.28,0,2.57-.08,3.83,0,3.5.32,4.73,1.66,4.9,5.17,0,.64,0,1.28,0,1.92Q914.92,576.18,914.91,621.48ZM795.7,612.81l1.1-.06c.8,0,1.59.1,2.39.1l89.78,0c3,0,6.08.08,9.12.07s6.26-.09,9.28-.14c1-7.67.66-77-.31-80.28-7.64-.74-126.22-.44-129.75.33-.83,5.52-.64,76.35.27,80Z" fill="#b2b1b2"/><path d="M112.45,483.25l8.47,0,14.42,0h14.44c1.6.07,3.19.19,4.78.19,12.95,0,25.9,0,38.85,0,1.74,0,3.48.27,5.22.42,2.25,1.38,2.41,3.53,1.87,5.74s-2.55,2.93-4.66,3.15c-1-.08-1.91-.24-2.86-.24q-64.74,0-129.49.05c-5,0-6.16.75-7.53,5.5A38.12,38.12,0,0,0,55.72,519c1.53,5.69,2.85,6.58,8.73,6.58H191.06c1.59,0,3.19-.12,4.78-.18,5,1.34,6.15,3.78,3.7,8.2a8.15,8.15,0,0,1-.87,1.11c-1.75.08-3.5.19-5.26.22-5.59.08-11.19.13-16.78.2h-7.7l-23.68,0h-8.92c-2.4,0-4.8-.06-7.19,0s-4.64.19-7.24.31v13c0,4.15,0,8.31,0,12.46s.32,8.2-.31,12.6l-5.33-.36c-.2-12.8.07-25.19-.16-37.67H110.4v37.9l-4.79-.28V560.2c0-4.15.11-8.31,0-12.46s.64-8.22-.63-12.65H99.63l-47-.15c-.19-.7-.19-1.57-.62-2.06a24.84,24.84,0,0,1-5.14-10.64,53.81,53.81,0,0,1-.44-24.63c1-5,2.66-9.87,6.78-13.39,1.75-.08,3.51-.21,5.26-.22,16.28,0,32.57,0,48.86,0A36.07,36.07,0,0,0,112.45,483.25Z" fill="#f59421"/><path d="M733.37,448.78c9.12.34,15.29,5.68,16.56,15.63.88,6.85.69,13.65.74,20.46.13,19,.1,37.93.13,56.9l-.31.17a18.76,18.76,0,0,0-4.08-.93c-10,0-20.07,0-30.11,0,0-17.78-.07-35.56-.18-53.34a61,61,0,0,0-.7-6.57c2.32-.26,1.55-2.08,1.57-3.34.09-6.83-.37-13.68,1.11-20.44l-.05.07,1-1-.05.06c1.46-.93,2.81-2,2.92-3.9l-.05.05Zm3,15.82c0-2.18-1-3.27-3.08-3.38s-3.53.94-3.58,2.85a3.83,3.83,0,0,0,3.48,3.81C735.1,468,736.33,466.74,736.35,464.6Z" fill="#e5e5e5"/><path d="M661.8,216.58c-.18-10.62-.31-21.24-.54-31.85-.07-2.84-.41-5.68-.62-8.51l-.12-2.86c-.51-10.3-.66-20.64-1.6-30.91-1.32-14.44-2.57-28.8,1.53-43l.24-1c2.36.29,4.21-.18,4.91-2.88.11-.45,1.23-.64,1.88-1,.3.88.65,1.74.89,2.64.79,2.92,2.35,5.14,5.49,6.17a37.81,37.81,0,0,0,16.36-10.71,6,6,0,0,1,1,1.53A6.44,6.44,0,0,0,697,99.52c-5.23,11.84-7.35,24.25-8,37.16-1.33,26-2.6,52-2.64,78a17.28,17.28,0,0,1-.19,1.89l-8.47.17-5.76-1c0-3.19,0-6.38.14-9.56.13-4.27.33-8.54.5-12.81a33.75,33.75,0,0,0,1.27-5.44c.49-7.11.82-14.23,1.18-21.35.82-16,2.61-32,.57-48.06a8.21,8.21,0,0,1,2.59-7.73,40.68,40.68,0,0,1,4.26,2.6c2.74,2.14,3.17,2.08,5-1.33,1-1.27,1.93-2.55,2.89-3.82,2.46-1.77,2.87-4.42,3.12-7.14-1.78,2-3.19,4.16-3.35,6.92-2.08.44-2.41,2.19-2.89,3.84-1.3,1.06-2.37.93-3.66-.25a48.34,48.34,0,0,0-4.77-3.46l-.11-.1-.84-.84-.12-.12-.87-.84-3.67-2.33-5,3.66a14.14,14.14,0,0,0,1,3.43c1.7,2.76,1.22,5.3-.1,8a23.14,23.14,0,0,0-2.22,10.66q.66,29.4,1.15,58.82a11.51,11.51,0,0,0,2.16,7.15,26.39,26.39,0,0,1,.87,4.51c.09,5.18,0,10.37,0,15.55l-2.89,1ZM663.54,110c1-.51,1.79-.77,1.77-.9-.48-2.9-1-5.78-1.77-9.58Zm12.39,90.79-1-1.09c-.3.29-.82.56-.84.86s.42.69.66,1Zm-1,8.42c-.23.17-.6.3-.64.5s.2.51.32.77l.91-.71Z" fill="#efefef"/><path d="M649.92,476.59c0,4.31.11,8.63,0,12.94a4.75,4.75,0,0,0,2.94,4.89,30.61,30.61,0,0,1,13.88,14.64c6.47,13.94-1.12,31.88-12.48,36.43-.18-1.28-.39-2.43-.49-3.6-.28-3.16-.56-6.31-.74-9.48-.23-4.11-3-6.64-5.8-9-3.32-2.72-11.57-2.57-14.93.11-4.1,3.25-6.47,7.39-6.36,12.77.07,2.86,0,5.73,0,8.73-2.49.45-3.8-.89-5.19-2.15-15.71-14.27-12.6-37.65,5-47.86,3.18-1.85,4.1-3.78,4-7.15-.15-6.39.08-12.78.16-19.17l1.72,1.18-.05-.06c.42.83.63,1.92,1.29,2.44,2.89,2.26,6,4.21,9.84,4.23C645.16,476.52,647.54,476.56,649.92,476.59Z" fill="#e5e5e5"/><path d="M425.32,459.46c-.65,2.57-1.45,5.13-1.92,7.74-.64,3.56.91,6.79,1.93,10.09-1.76.07-3.51.21-5.26.21q-57.06,0-114.12,0c-2.31,0-5,1-6.86-1-2.21-2.36-1.94-5.63-2.23-8.62a9.3,9.3,0,0,1,.35-2.36c1-6,1.23-6.26,7.29-6.26h116C422.13,459.26,423.73,459.39,425.32,459.46Z" fill="#e5e5e5"/><path d="M700.6,447.45c1,1.7,2.72,1.27,4.24,1.28,5,0,10.06,0,15.08,0,1.72,0,3.44.2,5.16.31l-3.19,3.54.05-.05c-1.53.88-2.86,1.92-2.92,3.9l.05-.06-1,1,.05-.07c-2.14,2.36-2.73,5.27-2.81,8.3-.1,3.32-.06,6.65-.09,10l-62.56-.06a10.85,10.85,0,0,0-2.6-.76c-2.37-.11-4.74-.13-7.11,0a10.2,10.2,0,0,1-8.15-3,14.59,14.59,0,0,0-3.13-1.9l.05.06q-1-3.88-2-7.77a13.75,13.75,0,0,1,4.61-10.47,11.1,11.1,0,0,0,1.43-2.33,38.07,38.07,0,0,0,15-1c4.54-1.27,9.19-2.19,13.83-3.28.55,1.21,1,2.29,1.5,3.29l5,.48L667,454.29c-1.14,2.29.53,3.31,2.13,3.81a13.48,13.48,0,0,0,5.14.46,22.31,22.31,0,0,0,17-9.82l-.07.06C694.57,450.07,697.54,448.47,700.6,447.45Zm-58,18.4c1.52.08,3.28-1.61,3.46-3.3s-1.51-3.94-3.21-4c-1.5-.08-3.29,1.63-3.47,3.31A3.93,3.93,0,0,0,642.61,465.85Z" fill="#e5e5e5"/><path d="M351.58,267.47l3.12-10.11a73.28,73.28,0,0,0,25.87-9.15c9.5-5.32,14.53-13.15,14.16-24.13-.25-7.31-.77-14.61-1.17-21.91l0-1h0l1-1.25,11.4,2.53c.33,11.79,1.1,23.59.85,35.37-.24,11.62-1.5,23.21-2.35,34.82-.11,1.52,0,3.35-2.27,3.56-2.69-.06-5.39-.21-8.09-.16a99.6,99.6,0,0,1-20.31-1.81,23,23,0,0,0-3.33-.12,3.55,3.55,0,0,0-.8-.05,6.18,6.18,0,0,0-1.64-.83C362.2,272.4,357,269.54,351.58,267.47Z" fill="#027172"/><path d="M425.32,459.46c-1.59-.07-3.19-.2-4.78-.2h-116c-6.06,0-6.32.23-7.29,6.26a9.3,9.3,0,0,0-.35,2.36c.29,3,0,6.26,2.23,8.62,1.85,2,4.55,1,6.86,1q57.06.09,114.12,0c1.75,0,3.5-.14,5.26-.21.91.23,2.2.17,2.66.75a4.75,4.75,0,0,1,1,3.34c-.14.79-1.41,1.47-2.3,2a4,4,0,0,1-1.88.17l-49.37-.13-16.42,0h-6.67l-57.6-.07c-5.67-7.43-5.57-15.69-3.22-24.14,1.44-5.19,2.77-6,8.23-6q20.61,0,41.21-.05l2.61.27c6,.06,12,.14,17.93.15a8.35,8.35,0,0,0,2.2-.65l17.33-.06a40.53,40.53,0,0,0,4.62.59c4.88.11,9.77.09,14.65.12L411,453.5l16.26-.25a2.93,2.93,0,0,1,1.93,3.68C428.77,459.06,427,459.28,425.32,459.46Z" fill="#ef6938"/><path d="M209.31,118.77a40.44,40.44,0,0,1-1.48,6.44,10,10,0,0,1-7.18,6.39c-9.52,2.28-17.25-1.66-22.28-9.7a10.68,10.68,0,0,1-.78-3.17c1.07-1.87,2.66.19,3.88-.5.24.72.26,1.74.76,2.12,4.41,3.32,9.27,5.48,15,5a8.4,8.4,0,0,0,7.66-6.08c-.42-.3-.56-.47-.67-.46-.44.06-1.12,0-1.26.31-2.13,4-5.7,3.91-9.49,3.72a14.59,14.59,0,0,1-8.72-3.19,30.76,30.76,0,0,0-3.22-2c.53-4.73,1.11-9.46,1.56-14.19a10.53,10.53,0,0,0-.51-2.77c.23-1.74.47-3.48.7-5.21-.05-1.24.51-2.87-1.73-2.71-.62-1-1.17-2.14-1.87-3.12-2.44-3.45-2.44-6.38.39-9.63l4.39,3.83a30,30,0,0,0,0-3.86,7.54,7.54,0,0,1,3.23-7.5,30.82,30.82,0,0,1,5.25-3.25c2.83-1.39,5.77-2.55,8.55-3.76l5.95,2.24c3.85,1.46,6.47,3.88,6.89,8.28.11,1.16.93,2.26,1.42,3.38A42.29,42.29,0,0,0,214,90.61c-.07,6.3-3.18,11.21-7.71,15.33-1,1-2.23,1.77-3.49,2.76.17,2.74.35,5.54.52,8.39ZM196.73,96.63l1.15,1.7c-.18.24-.55.56-.49.72.88,2.41,2.92,2.46,5,2.35s3.09-1.28,3-3.37l0-1.32c0-.38.12-1,0-1.09C202.28,94.2,199.32,93.9,196.73,96.63Zm1.32-18.56c-1.82-2.9-3-2.91-6.71,0ZM196,80.76c-.82,1-1.64,1.57-1.61,2.08,0,.75.7,1.46,1.1,2.19.52-.45,1.44-.86,1.49-1.35C197,82.94,196.47,82.15,196,80.76Zm16.69,2.41-2.1-1.75c-.42.6-1.26,1.3-1.15,1.78.15.7,1,1.25,1.54,1.87Zm-5.83-5.07h5.48C209.43,76.07,209.42,76.09,206.82,78.1Z" fill="#f4a865"/><path d="M406,202.46l-11.4-2.53c-.05-.57-.11-1.14-.16-1.71l5.94-16.12,1.22-.16c6,2.1,11.91,5,18.11,6.08,6,1.09,12.41.41,18.63.49,7.51.09,15,.2,22.53.19a11.49,11.49,0,0,0,4.58-.87c3.63-1.62,7.15-3.48,10.68-5.3,2.67-1.38,5.3-2.86,8.2-4.44,2,4-2.29,4.87-3.72,7.46,4,.71,7.82,1.36,11.63,2.11a17.09,17.09,0,0,1,3.56,1.24,9.06,9.06,0,0,1-.42,1.76h-5.77l-.08.66,4.83,1.11,3.62,1.76-.18,1.05-5.69.57,4.13,2.73c-2.23,2-4.73.4-7,1.09l1.5,1.83c-1.61,1.42-3.4.83-5,.54-5.31-1-10.56-2.43-15.9-3.23a36.76,36.76,0,0,0-9.94-.07c-10.27,1.32-20.54,2.72-30.73,4.54A53.31,53.31,0,0,1,406,202.46Z" fill="#743a2c"/><path d="M366.87,151.32a24.42,24.42,0,0,1-15.13-11.7,7.53,7.53,0,0,0-2.88-2.21c-3.73-2.13-4.17-3.55-2.09-7.94-1-1.72-3.18-3.35-2.08-5.77.52-1.14,1.82-1.92,2.93-3-1.17-5.47-.41-6.55,5.86-7.8,1-5.56,2.26-6.37,7.42-5.08,1.13-1.48,1.94-3.41,3.35-4.09s3.25.1,5.56.28c.89-.45,2.54-1.94,4.16-1.91s3.2,1.6,5,2.59c1.12-1.15,2.43-2.84,4.87-1.94,2.68,1,2.84,3.14,2.49,5.45,2.24.35,4.86-.93,6,2,1.05,2.74.27,5-2,6.77a2.82,2.82,0,0,0-.5.78c-2.45,1.07-5,2-7.34,3.24a5.83,5.83,0,0,0-3.34,5.85c.25,3.3.54,6.6.72,9.9,0,.52-.42,1.07-.75,1.81-1.39-1-2.47-1.9-3.67-2.59-1.86-1.07-3.44-.75-4.61.8a3.1,3.1,0,0,0-.19,4c1.75,2.37.91,4.48-.53,6.53C369.06,148.63,367.93,150,366.87,151.32Z" fill="#050303"/><path d="M168.86,365.32l22.27,1q-2,22.83-4,45.66c-.41,4.75-.27,9.6-1.14,14.26-1.05,5.61,1.25,9.59,4.91,13.2,1.69,1.68,3.55,3.19,5.34,4.77a10,10,0,0,1-11.63,1.9,18.1,18.1,0,0,1-10.1-11.84c1.8-5.58-.36-11-1-16.4-1.11-10.24-2.65-20.43-3.61-30.68C169.21,379.92,169.18,372.61,168.86,365.32Z" fill="#f4a865"/><path d="M690.22,92.73a37.81,37.81,0,0,1-16.36,10.71c-3.14-1-4.7-3.25-5.49-6.17-.24-.9-.59-1.76-.89-2.64-.5-1.45-.61-3.26-1.56-4.29-4.22-4.57-5.42-10.26-6.44-16a24.69,24.69,0,0,1,1.19-13.5c2.7-.69,5.56,1.1,8.58-.46-1.85-3.31-5.26-1.68-8.07-2.88,1.37-2.66,2.53-5.07,3.83-7.39.78-1.39,2.11-2.13,3.64-1.36,4.3,2.17,8.89,2.22,13.53,2.21,5,0,8,3,9.61,7.3,1.32,3.41.61,6.94-.58,10.3-.79,2.22-1.83,4.36-2.88,6.84l2.71.93.85.75c-.47,1.45-.94,2.9-1.42,4.35a50.4,50.4,0,0,0-.8,5.83A43,43,0,0,0,690.22,92.73ZM674.53,80.84l-9-1.65C667.56,83.88,669.57,84.3,674.53,80.84ZM676.1,63c2.75,1.9,4.81,3.39,7.74,3.61C682.31,62.49,680.84,61.74,676.1,63Zm3,6.14c-.78-.74-1.21-1.37-1.79-1.59-.24-.08-1.18.76-1.15,1.13,0,.62.62,1.2,1,1.8Zm-15-2.49c.78-.82,1.5-1.25,1.46-1.6a5.88,5.88,0,0,0-.91-1.87c-.43.33-1.19.63-1.23,1A8,8,0,0,0,664.11,66.66Z" fill="#d6864d"/><path d="M39.31,453.47c9.36-.09,18.71-.22,28.06-.24,4.44,0,8.87.17,13.3.26,0,3.35,0,6.7,0,10.05,0,3.19.1,6.39,0,9.57s.65,6.63-.58,9.81H39.31Z" fill="#225675"/><path d="M824.54,453.05c-1.41.13-2.83.36-4.24.36q-13.41.06-26.82,0a44.28,44.28,0,0,1-4.69-.53c-3.8-4.32-4-6.28-1.21-10.92s5.74-9.49,8.84-14.08c2.76-4.09,4.34-8.4,4-13.37a14.57,14.57,0,0,1,.21-2.36l12.57.08c0,1.27.17,2.54.11,3.79a18.23,18.23,0,0,0,3.28,11.17c3.13,4.76,6.07,9.64,9.06,14.49S828.45,448.38,824.54,453.05Z" fill="#027172"/><path d="M705.77,562.17V542.59c3.41-1.47,6.93-.43,10.31-.78a12.28,12.28,0,0,0,3.08.87q14.36.11,28.71,0a10.23,10.23,0,0,0,2.62-.75l.31-.17h9.48c.08,7.16.12,13.74,0,20.32Z" fill="#e5e5e5"/><path d="M215.69,79.36c-.49-1.12-1.31-2.22-1.42-3.38-.42-4.4-3-6.82-6.89-8.28l-5.95-2.24c-2.78,1.21-5.72,2.37-8.55,3.76a30.82,30.82,0,0,0-5.25,3.25A7.54,7.54,0,0,0,184.4,80a30,30,0,0,1,0,3.86L180,80c-2.83,3.25-2.83,6.18-.39,9.63.7,1,1.25,2.07,1.87,3.12-.27.75-.55,1.49-.82,2.24l2.55.47c-.23,1.73-.47,3.47-.7,5.21-5.79-4-9.21-9.59-11-16.16C161.43,80.72,157.88,74,161.36,65.46c3.1-7.61,10.19-10.07,18.76-6.39,6.9-3.85,14.26-3.74,21.73-1.76a20.18,20.18,0,0,1,10.44,6.45C216.17,68.35,217.55,73.51,215.69,79.36Z" fill="#743a2c"/><path d="M276.38,535.14l23.13,0q.06,19.18.13,38.39l-2.15.24-21.17-.28Z" fill="#426b7f"/><path d="M366.87,151.32c1.06-1.37,2.19-2.69,3.18-4.11,1.44-2.05,2.28-4.16.53-6.53a3.1,3.1,0,0,1,.19-4c1.17-1.55,2.75-1.87,4.61-.8,1.2.69,2.28,1.6,3.67,2.59.33-.74.78-1.29.75-1.81-.18-3.3-.47-6.6-.72-9.9a5.83,5.83,0,0,1,3.34-5.85c2.36-1.25,4.89-2.17,7.34-3.24a10.85,10.85,0,0,1,4.8,9.38c-.13,4.52,1.12,7.74,5.54,9.37.38.14.59.72,1.08,1.35-2.44,2.07-2.78,4.66-2.39,7.86.69,5.64-1.26,7.77-6.94,8.69-1.86.29-3.76.33-6.15.53l-.82,6.3a58.16,58.16,0,0,1-6-.87c-4.41-1.07-8.77-2.32-13.15-3.51Q366.28,154.07,366.87,151.32Zm22.91-21.16c.44,1.55-.54,3.83,2.13,4.43.52-3.15.52-3.15-2.17-4.4l3.87-3.35c-4.29.12-4.82.48-6.11,3.9Z" fill="#743a2c"/><path d="M359,483.37l16.42,0c-.14,1.74-.41,3.47-.42,5.21q0,20.07,0,40.15v5.12c-2.88,1.7-5.64.82-8.26.94s-5.09-.11-7.63-.18Z" fill="#f59421"/><path d="M691,76.29l-2.71-.93c1-2.48,2.09-4.62,2.88-6.84,1.19-3.36,1.9-6.89.58-10.3-1.66-4.28-4.59-7.31-9.61-7.3-4.64,0-9.23,0-13.53-2.21-1.53-.77-2.86,0-3.64,1.36-1.3,2.32-2.46,4.73-3.83,7.39,2.81,1.2,6.22-.43,8.07,2.88-3,1.56-5.88-.23-8.58.46-1.63-4.64-1.33-9.44-1.07-14.22.13-2.35,1.18-4.49,3.43-5.36a4.1,4.1,0,0,0,2.61-2.95c1.69-4.59,6.13-6.28,10.42-3.9,1.85,1,3.38,2.18,5.59.91a3.07,3.07,0,0,1,2.34,0c6.17,2.48,12.77,4.35,16.64,10.47a22.13,22.13,0,0,1,2.51,19.13l-.57,1.77c-4.13-1.83-5.62-1.47-7.65,2.12C693.54,71.26,692.33,73.79,691,76.29Zm-.95-31.66a9.65,9.65,0,0,1-6.69,2.12c-2.24-.14-4.45.07-6.21,2.27a58.05,58.05,0,0,0,7.61-.59c2.19-.46,5-.32,5.62-3.5.2-.39.42-.77.59-1.17,0,0-.21-.21-.32-.32ZM673.3,37a7.06,7.06,0,0,1-2.64,6.2c-1.31,1.07-2.21,3.1-.55,4.73a36.32,36.32,0,0,1,3.27-5C675.18,41,675.33,39.14,673.3,37Zm8.88-.21c-.93,3.76-1,3.71-4.91,6.41-1.9,1.3-3.79,2.74-3.21,5.27a61.55,61.55,0,0,1,5.74-4.7C682.5,42,683.21,39.89,682.18,36.79Z" fill="#050303"/><path d="M297.49,573.74l2.15-.24c4.43,0,8.86,0,13.29.17a22.32,22.32,0,0,1,3.56.68l-14.49.24c-1.07,6.69-.75,39.54.43,43h14.16a8.15,8.15,0,0,1-2.48.86q-39.47,0-78.94,0a4.61,4.61,0,0,1-.94-.19,42.6,42.6,0,0,1,5.12-.63c13.91,0,27.81,0,41.72,0h5.6c.7-4.93.28-9.52.35-14.09.08-4.79,0-9.58,0-14.37v-14.4c2-.12,3.69-.16,5.36-.33S295.79,574,297.49,573.74Z" fill="#00938f"/><path d="M88.3,453.51h23.41l.27.3c.11.12.3.25.3.37q0,14.08,0,28.17a16.06,16.06,0,0,1-3.63.9c-5.89.09-11.78.05-17.67,0a14.83,14.83,0,0,1-2.64-.58Z" fill="#225675"/><path d="M853.83,406.23l-6.86.22,5.24-.68c-1.37-2.61-3.15-2-4.72-2.14,0,.1,0-.15,0-.15,1.36,0,2.72,0,4.54,0,.17-2.46.32-4.59.49-7-3.16-.72-6.52-.66-8.66-3.38a9,9,0,0,1-1.94-6.67c4.16-.84,7.66.24,10.45,4.43v-5.07l-6.55-1.34c-2.59-2.14-4.21-4.72-3.87-8.45,4.2-1.42,7.36.26,10.37,3.71V375c-5.87-.73-10.85-2.57-10.27-9.93,2.72-1.34,4.92,0,7.2.5a.6.6,0,0,0,.4.58l2.49,3.37c.88-2.09.39-3.37-1.2-4.29a1.18,1.18,0,0,0-.55-.51c-2.15-6.1-1.74-7.91,2.73-11.77,4.8,3.79,5.21,8.25,1.68,13.53,3.22-1,5.84-2.74,8.9-1.74.94,6.32-1.13,8.57-9.62,10.31v4c3-2.65,6-4.31,9.7-3.33.66,6.54-1.41,8.69-9.77,10.15v3.49c1.71-1.06,3-2.21,4.57-2.74a24.85,24.85,0,0,1,5-.65c.88,5.74-.37,7.62-6.42,10.09-1.1.23-2.67-1.07-3.22,1,0,.58,0,1.17.07,1.76Z" fill="#027172"/><path d="M316.59,617.61H302.43c-1.18-3.48-1.5-36.33-.43-43l14.49-.24a19.24,19.24,0,0,1,.45,2.77q0,19.08,0,38.16A15.42,15.42,0,0,1,316.59,617.61Z" fill="#027172"/><path d="M519.36,193.38h-6.52c1.72-3.45,5.14-3.58,7.86-4.76s5.47-2.17,9-3.55c-3.16-1.86-7.16-.06-8.5-4.51,1.72-.2,3.2-.32,4.68-.55,7.73-1.17,15.24-.71,22.31,3a18.2,18.2,0,0,1,1.45,4c.31,2.73,2.06,5.4.48,8.24-1.92.69-3.87,1.31-5.75,2.09-6,2.46-12,5-18,7.47a10.78,10.78,0,0,1-3.21.78c-1.21.09-1.64-.7-1.38-1.85l1.35-.75,1-.83,1.25-.34-.46-.47-.78.82-1,0-2.09.71-5.45.82c-.2-2.47,1.77-2.66,2.73-3.66l2.86-1.79,2.88-1c.41-.11.83-.22.17,0,.49-.42.18-.16-.12.1l-2.88,1-2.91.64-6,.76c1.24-4,4.67-4,7-5.57l4.87-1.83-.32-.83Z" fill="#d6864d"/><path d="M317.8,196.67c-1.92,8.61-4,17.19-5.73,25.85-1.51,7.73-2.62,15.53-3.77,23.32a47.08,47.08,0,0,0-.14,6.18c-7.31-.26-9.63-2.57-9.83-9.83a26.56,26.56,0,0,1,.09-4.28c.92-6.76,1.92-13.51,2.9-20.25L304.38,204a8.39,8.39,0,0,0,1.16-1.39c2.09-4,5.58-5.68,9.93-5.89C316.25,196.67,317,196.68,317.8,196.67Z" fill="#f59421"/><path d="M805.12,480.5l13.81-.06,0,43.16-.16-.24-.27.11-12.8,0-.31-.08-.22.22Q805.13,502.07,805.12,480.5Z" fill="#225675"/><path d="M88.3,453.51v29.17a14.83,14.83,0,0,0,2.64.58c5.89,0,11.78.08,17.67,0a16.06,16.06,0,0,0,3.63-.9,1.2,1.2,0,0,1,.21.9,36.07,36.07,0,0,1-5.11.71c-16.29.06-32.58,0-48.86,0-1.75,0-3.51.14-5.26.22l-17.73-.07-4.73-.79q0-15,0-29.92l8.53,0v29.45H80c1.23-3.18.44-6.54.58-9.81s0-6.38,0-9.57c0-3.35,0-6.7,0-10.05Z" fill="#426b7f"/><path d="M174.46,434.25a18.1,18.1,0,0,0,10.1,11.84,10,10,0,0,0,11.63-1.9l5.63,2.89a44.67,44.67,0,0,0-.66-5.25,10.22,10.22,0,0,1,1.15-8.17,23,23,0,0,0,5.86,9.63c4.08,4.17,9.61,4.67,14.63,1.42,3.63,1.83,7.63,3.3,7.74,8.84H245c-1.73-.08-3.46-.22-5.2-.22q-14.26,0-28.54,0c-1.48-2.11-3-4.23-4.45-6.34l-.72.11.42,6.28-21.89,0c-1.56-2.47-2.83-5.21-6.26-6.63.16,2.49.29,4.54.42,6.6-1.27,0-2.54,0-3.81,0l-24.77.19,0-.06h24.23c1-4.12-.57-7.58-1.06-11.09C172.88,439.51,172.76,436.8,174.46,434.25Z" fill="#301955"/><path d="M135.34,483.34l-14.42,0V453.55h14.53Q135.4,468.45,135.34,483.34Z" fill="#027172"/><path d="M135.34,483.34q.06-14.89.11-29.79l14.67,0,0,.06c-.13,1.4-.37,2.81-.37,4.21,0,8.52,0,17,0,25.55Z" fill="#00938f"/><path d="M400.52,432.06c.15.06.34.07.44.18,5.67,6.51,13.42,9.09,21.35,11.31,2.22.61,4.27,1.34,4.52,4.09-5.07.06-10.14.06-15.21.21a32.31,32.31,0,0,0-4.54.75c-4.15.06-8.31.21-12.46.16s-8.22.53-12.56-.41v-4.93c.26-1.56.53-3.12.79-4.68a10.57,10.57,0,0,1,2.28.57c2.84,1.39,5.49,1,8.18-.48A19,19,0,0,0,400.52,432.06Z" fill="#f59421"/><path d="M667,454.29l4.13-5.48L675,445.1l3.74-2.31,4.22,2.21.51-1-3.87-2,1.19-1.1c1.59.68,3.17,1.37,4.83,2.1.33-.79.58-1.36.82-1.93a3.27,3.27,0,0,1,3.31,1.28c.91,1.14,2.25,1.06,3.36.06a2.33,2.33,0,0,0,.19-3.42c-.94-1.22-2-2.32-3.07-3.47-1-1.47-2.37-1.41-3.84-1.16a2.41,2.41,0,0,0-.07-.71l3.83-3.35c1.76.52,4.22.51,5.12,1.69,1.79,2.35,3.61,1.66,5.66,1.21,2.37,3.13,1.77,6.47.7,9.84-2.52.85-5.09,1.59-7.56,2.59-1.37.55-3.12,1.05-2.83,3.19l.07-.06c-1.42.94-2.92,1.77-4.23,2.83a22.55,22.55,0,0,1-13.61,5.1C670.92,456.77,668.67,456.28,667,454.29Z" fill="#ef6938"/><path d="M359,483.37l.09,51.28h-6.84l.08-51.29Z" fill="#ffb031"/><path d="M345.62,160.06Q344.47,168,343.31,176c-.83,5.6-1.71,11.2-2.52,16.81-.75,5.15-1.32,10.32-2.19,15.45-.91,5.29-1.93,10.56-1.62,16l-4.83-.93c.6-6.13,1-12.28,1.83-18.38,1.51-11.11,3.25-22.19,4.94-33.27.62-4.06,1.36-8.11,2.05-12.16Z" fill="#f59421"/><path d="M661.8,430.73a2.28,2.28,0,0,1,.69,0c.85.33,1.93.43,2.5,1,2,2.13,4.25,1.52,6.52.69.59-.22,1.17-.48,1.75-.72,2.21,3.61,2.33,7.46,1.37,11.44a46.78,46.78,0,0,0-16.42,1.63c-7.28,2.21-14.73,3.65-22.42,3.19-.54-2.86.54-5.07,3.14-6.17,4.59-2,9.3-3.65,14-5.44l.28.27.66,2.13.74-.2c-.17-.69-.35-1.38-.53-2.07l1.66-.21,3.07,6.88c3.73-2.35,4.09-2.84,3.09-5.75a34,34,0,0,0-2.61-4.9Z" fill="#ef6938"/><path d="M400.52,432.06a19,19,0,0,1-7.21,6.77c-2.69,1.46-5.34,1.87-8.18.48a10.57,10.57,0,0,0-2.28-.57c-.23-4.18-.55-8.35-.67-12.52-.06-1.84-1.49-1.65-2.52-2.11L398.21,423A17.55,17.55,0,0,0,400.52,432.06Z" fill="#743a2c"/><path d="M365.69,156.8c4.38,1.19,8.74,2.44,13.15,3.51a58.16,58.16,0,0,0,6,.87.31.31,0,0,1,.14.46,15.87,15.87,0,0,0-.9,3.54c0,2.2-1.38,2.47-3,2.51h0l-2.6-.84-2.51-.45-9.21-1.66,0,0-1.88-.94,0,0-.73-.74-.29-.27Q364.72,159.77,365.69,156.8Z" fill="#027172"/><path d="M427.16,448.64l.09,3c-7.9.08-15.8.14-23.71.27a17.61,17.61,0,0,0-3.15.64l-18.52,0c.13-.89.27-1.78.46-3.07,7.26,0,14.28.1,21.3,0,6.38-.12,12.75-.5,19.12-.76Z" fill="#e5e5e5"/><path d="M635.79,448c7.69.46,15.14-1,22.42-3.19a46.78,46.78,0,0,1,16.42-1.63l.32,2-3.87,3.71-5-.48c-.45-1-1-2.08-1.5-3.29-4.64,1.09-9.29,2-13.83,3.28a38.07,38.07,0,0,1-15,1C635.78,448.88,635.79,448.42,635.79,448Z" fill="#426b7f"/><path d="M705.77,562.17l54.47-.08.06,1.77-54.58-.1C705.73,563.23,705.75,562.7,705.77,562.17Z" fill="#b2b1b2"/><path d="M642.25,158.92c.26-1.54,1-3.16.7-4.61-1.14-6.36-.77-12.62,0-19,.51-4.19-.16-8.52-.3-12.89l1.47.25,3-10.1,1,.28c-.53,2.26-1.18,4.51-1.55,6.8-.87,5.32-1.94,10.63-2.31,16-.4,5.89-.21,11.82-.06,17.73.08,3.33.63,6.64.92,10,.12,1.25-.28,2.21-1.72,2.36-.06-1.66,0-3.34-.22-5A5.59,5.59,0,0,0,642.25,158.92Z" fill="#426b7f"/><path d="M599,168.61c.21,1,.48,1.74,1.88,1.43a9.75,9.75,0,0,1,5,.12l-6.48,1.73,7.92,2.71-.18.7c-2.19-.32-4.36-.7-6.56-1-5.53-.64-10.65,1.56-16,2.39-8.3,1.31-16.48,3.53-25,3.31,4.83-.87,9.67-1.69,14.49-2.61,5.49-1,10.94-2.27,16.45-3.23A11.57,11.57,0,0,0,599,168.61Z" fill="#426b7f"/><path d="M813.15,412.23l-12.57-.08c0-2.18,0-4.37,0-6.56l12.47,0Q813.12,408.89,813.15,412.23Z" fill="#e5e5e5"/><path d="M388.38,175.29l-4.65-5.95L386,165l2.48.82.21.2,2.68,2.67.2.21,2.19,2.6,3.58,4.91c.2,1.39-.56,1.84-1.79,1.82l-.09-.06-2.79-.9-.1-.06-2.79-.91-.07,0Z" fill="#027172"/><path d="M800.42,403.64a7.46,7.46,0,0,1-1.7-.68c-.35-.24-.5-.76-.74-1.15a3.79,3.79,0,0,1,3.86-2.91c3.3,0,6.62-.15,9.91.07a4.22,4.22,0,0,1,3,1.68c.79,1.28-.29,2.31-1.46,3Z" fill="#e5e5e5"/><path d="M691,76.29c1.29-2.5,2.5-5,3.88-7.47,2-3.59,3.52-3.95,7.65-2.12.46,5-2.61,7.71-6.26,10.11l-4.42.23Z" fill="#d6864d"/><path d="M853.83,406.23l.24-7.46c3.15.57,6.64-1,9.89,1.56l-3.14,4.48,8,1.55Z" fill="#e5e5e5"/><path d="M181.49,117.63a30.76,30.76,0,0,1,3.22,2,14.59,14.59,0,0,0,8.72,3.19c3.79.19,7.36.23,9.49-3.72.14-.26.82-.25,1.26-.31.11,0,.25.16.67.46a8.4,8.4,0,0,1-7.66,6.08c-5.69.53-10.55-1.63-15-5-.5-.38-.52-1.4-.76-2.12A.78.78,0,0,1,181.49,117.63Z" fill="#e5e5e5"/><path d="M750.49,541.94a10.23,10.23,0,0,1-2.62.75q-14.36.07-28.71,0a12.28,12.28,0,0,1-3.08-.87,5.56,5.56,0,0,0,.22-.77c10,0,20.07-.08,30.11,0A18.76,18.76,0,0,1,750.49,541.94Z" fill="#b2b1b2"/><path d="M715.2,475.62c0-3.32,0-6.65.09-10,.08-3,.67-5.94,2.81-8.3-1.48,6.76-1,13.61-1.11,20.44,0,1.26.75,3.08-1.57,3.34C715.35,479.29,715.28,477.45,715.2,475.62Z" fill="#b2b1b2"/><path d="M691.19,448.8c-.29-2.14,1.46-2.64,2.83-3.19,2.47-1,5-1.74,7.56-2.59-.33,1.48-.65,3-1,4.43C697.54,448.47,694.57,450.07,691.19,448.8Z" fill="#301955"/><path d="M659.26,432.5a34,34,0,0,1,2.61,4.9c1,2.91.64,3.4-3.09,5.75l-3.07-6.88,2.7-3.64A1.55,1.55,0,0,1,659.26,432.5Zm1,4.79h-.49v3.09h.49Z" fill="#743a2c"/><path d="M631.65,469.84a14.59,14.59,0,0,1,3.13,1.9,10.2,10.2,0,0,0,8.15,3c2.37-.11,4.74-.09,7.11,0a10.85,10.85,0,0,1,2.6.76l-2.72,1c-2.38,0-4.76-.07-7.14-.08-3.88,0-6.95-2-9.84-4.23C632.28,471.76,632.07,470.67,631.65,469.84Z" fill="#b2b1b2"/><path d="M550.13,195.23c1.58-2.84-.17-5.51-.48-8.24a18.2,18.2,0,0,0-1.45-4,1.86,1.86,0,0,1,2.09-1.92l3.67,0a.63.63,0,0,1,0,.78l-3.87.55c.82,4.49,1.59,8.65,2.38,12.91h4c.4,1,.81,1.95,1.21,2.93a8.89,8.89,0,0,1-1.16.39C555.18,196.06,551.07,198.57,550.13,195.23Z" fill="#b2b1b2"/><path d="M642.35,203.08c2.54,0,5.07,0,7.61,0,1.22,0,2.8-.16,2.66,1.76-.11,1.56-1.42,2-2.76,2-1.74.06-3.49,0-5.23,0l-2.38,0C642.28,205.65,642.32,204.36,642.35,203.08Z" fill="#426b7f"/><path d="M700.88,433.18c-2,.45-3.87,1.14-5.66-1.21-.9-1.18-3.36-1.17-5.12-1.69L690,429l10.8-.25C700.85,430.25,700.86,431.72,700.88,433.18Z" fill="#284a5b"/><path d="M400.39,452.59a17.61,17.61,0,0,1,3.15-.64c7.91-.13,15.81-.19,23.71-.27a2,2,0,0,1,0,.87c-4.27,0-8.54-.07-12.8,0a15.1,15.1,0,0,0-3.44.91l-10.69.05Z" fill="#d6864d"/><path d="M658.41,432.63l-2.7,3.64-1.66.21a1.33,1.33,0,0,0-.87.14l-.28-.27,1-1.07-3.39-2.61C653.43,430,655.92,431.84,658.41,432.63Z" fill="#666464"/><path d="M369.67,166.34c-2.53.86-5,1.76-7.6,2.52a5.12,5.12,0,0,1-1.93-.24l3.62-5.88.29.27.73.74,0,0,1.88.94,0,0Z" fill="#027172"/><path d="M800.42,403.64h12.84l-.16,1.9-12.47,0Z" fill="#b2b1b2"/><path d="M845.83,384.43l6.55,1.34v5.07c-2.79-4.19-6.29-5.27-10.45-4.43Z" fill="#e5e5e5"/><path d="M721.89,452.61l3.19-3.54c1.8-.31,3.58-.75,5.39-.89a10.49,10.49,0,0,1,2.9.6Z" fill="#b2b1b2"/><path d="M691.89,77l4.42-.23a10.6,10.6,0,0,1-5.84,4.58C691,79.94,691.42,78.49,691.89,77Z" fill="#301955"/><path d="M427.16,448.64l-4.41.12-15.67-.16a32.31,32.31,0,0,1,4.54-.75c5.07-.15,10.14-.15,15.21-.21Z" fill="#ef6938"/><path d="M388.5,165.78,386,165l-2.29,4.38-2.65-1.65c1.66,0,3-.31,3-2.51a15.87,15.87,0,0,1,.9-3.54Z" fill="#284a5b"/><path d="M704.68,102.22a59.39,59.39,0,0,1-.11,6.54c-.1.84-1.11,1.57-1.7,2.36l-.26-.22c1.82-3.16-.37-6.37.13-9.54Z" fill="#426b7f"/><path d="M411,453.5a15.1,15.1,0,0,1,3.44-.91c4.26-.11,8.53,0,12.8,0a1,1,0,0,1,0,.7Z" fill="#b2b1b2"/><path d="M395.57,178.19c1.23,0,2-.43,1.79-1.82,1.17,1.16,2.41,2.27,3.49,3.52a6.88,6.88,0,0,1,.78,2.05l-1.22.16c-.08-2.86-2.2-1.75-3.62-1.81Z" fill="#301955"/><path d="M629.74,462.13q1,3.89,2,7.77L630,468.72a33.86,33.86,0,0,1-.72-4.08A9.84,9.84,0,0,1,629.74,462.13Z" fill="#b2b1b2"/><path d="M494.39,192.43l-4.83-1.11.08-.66h5.77Z" fill="#b2b1b2"/><path d="M519.36,193.38l4.51-1.88.32.83-4.87,1.83A2.56,2.56,0,0,1,519.36,193.38Z" fill="#e5e5e5"/><path d="M656.57,103.26l-.84-2.85,2.24-.87a5.57,5.57,0,0,0,.8.22c-.69,1.2-1.39,2.39-2.08,3.58Z" fill="#426b7f"/><path d="M865.83,409.43c.36-.3.68-.76,1.1-.88a21.74,21.74,0,0,1,2.68-.46C868.92,410.14,867.16,409.2,865.83,409.43Z" fill="#e5e5e5"/><path d="M391.39,168.65,388.71,166Z" fill="#284a5b"/><path d="M393.78,171.46l-2.19-2.6Z" fill="#284a5b"/><path d="M854,397c.55-2.05,2.12-.75,3.22-1Z" fill="#e5e5e5"/><path d="M518.39,199l2.91-.64,0-.05-2.86,1.79Z" fill="#e5e5e5"/><path d="M556.86,180.18l-2.85.89C554.58,179.58,555.74,180,556.86,180.18Z" fill="#b2b1b2"/><path d="M658.77,99.76a5.57,5.57,0,0,1-.8-.22l2.72-1.08-.24,1Z" fill="#666464"/><path d="M866.88,451.46l-1.12-.76Z" fill="#e5e5e5"/><path d="M955.37,503.86l4.54,2c-.33,1.65-.61,3-.84,4.23,1.51,3.63,4.34,3.54,7.57,2.86.67,1.51,1.3,2.91,2,4.48L965,520.26c-.93,3.3.08,5.54,3.32,7-.66,1.72-1.27,3.27-1.9,4.89l-4-.78c-2.37.58-3.54,3.07-3.56,7.68l-4,1.76-2.94-3.49c-3.38-1.28-5.55.22-7.1,3.3l-4.73-1.88.65-4.25c-.56-2.34-2.8-3.37-7.67-3.4l-1.77-4,3.6-3c.41-4.23.41-4.23-3.29-7.28.54-1.35,1.1-2.79,1.67-4.22,2.15-.85,4.27,1.43,6.44-.62s.79-4.19,1.21-6.61l4-1.76c2.12,1.1,2.24,4,5.26,4C952.87,507.67,953.52,505.63,955.37,503.86Zm2.91,18.66a8.24,8.24,0,0,0-8.34-8.51,8.34,8.34,0,0,0-8.24,8.16,8.29,8.29,0,0,0,16.58.35Z" fill="#ef6938"/><path d="M963.82,333.59l-.07,5c-.9,1.64-1.93,3.22-2.7,4.93-2.39,5.33-4.69,10.7-7.33,16.74-3.93-4.64-6.15-9.78-10.12-14.06l-9.93,14a74.07,74.07,0,0,1-7.39-1,4.06,4.06,0,0,0-4.23,1.33c-2.25,2.26-4.61,4.39-6.92,6.58l-.43-21.28h-.78v21.33c-.07,4.46-.15,8.91-.19,13.36,0,.91-.14,2,1.31,2l48.8,0c0,2.22,0,4.44,0,6.66H907c-.1-1.09-.3-2.19-.3-3.29q0-24.73,0-49.47c0-.95.16-1.89.25-2.83Z" fill="#efefef"/><path d="M990.59,402.92a12.67,12.67,0,0,1-3,2.38c-1.25.54-2.58-.94-2.59-2.55a2.56,2.56,0,0,1,2.48-2.84C989,399.72,990.48,400.82,990.59,402.92Z" fill="#b2b1b2"/><path d="M843.14,450.65l0-41.22c1.78-.11,2.71.62,2.59,2.51,0,.79,0,1.59,0,2.39-.09,4-.22,7.94-.26,11.91,0,4.61-.11,9.22.08,13.83a7.06,7.06,0,0,0,6.16,6.81c4.18.56,7.3-1.26,8.5-5.18a16.42,16.42,0,0,0,.62-4.69c0-7.47,0-14.94,0-22.42.07-1.09.21-2.18.2-3.27,0-1.58.86-1.33,1.82-1q0,20.14,0,40.3l-1.72.82H844.78Z" fill="#efefef"/><path d="M862.9,410.36c-1-.37-1.83-.62-1.82,1,0,1.09-.13,2.18-.2,3.27l-6.91-.34c0-1.85,0-3.7,0-5.55l7.53-.14C862.76,408.54,863.14,409.22,862.9,410.36Z" fill="#e5e5e5"/><path d="M845.81,414.33c0-.8-.09-1.6,0-2.39.12-1.89-.81-2.62-2.59-2.51a18.9,18.9,0,0,1,3.32-.81c1.89-.12,3.79,0,5.69,0,0,1.86.09,3.73.14,5.6Z" fill="#e5e5e5"/><path d="M852.33,414.26c-.05-1.87-.09-3.74-.14-5.6l1.79,0c0,1.85,0,3.7,0,5.55Z" fill="#00938f"/><path d="M861.14,451.48l1.72-.82Z" fill="#e5e5e5"/><path d="M843.14,450.65l1.64.83Z" fill="#e5e5e5"/><path d="M963.82,333.59l-56.86.07V319l56.72-.14c.06,1.41.12,2.82.17,4.22Zm-46.75-5.14c.37-.52,1.36-1.3,1.45-2.16a1.89,1.89,0,0,0-2.36-2.16,3.56,3.56,0,0,0-2,2.11C913.76,327.32,915.31,328.6,917.07,328.45ZM938,327c-.06-2-.8-3.09-2.23-2.87a3.14,3.14,0,0,0-2.1,2,1.89,1.89,0,0,0,2.14,2.34C936.68,328.34,937.45,327.39,938,327ZM926.3,323.2c-.91,1.48-1.74,2.27-1.86,3.16-.19,1.3.85,2,2.09,2a1.78,1.78,0,0,0,1.89-2.18C928.22,325.29,927.33,324.58,926.3,323.2Z" fill="#e5e5e5"/><path d="M52.64,534.94l47,.15H105c1.27,4.43.49,8.57.63,12.65s0,8.31,0,12.46v12.86l4.79.28v-37.9h5.68c.23,12.48,0,24.87.16,37.67l5.33.36c.63-4.4.24-8.52.31-12.6s0-8.31,0-12.46v-13c2.6-.12,4.92-.26,7.24-.31s4.79,0,7.19,0c0,2.4,0,4.79.06,7.19l.21,31.16-1.48.81c-11.18,0-22.36-.14-33.54-.13q-45.54,0-91.09.09c-2.39,0-4.77-.1-7.16-.15l-1.39-.68q0-19.08,0-38.16l5.68,0,.13,38.12,4.75-.4V535.24c6-.07,11.93-.1,17.9-.23,1.71,0,3.41-.31,5.11-.48Z" fill="#ef6938"/><path d="M144,608.88c-1.75.07-3.51.22-5.26.22H13.52c-5.5,0-6.58-.88-7.76-6.2a31.31,31.31,0,0,1,0-13.79c1.19-5.34,2.24-6.26,7.76-6.26q50.63,0,101.25,0,13.19,0,26.39,0a27,27,0,0,1,2.84.28c-1,3.81-2.18,7.58-2.81,11.45C140.38,599.61,142.31,604.26,144,608.88Z" fill="#e5e5e5"/><path d="M145.25,535.12l23.68,0a170.8,170.8,0,0,0,0,38.42l-6.77.1-13.45-.1-3.66.15-.14-.17c.06-1.73.14-3.47.15-5.2Q145.2,551.71,145.25,535.12Z" fill="#426b7f"/><path d="M148.76,573.52l13.45.1q.09,19.1.19,38.18c0,2.07,0,4.14,0,6.21l-10.71.42-3.45,0a8,8,0,0,0,.47-.8c2.7-5.49,1.31-8.07-4.68-8.71-1.71-4.62-3.64-9.27-2.83-14.29.63-3.87,1.85-7.64,2.81-11.45.62,0,1.24,0,1.84-.16,3.25-.59,4.25-1.76,4-5.05A30,30,0,0,0,148.76,573.52Z" fill="#fefefe"/><path d="M135.12,574.27l1.48-.81,8.36,0,.14.17C141.86,575.24,138.46,574.23,135.12,574.27Z" fill="#426b7f"/><path d="M963.73,356.68q0,12.48,0,24.95h-8.12L915,381.46c0-2.23.09-4.46.13-6.69,1.36-.83,2.71-1.66,4.08-2.48,3-1.78,6-3.11,9.45-1.39.69.34,1.61.2,2.31.53,1.74.84,3,.29,4.26-1,2-2.07,4-4.12,6.08-6.12,2.71-2.61,3-2.57,5.86.06,2,1.8,3.52,4.19,6.74,4.56.59-.88,1.24-1.76,1.79-2.7,1.44-2.47,2.92-4.93,4.21-7.49A3.39,3.39,0,0,1,963.73,356.68Z" fill="#ef6938"/><path d="M963.73,356.68a3.39,3.39,0,0,0-3.87,2.06c-1.29,2.56-2.77,5-4.21,7.49-.55.94-1.2,1.82-1.79,2.7-3.22-.37-4.78-2.76-6.74-4.56-2.87-2.63-3.15-2.67-5.86-.06-2.07,2-4.09,4.05-6.08,6.12-1.23,1.29-2.52,1.84-4.26,1-.7-.33-1.62-.19-2.31-.53-3.5-1.72-6.5-.39-9.45,1.39-1.37.82-2.72,1.65-4.08,2.48l-.26-7.43.31-.22c2.31-2.19,4.67-4.32,6.92-6.58a4.06,4.06,0,0,1,4.23-1.33,74.07,74.07,0,0,0,7.39,1l9.93-14c4,4.28,6.19,9.42,10.12,14.06,2.64-6,4.94-11.41,7.33-16.74.77-1.71,1.8-3.29,2.7-4.93Z" fill="#f59421"/><path d="M996.74,382.12l-13.67-.05c.12-6,.25-12.05.38-18.32h12.8C996.41,369.84,996.58,376,996.74,382.12Z" fill="#f59421"/><path d="M988.8,359.61c.23-1.38.56-2.58-.84-3.82-2.91-2.59-2.8-3.39.07-5.78.6-.49,1.27-.88,1.91-1.32,1.14,1.49,3.85,1.68,3.57,4.72L991.13,352c-.66,1.37-.65,2.49.72,3.27.93.53,1.13,1.06.91,2.26-.51,2.83-.35,2.86-2.87,4.82l-2.07-1.81Zm-.6-5.14,1-.27-.66-2.71-1,.28Z" fill="#666464"/><path d="M915,381.46l40.62.16h8.12l.15,1-48.8,0Z" fill="#743a2c"/><path d="M988.8,359.61l-1,.88a1.91,1.91,0,0,1-1.52-2.75Z" fill="#585555"/><path d="M992.82,563.94a12.69,12.69,0,0,1-12.74,12.84,13,13,0,0,1-13.23-13,13.38,13.38,0,0,1,13.36-13A13,13,0,0,1,992.82,563.94Z" fill="#fefefe"/><path d="M52.64,534.94l-17.15-.41V484.15l17.73.07c-4.12,3.52-5.74,8.38-6.78,13.39a53.81,53.81,0,0,0,.44,24.63A24.84,24.84,0,0,0,52,532.88C52.45,533.37,52.45,534.24,52.64,534.94Z" fill="#fefefe"/><path d="M4.79,483.64h5.78a15.33,15.33,0,0,1,.92,3.61c0,14.86,0,29.72,0,44.59a14.17,14.17,0,0,1-.31,1.86h-7c-.11-1.48-.3-2.87-.3-4.26,0-13.59,0-27.17,0-40.75A29,29,0,0,1,4.79,483.64Z" fill="#00938f"/><path d="M12.48,535.24V573l-4.75.4L7.6,535.29Z" fill="#f59421"/><path d="M995.93,315.47c-1.41.92-2.26,1.92-3,1.85a3.14,3.14,0,0,1-2.11-1.87,1.81,1.81,0,0,1,2.26-2.15C993.93,313.54,994.61,314.43,995.93,315.47Z" fill="#426b7f"/><path d="M976.51,316c-1.63.66-2.52,1.32-3.39,1.3-1.33,0-1.78-1.1-1.57-2.36a1.7,1.7,0,0,1,2.4-1.5C974.75,313.72,975.3,314.72,976.51,316Z" fill="#301955"/><path d="M986.65,315.08c-1.35,1.07-2,2-2.9,2.22a1.68,1.68,0,0,1-2.22-1.76,3,3,0,0,1,1.89-2.12C984.18,313.29,985.13,314.24,986.65,315.08Z" fill="#301955"/><path d="M245,453.55H230.54c-.11-5.54-4.11-7-7.74-8.84-1-1-2-2.07-3.05-3-3.46-3-5.25-6.54-4.87-11.31.61-7.6.82-15.23,1.29-22.84.24-4,.69-7.91,1.05-11.86q1.36-15.18,2.74-30.35l10.14-1.64c.36-3,.78-6,1.06-9,1.6-17.66,3.56-35.3,4.63-53,.92-15.14,1.08-30.35,1.08-45.52,0-10.75-2.58-21.22-4.92-31.67-1.15-5.14-2.17-10.31-3.4-15.43a32.79,32.79,0,0,1-.24-15.66,18,18,0,0,0,.27-2.86l3.87-11.36c.87,1.08,1.81,2.12,2.6,3.26,3.74,5.35,7.42,10.73,11.14,16.08A23.46,23.46,0,0,0,260,208.24c10,2.55,20,4.94,30.1,7.29,3.71.87,7.49,1.43,11.25,2.13-1,6.74-2,13.49-2.9,20.25a26.56,26.56,0,0,0-.09,4.28c.2,7.26,2.52,9.57,9.83,9.83.28,2.69.47,5.39.88,8.06a11.12,11.12,0,0,0,7.9,9.32,16.36,16.36,0,0,0,3.68,1c6.18.61,12.36,1.3,18.55,1.62a15.53,15.53,0,0,0,12.11-4.66c.3,24.75-1,49.45-2,74.17a16.67,16.67,0,0,1-1.56,5.87c-2.09,4.66-4.48,9.17-6.64,13.8-3.12,6.67-5.6,13.52-6.47,20.93-1.33,11.41-2.92,22.79-4.49,34.17-.28,2.1,0,3.7,2.12,4.59-1.28,3.2-2.46,6.44-5.16,8.86a10.81,10.81,0,0,0-1.66,2.81,27.26,27.26,0,0,0-4.61,11.1l9.08,3.84,1.39,1.22,9.67,4.45q-20.61,0-41.21.05c-5.46,0-6.79.78-8.23,6-2.35,8.45-2.45,16.71,3.22,24.14H275.28V453.57H245.8A.66.66,0,0,0,245,453.55Z" fill="#fefefe"/><path d="M220,365.35q-1.36,15.18-2.74,30.35c-.36,3.95-.81,7.9-1.05,11.86-.47,7.61-.68,15.24-1.29,22.84-.38,4.77,1.41,8.32,4.87,11.31,1.08.93,2,2,3.05,3-5,3.25-10.55,2.75-14.63-1.42a23,23,0,0,1-5.86-9.63c1.32-4.11.25-8.18-.17-12.26-1.09-10.58-2.41-21.15-3.31-31.75-.66-7.76-.79-15.56-1.17-23.34Z" fill="#f4a865"/><path d="M226.33,193.65c-.6,8.92-1.18,17.84-1.8,26.75-.11,1.68-.34,3.36-.55,5.43l-49.36-4.45c-1.44-2.9-1.44-2.9-.66-10.21,1-.39,2.14-.87,3.3-1.3,4-1.49,8.14-2.85,12.12-4.48,5.61-2.28,11.14-4.73,16.67-7.19.62-.28,1-1.1,1.48-1.67Z" fill="#225675"/><path d="M228.17,159.86q-.42,9.58-.82,19.17l-5.57,1.1c1-1.78,2.93-2.64,1.74-4.75L217,177.16v-8.28c-10.34-2-20.34-2.81-30.67-4.07-.17,6-.41,11.33,0,16.79,5.37.5,10.26.92,15.14,1.41,2.69.27,5.36.65,8,1-1,2.4-3.36,1.53-5.09,2.18H175.38A12.19,12.19,0,0,1,175,184c.55-10.17,1.15-20.35,1.68-30.52.11-2,.32-3.61,2.94-3.05a3,3,0,0,0,0,1c.18,2.61,2.24,1.6,3.62,1.88,3,.49,5.89,1.07,8.85,1.44,11.45,1.41,22.91,2.75,34.36,4.11Z" fill="#225675"/><path d="M197.66,366.31c.38,7.78.51,15.58,1.17,23.34.9,10.6,2.22,21.17,3.31,31.75.42,4.08,1.49,8.15.17,12.26a10.22,10.22,0,0,0-1.15,8.17,44.67,44.67,0,0,1,.66,5.25l-5.63-2.89c-1.79-1.58-3.65-3.09-5.34-4.77-3.66-3.61-6-7.59-4.91-13.2.87-4.66.73-9.51,1.14-14.26q2-22.83,4-45.66Z" fill="#fefefe"/><path d="M217,177.16l6.48-1.78c1.19,2.11-.7,3-1.74,4.75l5.57-1.1,5.1.22-3.87,11.36-2.25,3-18.8,2.88-3.09-10.36c1.73-.65,4.1.22,5.09-2.18Z" fill="#f4a865"/><path d="M228.17,159.86l-1.67-1c0-1.5-1-1.71-2.19-1.85-4.09-.47-8.16-1-12.25-1.54-8.63-1-17.27-2-25.9-3.06l-6.49-1a3,3,0,0,1,0-1c6.79.7,13.59,1.35,20.38,2.12,7.42.85,14.84,1.8,22.25,2.72.95.12,1.9.22,2.83.42C228,156.3,228,156.32,228.17,159.86Z" fill="#4f4d4d"/><path d="M690,429l.06,1.24-3.83,3.35c-2.86.61-6.31-.5-8.84,3.12l5,2-.89,1.23c-.26.28-.51.57-.77.86l-1.19,1.1-.86.81L675,445.1l-.32-2c1-4,.84-7.83-1.37-11.44l0-1.63c1.37-.18,1.78-1,1.84-2.32.15-3.5.46-7,.61-10.51q2.07-48.06,4.1-96.12l1.68,2q3.06,52.6,6.13,105.32Z" fill="#fefefe"/><path d="M708.25,245.39l2.15-4c3.33,1.87,3.87,5.66,5.8,8.49-.86,2.67-1.72,5.35-2.77,8.64C710,254.26,709,249.86,708.25,245.39Z" fill="#d6864d"/><path d="M668.2,216.76l2.89-1,.44.08.44-.09,5.76,1-.06,5.25-8.58.11C668.79,220.33,668.5,218.55,668.2,216.76Z" fill="#f59421"/><path d="M677.67,222l.06-5.25,8.47-.17.06,5.58Z" fill="#ef6938"/><path d="M716.2,249.83c-1.93-2.83-2.47-6.62-5.8-8.49.35-1.36.71-2.71,1.09-4.17a16.63,16.63,0,0,1,6.28,10.72Z" fill="#e5e5e5"/><path d="M668.2,216.76c.3,1.79.59,3.57.89,5.35h-7.4c0-1.84.07-3.69.11-5.53Z" fill="#ef6938"/><path d="M673.22,430.07l0,1.63c-.58.24-1.16.5-1.75.72-2.27.83-4.48,1.44-6.52-.69-.57-.59-1.65-.69-2.5-1,.63-.36,1.26-1,1.88-1C667.33,429.71,670.27,429.92,673.22,430.07Z" fill="#301955"/><path d="M681.45,323.16l-1.68-2v-11A27.1,27.1,0,0,1,681.45,323.16Z" fill="#b2b1b2"/><path d="M379.66,424.11c1,.46,2.46.27,2.52,2.11.12,4.17.44,8.34.67,12.52-.26,1.56-.53,3.12-.79,4.68-.26,3.07-.51,6.13-.76,9.2l-.27.22-17.33.06.08-.31-.39-2.88-.41-1a3.53,3.53,0,0,0-2.73-3.94,39.6,39.6,0,0,0-4.61-1.21,6.36,6.36,0,0,1-5.06-3.82c-1.65-3.44-3.44-6.8-5.18-10.2.49-1.81,1-3.62,1.46-5.43l3.21.82c3.92-11,7.75-21.91,11.69-32.77s7.9-21.5,12.71-32.18a28.44,28.44,0,0,1,.63,3.39c1.1,18.47,2.14,37,3.27,55.42C378.48,420.62,377.75,422.72,379.66,424.11Z" fill="#fefefe"/><path d="M346.86,424.14c-.49,1.81-1,3.62-1.46,5.43a16,16,0,0,1-8.54,3.75c-3.51.36-5.32-2.29-7.75-3.89l-3.58,4a2.74,2.74,0,0,0-.1-.9,10.81,10.81,0,0,1,1.66-2.81c2.7-2.42,3.88-5.66,5.16-8.86,3.52.73,7.05,1.44,10.56,2.21C344.17,423.35,345.51,423.77,346.86,424.14Z" fill="#743a2c"/><path d="M369.73,274.07a3.55,3.55,0,0,1,.8.05c-.13,3.58-.25,7.15-.4,11.3l8.11.21h0l-8.41,1.63c-2.75,15.38-3.56,31.48-6.89,47.3a37.82,37.82,0,0,1,0-4.88c1.16-8.77,2.52-17.53,3.63-26.31.83-6.6,1.37-13.23,2.07-19.85C369,280.36,369.37,277.22,369.73,274.07Z" fill="#426b7f"/><path d="M388.81,312.5c.08-2.07-.44-4.29,1.72-6.18a7.79,7.79,0,0,1-1.74,6.17Z" fill="#426b7f"/><path d="M387.08,321.33l-1.29,3.93-1-.29,1.13-4.1Z" fill="#426b7f"/><path d="M362.67,337.32v3.94h-.45v-3.94Z" fill="#426b7f"/><path d="M361,348v-4.44c1.37,2,1.21,3.26,0,4.43Z" fill="#426b7f"/><path d="M395.53,286.59c.05-1,.1-2,.2-3.87.89,2,1,3-.22,3.86Z" fill="#426b7f"/><path d="M395.51,286.58l-1,3.84h0l1-3.84Z" fill="#426b7f"/><path d="M387.84,316.34l1-3.84h0l-1,3.84Z" fill="#426b7f"/><path d="M391,304.14V302.6h.37v1.55Z" fill="#426b7f"/><path d="M355.2,366.23l-.15,2.18-.67-.19.82-2Z" fill="#426b7f"/><path d="M387.83,316.33l-.15,2.18-.67-.19c.28-.66.56-1.32.83-2Z" fill="#426b7f"/><path d="M353.28,373l.15-2.19.67.19-.82,2Z" fill="#426b7f"/><path d="M353.28,372.94l-.16,2.18-.67-.19c.28-.66.56-1.32.83-2Z" fill="#426b7f"/><path d="M384,329.77l.15-2.17.67.18-.84,2Z" fill="#426b7f"/><path d="M350.4,382.54l.16-2.18.67.19c-.28.66-.56,1.33-.83,2Z" fill="#426b7f"/><path d="M350.4,382.54c-.06.73-.11,1.45-.16,2.18l-.67-.19.83-2Z" fill="#426b7f"/><path d="M384,329.76c0,.73-.09,1.46-.14,2.19l-.67-.19.83-2Z" fill="#426b7f"/><path d="M381.13,339.37l1-2.88h0l-1,2.88Z" fill="#426b7f"/><path d="M348.48,389.26l.15-2.18.67.18c-.27.67-.55,1.33-.82,2Z" fill="#426b7f"/><path d="M348.48,389.26l-1,2.87h0l1-2.88Z" fill="#426b7f"/><path d="M347.52,392.13l-.15,2.19-.68-.19c.28-.66.56-1.32.83-2Z" fill="#426b7f"/><path d="M345.6,398.86l.15-2.19.68.19c-.28.66-.56,1.33-.83,2Z" fill="#426b7f"/><path d="M380.17,342.24l1-2.87h0l-1,2.87Z" fill="#426b7f"/><path d="M345.6,398.85c-.06.73-.11,1.46-.16,2.18l-.67-.19c.28-.66.56-1.32.83-2Z" fill="#426b7f"/><path d="M380.15,342.23c-.32,1-.64,1.92-.95,2.89h0l1-2.88Z" fill="#426b7f"/><path d="M379.2,345.12l-.16,2.17-.67-.19c.28-.66.56-1.32.83-2Z" fill="#426b7f"/><path d="M359.05,353.76l.15-2.18.67.19-.84,2Z" fill="#426b7f"/><path d="M343.68,405.57l.15-2.18.67.18-.82,2Z" fill="#426b7f"/><path d="M382.09,336.49l.15-2.18.66.18c-.27.67-.55,1.33-.83,2Z" fill="#426b7f"/><path d="M342.72,408.45l1-2.88h0l-1,2.88Z" fill="#426b7f"/><path d="M358.09,356.64l1-2.88h0l-1,2.88Z" fill="#426b7f"/><path d="M358.07,356.63c0,.73-.09,1.46-.14,2.19l-.67-.19c.27-.66.55-1.33.83-2Z" fill="#426b7f"/><path d="M342.72,408.45l-.15,2.19-.68-.19.83-2Z" fill="#426b7f"/><path d="M340.8,415.17,341,413l.68.19-.83,2Z" fill="#426b7f"/><path d="M340.8,415.17l-.16,2.18-.67-.19c.28-.66.56-1.33.83-2Z" fill="#426b7f"/><path d="M356.16,363.35l.15-2.18.67.19c-.27.66-.55,1.32-.83,2Z" fill="#426b7f"/><path d="M355.2,366.23l1-2.88h0c-.31,1-.63,1.92-.95,2.88Z" fill="#426b7f"/><path d="M394.55,290.42l-.15,2.18-.66-.19.83-2Z" fill="#426b7f"/><path d="M392.93,296.48v-1.55h.37v1.55Z" fill="#426b7f"/><path d="M392.36,298.78v1.54H392v-1.54Z" fill="#426b7f"/><path d="M351.7,377.45c.11,0,.27,0,.31,0a1.41,1.41,0,0,1,.09.38l-.54-.05Z" fill="#426b7f"/><path d="M339.22,419.67c.11,0,.27,0,.31,0a1.12,1.12,0,0,1,.09.38l-.53,0Z" fill="#426b7f"/><path d="M378.24,285.63l1.06-.75-1.07.74Z" fill="#426b7f"/><path d="M361,348l-.36,1.32L361,348Z" fill="#426b7f"/><path d="M702.87,111.12c-.74,2.23-1.34,4.51-2.24,6.68-2.56,6.2-3,12.4-.49,18.74a20.81,20.81,0,0,1,.72,4.15l-.12.1a14.54,14.54,0,0,0-1.83,3.08c-2.89,9.76-5.67,19.54-8.5,29.31a3.84,3.84,0,0,1-1.76,2.34,12.45,12.45,0,0,1,.22-2.3c2.64-9,5.27-18,8-27,1.47-4.83,2-9.44-2.73-13.39,3.21-2.36,3.12-5.27,2.39-8.52a14.59,14.59,0,0,1,.34-7.25l1.37,1.45c1.43-2.48,2.91-5,4.38-7.62Z" fill="#426b7f"/><path d="M718.06,190.61q-2.31,22.32-6.77,44.29l-.95-.14c.34-2.46.64-4.93,1-7.38,1.51-9.37,3.18-18.72,4.53-28.12.46-3.13.15-6.37.2-9.55l.1-.09,1.88,1Z" fill="#426b7f"/><path d="M710.53,206.6a54.52,54.52,0,0,1-12.64.07c-1.37-.13-2.16-1.27-1.27-3.42a88.41,88.41,0,0,1,12.39,0c.72.05,1.36,1.37,2,2.11Z" fill="#426b7f"/><path d="M712.38,175.22c2,1.85,1.85,4.52,2.78,6.77-2.26-1.76-2.52-2.44-2.89-6.68Z" fill="#426b7f"/><path d="M717.58,184.75l5.14-2C720.55,185.2,720.55,185.2,717.58,184.75Z" fill="#426b7f"/><path d="M718.09,190.64c1.58-1.82,3.56-2.21,5.94-1l-6,1Z" fill="#426b7f"/><path d="M716.11,189.71c-1.55-1.23-.75-2.65-.1-4.06.07,1.32.14,2.65.2,4Z" fill="#426b7f"/><path d="M712.27,175.31l-.82-2.13.7-.13c.08.72.15,1.45.23,2.17Z" fill="#426b7f"/><path d="M709.09,164.38l.15.39-.57.12a1.12,1.12,0,0,1,.08-.42C708.8,164.4,709,164.41,709.09,164.38Z" fill="#426b7f"/><path d="M707.17,158.63l.15.39-.57.11a1.42,1.42,0,0,1,.08-.42C706.88,158.64,707.05,158.65,707.17,158.63Z" fill="#426b7f"/><path d="M710.14,167.86c-.11,0-.29.11-.33.07a.94.94,0,0,1-.17-.38l.57-.12Z" fill="#426b7f"/><path d="M700.86,140.69l.71.94-.49.34c-.11-.4-.22-.79-.34-1.18Z" fill="#426b7f"/><path d="M702.46,144.83c-.11,0-.28.11-.33.07a.94.94,0,0,1-.17-.38l.57-.12Z" fill="#426b7f"/><path d="M711.1,170.74c-.12,0-.29.11-.33.07a.94.94,0,0,1-.17-.38l.57-.12Z" fill="#426b7f"/><path d="M703.48,147.42l-.17.38-.4-.53c.11-.07.26-.21.33-.18S703.4,147.3,703.48,147.42Z" fill="#426b7f"/><path d="M704.29,150l.15.39-.57.12a1.08,1.08,0,0,1,.08-.42C704,150,704.17,150,704.29,150Z" fill="#426b7f"/><path d="M705,152.9c.11,0,.28,0,.32,0a1,1,0,0,1,.11.4l-.57-.05Z" fill="#426b7f"/><path d="M708.22,162.1c-.11,0-.28.11-.33.07a1.1,1.1,0,0,1-.17-.38l.57-.12Z" fill="#426b7f"/><path d="M706.37,156l-.14.4a4.49,4.49,0,0,1-.41-.46,2.49,2.49,0,0,1,.29-.29Z" fill="#426b7f"/><path d="M176.63,535.11c5.59-.07,11.19-.12,16.78-.2,1.76,0,3.51-.14,5.26-.22l19.24.4q.08,19.2.16,38.38l-41.5,0Z" fill="#426b7f"/><path d="M226.53,535.12h41.32l.06,38.39H226.47Z" fill="#426b7f"/><path d="M177.58,574.68h12.67c1,3.57,1.24,35.83.38,42.43-4,1-8.06.34-12.25.46-1.5-3.55-.62-7.08-.76-10.5-.16-3.67,0-7.35,0-11V574.68Z" fill="#00938f"/><path d="M267.91,573.5l-.06-38.39,8.53,0-.06,38.32Z" fill="#225675"/><path d="M226.53,535.12l-.06,38.38-8.4,0q-.07-19.19-.16-38.38l2.14-.39Z" fill="#225675"/><path d="M176.63,535.11l-.06,38.38-7.59,0a170.8,170.8,0,0,1,0-38.42Z" fill="#225675"/><path d="M556.49,195.36h-4c-.79-4.26-1.56-8.42-2.38-12.91l3.87-.55.9,2.17c.12.57.25,1.14.38,1.71s.37,1.42.56,2.13c.12.88.23,1.76.35,2.64C556.26,192.15,556.37,193.76,556.49,195.36Z" fill="#efefef"/><path d="M651.78,147.51a49,49,0,0,1-2.3-7c-.19-1.12.85-2.45,1.34-3.69l.12.12.94,10.48Z" fill="#426b7f"/><path d="M659.46,173.42c-2.3-2.81-3-6.11-2.87-9.62l.08-.06a20.18,20.18,0,0,1,2.89,9.58Z" fill="#426b7f"/><path d="M654.66,158.06c-1.77-2.28-2-5-1.91-7.7l.08-.05c1.76,2.28,2,4.94,1.93,7.67Z" fill="#426b7f"/><path d="M648.89,128.34c-1.84-2.59-.75-4.77,1-6.85l.09.07-.93,6.65Z" fill="#426b7f"/><path d="M656.59,163.8c-1.84-1.51-1.93-3.61-1.93-5.74l.1-.08c1.8,1.53,2,3.62,1.91,5.76Z" fill="#426b7f"/><path d="M641.36,117.28l.84,2.56-.73.29-1.16-2.37Z" fill="#426b7f"/><path d="M652.74,134l-1-2.76.13-.13,2.53,1.67-1.57,1.32Z" fill="#426b7f"/><path d="M654.67,107.12c-.06-1.63.28-3.06,1.9-3.86l.12.08c0,1.62-.24,3.08-1.93,3.84Z" fill="#426b7f"/><path d="M649.86,121.49c.32-1.28.65-2.56,1-3.83l.08.07-1,3.83Z" fill="#426b7f"/><path d="M653.7,110l1-2.86.09.06-1,2.87Z" fill="#426b7f"/><path d="M651.79,114.79l1-2.89.09.07-1,2.88Z" fill="#426b7f"/><path d="M556.15,190.55c-.12-.88-.23-1.76-.35-2.64C555.92,188.79,556,189.67,556.15,190.55Z" fill="#b2b1b2"/><path d="M660.52,173.36l.12,2.86c-.39-.94-.79-1.87-1.18-2.8l.1-.1Z" fill="#426b7f"/><path d="M652.75,150.36l-1-2.85.1-.09c.32,1,.63,1.93,1,2.89Z" fill="#426b7f"/><path d="M650.83,117.66l1-2.87.09.06-1,2.88Z" fill="#426b7f"/><path d="M651.78,135.89l1-1.92.11.1-1,1.89Z" fill="#426b7f"/><path d="M555.24,185.78c-.13-.57-.26-1.14-.38-1.71C555,184.64,555.11,185.21,555.24,185.78Z" fill="#b2b1b2"/><path d="M652.75,111.9c.31-.64.63-1.28,1-1.92l.1.07-1,1.92Z" fill="#426b7f"/><path d="M650.82,136.82l1-.93.09.07-.93,1Z" fill="#426b7f"/><path d="M651.76,131.21l-1-1,.12-.12,1,1Z" fill="#426b7f"/><path d="M649.85,129.3l-1-1,.13-.12c.31.32.63.64.94,1Z" fill="#426b7f"/><path d="M650.8,130.25l-.95-.95.11-.12,1,.95Z" fill="#426b7f"/><path d="M395.57,178.19l1.22,2.1c1.42.06,3.54-1,3.62,1.81l-5.94,16.12-.86,3h0l-2.33.11-.36-.05.69-6.86-.53-.12c-.58,1.9-1.16,3.8-1.77,5.78l-2.42.19-2.6-.85-.16.66,2.79.16,1.34,1.1c.21,6.54.56,13.08.56,19.62a36.8,36.8,0,0,1-1.16,9,17.69,17.69,0,0,1-6.46,10.37c-7.7,5.66-16.54,8.77-25.63,12,0-4-.2-7.66,0-11.24.71-10.67,1.61-21.33,2.4-32,.41-5.58.87-11.15,1.05-16.73a66,66,0,0,0-.54-9.52c-.87-7.71,4.21-13.26,11.32-12.36,5.94.76,11.42,2.86,17,4.86l2.94,1,.07,0,2.79.91.1.06,2.79.9Zm-31.74,14.37-.4-.25.42.23a1.23,1.23,0,0,0,.17.32c.05,0,.15,0,.23.07ZM377.57,198v-.34h-1.48V198Zm2.36.63V199h1.5v-.34Zm12.41-6.79.07-.4-.49.11a1,1,0,0,0,.14.36S392.24,191.86,392.34,191.83Zm2.66-7.54c.1-.07.25-.12.28-.21a.88.88,0,0,0,0-.39l-.45.26Zm-1.64,4.39-.2-.33-.28.19c.1.18.22.34.33.51Zm-24.7,6.51L369,195c-.09-.09-.22-.26-.26-.25a2.44,2.44,0,0,0-.4.32Z" fill="#027172"/><path d="M342.71,239.56c-.74,4-1.28,8.12-2.29,12.09-.73,2.86-2.73,4.64-6,4.26-3.14-.37-6.34-.47-9.43-1.1-3.68-.76-5.26-2.64-5.23-6.34s.62-7.24,1-10.86c1.57.07,3.15.06,4.72.21C331.19,238.37,337,239,342.71,239.56Z" fill="#f59421"/><path d="M342.71,239.56c-5.76-.58-11.52-1.19-17.29-1.74-1.57-.15-3.15-.14-4.72-.21.78-3.22,1.61-6.43,2.35-9.67s3-4.69,6.23-4.67c1,0,1.91,0,2.87,0l4.83.93c5.2.48,6.77,2,6.67,7C343.59,234,343,236.77,342.71,239.56Z" fill="#ffb031"/><path d="M386.87,200.24l2.42-.19c.61-2,1.19-3.88,1.77-5.78l.53.12-.69,6.86-2.66.06-1.34-1.1Z" fill="#225675"/><path d="M369.67,166.34l-2.93-1.61,9.21,1.66Z" fill="#284a5b"/><path d="M378.46,166.84l2.6.84Z" fill="#284a5b"/><path d="M389.73,176.22l-2.94-1,1.59,0Z" fill="#284a5b"/><path d="M391.26,201.3l2.33-.11,0,1Z" fill="#284a5b"/><path d="M149.78,483.34c0-8.52,0-17,0-25.55,0-1.4.24-2.81.37-4.21l24.77-.19c1.27,0,2.54,0,3.81,0l5.84,0,21.89,0,4.75-.05q14.28,0,28.54,0c1.74,0,3.47.14,5.2.22a.66.66,0,0,1,.85,0l-.09,29.78c-6.62.06-13.25.1-19.88.21-1.71,0-3.43.27-5.14.41H198.63c-1.74-.15-3.48-.41-5.22-.42-12.95,0-25.9,0-38.85,0C153,483.53,151.38,483.41,149.78,483.34Z" fill="#027172"/><path d="M325.18,495.43v27.39c-3.63.93-86.85,1.21-93,.37-1-3.28-1.31-20.3-.48-27.51.11-.1.22-.22.34-.32s.24-.26.38-.27c1.1-.11,2.21-.27,3.32-.27q43.88,0,87.74.07A7,7,0,0,1,325.18,495.43Z" fill="#ffb031"/><path d="M198.63,484h22.06c-.16,1.73-.45,3.45-.46,5.18q-.14,22.77-.18,45.55l-2.14.39-19.24-.4a8.15,8.15,0,0,0,.87-1.11c2.45-4.42,1.34-6.86-3.7-8.2-.65-1.27-1.42-2.5-2-3.82-2-4.9-3.42-9.94-2.64-15.28a36.73,36.73,0,0,1,4.59-13.41c2.11-.22,4.09-.82,4.66-3.15S200.88,485.36,198.63,484Z" fill="#fefefe"/><path d="M259.14,453.57h16.14V483.3l-16,.05Q259.19,468.46,259.14,453.57Z" fill="#027172"/><path d="M259.14,453.57q.06,14.88.11,29.78H245.71l.09-29.78Z" fill="#00938f"/><path d="M889,612.83l-89.78,0c-.8,0-1.59-.07-2.39-.1l-.85-.87c-.06-6-.17-12-.16-18.08,0-14.12.1-28.24.15-42.37h92.84c.06,1.76.16,3.51.16,5.27Q889,584.76,889,612.83Zm-74.71-9.58c.45.31.9.89,1.35.89q10,.09,19.95,0c.45,0,.9-.58,1.35-.89-.47-.3-.94-.86-1.41-.87q-9.91-.09-19.83,0C815.2,602.39,814.73,603,814.26,603.25Zm22.65-26.85c-.47-.31-.94-.87-1.41-.88q-9.9-.07-19.81,0c-.48,0-1,.56-1.43.86.45.31.89.89,1.33.89q10,.09,20,0C836,577.27,836.46,576.7,836.91,576.4Zm13.5-8.68c-.46-.31-.92-.87-1.39-.88q-10.47-.08-20.94,0c-.47,0-.94.57-1.41.88.46.31.91.9,1.37.91q10.5.07,21,0C849.49,568.62,850,568,850.41,567.72Zm-23.67,26.11-.2.91a4.32,4.32,0,0,0,1.49.65c7,0,14,.06,21,0,.54,0,1.08-.67,2.43-1.55Zm-22.37-8.89c5.48,1.6,18.44,1.39,22.18.23-.67-.37-1.07-.79-1.47-.79q-9.58-.11-19.17-.08A4.4,4.4,0,0,0,804.37,584.94ZM804,558.61c6,1.26,19.64.93,21.85-.43-2.36-.79-16.74-1.33-20.29-.7C805.1,557.57,804.7,558.11,804,558.61Zm52.58,18.09c-2.06-1.3-6.55-1.69-14.2-1.14-.76.05-1.48.63-2.79,1.21C844.85,577.72,853.3,577.62,856.61,576.7Zm0,27.21c-3-2.12-13.64-2.06-17.05.17A121.6,121.6,0,0,0,856.61,603.91Zm7.51-36.08c-4.53-1.52-7.67-1.42-10.09.06C857.22,569,859.58,569.08,864.12,567.83Zm-.84,26.58c-5.24-1.13-6.42-1-9.77.38C857.18,595.77,860.26,596,863.28,594.41Zm-40.89.07c-4.79-1.18-5.57-1.12-8.57.35C817,595.75,819.67,595.81,822.39,594.48Zm-8.17-26.61c2.74.8,5.48,1.19,8.18-.07A9,9,0,0,0,814.22,567.87Zm26.67,18c-4-2.12-6.18-2-8.55,0Zm-8.27-27.43c4.82,1.06,5.39,1,8.63-.34C838,557.18,835.34,557.11,832.62,558.44Z" fill="#fefefe"/><path d="M795.94,551.43c-.05,14.13-.13,28.25-.15,42.37,0,6,.1,12.05.16,18.08l-.25.93H777.58c-.91-3.65-1.1-74.48-.27-80,3.53-.77,122.11-1.07,129.75-.33,1,3.27,1.3,72.61.31,80.28-3,0-6.15.12-9.28.14s-6.08,0-9.12-.07q0-28.07,0-56.12c0-1.76-.1-3.51-.16-5.27.09-2.22.29-4.45.22-6.67s.56-4.72-.51-6.84H795.94Z" fill="#284a5b"/><path d="M805.67,523.5l12.8,0c-.5.29-1,.86-1.49.82C813.22,523.94,809.32,525.32,805.67,523.5Z" fill="#426b7f"/><path d="M795.7,612.81l.25-.93.85.87Z" fill="#efefef"/><path d="M195.84,492.87a36.73,36.73,0,0,0-4.59,13.41c-.78,5.34.68,10.38,2.64,15.28.53,1.32,1.3,2.55,2,3.82-1.59.06-3.19.18-4.78.18H64.45c-5.88,0-7.2-.89-8.73-6.58A38.12,38.12,0,0,1,56,498.18c1.37-4.75,2.54-5.5,7.53-5.5q64.74,0,129.49-.05C193.93,492.63,194.88,492.79,195.84,492.87Z" fill="#e5e5e5"/><path d="M145,573.5l-8.36,0-.21-31.16c0-2.4,0-4.79-.06-7.19h8.92q-.06,16.59-.14,33.18C145.1,570,145,571.77,145,573.5Z" fill="#fefefe"/><path d="M736.35,464.6c0,2.14-1.25,3.41-3.18,3.28a3.83,3.83,0,0,1-3.48-3.81c0-1.91,1.38-3,3.58-2.85S736.37,462.42,736.35,464.6Z" fill="#b2b1b2"/><path d="M719,456.46c.06-2,1.39-3,2.92-3.9C721.83,454.5,720.48,455.53,719,456.46Z" fill="#b2b1b2"/><path d="M718.05,457.42l1-1Z" fill="#b2b1b2"/><path d="M678.22,110.76a8.21,8.21,0,0,0-2.59,7.73c2,16,.25,32.05-.57,48.06-.36,7.12-.69,14.24-1.18,21.35a33.75,33.75,0,0,1-1.27,5.44l-2.39,2.32a11.51,11.51,0,0,1-2.16-7.15q-.52-29.41-1.15-58.82A23.14,23.14,0,0,1,669.13,119c1.32-2.75,1.8-5.29.1-8a14.14,14.14,0,0,1-1-3.43l5-3.66,3.67,2.33.87.84.12.12.84.84.11.1C678.61,109,678.41,109.88,678.22,110.76Z" fill="#027172"/><path d="M650.92,130.13l-1-.95c-.31-.33-.63-.65-.94-1l.93-6.65,1-3.83,1-2.88,1-2.88,1-1.92,1-2.87c1.69-.76,2-2.22,1.93-3.84.69-1.19,1.39-2.38,2.08-3.58l1.68-.33c-4.1,14.22-2.85,28.58-1.53,43,.94,10.27,1.09,20.61,1.6,30.91l-1,0a20.18,20.18,0,0,0-2.89-9.58c0-2.14-.11-4.23-1.91-5.76.06-2.73-.17-5.39-1.93-7.67l-1-2.89-.94-10.48.93-1,1-1.89,1.57-1.32-2.53-1.67Z" fill="#284a5b"/><path d="M670.22,195.66l2.39-2.32c-.17,4.27-.37,8.54-.5,12.81-.1,3.18-.1,6.37-.14,9.56l-.44.09-.44-.08c0-5.18.09-10.37,0-15.55A26.39,26.39,0,0,0,670.22,195.66Z" fill="#b2b1b2"/><path d="M678.22,110.76c.19-.88.39-1.76.58-2.64a48.34,48.34,0,0,1,4.77,3.46c1.29,1.18,2.36,1.31,3.66.25l.23.2c-1.81,3.41-2.24,3.47-5,1.33A40.68,40.68,0,0,0,678.22,110.76Z" fill="#e5e5e5"/><path d="M663.54,110V99.54c.73,3.8,1.29,6.68,1.77,9.58C665.33,109.25,664.57,109.51,663.54,110Z" fill="#b2b1b2"/><path d="M690.12,108c.16-2.76,1.57-4.92,3.35-6.92-.25,2.72-.66,5.37-3.12,7.14Z" fill="#e5e5e5"/><path d="M690.35,108.21c-1,1.27-1.92,2.55-2.89,3.82l-.23-.2c.48-1.65.81-3.4,2.89-3.84Z" fill="#e5e5e5"/><path d="M675.93,200.81l-1.14.8c-.24-.34-.69-.7-.66-1s.54-.57.84-.86Z" fill="#b2b1b2"/><path d="M674.91,209.23l.59.56-.91.71c-.12-.26-.36-.55-.32-.77S674.68,209.4,674.91,209.23Z" fill="#b2b1b2"/><path d="M677.73,107.06l-.87-.84Z" fill="#e5e5e5"/><path d="M678.69,108l-.84-.84Z" fill="#e5e5e5"/><path d="M667,454.29c1.72,2,4,2.48,6.47,2.38a22.55,22.55,0,0,0,13.61-5.1c1.31-1.06,2.81-1.89,4.23-2.83a22.31,22.31,0,0,1-17,9.82,13.48,13.48,0,0,1-5.14-.46C667.48,457.6,665.81,456.58,667,454.29Z" fill="#301955"/><path d="M642.61,465.85a3.93,3.93,0,0,1-3.22-4c.18-1.68,2-3.39,3.47-3.31,1.7.09,3.39,2.21,3.21,4S644.13,465.93,642.61,465.85Z" fill="#b2b1b2"/><path d="M393.61,201.18c.28-1,.57-2,.86-3l.16,1.71Z" fill="#284a5b"/><path d="M341,453.13l-9.67-4.45c-.08-1.3.77-1.22,1.54-.9,3.61,1.53,7.21,3.11,10.81,4.67a5,5,0,0,1-.07.95Z" fill="#666464"/><path d="M343.57,453.4a5,5,0,0,0,.07-.95l20.14.14-.08.31a8.35,8.35,0,0,1-2.2.65C355.53,453.54,349.55,453.46,343.57,453.4Z" fill="#743a2c"/><path d="M400.39,452.59l-.09,1c-4.88,0-9.77,0-14.65-.12a40.53,40.53,0,0,1-4.62-.59l.27-.22.28.06.29-.06Z" fill="#743a2c"/><path d="M205.37,96.71l0,1.32c-2.46,1.55-5,1.14-7.53.3l-1.15-1.7Z" fill="#efefef"/><path d="M197.88,98.33c2.54.84,5.07,1.25,7.53-.3.07,2.09-.9,3.26-3,3.37s-4.12.06-5-2.35C197.33,98.89,197.7,98.57,197.88,98.33Z" fill="#ef6938"/><path d="M198.05,78.07h-6.71C195.07,75.16,196.23,75.17,198.05,78.07Z" fill="#743a2c"/><path d="M205.37,96.71l-8.64-.08c2.59-2.73,5.55-2.43,8.61-1C205.49,95.68,205.37,96.33,205.37,96.71Z" fill="#ef6938"/><path d="M196,80.76c.51,1.39,1,2.18,1,2.92-.05.49-1,.9-1.49,1.35-.4-.73-1.06-1.44-1.1-2.19C194.32,82.33,195.14,81.77,196,80.76Z" fill="#301955"/><path d="M212.65,83.17l-1.71,1.9c-.55-.62-1.39-1.17-1.54-1.87-.11-.48.73-1.18,1.15-1.78Z" fill="#4f4d4d"/><path d="M206.82,78.1c2.6-2,2.61-2,5.48,0Z" fill="#743a2c"/><path d="M183.24,95.46,180.69,95c.27-.75.55-1.49.82-2.24C183.75,92.59,183.19,94.22,183.24,95.46Z" fill="#e5e5e5"/><path d="M674.53,80.84c-5,3.46-7,3-9-1.65Z" fill="#e5e5e5"/><path d="M676.1,63c4.74-1.27,6.21-.52,7.74,3.61C680.91,66.4,678.85,64.91,676.1,63Z" fill="#050303"/><path d="M679.13,69.15l-2,1.34c-.35-.6-.92-1.18-1-1.8,0-.37.91-1.21,1.15-1.13C677.92,67.78,678.35,68.41,679.13,69.15Z" fill="#050303"/><path d="M664.11,66.66a8,8,0,0,1-.68-2.47c0-.37.8-.67,1.23-1a5.88,5.88,0,0,1,.91,1.87C665.61,65.41,664.89,65.84,664.11,66.66Z" fill="#050303"/><path d="M389.78,130.16l-2.28.58c1.29-3.42,1.82-3.78,6.11-3.9l-3.87,3.35Z" fill="#050303"/><path d="M389.74,130.19c2.69,1.25,2.69,1.25,2.17,4.4-2.67-.6-1.69-2.88-2.13-4.43Z" fill="#050303"/><path d="M690.42,44.93c-.6,3.18-3.43,3-5.62,3.5a58.05,58.05,0,0,1-7.61.59c1.76-2.2,4-2.41,6.21-2.27a9.65,9.65,0,0,0,6.69-2.12Z" fill="#284a5b"/><path d="M673.3,37c2,2.14,1.88,4,.08,5.93a36.32,36.32,0,0,0-3.27,5c-1.66-1.63-.76-3.66.55-4.73A7.06,7.06,0,0,0,673.3,37Z" fill="#284a5b"/><path d="M682.18,36.79c1,3.1.32,5.25-2.38,7a61.55,61.55,0,0,0-5.74,4.7c-.58-2.53,1.31-4,3.21-5.27C681.21,40.5,681.25,40.55,682.18,36.79Z" fill="#284a5b"/><path d="M690.09,44.63l.6-1.19c.11.11.34.27.32.32-.17.4-.39.78-.59,1.17Z" fill="#284a5b"/><path d="M851,365.23c1.59.92,2.08,2.2,1.2,4.29l-2.49-3.37Z" fill="#b2b1b2"/><path d="M851,365.23l-1.29.92a.6.6,0,0,1-.4-.58l1.14-.85A1.18,1.18,0,0,1,851,365.23Z" fill="#fefefe"/><path d="M524.13,197.32l-2.88,1,0,.05,2.88-1Z" fill="#e5e5e5"/><path d="M524.17,202.15l.78-.82.46.47-1.25.34Z" fill="#e5e5e5"/><path d="M523.19,203l-1.35.75-.73-.81,2.09-.71A6.57,6.57,0,0,0,523.19,203Z" fill="#fefefe"/><path d="M524.18,197.38c.3-.26.61-.52.12-.1.66-.18.24-.07-.17,0Z" fill="#e5e5e5"/><path d="M523.19,203a6.57,6.57,0,0,1,0-.77l1,0h0Z" fill="#e5e5e5"/><path d="M184.57,453.43l-5.84,0c-.13-2.06-.26-4.11-.42-6.6C181.74,448.22,183,451,184.57,453.43Z" fill="#e5e5e5"/><path d="M211.21,453.36l-4.75.05-.42-6.28.72-.11C208.25,449.13,209.73,451.25,211.21,453.36Z" fill="#e5e5e5"/><path d="M381.87,452.62l-.29.06-.28-.06c.25-3.07.5-6.13.76-9.2v4.93c4.34.94,8.47.36,12.56.41s8.31-.1,12.46-.16l15.67.16c-6.37.26-12.74.64-19.12.76-7,.13-14,0-21.3,0C382.14,450.84,382,451.73,381.87,452.62Z" fill="#666464"/><path d="M690.18,435.5c1,1.15,2.13,2.25,3.07,3.47a2.33,2.33,0,0,1-.19,3.42c-1.11,1-2.45,1.08-3.36-.06a3.27,3.27,0,0,0-3.31-1.28l0,0-3-2.19a5.77,5.77,0,0,1,.2-.82,19.48,19.48,0,0,1,3.05,1.13c1.4.79,1.54-.18,1.83-1.08a3,3,0,0,1,.67.05l2.27,3.86c1.38-2.63-.88-3.79-1.21-5.45C690.23,436.23,690.2,435.87,690.18,435.5Z" fill="#743a2c"/><path d="M683.64,438.08a5.77,5.77,0,0,0-.2.82l-1-.11-5-2c2.53-3.62,6-2.51,8.84-3.12a2.41,2.41,0,0,1,.07.71l-.87,1.07-.77-.11c-1.68,0-3.49-.6-5.69,1.58l3.72-.2.91.67Z" fill="#666464"/><path d="M685.47,435.41l.87-1.07c1.47-.25,2.88-.31,3.84,1.16,0,.37.05.73.07,1.09l-1.06,1.59a3,3,0,0,0-.67-.05c0-2.18-1.81-1.79-3.1-2.1A.89.89,0,0,0,685.47,435.41Z" fill="#301955"/><path d="M680.74,440.88c.26-.29.51-.58.77-.86l4.92,1.07,0,0c-.24.57-.49,1.14-.82,1.93C683.91,442.25,682.33,441.56,680.74,440.88Z" fill="#743a2c"/><path d="M678.69,442.79l.86-.81,3.87,2-.51,1Z" fill="#743a2c"/><path d="M653.18,436.62a1.33,1.33,0,0,1,.87-.14c.18.69.36,1.38.53,2.07l-.74.2Z" fill="#743a2c"/><path d="M366.7,164.71l-1.88-.94Z" fill="#284a5b"/><path d="M364.78,163.75l-.73-.74Z" fill="#284a5b"/><path d="M392.59,177.17l-2.79-.91Z" fill="#284a5b"/><path d="M395.48,178.13l-2.79-.9Z" fill="#284a5b"/><path d="M660.21,437.29v3.09h-.49v-3.09Z" fill="#ef6938"/><path d="M958.28,522.52a8.29,8.29,0,0,1-16.58-.35,8.34,8.34,0,0,1,8.24-8.16A8.24,8.24,0,0,1,958.28,522.52Z" fill="#fefefe"/><path d="M913.92,367.18V345.85h.78q.21,10.64.43,21.28l-.31.22A3,3,0,0,0,913.92,367.18Z" fill="#666464"/><path d="M913.92,367.18a3,3,0,0,1,.9.16l.26,7.43c0,2.23-.09,4.46-.13,6.69l.09,1.1c-1.45,0-1.31-1.11-1.31-2C913.77,376.09,913.85,371.64,913.92,367.18Z" fill="#4f4d4d"/><path d="M852.33,414.26H854l6.91.34c0,7.48.07,15,0,22.42a16.42,16.42,0,0,1-.62,4.69c-1.2,3.92-4.32,5.74-8.5,5.18a7.06,7.06,0,0,1-6.16-6.81c-.19-4.61-.11-9.22-.08-13.83,0-4,.17-7.94.26-11.91Z" fill="#f59421"/><path d="M917.07,328.45c-1.76.15-3.31-1.13-2.94-2.21a3.56,3.56,0,0,1,2-2.11,1.89,1.89,0,0,1,2.36,2.16C918.43,327.15,917.44,327.93,917.07,328.45Z" fill="#426b7f"/><path d="M938,327c-.57.4-1.34,1.35-2.19,1.43a1.89,1.89,0,0,1-2.14-2.34,3.14,3.14,0,0,1,2.1-2C937.22,323.9,938,325,938,327Z" fill="#426b7f"/><path d="M926.3,323.2c1,1.38,1.92,2.09,2.12,3a1.78,1.78,0,0,1-1.89,2.18c-1.24.05-2.28-.68-2.09-2C924.56,325.47,925.39,324.68,926.3,323.2Z" fill="#301955"/><path d="M988.2,354.47l-.68-2.7,1-.28.66,2.71Z" fill="#e5e5e5"/><path d="M363.78,452.59l-20.14-.14c-3.6-1.56-7.2-3.14-10.81-4.67-.77-.32-1.62-.4-1.54.9l-1.39-1.22c-1.07-.83-2.08-1.74-3.21-2.45-1.4-.88-2.9-1.6-4.58-2.5,1.05-1.54,0-4.08,3-3.39l1,.1,3.83,2.75,1,.13L336,445l-.06,0q2.46,1.41,4.91,2.83l1.16.82c.95,1.88,2.7,2,4.44,1.93,5.65-.23,11.29-.54,16.94-.81Z" fill="#e5e5e5"/><path d="M325.08,439.12c-2.94-.69-1.92,1.85-3,3.39,1.68.9,3.18,1.62,4.58,2.5,1.13.71,2.14,1.62,3.21,2.45l-9.08-3.84a27.26,27.26,0,0,1,4.61-11.1,2.74,2.74,0,0,1,.1.9C325,435.29,324.35,437.15,325.08,439.12Z" fill="#666464"/><path d="M217,177.16,209.53,184c-2.68-.33-5.35-.71-8-1-4.88-.49-9.77-.91-15.14-1.41-.39-5.46-.15-10.79,0-16.79,10.33,1.26,20.33,2.08,30.67,4.07Z" fill="#426b7f"/><path d="M186.16,152.38c8.63,1,17.27,2,25.9,3.06,4.09.49,8.16,1.07,12.25,1.54,1.21.14,2.21.35,2.19,1.85-11.45-1.36-22.91-2.7-34.36-4.11-3-.37-5.9-.95-8.85-1.44Z" fill="#b2b1b2"/><path d="M186.16,152.38l-2.87.9c-1.38-.28-3.44.73-3.62-1.88Z" fill="#e5e5e5"/><path d="M686.43,441.09,681.51,440l.89-1.23,1,.11Z" fill="#ef6938"/><path d="M325.08,439.12c-.73-2-.08-3.83.45-5.7l3.58-4c2.43,1.6,4.24,4.25,7.75,3.89a16,16,0,0,0,8.54-3.75c1.74,3.4,3.53,6.76,5.18,10.2a6.36,6.36,0,0,0,5.06,3.82,39.6,39.6,0,0,1,4.61,1.21,3.53,3.53,0,0,1,2.73,3.94l-21-.15-1.16-.82q-2.44-1.42-4.91-2.83l.06,0-5.09-2.88-1-.13c-.25-2.35-2-2.56-3.83-2.75Z" fill="#f59421"/><path d="M342,448.59l21,.15c.14.32.27.64.41,1-5.65.27-11.29.58-16.94.81C344.71,450.59,343,450.47,342,448.59Z" fill="#d6864d"/><path d="M386.9,200.21l-2.79-.16.16-.66,2.6.85Z" fill="#225675"/><path d="M377.57,198h-1.49v-.34h1.48Z" fill="#225675"/><path d="M379.93,198.62h1.5V199h-1.5Z" fill="#225675"/><path d="M392.34,191.83c-.1,0-.26.1-.28.07a1,1,0,0,1-.14-.36l.49-.11Z" fill="#225675"/><path d="M395,184.29l-.2-.34.45-.26a.88.88,0,0,1,0,.39C395.25,184.17,395.1,184.22,395,184.29Z" fill="#225675"/><path d="M393.36,188.68l-.15.37c-.11-.17-.23-.33-.33-.51l.28-.19Z" fill="#225675"/><path d="M368.66,195.19l-.34-.12a2.44,2.44,0,0,1,.4-.32s.17.16.26.25Z" fill="#284a5b"/><path d="M363.83,192.56l.42.37c-.08,0-.18,0-.23-.07a1.23,1.23,0,0,1-.17-.32Z" fill="#284a5b"/><path d="M363.85,192.54l-.42-.23.4.25Z" fill="#284a5b"/><path d="M795.94,551.43v-13.5h92.55c1.07,2.12.44,4.53.51,6.84s-.13,4.45-.22,6.67Zm20.86-7.24c-1.54-.77-2.41-1.53-3.25-1.5-.59,0-1.51,1.08-1.62,1.78a1.65,1.65,0,0,0,2,2C814.76,546.27,815.44,545.3,816.8,544.19Zm5.94-2.31c-1,1-2.2,1.61-2.15,2.12.09.87.93,1.66,1.45,2.48.8-.57,2.05-1,2.26-1.76S823.47,543.11,822.74,541.88Zm-15.26,2.2c-1.58-.72-2.47-1.47-3.27-1.39-.61.06-1.69,1.43-1.54,1.79.35.82,1.29,1.84,2.05,1.9S806.14,545.26,807.48,544.08Z" fill="#efefef"/><path d="M826.74,593.83h24.67c-1.35.88-1.89,1.55-2.43,1.55-7,.07-14,0-21,0a4.32,4.32,0,0,1-1.49-.65Z" fill="#426b7f"/><path d="M804.37,584.94a4.4,4.4,0,0,1,1.54-.64q9.58,0,19.17.08c.4,0,.8.42,1.47.79C822.81,586.33,809.85,586.54,804.37,584.94Z" fill="#666464"/><path d="M804,558.61c.67-.5,1.07-1,1.56-1.13,3.55-.63,17.93-.09,20.29.7C823.67,559.54,810,559.87,804,558.61Z" fill="#666464"/><path d="M856.61,576.7c-3.31.92-11.76,1-17,.07,1.31-.58,2-1.16,2.79-1.21C850.06,575,854.55,575.4,856.61,576.7Z" fill="#585555"/><path d="M856.61,603.91a121.6,121.6,0,0,1-17.05.17C843,601.85,853.63,601.79,856.61,603.91Z" fill="#666464"/><path d="M850.41,567.72c-.46.31-.92.9-1.38.9q-10.49.09-21,0c-.46,0-.91-.6-1.37-.91Z" fill="#426b7f"/><path d="M850.41,567.72H826.67c.47-.31.94-.87,1.41-.88q10.47-.08,20.94,0C849.49,566.85,850,567.41,850.41,567.72Z" fill="#585555"/><path d="M814.26,576.39c.48-.3,1-.86,1.43-.86q9.9-.09,19.81,0c.47,0,.94.57,1.41.88Z" fill="#666464"/><path d="M814.26,576.39h22.65c-.45.3-.9.87-1.35.88q-10,.09-20,0C815.15,577.28,814.71,576.7,814.26,576.39Z" fill="#301955"/><path d="M814.26,603.25c.47-.3.94-.86,1.41-.86q9.92-.09,19.83,0c.47,0,.94.57,1.41.87Z" fill="#666464"/><path d="M814.26,603.25h22.65c-.45.31-.9.88-1.35.89q-10,.08-19.95,0C815.16,604.14,814.71,603.56,814.26,603.25Z" fill="#301955"/><path d="M864.12,567.83c-4.54,1.25-6.9,1.21-10.09.06C856.45,566.41,859.59,566.31,864.12,567.83Z" fill="#666464"/><path d="M863.28,594.41c-3,1.54-6.1,1.36-9.77.38C856.86,593.36,858,593.28,863.28,594.41Z" fill="#585555"/><path d="M822.39,594.48c-2.72,1.33-5.43,1.27-8.57.35C816.82,593.36,817.6,593.3,822.39,594.48Z" fill="#426b7f"/><path d="M814.22,567.87a9,9,0,0,1,8.18-.07C819.7,569.06,817,568.67,814.22,567.87Z" fill="#585555"/><path d="M840.89,585.87h-8.55C834.71,583.89,836.9,583.75,840.89,585.87Z" fill="#585555"/><path d="M832.62,558.44c2.72-1.33,5.42-1.26,8.63-.34C838,559.46,837.44,559.5,832.62,558.44Z" fill="#426b7f"/><path d="M685.42,436c1.29.31,3.07-.08,3.1,2.1-.29.9-.43,1.87-1.83,1.08a19.48,19.48,0,0,0-3.05-1.13v-.73Z" fill="#ef6938"/><path d="M689.19,438.18l1.06-1.59c.33,1.66,2.59,2.82,1.21,5.45Z" fill="#ef6938"/><path d="M682.73,436.68l-3.72.2c2.2-2.18,4-1.61,5.69-1.58Z" fill="#e5e5e5"/><path d="M682.73,436.68l2-1.38.77.11a.89.89,0,0,1-.05.62l-1.78,1.32Z" fill="#585555"/><path d="M330.91,442.1,336,445Z" fill="#585555"/><path d="M335.94,444.94q2.46,1.41,4.91,2.83Q338.41,446.35,335.94,444.94Z" fill="#585555"/><path d="M326.05,439.22c1.79.19,3.58.4,3.83,2.75Z" fill="#666464"/><path d="M816.8,544.19c-1.36,1.11-2,2.08-2.89,2.25a1.65,1.65,0,0,1-2-2c.11-.7,1-1.76,1.62-1.78C814.39,542.66,815.26,543.42,816.8,544.19Z" fill="#426b7f"/><path d="M822.74,541.88c.73,1.23,1.74,2.2,1.56,2.84s-1.46,1.19-2.26,1.76c-.52-.82-1.36-1.61-1.45-2.48C820.54,543.49,821.69,542.87,822.74,541.88Z" fill="#426b7f"/><path d="M807.48,544.08c-1.34,1.18-2.09,2.34-2.76,2.3s-1.7-1.08-2.05-1.9c-.15-.36.93-1.73,1.54-1.79C805,542.61,805.9,543.36,807.48,544.08Z" fill="#426b7f"/></svg>