<svg id="Layer_1" data-name="Layer 1" xmlns="http://www.w3.org/2000/svg" viewBox="0 0 947.56 265.93"><defs><style>.cls-1,.cls-5{fill:#225675;}.cls-1{stroke:#225675;stroke-width:13px;}.cls-1,.cls-2,.cls-3{stroke-miterlimit:10;}.cls-2,.cls-3,.cls-4{fill:#e6873c;}.cls-2,.cls-3{stroke:#e6873c;}.cls-2{stroke-width:0.75px;}.cls-3{fill-rule:evenodd;}.cls-6{isolation:isolate;}</style></defs><g id="Layer_2" data-name="Layer 2"><g id="Layer_11" data-name="Layer 11"><path class="cls-1" d="M6.67,6.5H69.39c34.44,0,52.94,18.25,52.94,44.21C122.33,72,109.48,85.92,94.57,90c12.86,3.59,34.19,16.19,34.19,44.46,0,36-27,51.92-58.35,51.92H6.67ZM64.76,83.87c31.1,0,42.92-11.57,42.92-32.39,0-17.73-12.33-32.13-37.52-32.13H20.29V83.87Zm-44.47,89.7H71c23.64,0,43.44-11.82,43.44-38.3,0-22.87-14.65-38.55-50.9-38.55H20.29Z"/><path class="cls-1" d="M169.88,6.5h13.88V84.9h108V6.5h13.88V186.42H291.72V97.75h-108v88.67H169.88Z"/><path class="cls-1" d="M375.25,124.19l-22.88,62.2H338.23L404.29,6.5h16.45l68.89,179.92H474.46l-23.39-62.23Zm71.2-12.85c-20.05-53.43-30.33-79.15-33.93-91.22h-.26c-4.37,13.63-15.94,45.5-32.13,91.25Z"/><path class="cls-1" d="M535.63,102.37v84H521.5V6.5H586c35.47,0,54.24,19,54.24,47.29,0,22.88-13.63,37.79-33.68,42.16,18.51,4.37,30.85,16.45,30.85,47v6.94c0,12.6-1,29.56,2.31,36.5H625.6c-3.35-7.71-2.58-22.1-2.58-37.52v-4.63c0-29.56-8.73-41.9-43.18-41.9Zm0-12.85h43.44c31.62,0,46.27-11.82,46.27-35.47,0-22.1-14.4-34.7-42.41-34.7h-47.3Z"/><path class="cls-1" d="M704.75,124.19l-22.87,62.2H667.74L733.8,6.5h16.45l68.88,179.92H804l-23.4-62.23ZM776,111.37c-20.08-53.46-30.36-79.18-34-91.25h-.25c-4.37,13.63-15.94,45.5-32.13,91.25Z"/><path class="cls-1" d="M865.14,19.35h-60.4V6.5H940V19.35h-60.7V186.42H865.14Z"/><path class="cls-2" d="M29.4,147.86a2.77,2.77,0,0,0,5.41.86H60.14l6.6,6.61H79v3.42H62.51l-6.61-6.56H44.59a2.76,2.76,0,1,0,0,1.85h10.5l6.6,6.61H82.28l.55-5.12a18.41,18.41,0,0,0,2.62-.7l3,4.15,5.88-3.39-2.09-4.71A21.63,21.63,0,0,0,94.16,149l4.71,2.08,3.39-5.88-4.15-3a18.41,18.41,0,0,0,.7-2.62l5.11-.55v-6.79l-5.11-.55a17.93,17.93,0,0,0-.7-2.61l4.15-3-3.28-6-4.74,2.14a20.36,20.36,0,0,0-1.92-1.91l2.09-4.71-5.88-3.4-3,4.15a21.52,21.52,0,0,0-2.62-.7l-.55-5.11H61.74l-6.6,6.6H44.64a2.78,2.78,0,1,0,0,1.85H55.9l6.61-6.61H79v3.42H66.74l-6.6,6.61H34.81a2.78,2.78,0,1,0,0,1.85h26.1l6.6-6.61H79v3.69h-7.2l-6.6,6.6H54.65a2.76,2.76,0,1,0,0,1.85H66l6.61-6.6H79A12.42,12.42,0,0,1,79,148H72.52l-6.61-6.6H54.61a2.78,2.78,0,1,0,0,1.85h10.5l6.6,6.6H79v3.69H67.51l-6.6-6.61H34.76a2.77,2.77,0,0,0-5.36,1ZM53,142.33a.92.92,0,1,1-.92-.92h0A.92.92,0,0,1,53,142.33Zm0-13.61a.92.92,0,1,1-.92-.92h0A.92.92,0,0,1,53,128.72ZM33.1,123.19a.93.93,0,1,1-.94-.92h0A.92.92,0,0,1,33.1,123.19ZM43,117.92a.92.92,0,1,1-.92-.92h0A.92.92,0,0,1,43,117.92Zm0,35.21a.92.92,0,1,1-1-.94.94.94,0,0,1,1,.86ZM31.3,147.86a.93.93,0,1,1,.93.93h0a.94.94,0,0,1-1-.88v0Z"/><path class="cls-2" d="M40.43,136.52H72.21a6.79,6.79,0,1,0,0-1.85H40.48a2.78,2.78,0,1,0,0,1.85Zm36.33-1a2.18,2.18,0,1,1,2.18,2.18h0a2.19,2.19,0,0,1-2.18-2.17Zm-38,0a.92.92,0,1,1-.92-.92h0a.92.92,0,0,1,.92.92h0Z"/><path class="cls-3" d="M34,39.4c-5.91,0-6.08-8.76,0-8.76H75.13c12.42,0,22.57,9.76,22.57,21.71S87.55,74.06,75.13,74.06H34a4.38,4.38,0,0,1-.12-8.76H75.13a13.66,13.66,0,0,0,9.5-3.8c8.55-8.23,2.3-22.09-9.5-22.09Z"/><path class="cls-4" d="M34.15,46.79h47a1.5,1.5,0,0,0,0-3h-47a1.5,1.5,0,0,0,0,3Z"/><path class="cls-4" d="M34.15,53.79H84.2a1.5,1.5,0,0,0,0-3h-50a1.5,1.5,0,0,0,0,3Z"/><path class="cls-4" d="M34.15,60.79h47a1.5,1.5,0,0,0,0-3h-47a1.5,1.5,0,0,0,0,3Z"/><rect class="cls-5" y="200.38" width="946.7" height="5.38"/><g class="cls-6"><g class="cls-6"><path class="cls-4" d="M26.37,216.93a2.69,2.69,0,0,1,1,.48,2.53,2.53,0,0,1,.79.92,2.4,2.4,0,0,1,.31,1.22,3,3,0,0,1-1.19,2.39,2.21,2.21,0,0,1-1.36.48l-7.65-.06c-.2,0-.35.13-.43.38l-.06,32.39v4a2.1,2.1,0,0,1-.45,1.18,3.6,3.6,0,0,1-.94.8,2.94,2.94,0,0,1-1.49.26,2.25,2.25,0,0,1-1.37-.58,5.32,5.32,0,0,1-.51-.61,2.15,2.15,0,0,1-.34-.73l-.12-.7-.06-36a.94.94,0,0,0-.54-.45l-8.08-.06a2.54,2.54,0,0,1-1.12-.54,3.24,3.24,0,0,1-.82-1,2.44,2.44,0,0,1-.24-1.34,3,3,0,0,1,.36-1.28,2.3,2.3,0,0,1,.85-.9,3.81,3.81,0,0,1,1.16-.44Z"/></g><g class="cls-6"><path class="cls-5" d="M51.5,229.58a2.09,2.09,0,0,1,1.52.89,2.28,2.28,0,0,1,.24,1.79,1.78,1.78,0,0,1-1.51,1.28l-11.66-.06a4.48,4.48,0,0,0-1,0,5.24,5.24,0,0,1-1,0,3,3,0,0,1-.91-.19,1.22,1.22,0,0,1-.67-.67,2.27,2.27,0,0,1-.12-1.79A1.79,1.79,0,0,1,38,229.58l10.26.06Zm.13,14a1.64,1.64,0,0,1,1.45.9,2,2,0,0,1-.27,2.46,1.79,1.79,0,0,1-.82.48l-.61.06-13.47-.06a1.52,1.52,0,0,1-1-.51,2.05,2.05,0,0,1-.55-1,1.92,1.92,0,0,1,.67-2,2.58,2.58,0,0,1,1.09-.45ZM53,258.33a1.64,1.64,0,0,1,.43,1,2,2,0,0,1-1,2,1.79,1.79,0,0,1-1.12.22l-13.23-.06a2.9,2.9,0,0,1-.88-.38,1.68,1.68,0,0,1-.58-.64,2.11,2.11,0,0,1-.18-1.12,1.58,1.58,0,0,1,.43-1,1.64,1.64,0,0,1,1.39-.7l12.38-.07a8.08,8.08,0,0,1,1.31.1A1.58,1.58,0,0,1,53,258.33Z"/><path class="cls-5" d="M87.25,234.18a1.68,1.68,0,0,1,.49,2,1.86,1.86,0,0,1-1,1.21,1.7,1.7,0,0,1-1.13.13,2.54,2.54,0,0,1-1.06-.51,10.32,10.32,0,0,0-5.49-3.23,10.88,10.88,0,0,0-6.34.42,9.78,9.78,0,0,0-2.86,1.53,11.93,11.93,0,0,0-2.36,2.4,11.66,11.66,0,0,0-1.64,3,10.32,10.32,0,0,0-.67,3.29,12.25,12.25,0,0,0,1.28,6.74,12,12,0,0,0,4.67,4.95,9.54,9.54,0,0,0,3.16,1.25,10.91,10.91,0,0,0,3.42.16,12.35,12.35,0,0,0,3.34-.86A10.32,10.32,0,0,0,84,254.82a4.33,4.33,0,0,1,1.12-1.06,1.7,1.7,0,0,1,1.49-.16,1.6,1.6,0,0,1,.85.64,2.22,2.22,0,0,1,.42,1,1.78,1.78,0,0,1-.49,1.54A11.37,11.37,0,0,1,86.1,258a13.74,13.74,0,0,1-3.49,2.26,14.56,14.56,0,0,1-12.17-.09,14.36,14.36,0,0,1-3.76-2.53,15.91,15.91,0,0,1-2.89-3.51A16.5,16.5,0,0,1,62,249.86a18.22,18.22,0,0,1-.6-4.69,14.7,14.7,0,0,1,.73-4.57,17.07,17.07,0,0,1,2-4.18A16.61,16.61,0,0,1,67,233a12.91,12.91,0,0,1,3.76-2.33,13.2,13.2,0,0,1,4-1.06,15.29,15.29,0,0,1,4.22.13A14.49,14.49,0,0,1,83,231a12.81,12.81,0,0,1,3.43,2.39Z"/><path class="cls-5" d="M100.3,230.73a2.36,2.36,0,0,1,.15.61,5.74,5.74,0,0,1,0,.6v11.44c.08.17.19.25.31.25l13,.07c.16-.09.24-.19.24-.32l.06-12a2.33,2.33,0,0,1,.42-.9,1.55,1.55,0,0,1,.79-.51,1.58,1.58,0,0,1,2,.45,1.62,1.62,0,0,1,.6,1.28V259.8a2.81,2.81,0,0,1-.39.92,1.29,1.29,0,0,1-.7.55,1.86,1.86,0,0,1-2.06-.26,1.9,1.9,0,0,1-.67-1.53L114,247.85c0-.17-.06-.25-.18-.25l-13-.07a.7.7,0,0,0-.31.26v11.88a1.77,1.77,0,0,1-.91,1.41,2,2,0,0,1-1.06.22,1.56,1.56,0,0,1-1-.42,1.34,1.34,0,0,1-.58-.63,3.74,3.74,0,0,1-.21-.83V231.37a2,2,0,0,1,.52-1.06,1.9,1.9,0,0,1,.94-.54,2.08,2.08,0,0,1,1.24.13A1.78,1.78,0,0,1,100.3,230.73Z"/><path class="cls-5" d="M131.38,230.47l4.61,7.41,8.8,14a.6.6,0,0,0,.43.12,1,1,0,0,0,.18-.25V231a2,2,0,0,1,.54-.95,2,2,0,0,1,.92-.58,1.61,1.61,0,0,1,1.94.83,2,2,0,0,1,.36,1.15v28.43a3.33,3.33,0,0,1-.36.77,1.69,1.69,0,0,1-.61.58,1.59,1.59,0,0,1-1.06.25,1.64,1.64,0,0,1-.94-.38,2.43,2.43,0,0,1-.7-.8,6.16,6.16,0,0,0-.52-.86l-12.86-20.51c-.21-.09-.35-.11-.43-.07s-.18.28-.18.58v20.12a2.16,2.16,0,0,1-.33.93,2.24,2.24,0,0,1-.7.67,1.76,1.76,0,0,1-1.06.19,2,2,0,0,1-1-.38,1.93,1.93,0,0,1-.72-1.6v-8.3l.06-20.13a2.25,2.25,0,0,1,.33-.89,1.23,1.23,0,0,1,.7-.58,1.6,1.6,0,0,1,1.7.07A2,2,0,0,1,131.38,230.47Z"/><path class="cls-5" d="M187,239.48a16.27,16.27,0,0,1,1,4.25,19.14,19.14,0,0,1-.09,4.41,16.49,16.49,0,0,1-1.19,4.25,14.93,14.93,0,0,1-2.21,3.64,15.73,15.73,0,0,1-3.55,3.1,14.89,14.89,0,0,1-4.16,1.82,15.36,15.36,0,0,1-4.49.48,14.28,14.28,0,0,1-4.5-.93,12,12,0,0,1-2.88-1.5,16.37,16.37,0,0,1-2.64-2.3,16.84,16.84,0,0,1-2.12-2.81,13.58,13.58,0,0,1-1.4-3,15.77,15.77,0,0,1-.54-9,16.06,16.06,0,0,1,4.18-7.83,13.47,13.47,0,0,1,3.61-2.71,15,15,0,0,1,4.22-1.47,14.44,14.44,0,0,1,4.4-.16,13.12,13.12,0,0,1,4.22,1.21,13.5,13.5,0,0,1,4.92,3.45A15.6,15.6,0,0,1,187,239.48Zm-3.52,1.34a10.42,10.42,0,0,0-2.39-3.77,11.39,11.39,0,0,0-3.55-2.55,11.07,11.07,0,0,0-5.5-.93,10.84,10.84,0,0,0-5.25,1.76,11.54,11.54,0,0,0-4.25,5.14,12.52,12.52,0,0,0-.85,6.68,11.24,11.24,0,0,0,.88,3.23,13.65,13.65,0,0,0,1.77,2.9,11.87,11.87,0,0,0,2.42,2.33,9.09,9.09,0,0,0,3,1.44,10.88,10.88,0,0,0,6.34.16,10.3,10.3,0,0,0,5.37-3.54,10.76,10.76,0,0,0,1.82-2.82,12.49,12.49,0,0,0,1-3.29,12.16,12.16,0,0,0,.09-3.41A11.66,11.66,0,0,0,183.45,240.82Z"/><path class="cls-5" d="M200.39,230.41l.18.64v26.19c.08.22.2.29.36.23a.41.41,0,0,1,.43,0h11a2.54,2.54,0,0,1,1.33.94,2,2,0,0,1-.06,2.14,1.39,1.39,0,0,1-1.31.85,15.42,15.42,0,0,0-1.66,0H198.51a2.06,2.06,0,0,1-1.07-.48,1.73,1.73,0,0,1-.63-1l-.06-.51.06-22.92-.06-5.13a2.3,2.3,0,0,1,.54-1.6,1.93,1.93,0,0,1,3.1.58Z"/><path class="cls-5" d="M250.7,239.48a16.27,16.27,0,0,1,1,4.25,19.14,19.14,0,0,1-.09,4.41,16.49,16.49,0,0,1-1.19,4.25,14.93,14.93,0,0,1-2.21,3.64,15.73,15.73,0,0,1-3.55,3.1,14.89,14.89,0,0,1-4.16,1.82,15.36,15.36,0,0,1-4.49.48,14.28,14.28,0,0,1-4.5-.93,12,12,0,0,1-2.88-1.5,16.37,16.37,0,0,1-2.64-2.3,16.84,16.84,0,0,1-2.12-2.81,13.58,13.58,0,0,1-1.4-3,15.77,15.77,0,0,1-.54-9,16.06,16.06,0,0,1,4.18-7.83,13.47,13.47,0,0,1,3.61-2.71,15,15,0,0,1,4.22-1.47,14.44,14.44,0,0,1,4.4-.16,13.12,13.12,0,0,1,4.22,1.21,13.5,13.5,0,0,1,4.92,3.45A15.6,15.6,0,0,1,250.7,239.48Zm-3.52,1.34a10.42,10.42,0,0,0-2.39-3.77,11.39,11.39,0,0,0-3.55-2.55,11.07,11.07,0,0,0-5.5-.93,10.84,10.84,0,0,0-5.25,1.76,11.54,11.54,0,0,0-4.25,5.14,12.52,12.52,0,0,0-.85,6.68,11.24,11.24,0,0,0,.88,3.23,13.65,13.65,0,0,0,1.77,2.9,11.87,11.87,0,0,0,2.42,2.33,9.09,9.09,0,0,0,2.95,1.44,10.87,10.87,0,0,0,6.34.16,10.3,10.3,0,0,0,5.37-3.54,10.76,10.76,0,0,0,1.82-2.82,12.79,12.79,0,0,0,1.09-6.7A11.66,11.66,0,0,0,247.18,240.82Z"/><path class="cls-5" d="M285.48,234.5a2.32,2.32,0,0,1,.49,1.05,1.55,1.55,0,0,1-.18,1.12,1.94,1.94,0,0,1-1.64,1.15,1.24,1.24,0,0,1-1.25-.51,6.05,6.05,0,0,0-1.12-1.09,10.61,10.61,0,0,0-2.76-1.66,12.3,12.3,0,0,0-3.19-.83,10.43,10.43,0,0,0-3.25.13,9.43,9.43,0,0,0-3,1.15,12.31,12.31,0,0,0-3.94,17.47,11,11,0,0,0,4.79,4.06,9.17,9.17,0,0,0,2.82.83,11.66,11.66,0,0,0,3,0,11.16,11.16,0,0,0,2.91-.77,8.79,8.79,0,0,0,2.49-1.53,10.34,10.34,0,0,0,2.79-3.19,12.67,12.67,0,0,0,1.4-3.9c0-.13,0-.26-.25-.38H274.5a2.07,2.07,0,0,1-1.55-1.92,2.47,2.47,0,0,1,.09-.89,2,2,0,0,1,1.34-1.16l.72-.06,13.11.06a1.82,1.82,0,0,1,1.58,1.28,4.67,4.67,0,0,1,.09,1.18c0,.41,0,.8,0,1.19a15,15,0,0,1-1,4.31,16.17,16.17,0,0,1-5.37,7.06,13,13,0,0,1-3.79,2,13.76,13.76,0,0,1-4.28.83,14.73,14.73,0,0,1-8.17-2.17,15.17,15.17,0,0,1-3.4-2.88,14.09,14.09,0,0,1-2.48-3.8,17.09,17.09,0,0,1-1.34-4.44,18.14,18.14,0,0,1-.12-4.66,14.1,14.1,0,0,1,1.21-4.47,15.61,15.61,0,0,1,5.44-6.75,14.39,14.39,0,0,1,3.82-1.91,13.27,13.27,0,0,1,4.22-.67,16,16,0,0,1,5.92,1.21A14.25,14.25,0,0,1,285.48,234.5Z"/><path class="cls-5" d="M301.44,231l6.44,10.16a.65.65,0,0,1,.24.35.28.28,0,0,0,.3.23l.13-.07,3.76-6,3.4-5.3a1.4,1.4,0,0,1,.85-.68,2.24,2.24,0,0,1,1.09,0,1.75,1.75,0,0,1,.88.61,2,2,0,0,1,.46,1.05,1.72,1.72,0,0,1-.09,1.06,4.57,4.57,0,0,1-.52.86l-7.89,12.59-.18.57.06,11.76c0,.55,0,1.12,0,1.69a1.64,1.64,0,0,1-.94,1.38,1.4,1.4,0,0,1-1,.25,2.42,2.42,0,0,1-1.06-.38,2,2,0,0,1-.73-1.41V246.38l-.18-.51-8.56-13.48a1.92,1.92,0,0,1,.37-2.24,1.82,1.82,0,0,1,.88-.51,2.11,2.11,0,0,1,1,0,1.71,1.71,0,0,1,.76.51A5.1,5.1,0,0,1,301.44,231Z"/></g><g class="cls-6"><path class="cls-4" d="M373.51,216.74a4.21,4.21,0,0,1,1.21.41,2.34,2.34,0,0,1,.91.86,3.46,3.46,0,0,1,.43,1.15,2.34,2.34,0,0,1-.12,1.28,3.1,3.1,0,0,1-.79,1.22,2.42,2.42,0,0,1-1.28.63l-16.38-.06a7.84,7.84,0,0,0-1.37,0,7.83,7.83,0,0,1-1.37,0,3.47,3.47,0,0,1-1.24-.35,2.11,2.11,0,0,1-.94-1,2.5,2.5,0,0,1-.33-1.18,3.41,3.41,0,0,1,.15-1.25,3,3,0,0,1,.88-1.18,2.28,2.28,0,0,1,1.3-.54l14.45.06Zm.18,19.68a2.45,2.45,0,0,1,2,1.27,2.32,2.32,0,0,1,.43,1.19,3.16,3.16,0,0,1-.12,1.24,2.88,2.88,0,0,1-.67,1.09,2.13,2.13,0,0,1-1.09.64l-.91.06-18.94-.06a2.37,2.37,0,0,1-1.3-.71,2.7,2.7,0,0,1-.76-1.34,2.94,2.94,0,0,1,0-1.53,2.47,2.47,0,0,1,.82-1.28,3,3,0,0,1,1.51-.64ZM375.63,257a2.62,2.62,0,0,1,.55,1.47,3.25,3.25,0,0,1-.24,1.53,2.45,2.45,0,0,1-1.13,1.22,3,3,0,0,1-1.6.31l-18.58-.06a2.73,2.73,0,0,1-1.18-.51,2.92,2.92,0,0,1-.82-1,3.33,3.33,0,0,1-.24-1.56,2.66,2.66,0,0,1,2.55-2.4L372.3,256a8.69,8.69,0,0,1,1.85.07A2.2,2.2,0,0,1,375.63,257Z"/></g><g class="cls-6"><path class="cls-5" d="M392.57,229.58a12.53,12.53,0,0,1,4.18.86,15.66,15.66,0,0,1,3.86,2.17,16.35,16.35,0,0,1,3.15,3.23,15.1,15.1,0,0,1,2.1,4,16.3,16.3,0,0,1,.94,4.44,17.58,17.58,0,0,1-.27,4.47A17,17,0,0,1,405.1,253a14.41,14.41,0,0,1-2.52,3.64,14,14,0,0,1-5,3.61,15.82,15.82,0,0,1-5.94,1.25h-4.8a2,2,0,0,1-1.52-1,3.59,3.59,0,0,1-.18-1.08l-.06-27.67a2,2,0,0,1,1.09-2,.4.4,0,0,1,.31-.13,1.33,1.33,0,0,0,.42-.06l5.71-.26Zm1.91,4.15a15.59,15.59,0,0,0-2-.38H389a.62.62,0,0,0-.25.32v8.43l.06,15c0,.3.06.47.19.51q1.69.07,3.33,0a8.86,8.86,0,0,0,3.1-.6,9.07,9.07,0,0,0,3-1.6,13.21,13.21,0,0,0,2.43-2.52,11.93,11.93,0,0,0,1.67-3.13,11.4,11.4,0,0,0,.67-3.42,12.6,12.6,0,0,0-1.67-7,11.7,11.7,0,0,0-5.13-4.82A7.88,7.88,0,0,0,394.48,233.73Z"/><path class="cls-5" d="M434.2,230.41l.12.64.06,7.86.13,13.35a9.61,9.61,0,0,1-1.64,4.95,9.42,9.42,0,0,1-3.83,3.36,7.28,7.28,0,0,1-2.39.76,11.09,11.09,0,0,1-2.64.07,8.84,8.84,0,0,1-2.55-.64,8.41,8.41,0,0,1-2.19-1.34,9.88,9.88,0,0,1-3.7-7l-.06-3V231a2,2,0,0,1,.42-1,1.57,1.57,0,0,1,.85-.6,1.83,1.83,0,0,1,1.76.44,1.7,1.7,0,0,1,.61,1.67l.06,5.75.12,14.95a5.59,5.59,0,0,0,1.25,3.09,5.52,5.52,0,0,0,2.64,2,5.84,5.84,0,0,0,3.34,0,5.73,5.73,0,0,0,2.85-1.83,5.92,5.92,0,0,0,1.33-3.7V230.86a1.53,1.53,0,0,1,1-1.41,1.71,1.71,0,0,1,1.4,0A1.76,1.76,0,0,1,434.2,230.41Z"/><path class="cls-5" d="M468.74,234.18a1.68,1.68,0,0,1,.48,2,1.84,1.84,0,0,1-1,1.21,1.68,1.68,0,0,1-1.12.13,2.43,2.43,0,0,1-1.06-.51,10.31,10.31,0,0,0-5.5-3.23,10.88,10.88,0,0,0-6.34.42,9.85,9.85,0,0,0-2.85,1.53,12.25,12.25,0,0,0-2.37,2.4,12,12,0,0,0-1.64,3,10.58,10.58,0,0,0-.66,3.29,12.24,12.24,0,0,0,1.27,6.74,12,12,0,0,0,4.67,4.95,9.63,9.63,0,0,0,3.16,1.25,11,11,0,0,0,3.43.16,12.54,12.54,0,0,0,3.34-.86,10.26,10.26,0,0,0,2.88-1.82,4.49,4.49,0,0,1,1.12-1.06,1.7,1.7,0,0,1,1.49-.16,1.56,1.56,0,0,1,.85.64,2.22,2.22,0,0,1,.42,1,1.77,1.77,0,0,1-.48,1.54,11.46,11.46,0,0,1-1.28,1.15,13.57,13.57,0,0,1-3.49,2.26,14.56,14.56,0,0,1-12.17-.09,14.53,14.53,0,0,1-3.76-2.53,16.14,16.14,0,0,1-2.88-3.51,15.82,15.82,0,0,1-1.79-4.22,17.8,17.8,0,0,1-.61-4.69,14.7,14.7,0,0,1,.73-4.57,17.44,17.44,0,0,1,2-4.18,16.36,16.36,0,0,1,2.95-3.42,12.78,12.78,0,0,1,3.76-2.33,13.13,13.13,0,0,1,4-1.06,15.28,15.28,0,0,1,4.22.13,14.55,14.55,0,0,1,4,1.28,13,13,0,0,1,3.43,2.39Z"/><path class="cls-5" d="M491,232.13l5.71,16,2.18,6.26,1.52,4.28a1.91,1.91,0,0,1,.15,1.12,1.82,1.82,0,0,1-.45,1,1.69,1.69,0,0,1-1.76.64,1.53,1.53,0,0,1-.88-.45,2.37,2.37,0,0,1-.58-.83l-1.64-4.41-.67-2c-.08-.21-.22-.28-.42-.19H483.43c-.21,0-.33.06-.37.19l-1.94,5.43c-.16.38-.3.77-.43,1.15a1.52,1.52,0,0,1-.85.9,2,2,0,0,1-1.76-.07,1.93,1.93,0,0,1-.72-.89,2,2,0,0,1-.13-1.22l.37-1.15L485,236.8l2.07-6.2a2.32,2.32,0,0,1,1.57-1,2,2,0,0,1,1.13.35,2.3,2.3,0,0,1,.76.86Zm-2.18,6a.39.39,0,0,0-.31.13l-1.33,3.83-1.94,5.5-.49,1.47v.31a.51.51,0,0,0,.36.2l2.73.06h4.92a.41.41,0,0,0,.25-.38l-1.77-5.18-2.06-5.68A.39.39,0,0,0,488.77,238.14Z"/><path class="cls-5" d="M525.85,229.71a3.12,3.12,0,0,1,.79.35,1.37,1.37,0,0,1,.55.67,1.67,1.67,0,0,1,.18.83,3,3,0,0,1-.12.89,2.29,2.29,0,0,1-.7.84,1.71,1.71,0,0,1-1,.31l-5.4-.06a.28.28,0,0,0-.31.32L519.78,257v2.81a1.73,1.73,0,0,1-1,1.41,1.94,1.94,0,0,1-1,.22,1.5,1.5,0,0,1-1-.42l-.34-.44a1.93,1.93,0,0,1-.27-.52l-.06-.51L516,233.86c-.12-.21-.24-.32-.37-.32l-5.76-.06a3.41,3.41,0,0,1-.82-.39,1.54,1.54,0,0,1-.58-.64,2.47,2.47,0,0,1-.18-.95,1.75,1.75,0,0,1,.24-1,1.66,1.66,0,0,1,.64-.67,2.3,2.3,0,0,1,.82-.29Z"/><path class="cls-5" d="M539.45,230.41a1.16,1.16,0,0,1,.21.8c0,.32,0,.63,0,.92l.06,27.73a1.61,1.61,0,0,1-1,1.35,1.64,1.64,0,0,1-1.52.12,2,2,0,0,1-1.15-1.28v-.7l-.06-21.08v-7.09a2.39,2.39,0,0,1,.33-1,1.49,1.49,0,0,1,.76-.64,1.72,1.72,0,0,1,1.33-.1A2.05,2.05,0,0,1,539.45,230.41Z"/><path class="cls-5" d="M577.56,239.48a15.86,15.86,0,0,1,1,4.25,18.09,18.09,0,0,1-.09,4.41,16.08,16.08,0,0,1-1.18,4.25,15,15,0,0,1-2.22,3.64,15.31,15.31,0,0,1-3.55,3.1,14.7,14.7,0,0,1-4.15,1.82,15.36,15.36,0,0,1-4.49.48,14.28,14.28,0,0,1-4.5-.93,12,12,0,0,1-2.88-1.5,16.37,16.37,0,0,1-2.64-2.3,16.84,16.84,0,0,1-2.12-2.81,13.58,13.58,0,0,1-1.4-3,15.77,15.77,0,0,1-.55-9,16.16,16.16,0,0,1,4.19-7.83,13.47,13.47,0,0,1,3.61-2.71,14.93,14.93,0,0,1,4.22-1.47,14.43,14.43,0,0,1,4.4-.16,13.19,13.19,0,0,1,4.22,1.21,13.5,13.5,0,0,1,4.92,3.45A15.77,15.77,0,0,1,577.56,239.48ZM574,240.82a10.32,10.32,0,0,0-2.4-3.77,11.17,11.17,0,0,0-3.55-2.55,11,11,0,0,0-5.49-.93,10.84,10.84,0,0,0-5.25,1.76,11.54,11.54,0,0,0-4.25,5.14,12.52,12.52,0,0,0-.85,6.68,10.93,10.93,0,0,0,.88,3.23,13.61,13.61,0,0,0,1.76,2.9,12.18,12.18,0,0,0,2.43,2.33,9.14,9.14,0,0,0,2.94,1.44,10.91,10.91,0,0,0,6.35.16,10.3,10.3,0,0,0,5.37-3.54,11,11,0,0,0,1.82-2.82,12.49,12.49,0,0,0,1-3.29,13,13,0,0,0,.09-3.41A11.66,11.66,0,0,0,574,240.82Z"/><path class="cls-5" d="M591.16,230.47l4.61,7.41,8.8,14a.6.6,0,0,0,.43.12,1,1,0,0,0,.18-.25V231a2,2,0,0,1,.54-.95,2,2,0,0,1,.92-.58,1.61,1.61,0,0,1,1.94.83,2,2,0,0,1,.36,1.15v28.43a3.33,3.33,0,0,1-.36.77,1.69,1.69,0,0,1-.61.58,1.59,1.59,0,0,1-1.06.25,1.64,1.64,0,0,1-.94-.38,2.43,2.43,0,0,1-.7-.8,6.16,6.16,0,0,0-.52-.86l-12.86-20.51c-.21-.09-.35-.11-.43-.07s-.18.28-.18.58v20.12a2.16,2.16,0,0,1-.33.93,2.24,2.24,0,0,1-.7.67,1.76,1.76,0,0,1-1.06.19,2,2,0,0,1-1-.38,1.93,1.93,0,0,1-.72-1.6v-8.3l.06-20.13a2.25,2.25,0,0,1,.33-.89,1.23,1.23,0,0,1,.7-.58,1.6,1.6,0,0,1,1.7.07A2,2,0,0,1,591.16,230.47Z"/></g><g class="cls-6"><path class="cls-4" d="M679.85,226a3.29,3.29,0,0,1-1.39,1.73,2.72,2.72,0,0,1-1.58.16,2.58,2.58,0,0,1-1.4-.74,14.54,14.54,0,0,0-3.58-2.87,15.21,15.21,0,0,0-4.19-1.66,15.46,15.46,0,0,0-4.46-.39,14.45,14.45,0,0,0-4.4,1,13.31,13.31,0,0,0-4.06,2.14,15.75,15.75,0,0,0-3.28,3.39,18.12,18.12,0,0,0-2.25,4.24,15.63,15.63,0,0,0-1,4.67,17.17,17.17,0,0,0,1.82,9.42,16.55,16.55,0,0,0,6.5,6.87,12.74,12.74,0,0,0,4.43,1.76,16,16,0,0,0,4.82.22,16.58,16.58,0,0,0,4.64-1.18,13,13,0,0,0,4-2.59,11.19,11.19,0,0,1,1.67-1.44,2.18,2.18,0,0,1,2-.22,2.74,2.74,0,0,1,1.19.93,2.59,2.59,0,0,1,.57,1.37,2.5,2.5,0,0,1-.66,2.17,20.68,20.68,0,0,1-1.7,1.6,18.7,18.7,0,0,1-4.92,3.1,22,22,0,0,1-5.65,1.6,21.23,21.23,0,0,1-5.85,0,18.23,18.23,0,0,1-5.56-1.7,20,20,0,0,1-5.27-3.51,22.1,22.1,0,0,1-4-4.92,23.5,23.5,0,0,1-2.52-5.91,23,23,0,0,1-.81-6.55,21.2,21.2,0,0,1,1-6.36,24.37,24.37,0,0,1,2.73-5.87,22.38,22.38,0,0,1,4.17-4.83,18.91,18.91,0,0,1,5.28-3.26,19.5,19.5,0,0,1,5.61-1.46,20.54,20.54,0,0,1,5.86.19,21.21,21.21,0,0,1,5.59,1.79,18,18,0,0,1,4.79,3.32l1.15,1.08A2.48,2.48,0,0,1,679.85,226Z"/></g><g class="cls-6"><path class="cls-5" d="M717.19,239.48a16.25,16.25,0,0,1,1,4.25,19.14,19.14,0,0,1-.09,4.41,16.49,16.49,0,0,1-1.19,4.25A14.62,14.62,0,0,1,714.7,256a15.52,15.52,0,0,1-3.55,3.1A14.76,14.76,0,0,1,707,261a15.32,15.32,0,0,1-4.49.48,14.16,14.16,0,0,1-4.49-.93,12.1,12.1,0,0,1-2.89-1.5,16.37,16.37,0,0,1-2.64-2.3,17.4,17.4,0,0,1-2.12-2.81,14,14,0,0,1-1.4-3,15.77,15.77,0,0,1-.54-9,16.08,16.08,0,0,1,4.19-7.83,13.31,13.31,0,0,1,3.61-2.71,14.82,14.82,0,0,1,4.22-1.47,14.42,14.42,0,0,1,4.4-.16,13.13,13.13,0,0,1,4.21,1.21,13.41,13.41,0,0,1,4.92,3.45A15.63,15.63,0,0,1,717.19,239.48Zm-3.52,1.34a10.58,10.58,0,0,0-2.4-3.77,11.28,11.28,0,0,0-3.55-2.55,11,11,0,0,0-5.49-.93,10.77,10.77,0,0,0-5.25,1.76,11.48,11.48,0,0,0-4.25,5.14,12.43,12.43,0,0,0-.85,6.68,10.63,10.63,0,0,0,.88,3.23,13.21,13.21,0,0,0,1.76,2.9,11.92,11.92,0,0,0,2.43,2.33,9.14,9.14,0,0,0,2.94,1.44,10.88,10.88,0,0,0,6.34.16,10.22,10.22,0,0,0,5.37-3.54,10.76,10.76,0,0,0,1.82-2.82,12.66,12.66,0,0,0,1.1-6.7A12.36,12.36,0,0,0,713.67,240.82Z"/><path class="cls-5" d="M730.78,230.47l4.61,7.41,8.81,14a.59.59,0,0,0,.42.12,1,1,0,0,0,.18-.25V231a2.06,2.06,0,0,1,.55-.95,2,2,0,0,1,.91-.58,1.61,1.61,0,0,1,1.94.83,1.9,1.9,0,0,1,.37,1.15v28.43a3.86,3.86,0,0,1-.37.77,1.66,1.66,0,0,1-.6.58,1.61,1.61,0,0,1-1.07.25,1.67,1.67,0,0,1-.94-.38,2.68,2.68,0,0,1-.7-.8,7.17,7.17,0,0,0-.51-.86l-12.87-20.51a.55.55,0,0,0-.42-.07c-.13.09-.19.28-.19.58v20.12a2.16,2.16,0,0,1-.33.93,2.13,2.13,0,0,1-.7.67,1.74,1.74,0,0,1-1.06.19,2,2,0,0,1-1-.38,1.91,1.91,0,0,1-.73-1.6v-8.3l.06-20.13a2.25,2.25,0,0,1,.33-.89,1.29,1.29,0,0,1,.7-.58,1.6,1.6,0,0,1,1.7.07A2,2,0,0,1,730.78,230.47Z"/><path class="cls-5" d="M774.09,236a1.87,1.87,0,0,1-.4,1.88,1.69,1.69,0,0,1-1,.64,1.94,1.94,0,0,1-1.12-.06,1.64,1.64,0,0,1-.94-.8,4.44,4.44,0,0,1-.4-1.18,5.18,5.18,0,0,0-1.69-2.14,4.55,4.55,0,0,0-2.55-.93,4.65,4.65,0,0,0-2.58.77,5.38,5.38,0,0,0-1.86,2,5.1,5.1,0,0,0-.39,2.88,5.16,5.16,0,0,0,1.12,2.68,5,5,0,0,0,3.16,1.6,8.33,8.33,0,0,1,4.61,1.18,8.81,8.81,0,0,1,3.28,3.55,7.64,7.64,0,0,1,.88,2.3,9.3,9.3,0,0,1,.18,2.58,10.59,10.59,0,0,1-.48,2.53,7.34,7.34,0,0,1-1.13,2.17,8.52,8.52,0,0,1-3.82,3.13,8.81,8.81,0,0,1-4.86.45,6.71,6.71,0,0,1-2.24-.83,9.25,9.25,0,0,1-2-1.54,8.89,8.89,0,0,1-1.52-2,8.06,8.06,0,0,1-.88-2.3,9.26,9.26,0,0,1-.24-2.24,1.89,1.89,0,0,1,1.09-1.72,1.54,1.54,0,0,1,1.06-.13,3.33,3.33,0,0,1,1.06.45,1.86,1.86,0,0,1,.67,1.6,3.81,3.81,0,0,0,.3,1.78,4.28,4.28,0,0,0,1.67,2.21,5.08,5.08,0,0,0,2.52.89,4.71,4.71,0,0,0,2.58-.54,3.74,3.74,0,0,0,1.79-2,4.64,4.64,0,0,0,.58-2.68,5.17,5.17,0,0,0-.82-2.62,4.91,4.91,0,0,0-3.7-2.11,8.47,8.47,0,0,1-7.89-5.05,9,9,0,0,1-.85-4.92,8.7,8.7,0,0,1,1.76-4.66,8.85,8.85,0,0,1,3.88-3,7.82,7.82,0,0,1,4.8-.23,7.19,7.19,0,0,1,3.21,1.57,9.94,9.94,0,0,1,2.43,2.91C773.63,234.71,773.87,235.34,774.09,236Z"/><path class="cls-5" d="M801.86,230.41l.12.64.06,7.86.12,13.35a9.84,9.84,0,0,1-5.46,8.31,7.33,7.33,0,0,1-2.4.76,11.09,11.09,0,0,1-2.64.07,8.84,8.84,0,0,1-2.55-.64,8.41,8.41,0,0,1-2.19-1.34,9.88,9.88,0,0,1-3.7-7l-.06-3V231a2,2,0,0,1,.43-1,1.5,1.5,0,0,1,.85-.6,1.84,1.84,0,0,1,1.76.44,1.71,1.71,0,0,1,.6,1.67l.06,5.75L787,252.2a6.05,6.05,0,0,0,3.88,5,5.84,5.84,0,0,0,3.34,0,5.73,5.73,0,0,0,2.85-1.83,5.93,5.93,0,0,0,1.34-3.7V230.86a1.52,1.52,0,0,1,1-1.41,1.68,1.68,0,0,1,1.39,0A1.81,1.81,0,0,1,801.86,230.41Z"/><path class="cls-5" d="M815,230.41l.18.64v26.19c.08.22.2.29.36.23a.41.41,0,0,1,.43,0h11a2.53,2.53,0,0,1,1.34.94,2,2,0,0,1-.06,2.14,1.4,1.4,0,0,1-1.31.85,15.65,15.65,0,0,0-1.67,0H813.14a2.06,2.06,0,0,1-1.06-.48,1.73,1.73,0,0,1-.63-1l-.07-.51.07-22.92-.07-5.13a2.32,2.32,0,0,1,.55-1.6,1.93,1.93,0,0,1,3.1.58Z"/><path class="cls-5" d="M853.63,229.71a3.28,3.28,0,0,1,.79.35,1.35,1.35,0,0,1,.54.67,1.67,1.67,0,0,1,.19.83,2.65,2.65,0,0,1-.13.89,2.17,2.17,0,0,1-.69.84,1.74,1.74,0,0,1-1,.31l-5.4-.06c-.2,0-.3.11-.3.32L847.56,257v2.81a1.75,1.75,0,0,1-1,1.41,2,2,0,0,1-1,.22,1.55,1.55,0,0,1-1-.42c-.12-.17-.23-.32-.33-.44a1.93,1.93,0,0,1-.27-.52l-.06-.51-.07-25.68c-.12-.21-.24-.32-.36-.32l-5.76-.06a3.24,3.24,0,0,1-.82-.39,1.48,1.48,0,0,1-.58-.64,2.47,2.47,0,0,1-.18-.95,1.75,1.75,0,0,1,.24-1,1.6,1.6,0,0,1,.64-.67,2.24,2.24,0,0,1,.82-.29Z"/><path class="cls-5" d="M867.22,230.41a1.17,1.17,0,0,1,.22.8c0,.32,0,.63,0,.92l.06,27.73a2,2,0,0,1-2.55,1.47,2.08,2.08,0,0,1-1.16-1.28v-.7l-.06-21.08v-7.09a2.41,2.41,0,0,1,.34-1,1.49,1.49,0,0,1,.76-.64,1.72,1.72,0,0,1,1.33-.1A2,2,0,0,1,867.22,230.41Z"/><path class="cls-5" d="M881,230.47l4.61,7.41,8.81,14a.59.59,0,0,0,.42.12,1,1,0,0,0,.18-.25V231a2.06,2.06,0,0,1,.55-.95,1.94,1.94,0,0,1,.91-.58,1.61,1.61,0,0,1,1.94.83,2,2,0,0,1,.37,1.15v28.43a3.86,3.86,0,0,1-.37.77,1.61,1.61,0,0,1-.61.58,1.57,1.57,0,0,1-1.06.25,1.67,1.67,0,0,1-.94-.38,2.55,2.55,0,0,1-.7-.8,7.17,7.17,0,0,0-.51-.86l-12.87-20.51a.57.57,0,0,0-.43-.07c-.12.09-.18.28-.18.58v20.12a2.16,2.16,0,0,1-.33.93,2.13,2.13,0,0,1-.7.67,1.74,1.74,0,0,1-1.06.19,2,2,0,0,1-1-.38,1.91,1.91,0,0,1-.73-1.6v-8.3l.06-20.13a2.25,2.25,0,0,1,.33-.89,1.29,1.29,0,0,1,.7-.58,1.6,1.6,0,0,1,1.7.07A2,2,0,0,1,881,230.47Z"/><path class="cls-5" d="M933.44,234.5a2.42,2.42,0,0,1,.49,1.05,1.55,1.55,0,0,1-.18,1.12,1.94,1.94,0,0,1-1.64,1.15,1.24,1.24,0,0,1-1.25-.51,6.05,6.05,0,0,0-1.12-1.09,10.61,10.61,0,0,0-2.76-1.66,12.3,12.3,0,0,0-3.19-.83,10.43,10.43,0,0,0-3.25.13,9.43,9.43,0,0,0-3,1.15,12,12,0,0,0-6,11.44,11.76,11.76,0,0,0,2.06,6,11.11,11.11,0,0,0,4.8,4.06,9.17,9.17,0,0,0,2.82.83,11.66,11.66,0,0,0,3,0,11.16,11.16,0,0,0,2.91-.77,8.79,8.79,0,0,0,2.49-1.53,10.34,10.34,0,0,0,2.79-3.19,12.67,12.67,0,0,0,1.4-3.9c0-.13,0-.26-.25-.38h-11.1a2.07,2.07,0,0,1-1.55-1.92,2.47,2.47,0,0,1,.09-.89,2,2,0,0,1,1.33-1.16l.73-.06,13.11.06a1.82,1.82,0,0,1,1.58,1.28,4.67,4.67,0,0,1,.09,1.18c0,.41,0,.8,0,1.19a15,15,0,0,1-1,4.31,16.37,16.37,0,0,1-5.37,7.06,13.11,13.11,0,0,1-3.79,2,13.76,13.76,0,0,1-4.28.83,14.72,14.72,0,0,1-11.57-5,14.09,14.09,0,0,1-2.48-3.8,17.09,17.09,0,0,1-1.34-4.44,18.14,18.14,0,0,1-.12-4.66A13.84,13.84,0,0,1,909,239a15.31,15.31,0,0,1,2.25-3.77,15.47,15.47,0,0,1,3.18-3,14.6,14.6,0,0,1,3.83-1.91,13.27,13.27,0,0,1,4.22-.67,16,16,0,0,1,5.91,1.21A14.28,14.28,0,0,1,933.44,234.5Z"/></g></g><path class="cls-4" d="M358.3,258.66V219.59c0-3.87-6-3.87-6,0v39.07C352.3,262.52,358.3,262.53,358.3,258.66Z"/><path class="cls-5" d="M40.54,259.35V231.68c0-2.9-4.5-2.9-4.5,0v27.67C36,262.25,40.54,262.25,40.54,259.35Z"/></g></g></svg>