<svg xmlns="http://www.w3.org/2000/svg" viewBox="0 0 946.7 263.14"><defs><style>.cls-1,.cls-5{fill:#225675;}.cls-1{stroke:#225675;stroke-width:13px;}.cls-1,.cls-2,.cls-3{stroke-miterlimit:10;}.cls-2,.cls-3,.cls-4{fill:#e6873c;}.cls-2,.cls-3{stroke:#e6873c;}.cls-2{stroke-width:0.75px;}.cls-3{fill-rule:evenodd;}</style></defs><g id="Layer_2" data-name="Layer 2"><g id="Layer_15" data-name="Layer 15"><path class="cls-1" d="M31.69,45.31H94.41c34.44,0,52.94,18.25,52.94,44.21,0,21.33-12.85,35.21-27.76,39.33,12.86,3.59,34.19,16.19,34.19,44.46,0,36-27,51.92-58.35,51.92H31.69Zm58.09,77.37c31.1,0,42.92-11.57,42.92-32.39,0-17.73-12.33-32.13-37.52-32.13H45.31v64.52Zm-44.47,89.7H96c23.64,0,43.44-11.82,43.44-38.3,0-22.87-14.65-38.55-50.9-38.55H45.31Z" transform="translate(-25.02 -38.81)"/><path class="cls-1" d="M194.9,45.31h13.88v78.4h108V45.31h13.88V225.23H316.74V136.56h-108v88.67H194.9Z" transform="translate(-25.02 -38.81)"/><path class="cls-1" d="M400.27,163l-22.88,62.2H363.25L429.31,45.31h16.45l68.89,179.92H499.48L476.09,163Zm71.2-12.85C451.42,96.72,441.14,71,437.54,58.93h-.26c-4.37,13.63-15.94,45.5-32.13,91.25Z" transform="translate(-25.02 -38.81)"/><path class="cls-1" d="M560.65,141.18v84H546.52V45.31H611c35.47,0,54.24,19,54.24,47.29,0,22.88-13.63,37.79-33.68,42.16,18.51,4.37,30.85,16.45,30.85,47v6.94c0,12.6-1,29.56,2.31,36.5H650.62c-3.35-7.71-2.58-22.1-2.58-37.52v-4.63c0-29.56-8.73-41.9-43.18-41.9Zm0-12.85h43.44c31.62,0,46.27-11.82,46.27-35.47,0-22.1-14.4-34.7-42.41-34.7h-47.3Z" transform="translate(-25.02 -38.81)"/><path class="cls-1" d="M729.77,163l-22.87,62.2H692.76L758.82,45.31h16.45l68.88,179.92H829L805.6,163ZM801,150.18C780.92,96.72,770.64,71,767,58.93h-.25c-4.37,13.63-15.94,45.5-32.13,91.25Z" transform="translate(-25.02 -38.81)"/><path class="cls-1" d="M890.16,58.16h-60.4V45.31H965V58.16H904.3V225.23H890.16Z" transform="translate(-25.02 -38.81)"/><path class="cls-2" d="M54.42,186.67a2.77,2.77,0,0,0,5.41.86H85.16l6.6,6.61H104v3.42H87.53L80.92,191H69.61a2.76,2.76,0,1,0,0,1.85h10.5l6.6,6.61h20.59l.55-5.12a19.05,19.05,0,0,0,2.62-.7l3,4.16,5.88-3.4-2.09-4.71a21.63,21.63,0,0,0,1.92-1.91l4.71,2.08,3.39-5.88-4.15-3a19.05,19.05,0,0,0,.7-2.62l5.11-.55v-6.79l-5.11-.55a18.91,18.91,0,0,0-.7-2.61l4.15-3L124,158.86,119.26,161a20.36,20.36,0,0,0-1.92-1.91l2.09-4.71-5.88-3.4-3,4.15a20.59,20.59,0,0,0-2.62-.7l-.55-5.11H86.76l-6.6,6.6H69.66a2.78,2.78,0,1,0,0,1.85H80.92l6.61-6.61H104v3.42H91.76l-6.6,6.61H59.83a2.78,2.78,0,1,0,0,1.85H85.93l6.6-6.61H104v3.69h-7.2l-6.6,6.6H79.67a2.76,2.76,0,1,0,0,1.85h11.3l6.61-6.6H104a12.42,12.42,0,0,1,0,24.83H97.54l-6.61-6.6H79.63a2.78,2.78,0,1,0,0,1.85h10.5l6.6,6.6H104v3.69H92.53l-6.6-6.61H59.78a2.77,2.77,0,0,0-5.36,1ZM78,181.14a.92.92,0,1,1-.92-.92A.92.92,0,0,1,78,181.14Zm0-13.61a.92.92,0,1,1-.92-.92A.92.92,0,0,1,78,167.53ZM58.12,162a.93.93,0,1,1-.92-.92A.92.92,0,0,1,58.12,162ZM68,156.73a.92.92,0,1,1-.92-.92A.92.92,0,0,1,68,156.73Zm0,35.21A.92.92,0,1,1,67,191,.93.93,0,0,1,68,191.94Zm-11.68-5.27a.93.93,0,1,1,.93.93A.93.93,0,0,1,56.27,186.67Z" transform="translate(-25.02 -38.81)"/><path class="cls-2" d="M65.45,175.33H97.23a6.79,6.79,0,1,0,0-1.85H65.5a2.78,2.78,0,1,0,0,1.85Zm36.33-1a2.18,2.18,0,1,1,2.18,2.18A2.19,2.19,0,0,1,101.78,174.34Zm-38,0a.92.92,0,1,1-.92-.92A.92.92,0,0,1,63.78,174.34Z" transform="translate(-25.02 -38.81)"/><path class="cls-3" d="M59,78.21c-5.91,0-6.08-8.76,0-8.76h41.15c12.42,0,22.57,9.76,22.57,21.71s-10.15,21.71-22.57,21.71H59a4.38,4.38,0,1,1-.12-8.76h41.27a13.66,13.66,0,0,0,9.5-3.8c8.55-8.23,2.3-22.09-9.5-22.09Z" transform="translate(-25.02 -38.81)"/><line class="cls-4" x1="34.15" y1="45.29" x2="81.12" y2="45.29"/><path class="cls-4" d="M59.17,85.6h47a1.5,1.5,0,0,0,0-3h-47a1.5,1.5,0,0,0,0,3Z" transform="translate(-25.02 -38.81)"/><line class="cls-4" x1="34.15" y1="52.29" x2="84.2" y2="52.29"/><path class="cls-4" d="M59.17,92.6h50.05a1.5,1.5,0,0,0,0-3h-50a1.5,1.5,0,0,0,0,3Z" transform="translate(-25.02 -38.81)"/><line class="cls-4" x1="34.15" y1="59.29" x2="81.12" y2="59.29"/><path class="cls-4" d="M59.17,99.6h47a1.5,1.5,0,0,0,0-3h-47a1.5,1.5,0,0,0,0,3Z" transform="translate(-25.02 -38.81)"/><rect class="cls-5" y="200.38" width="946.7" height="5.38"/><path class="cls-4" d="M70.11,254.47a3.2,3.2,0,0,1,1.15.51,2.84,2.84,0,0,1,.89,1,2.43,2.43,0,0,1,.34,1.29,2.86,2.86,0,0,1-.27,1.29,3.12,3.12,0,0,1-1.06,1.26,2.56,2.56,0,0,1-1.53.51l-8.57-.07c-.22,0-.38.14-.47.41l-.07,34.47v4.29a2.23,2.23,0,0,1-.51,1.26,4.13,4.13,0,0,1-1,.85,3.53,3.53,0,0,1-1.67.27,2.56,2.56,0,0,1-1.53-.61,7.82,7.82,0,0,1-.58-.65,2.18,2.18,0,0,1-.37-.78l-.14-.75-.07-38.35a1,1,0,0,0-.61-.48l-9-.07a3,3,0,0,1-1.26-.57,3.44,3.44,0,0,1-.92-1.06,2.4,2.4,0,0,1-.27-1.43,3,3,0,0,1,.41-1.36,2.41,2.41,0,0,1,1-.95,4.65,4.65,0,0,1,1.29-.47Z" transform="translate(-25.02 -38.81)"/><path class="cls-5" d="M91.53,267.93a2.44,2.44,0,0,1,1.7,1,2.35,2.35,0,0,1,.27,1.9,2,2,0,0,1-1.7,1.36l-13.06-.07a6.5,6.5,0,0,0-1.08,0,9.91,9.91,0,0,1-1.09,0,3.3,3.3,0,0,1-1-.21,1.33,1.33,0,0,1-.75-.71,2.29,2.29,0,0,1-.14-1.9,2,2,0,0,1,1.77-1.3l11.49.07Zm.13,15a1.87,1.87,0,0,1,1.64,1A2.07,2.07,0,0,1,92.07,287l-.68.07L76.3,287a1.72,1.72,0,0,1-1.09-.54,2.2,2.2,0,0,1-.61-1,2,2,0,0,1,.74-2.11,3.13,3.13,0,0,1,1.23-.47Zm1.57,15.64a1.7,1.7,0,0,1,.47,1.06,2.08,2.08,0,0,1-.2,1.19,2.26,2.26,0,0,1-.92.92,2.15,2.15,0,0,1-1.26.23l-14.82-.06a3.63,3.63,0,0,1-1-.41,1.66,1.66,0,0,1-.64-.68,2.17,2.17,0,0,1-.21-1.19,1.77,1.77,0,0,1,.48-1.06,1.9,1.9,0,0,1,1.56-.74l13.88-.07a10.14,10.14,0,0,1,1.46.1A1.84,1.84,0,0,1,93.23,298.53Z" transform="translate(-25.02 -38.81)"/><path class="cls-5" d="M124.78,272.83a1.73,1.73,0,0,1,.54,2.11,2,2,0,0,1-1.09,1.29,2,2,0,0,1-1.25.14,3,3,0,0,1-1.19-.55,11.65,11.65,0,0,0-6.16-3.43,12.8,12.8,0,0,0-7.1.44,11.26,11.26,0,0,0-3.2,1.63,13.62,13.62,0,0,0-2.65,2.55,12.44,12.44,0,0,0-1.84,3.2,10.82,10.82,0,0,0-.75,3.5,12.56,12.56,0,0,0,1.43,7.17,13.15,13.15,0,0,0,5.24,5.27,11.24,11.24,0,0,0,3.53,1.33,12.74,12.74,0,0,0,3.85.17,14.22,14.22,0,0,0,3.74-.92,11.25,11.25,0,0,0,3.23-1.94,5.11,5.11,0,0,1,1.25-1.12,2,2,0,0,1,1.67-.17,1.72,1.72,0,0,1,1,.68,2.42,2.42,0,0,1,.48,1.09,1.82,1.82,0,0,1-.54,1.63,12.59,12.59,0,0,1-1.43,1.23,15.73,15.73,0,0,1-3.91,2.41,17.09,17.09,0,0,1-13.64-.1,16.48,16.48,0,0,1-4.21-2.69A17.11,17.11,0,0,1,98.5,294a16.37,16.37,0,0,1-2-4.49,18.38,18.38,0,0,1-.68-5,15,15,0,0,1,.82-4.87,18.13,18.13,0,0,1,2.21-4.45,18.35,18.35,0,0,1,3.29-3.64,14.84,14.84,0,0,1,4.22-2.48,15.49,15.49,0,0,1,4.49-1.12,18.64,18.64,0,0,1,4.72.13,17.41,17.41,0,0,1,4.49,1.36,14.77,14.77,0,0,1,3.84,2.55Z" transform="translate(-25.02 -38.81)"/><path class="cls-5" d="M132.6,269.16a2.44,2.44,0,0,1,.17.64c0,.21,0,.42,0,.65v12.17c.09.18.21.27.34.27l14.55.07c.19-.09.28-.2.28-.34l.06-12.78a2.31,2.31,0,0,1,.48-.95,1.6,1.6,0,0,1,.88-.55,1.83,1.83,0,0,1,2.25.48,1.67,1.67,0,0,1,.68,1.36V300.1a3,3,0,0,1-.44,1,1.41,1.41,0,0,1-.79.58,2.18,2.18,0,0,1-2.31-.27,2,2,0,0,1-.75-1.63L148,287.38q0-.27-.21-.27L133.14,287a.77.77,0,0,0-.34.27V300a1.9,1.9,0,0,1-1,1.5,2.38,2.38,0,0,1-1.19.24,1.83,1.83,0,0,1-1.12-.45,1.42,1.42,0,0,1-.65-.68,3.44,3.44,0,0,1-.23-.88V269.84a2.14,2.14,0,0,1,.57-1.12,2.1,2.1,0,0,1,1.06-.58,2.41,2.41,0,0,1,1.39.13A2,2,0,0,1,132.6,269.16Z" transform="translate(-25.02 -38.81)"/><path class="cls-5" d="M160.61,268.89l5.17,7.88,9.86,14.9a.67.67,0,0,0,.48.13.94.94,0,0,0,.2-.27v-22.1a2.28,2.28,0,0,1,.61-1,2.2,2.2,0,0,1,1-.61,1.83,1.83,0,0,1,2.18.88,2,2,0,0,1,.41,1.23v30.26a3.43,3.43,0,0,1-.41.81,1.72,1.72,0,0,1-.68.61,1.84,1.84,0,0,1-1.19.28,1.91,1.91,0,0,1-1-.41,2.69,2.69,0,0,1-.79-.85,9.64,9.64,0,0,0-.57-.92l-14.42-21.83a.7.7,0,0,0-.48-.07.75.75,0,0,0-.2.62v21.42a2.25,2.25,0,0,1-.37,1,2.37,2.37,0,0,1-.79.72,2.08,2.08,0,0,1-1.19.2,2.23,2.23,0,0,1-1.12-.41,2,2,0,0,1-.81-1.7v-8.84l.06-21.42a2.43,2.43,0,0,1,.38-.95,1.33,1.33,0,0,1,.78-.61,1.87,1.87,0,0,1,1.9.07A2.11,2.11,0,0,1,160.61,268.89Z" transform="translate(-25.02 -38.81)"/><path class="cls-5" d="M216.1,278.47a16.44,16.44,0,0,1,1.12,4.53,18.9,18.9,0,0,1-.1,4.69,17.11,17.11,0,0,1-1.32,4.52,15.7,15.7,0,0,1-2.49,3.88,17.27,17.27,0,0,1-4,3.29,17.05,17.05,0,0,1-4.66,1.94,17.6,17.6,0,0,1-5,.51,16.75,16.75,0,0,1-5-1,14.47,14.47,0,0,1-3.23-1.6,17.61,17.61,0,0,1-2.95-2.45,18.71,18.71,0,0,1-2.38-3,14.54,14.54,0,0,1-1.57-3.23,16,16,0,0,1-.61-9.56,16.93,16.93,0,0,1,4.69-8.33,15.4,15.4,0,0,1,4.05-2.89,18.3,18.3,0,0,1,4.72-1.56,17.34,17.34,0,0,1,4.93-.17,15.37,15.37,0,0,1,4.73,1.29A15.14,15.14,0,0,1,212.5,273,16.63,16.63,0,0,1,216.1,278.47Zm-3.94,1.43a11.08,11.08,0,0,0-2.69-4,12.79,12.79,0,0,0-4-2.72,13.05,13.05,0,0,0-6.15-1,12.6,12.6,0,0,0-5.88,1.87,12.39,12.39,0,0,0-4.76,5.48,12.56,12.56,0,0,0-.95,7.1,10.89,10.89,0,0,0,1,3.44,14.33,14.33,0,0,0,2,3.09,13.63,13.63,0,0,0,2.72,2.48,10.33,10.33,0,0,0,3.3,1.53,12.74,12.74,0,0,0,7.11.17,11.6,11.6,0,0,0,6-3.77,12,12,0,0,0,2-3,13.47,13.47,0,0,0,1.12-3.5,13,13,0,0,0,.1-3.64A12.14,12.14,0,0,0,212.16,279.9Z" transform="translate(-25.02 -38.81)"/><path class="cls-5" d="M224.33,268.82l.2.68v27.88c.09.22.23.3.41.24a.5.5,0,0,1,.48,0h12.3a2.85,2.85,0,0,1,1.5,1,2,2,0,0,1-.07,2.28,1.56,1.56,0,0,1-1.46.9,16.83,16.83,0,0,0-1.87,0h-13.6a2.48,2.48,0,0,1-1.19-.51,1.85,1.85,0,0,1-.71-1.06l-.07-.55.07-24.39-.07-5.45a2.32,2.32,0,0,1,.61-1.7,2.27,2.27,0,0,1,1.9-.55A2.19,2.19,0,0,1,224.33,268.82Z" transform="translate(-25.02 -38.81)"/><path class="cls-5" d="M273.9,278.47A16.44,16.44,0,0,1,275,283a18.9,18.9,0,0,1-.1,4.69,16.77,16.77,0,0,1-1.33,4.52,15.39,15.39,0,0,1-2.48,3.88,17.11,17.11,0,0,1-4,3.29,16.86,16.86,0,0,1-4.65,1.94,17.67,17.67,0,0,1-5,.51,16.69,16.69,0,0,1-5-1,14.27,14.27,0,0,1-3.23-1.6,18.09,18.09,0,0,1-3-2.45,19.28,19.28,0,0,1-2.38-3,14.94,14.94,0,0,1-1.56-3.23,16,16,0,0,1-.61-9.56,16.93,16.93,0,0,1,4.69-8.33,15.4,15.4,0,0,1,4-2.89,18.17,18.17,0,0,1,4.72-1.56,17.33,17.33,0,0,1,4.93-.17,15.37,15.37,0,0,1,4.73,1.29A15.14,15.14,0,0,1,270.3,273,16.63,16.63,0,0,1,273.9,278.47ZM270,279.9a11.08,11.08,0,0,0-2.69-4,12.79,12.79,0,0,0-4-2.72,13.05,13.05,0,0,0-6.15-1,12.6,12.6,0,0,0-5.88,1.87,12.39,12.39,0,0,0-4.76,5.48,12.65,12.65,0,0,0-1,7.1,11.18,11.18,0,0,0,1,3.44,14.33,14.33,0,0,0,2,3.09,13.36,13.36,0,0,0,2.72,2.48,10.33,10.33,0,0,0,3.3,1.53,12.74,12.74,0,0,0,7.11.17,13.13,13.13,0,0,0,8.05-6.76,13.13,13.13,0,0,0,1.13-3.5,13.44,13.44,0,0,0,.1-3.64A12.14,12.14,0,0,0,270,279.9Z" transform="translate(-25.02 -38.81)"/><path class="cls-5" d="M306.06,273.17a2.41,2.41,0,0,1,.55,1.12,1.59,1.59,0,0,1-.2,1.19,2.18,2.18,0,0,1-1.84,1.23,1.43,1.43,0,0,1-1.4-.55,6.42,6.42,0,0,0-1.25-1.15,11.64,11.64,0,0,0-3.1-1.77,14.15,14.15,0,0,0-3.57-.89,12.27,12.27,0,0,0-3.63.14,11.14,11.14,0,0,0-3.37,1.22,12.7,12.7,0,0,0-5.2,5.07,12.81,12.81,0,0,0,.78,13.53,12.29,12.29,0,0,0,5.37,4.32,10.68,10.68,0,0,0,3.16.88,13.57,13.57,0,0,0,3.37,0,12.87,12.87,0,0,0,3.26-.81,10,10,0,0,0,2.79-1.63,11.34,11.34,0,0,0,3.13-3.4,12.85,12.85,0,0,0,1.56-4.15c0-.14,0-.27-.27-.41H293.76a2.09,2.09,0,0,1-1.5-1.16,1.83,1.83,0,0,1-.24-.88,2.57,2.57,0,0,1,.1-.95,2.26,2.26,0,0,1,1.5-1.23l.82-.06,14.68.06a2,2,0,0,1,1.77,1.36,4.81,4.81,0,0,1,.11,1.26c0,.43,0,.85,0,1.26a15.05,15.05,0,0,1-1.16,4.59,17.09,17.09,0,0,1-2.48,4.18,17.7,17.7,0,0,1-3.53,3.33,14.43,14.43,0,0,1-4.25,2.11,16.13,16.13,0,0,1-4.8.89,17.75,17.75,0,0,1-4.72-.51,17,17,0,0,1-4.42-1.81,15.92,15.92,0,0,1-3.81-3.06,15.32,15.32,0,0,1-2.79-4,17.72,17.72,0,0,1-1.63-9.69,14.17,14.17,0,0,1,1.36-4.76,15.73,15.73,0,0,1,2.52-4,17,17,0,0,1,3.56-3.17,17.23,17.23,0,0,1,4.29-2,15.89,15.89,0,0,1,4.73-.71,19.17,19.17,0,0,1,6.63,1.29A16,16,0,0,1,306.06,273.17Z" transform="translate(-25.02 -38.81)"/><path class="cls-5" d="M317.15,269.43l7.21,10.81a.7.7,0,0,1,.27.38.31.31,0,0,0,.34.23l.13-.06,4.22-6.4,3.81-5.64a1.55,1.55,0,0,1,.95-.71,2.41,2.41,0,0,1,1.22,0,1.93,1.93,0,0,1,1,.65,2.09,2.09,0,0,1,.51,1.12,1.7,1.7,0,0,1-.1,1.12,4.1,4.1,0,0,1-.58.92l-8.84,13.4-.2.61.06,12.51q0,.89,0,1.8a1.7,1.7,0,0,1-1.05,1.46,1.62,1.62,0,0,1-1.13.28,2.82,2.82,0,0,1-1.19-.41,2.07,2.07,0,0,1-.81-1.5V285.82l-.21-.55-9.58-14.34a2,2,0,0,1,.4-2.38,2,2,0,0,1,1-.55,2.36,2.36,0,0,1,1.12,0,1.76,1.76,0,0,1,.85.55A4.65,4.65,0,0,1,317.15,269.43Z" transform="translate(-25.02 -38.81)"/><path class="cls-4" d="M384.94,254.27a4.72,4.72,0,0,1,1.36.44,2.56,2.56,0,0,1,1,.92,3.54,3.54,0,0,1,.48,1.22,2.37,2.37,0,0,1-.14,1.36,3.07,3.07,0,0,1-.88,1.29,2.73,2.73,0,0,1-1.43.68L367,260.11a9.77,9.77,0,0,0-1.53,0,7.82,7.82,0,0,1-1.53,0,4,4,0,0,1-1.39-.37,2.38,2.38,0,0,1-1.06-1.05,2.65,2.65,0,0,1-.37-1.26,3.6,3.6,0,0,1,.17-1.33,3.29,3.29,0,0,1,1-1.26,2.59,2.59,0,0,1,1.46-.57l16.18.06Zm.21,20.94a2.77,2.77,0,0,1,2.24,1.36,2.49,2.49,0,0,1,.48,1.26,3.18,3.18,0,0,1-.14,1.32,2.82,2.82,0,0,1-.75,1.16,2.38,2.38,0,0,1-1.22.68l-1,.07L363.52,281a2.74,2.74,0,0,1-1.46-.75,2.94,2.94,0,0,1-.85-1.43,3.11,3.11,0,0,1,0-1.63,2.66,2.66,0,0,1,.91-1.36,3.42,3.42,0,0,1,1.7-.68Zm2.17,21.9a2.76,2.76,0,0,1,.62,1.56,3.29,3.29,0,0,1-.28,1.63,2.58,2.58,0,0,1-1.25,1.29,3.42,3.42,0,0,1-1.81.34l-20.8-.06a3.29,3.29,0,0,1-1.33-.55,3,3,0,0,1-.92-1,3.26,3.26,0,0,1-.27-1.66,2.27,2.27,0,0,1,.68-1.53,2.49,2.49,0,0,1,2.18-1l19.44-.07a10.17,10.17,0,0,1,2.08.07A2.48,2.48,0,0,1,387.32,297.11Z" transform="translate(-25.02 -38.81)"/><path class="cls-5" d="M399.56,267.93a15,15,0,0,1,4.69.92,17.62,17.62,0,0,1,7.86,5.75,15.65,15.65,0,0,1,2.35,4.21,16.67,16.67,0,0,1,1.05,4.73,17.62,17.62,0,0,1-.31,4.76,17.39,17.39,0,0,1-1.59,4.52,15.36,15.36,0,0,1-2.83,3.88,15.75,15.75,0,0,1-5.57,3.84,18.78,18.78,0,0,1-6.67,1.33h-5.37a2.24,2.24,0,0,1-1.7-1,3.58,3.58,0,0,1-.2-1.16l-.07-29.44a2.11,2.11,0,0,1,1.22-2.18.48.48,0,0,1,.34-.14,1.75,1.75,0,0,0,.48-.06l6.39-.28Zm2.15,4.42a19.41,19.41,0,0,0-2.28-.4h-3.88a.71.71,0,0,0-.27.34v9l.07,15.91c0,.32.07.5.2.55,1.27,0,2.52.06,3.74,0a12.8,12.8,0,0,0,6.83-2.34,14.14,14.14,0,0,0,2.72-2.69,12.44,12.44,0,0,0,1.87-3.33,11.16,11.16,0,0,0,.75-3.64,12.77,12.77,0,0,0-1.87-7.45,12.93,12.93,0,0,0-5.74-5.13A9.75,9.75,0,0,0,401.71,272.35Z" transform="translate(-25.02 -38.81)"/><path class="cls-5" d="M439.41,268.82l.14.68.07,8.36.13,14.21a9.77,9.77,0,0,1-1.83,5.27,10.4,10.4,0,0,1-4.29,3.57,8.7,8.7,0,0,1-2.69.82,12.64,12.64,0,0,1-2.95.07,10.21,10.21,0,0,1-2.86-.68,9.32,9.32,0,0,1-2.45-1.43,10.33,10.33,0,0,1-4.14-7.48l-.07-3.2V269.43a2.06,2.06,0,0,1,.47-1.05,1.76,1.76,0,0,1,.95-.65,2.12,2.12,0,0,1,2,.48,1.75,1.75,0,0,1,.68,1.76l.07,6.12.13,15.92a5.85,5.85,0,0,0,1.39,3.29,6.3,6.3,0,0,0,3,2.08,6.79,6.79,0,0,0,3.74,0,6.42,6.42,0,0,0,3.2-1.94,6.09,6.09,0,0,0,1.5-3.94V269.29a1.62,1.62,0,0,1,1.15-1.49,2,2,0,0,1,1.56,0A2,2,0,0,1,439.41,268.82Z" transform="translate(-25.02 -38.81)"/><path class="cls-5" d="M471.3,272.83a1.75,1.75,0,0,1,.55,2.11,2,2,0,0,1-2.35,1.43,3,3,0,0,1-1.19-.55,11.65,11.65,0,0,0-6.15-3.43,12.83,12.83,0,0,0-7.11.44,11.39,11.39,0,0,0-3.2,1.63A13.91,13.91,0,0,0,449.2,277a12.41,12.41,0,0,0-1.83,3.2,10.32,10.32,0,0,0-.75,3.5,12.48,12.48,0,0,0,1.43,7.17,13.06,13.06,0,0,0,5.23,5.27,11.21,11.21,0,0,0,3.54,1.33,12.68,12.68,0,0,0,3.84.17,14.13,14.13,0,0,0,3.74-.92,11.12,11.12,0,0,0,3.23-1.94,5,5,0,0,1,1.26-1.12,2,2,0,0,1,1.66-.17,1.74,1.74,0,0,1,1,.68,2.3,2.3,0,0,1,.47,1.09,1.82,1.82,0,0,1-.54,1.63,12.59,12.59,0,0,1-1.43,1.23,15.55,15.55,0,0,1-3.91,2.41,17.06,17.06,0,0,1-13.63-.1,16.37,16.37,0,0,1-4.22-2.69,17,17,0,0,1-5.24-8.23,18.38,18.38,0,0,1-.68-5,15.23,15.23,0,0,1,.82-4.87,18,18,0,0,1,5.51-8.09,14.78,14.78,0,0,1,4.21-2.48,15.58,15.58,0,0,1,4.49-1.12,18.71,18.71,0,0,1,4.73.13,17.53,17.53,0,0,1,4.49,1.36,15.11,15.11,0,0,1,3.84,2.55Z" transform="translate(-25.02 -38.81)"/><path class="cls-5" d="M489.39,270.65l6.39,17,2.45,6.67,1.7,4.55a1.93,1.93,0,0,1,.17,1.19,1.86,1.86,0,0,1-.51,1.06,1.94,1.94,0,0,1-2,.68,1.81,1.81,0,0,1-1-.48,2.51,2.51,0,0,1-.64-.88l-1.84-4.69-.75-2.11a.32.32,0,0,0-.47-.21H481c-.23,0-.37.07-.41.21l-2.18,5.78a12.22,12.22,0,0,0-.47,1.22,1.64,1.64,0,0,1-.95.95,2.34,2.34,0,0,1-2-.06,2.12,2.12,0,0,1-.81-1,2.09,2.09,0,0,1-.14-1.29l.41-1.22,8.3-22.44L485,269a2.6,2.6,0,0,1,1.77-1.09,2.44,2.44,0,0,1,2.1,1.3Zm-2.45,6.4a.47.47,0,0,0-.34.13l-1.49,4.08-2.18,5.85-.54,1.56V289a.57.57,0,0,0,.4.21l3.06.07h5.51a.44.44,0,0,0,.27-.41l-2-5.51-2.31-6.05A.44.44,0,0,0,486.94,277.05Z" transform="translate(-25.02 -38.81)"/><path class="cls-5" d="M521.69,268.07a4.3,4.3,0,0,1,.88.37,1.45,1.45,0,0,1,.61.72,1.66,1.66,0,0,1,.21.88,3,3,0,0,1-.14.95,2.24,2.24,0,0,1-.78.89,1.94,1.94,0,0,1-1.12.34l-6.05-.07a.3.3,0,0,0-.34.34l-.07,24.62v3a1.84,1.84,0,0,1-1.16,1.49,2.1,2.1,0,0,1-1.15.24,1.78,1.78,0,0,1-1.09-.44c-.14-.18-.26-.34-.38-.48a1.92,1.92,0,0,1-.3-.54l-.07-.54-.07-27.34c-.13-.23-.27-.34-.41-.34l-6.46-.07a3.36,3.36,0,0,1-.91-.41,1.63,1.63,0,0,1-.65-.68,2.44,2.44,0,0,1-.2-1,2,2,0,0,1,1-1.73,2.86,2.86,0,0,1,.92-.31Z" transform="translate(-25.02 -38.81)"/><path class="cls-5" d="M530.12,268.82a1.21,1.21,0,0,1,.24.85c0,.34,0,.67,0,1l.06,29.52a1.69,1.69,0,0,1-1.15,1.42,1.86,1.86,0,0,1-1.7.14,2.2,2.2,0,0,1-1.29-1.36v-.75l-.07-22.44v-7.55a2.42,2.42,0,0,1,.37-1,1.74,1.74,0,0,1,.85-.68,2.06,2.06,0,0,1,1.5-.1A2.25,2.25,0,0,1,530.12,268.82Z" transform="translate(-25.02 -38.81)"/><path class="cls-5" d="M566,278.47a16.45,16.45,0,0,1,1.13,4.53,19.39,19.39,0,0,1-.11,4.69,16.74,16.74,0,0,1-1.32,4.52,16,16,0,0,1-2.48,3.88,17.31,17.31,0,0,1-4,3.29,17.05,17.05,0,0,1-4.66,1.94,17.6,17.6,0,0,1-5,.51,16.63,16.63,0,0,1-5-1,14.06,14.06,0,0,1-3.23-1.6,17.29,17.29,0,0,1-3-2.45,18.71,18.71,0,0,1-2.38-3,15,15,0,0,1-1.57-3.23,16,16,0,0,1-.61-9.56,17,17,0,0,1,4.69-8.33,15.4,15.4,0,0,1,4-2.89,18.24,18.24,0,0,1,4.73-1.56,17.32,17.32,0,0,1,4.93-.17,15.31,15.31,0,0,1,4.72,1.29,15.14,15.14,0,0,1,5.51,3.67A16.63,16.63,0,0,1,566,278.47Zm-3.94,1.43a11,11,0,0,0-2.69-4,12.75,12.75,0,0,0-4-2.72,13.11,13.11,0,0,0-6.16-1,12.6,12.6,0,0,0-5.88,1.87,12.56,12.56,0,0,0-5.71,12.58,10.89,10.89,0,0,0,1,3.44,14,14,0,0,0,2,3.09,13.36,13.36,0,0,0,2.72,2.48,10.28,10.28,0,0,0,3.29,1.53,12.74,12.74,0,0,0,7.11.17,11.56,11.56,0,0,0,6-3.77,12,12,0,0,0,2-3,13,13,0,0,0,1.22-7.14A11.83,11.83,0,0,0,562.08,279.9Z" transform="translate(-25.02 -38.81)"/><path class="cls-5" d="M574.46,268.89l5.16,7.88,9.86,14.9a.67.67,0,0,0,.48.13.94.94,0,0,0,.2-.27v-22.1a2.22,2.22,0,0,1,.62-1,2.1,2.1,0,0,1,1-.61,1.83,1.83,0,0,1,2.17.88,2,2,0,0,1,.41,1.23v30.26a3.43,3.43,0,0,1-.41.81,1.72,1.72,0,0,1-.68.61,1.84,1.84,0,0,1-1.19.28,1.91,1.91,0,0,1-1.05-.41,2.54,2.54,0,0,1-.78-.85,9.83,9.83,0,0,0-.58-.92l-14.42-21.83a.68.68,0,0,0-.47-.07.72.72,0,0,0-.21.62v21.42a2.13,2.13,0,0,1-.37,1,2.44,2.44,0,0,1-.78.72,2.09,2.09,0,0,1-1.19.2,2.23,2.23,0,0,1-1.13-.41,2,2,0,0,1-.81-1.7v-8.84l.07-21.42a2.4,2.4,0,0,1,.37-.95,1.33,1.33,0,0,1,.78-.61,1.89,1.89,0,0,1,1.91.07A2.19,2.19,0,0,1,574.46,268.89Z" transform="translate(-25.02 -38.81)"/><path class="cls-4" d="M660.82,264.13a3.55,3.55,0,0,1-1.57,1.83,3,3,0,0,1-1.77.17,2.83,2.83,0,0,1-1.56-.78,16.85,16.85,0,0,0-4-3.06,18,18,0,0,0-4.69-1.77,18.59,18.59,0,0,0-5-.41,17.18,17.18,0,0,0-4.93,1,15.48,15.48,0,0,0-4.56,2.28,17.21,17.21,0,0,0-3.67,3.61,19,19,0,0,0-2.52,4.52,16.12,16.12,0,0,0-1.08,5,17.37,17.37,0,0,0,2,10,18,18,0,0,0,7.27,7.31,14.66,14.66,0,0,0,5,1.87,18.88,18.88,0,0,0,5.4.24,19.38,19.38,0,0,0,5.2-1.26,14.44,14.44,0,0,0,4.49-2.75,11.6,11.6,0,0,1,1.87-1.53,2.57,2.57,0,0,1,2.28-.24,3,3,0,0,1,1.33,1,2.67,2.67,0,0,1,.64,1.46,2.53,2.53,0,0,1-.75,2.31,20.77,20.77,0,0,1-1.9,1.7,21.06,21.06,0,0,1-5.51,3.3,25.82,25.82,0,0,1-6.32,1.7,24.84,24.84,0,0,1-6.56,0,21.82,21.82,0,0,1-6.23-1.8,23.29,23.29,0,0,1-5.91-3.74,23.62,23.62,0,0,1-4.5-5.24,24.57,24.57,0,0,1-2.82-6.29,23.17,23.17,0,0,1-.91-7,21.52,21.52,0,0,1,1.11-6.77,25.37,25.37,0,0,1,3.06-6.25,24.24,24.24,0,0,1,4.67-5.14A20.94,20.94,0,0,1,634.3,256a22.61,22.61,0,0,1,6.28-1.57,25,25,0,0,1,12.82,2.11,20.56,20.56,0,0,1,5.38,3.54l1.29,1.15A2.58,2.58,0,0,1,660.82,264.13Z" transform="translate(-25.02 -38.81)"/><path class="cls-5" d="M695.9,278.47A16.09,16.09,0,0,1,697,283a18.9,18.9,0,0,1-.1,4.69,16.74,16.74,0,0,1-1.32,4.52,15.7,15.7,0,0,1-2.49,3.88,17.21,17.21,0,0,1-8.63,5.23,17.6,17.6,0,0,1-5,.51,16.75,16.75,0,0,1-5-1,14.47,14.47,0,0,1-3.23-1.6,17.61,17.61,0,0,1-2.95-2.45,18.71,18.71,0,0,1-2.38-3,14.54,14.54,0,0,1-1.57-3.23,16,16,0,0,1-.61-9.56,16.93,16.93,0,0,1,4.69-8.33,15.4,15.4,0,0,1,4-2.89,18.3,18.3,0,0,1,4.72-1.56,17.34,17.34,0,0,1,4.93-.17,15.37,15.37,0,0,1,4.73,1.29A15.14,15.14,0,0,1,692.3,273,16.63,16.63,0,0,1,695.9,278.47ZM692,279.9a11.08,11.08,0,0,0-2.69-4,12.68,12.68,0,0,0-4-2.72,13.05,13.05,0,0,0-6.15-1,12.6,12.6,0,0,0-5.88,1.87,12.56,12.56,0,0,0-5.71,12.58,10.89,10.89,0,0,0,1,3.44,14.33,14.33,0,0,0,2,3.09,13.63,13.63,0,0,0,2.72,2.48,10.33,10.33,0,0,0,3.3,1.53,12.74,12.74,0,0,0,7.11.17,11.6,11.6,0,0,0,6-3.77,12,12,0,0,0,2-3,13.47,13.47,0,0,0,1.12-3.5,13,13,0,0,0,.1-3.64A12.14,12.14,0,0,0,692,279.9Z" transform="translate(-25.02 -38.81)"/><path class="cls-5" d="M704.33,268.89l5.17,7.88,9.86,14.9a.67.67,0,0,0,.48.13.94.94,0,0,0,.2-.27v-22.1a2.28,2.28,0,0,1,.61-1,2.2,2.2,0,0,1,1-.61,1.83,1.83,0,0,1,2.18.88,2,2,0,0,1,.41,1.23v30.26a3.43,3.43,0,0,1-.41.81,1.72,1.72,0,0,1-.68.61,1.84,1.84,0,0,1-1.19.28,1.91,1.91,0,0,1-1.05-.41,2.69,2.69,0,0,1-.79-.85,9.64,9.64,0,0,0-.57-.92l-14.42-21.83a.7.7,0,0,0-.48-.07.75.75,0,0,0-.2.62v21.42a2.25,2.25,0,0,1-.37,1,2.37,2.37,0,0,1-.79.72,2.08,2.08,0,0,1-1.19.2,2.23,2.23,0,0,1-1.12-.41,2,2,0,0,1-.81-1.7v-8.84l.06-21.42a2.43,2.43,0,0,1,.38-.95,1.33,1.33,0,0,1,.78-.61,1.87,1.87,0,0,1,1.9.07A2.11,2.11,0,0,1,704.33,268.89Z" transform="translate(-25.02 -38.81)"/><path class="cls-5" d="M746.05,274.77a1.92,1.92,0,0,1-.44,2,2,2,0,0,1-1.12.68,2.34,2.34,0,0,1-1.26-.06,1.83,1.83,0,0,1-1.05-.85,4.5,4.5,0,0,1-.45-1.26,5.48,5.48,0,0,0-1.9-2.28,5.27,5.27,0,0,0-2.86-1,5.47,5.47,0,0,0-2.89.82A5.78,5.78,0,0,0,732,275a5.11,5.11,0,0,0-.44,3.06,5.32,5.32,0,0,0,1.26,2.85,5.6,5.6,0,0,0,3.53,1.7,9.8,9.8,0,0,1,5.17,1.26,9.65,9.65,0,0,1,3.67,3.77,8.18,8.18,0,0,1,1,2.45,9.48,9.48,0,0,1,.2,2.76,10.9,10.9,0,0,1-.54,2.68,7.83,7.83,0,0,1-1.26,2.31,9.54,9.54,0,0,1-4.28,3.34,10.43,10.43,0,0,1-5.44.47,7.51,7.51,0,0,1-2.52-.88,10.53,10.53,0,0,1-2.21-1.63,10.13,10.13,0,0,1-1.7-2.18,8.41,8.41,0,0,1-1-2.45,9.34,9.34,0,0,1-.27-2.38,2,2,0,0,1,1.23-1.83,1.78,1.78,0,0,1,1.19-.14,3.63,3.63,0,0,1,1.19.48,1.93,1.93,0,0,1,.74,1.7,3.93,3.93,0,0,0,.34,1.9,4.63,4.63,0,0,0,1.87,2.35,6,6,0,0,0,2.83.95,5.65,5.65,0,0,0,2.89-.58,4.08,4.08,0,0,0,2-2.11,4.74,4.74,0,0,0,.65-2.85,5.36,5.36,0,0,0-.92-2.79A5.58,5.58,0,0,0,737,287a9.53,9.53,0,0,1-5.17-1.36,9,9,0,0,1-3.67-4,9.32,9.32,0,0,1-1-5.23,9.12,9.12,0,0,1,2-5,10.11,10.11,0,0,1,4.35-3.16A9.24,9.24,0,0,1,739,268a8.15,8.15,0,0,1,3.6,1.67,10.64,10.64,0,0,1,2.72,3.09Q745.68,273.72,746.05,274.77Z" transform="translate(-25.02 -38.81)"/><path class="cls-5" d="M770.36,268.82l.14.68.07,8.36.13,14.21a9.77,9.77,0,0,1-1.83,5.27,10.4,10.4,0,0,1-4.29,3.57,8.7,8.7,0,0,1-2.69.82,12.64,12.64,0,0,1-2.95.07,10.21,10.21,0,0,1-2.86-.68,9.32,9.32,0,0,1-2.45-1.43,10.33,10.33,0,0,1-4.14-7.48l-.07-3.2V269.43a2.06,2.06,0,0,1,.47-1.05,1.8,1.8,0,0,1,1-.65,2.12,2.12,0,0,1,2,.48,1.75,1.75,0,0,1,.68,1.76l.07,6.12L753.7,292a5.85,5.85,0,0,0,1.39,3.29,6.3,6.3,0,0,0,3,2.08,6.79,6.79,0,0,0,3.74,0,6.42,6.42,0,0,0,3.2-1.94,6.09,6.09,0,0,0,1.5-3.94V269.29a1.63,1.63,0,0,1,1.15-1.49,2.09,2.09,0,0,1,2.72,1Z" transform="translate(-25.02 -38.81)"/><path class="cls-5" d="M778.32,268.82l.2.68v27.88c.09.22.23.3.41.24a.48.48,0,0,1,.47,0h12.31a2.89,2.89,0,0,1,1.5,1,2,2,0,0,1-.07,2.28,1.56,1.56,0,0,1-1.46.9,16.78,16.78,0,0,0-1.87,0h-13.6a2.44,2.44,0,0,1-1.19-.51,1.82,1.82,0,0,1-.72-1.06l-.06-.55.06-24.39-.06-5.45a2.08,2.08,0,0,1,2.51-2.25A2.19,2.19,0,0,1,778.32,268.82Z" transform="translate(-25.02 -38.81)"/><path class="cls-5" d="M814.76,268.07a4.16,4.16,0,0,1,.89.37,1.5,1.5,0,0,1,.61.72,1.66,1.66,0,0,1,.2.88,3,3,0,0,1-.13.95,2.24,2.24,0,0,1-.78.89,2,2,0,0,1-1.13.34l-6-.07a.3.3,0,0,0-.34.34L808,297.11v3a1.83,1.83,0,0,1-1.15,1.49,2.13,2.13,0,0,1-1.16.24,1.78,1.78,0,0,1-1.09-.44c-.13-.18-.26-.34-.37-.48a1.92,1.92,0,0,1-.31-.54l-.06-.54-.07-27.34c-.14-.23-.27-.34-.41-.34l-6.46-.07a3.42,3.42,0,0,1-.92-.41,1.6,1.6,0,0,1-.64-.68,2.45,2.45,0,0,1-.21-1,1.85,1.85,0,0,1,.27-1,1.82,1.82,0,0,1,.72-.71,2.78,2.78,0,0,1,.92-.31Z" transform="translate(-25.02 -38.81)"/><path class="cls-5" d="M833.46,270.65l6.39,17,2.45,6.67,1.7,4.55a1.93,1.93,0,0,1,.17,1.19,1.86,1.86,0,0,1-.51,1.06,1.93,1.93,0,0,1-2,.68,1.78,1.78,0,0,1-1-.48,2.54,2.54,0,0,1-.65-.88l-1.84-4.69-.75-2.11a.32.32,0,0,0-.47-.21H825c-.23,0-.36.07-.41.21l-2.17,5.78c-.18.41-.34.81-.48,1.22a1.61,1.61,0,0,1-1,.95,2.31,2.31,0,0,1-2-.06,2.17,2.17,0,0,1-1-2.25l.41-1.22,8.3-22.44,2.31-6.6a2.62,2.62,0,0,1,1.77-1.09,2.3,2.3,0,0,1,1.26.38,2.33,2.33,0,0,1,.85.92Zm-2.45,6.4a.48.48,0,0,0-.34.13l-1.49,4.08L827,287.11l-.54,1.56V289a.57.57,0,0,0,.41.21l3.06.07h5.5a.43.43,0,0,0,.28-.41l-2-5.51-2.32-6.05A.43.43,0,0,0,831,277.05Z" transform="translate(-25.02 -38.81)"/><path class="cls-5" d="M851.62,268.89l5.17,7.88,9.86,14.9a.66.66,0,0,0,.47.13,1.24,1.24,0,0,0,.21-.27v-22.1A2.44,2.44,0,0,1,869,267.8a1.82,1.82,0,0,1,2.17.88,2,2,0,0,1,.41,1.23v30.26a3.09,3.09,0,0,1-.41.81,1.7,1.7,0,0,1-.67.61,1.87,1.87,0,0,1-1.2.28,1.91,1.91,0,0,1-1-.41,2.77,2.77,0,0,1-.78-.85,8.12,8.12,0,0,0-.58-.92l-14.42-21.83a.67.67,0,0,0-.47-.07.72.72,0,0,0-.21.62v21.42a2.13,2.13,0,0,1-.37,1,2.25,2.25,0,0,1-.78.72,2.08,2.08,0,0,1-1.19.2,2.2,2.2,0,0,1-1.12-.41,2,2,0,0,1-.82-1.7v-8.84l.07-21.42a2.4,2.4,0,0,1,.37-.95,1.38,1.38,0,0,1,.79-.61,1.87,1.87,0,0,1,1.9.07A2.19,2.19,0,0,1,851.62,268.89Z" transform="translate(-25.02 -38.81)"/><path class="cls-5" d="M903.57,272.83a1.73,1.73,0,0,1,.54,2.11,2,2,0,0,1-1.08,1.29,2,2,0,0,1-1.26.14,3,3,0,0,1-1.19-.55,11.65,11.65,0,0,0-6.16-3.43,12.8,12.8,0,0,0-7.1.44,11.26,11.26,0,0,0-3.2,1.63,13.62,13.62,0,0,0-2.65,2.55,12.74,12.74,0,0,0-1.84,3.2,10.55,10.55,0,0,0-.74,3.5,12.56,12.56,0,0,0,1.42,7.17,13.15,13.15,0,0,0,5.24,5.27,11.21,11.21,0,0,0,3.54,1.33,12.68,12.68,0,0,0,3.84.17,14.13,14.13,0,0,0,3.74-.92,11.12,11.12,0,0,0,3.23-1.94,5,5,0,0,1,1.26-1.12,2,2,0,0,1,1.66-.17,1.72,1.72,0,0,1,.95.68,2.22,2.22,0,0,1,.48,1.09,1.82,1.82,0,0,1-.54,1.63,12.59,12.59,0,0,1-1.43,1.23,15.55,15.55,0,0,1-3.91,2.41,17.09,17.09,0,0,1-13.64-.1,16.48,16.48,0,0,1-4.21-2.69,17.11,17.11,0,0,1-3.23-3.74,16.67,16.67,0,0,1-2-4.49,18.38,18.38,0,0,1-.68-5,15.23,15.23,0,0,1,.82-4.87,18,18,0,0,1,5.51-8.09,14.78,14.78,0,0,1,4.21-2.48,15.58,15.58,0,0,1,4.49-1.12,18.71,18.71,0,0,1,4.73.13,17.34,17.34,0,0,1,4.48,1.36,15,15,0,0,1,3.85,2.55Z" transform="translate(-25.02 -38.81)"/><path class="cls-5" d="M910.57,269.43l7.21,10.81a.62.62,0,0,1,.27.38.31.31,0,0,0,.34.23l.14-.06,4.22-6.4,3.8-5.64a1.6,1.6,0,0,1,1-.71,2.4,2.4,0,0,1,1.22,0,2,2,0,0,1,1,.65,2.09,2.09,0,0,1,.51,1.12,1.7,1.7,0,0,1-.11,1.12,4.46,4.46,0,0,1-.57.92l-8.84,13.4-.21.61.07,12.51q0,.89,0,1.8a1.73,1.73,0,0,1-1.06,1.46,1.58,1.58,0,0,1-1.12.28,2.77,2.77,0,0,1-1.19-.41,2.08,2.08,0,0,1-.82-1.5V285.82l-.2-.55-9.59-14.34A2.08,2.08,0,0,1,908,268a2.36,2.36,0,0,1,1.12,0,1.81,1.81,0,0,1,.85.55A4.6,4.6,0,0,1,910.57,269.43Z" transform="translate(-25.02 -38.81)"/><line class="cls-4" x1="338.52" y1="260.08" x2="338.52" y2="218.5"/><path class="cls-4" d="M366.54,298.89V257.31c0-3.86-6-3.87-6,0v41.58c0,3.86,6,3.87,6,0Z" transform="translate(-25.02 -38.81)"/><line class="cls-5" x1="51.61" y1="260.82" x2="51.61" y2="231.36"/><path class="cls-5" d="M78.87,299.63V270.17c0-2.89-4.5-2.9-4.5,0v29.46c0,2.89,4.5,2.9,4.5,0Z" transform="translate(-25.02 -38.81)"/></g></g></svg>