<svg id="Layer_1" data-name="Layer 1" xmlns="http://www.w3.org/2000/svg" viewBox="0 0 135.09 192.92"><defs><style>.cls-1{fill:#225675;stroke:#225675;stroke-width:13px;}.cls-1,.cls-2,.cls-3{stroke-miterlimit:10;}.cls-2,.cls-3,.cls-4{fill:#e6873c;}.cls-2,.cls-3{stroke:#e6873c;}.cls-2{stroke-width:0.75px;}.cls-3{fill-rule:evenodd;}</style></defs><g id="Layer_2" data-name="Layer 2"><g id="Layer_11" data-name="Layer 11"><path class="cls-1" d="M6.5,6.5H69.22c34.44,0,52.94,18.25,52.94,44.21C122.16,72,109.31,85.92,94.4,90c12.86,3.59,34.19,16.19,34.19,44.46,0,36-27,51.92-58.35,51.92H6.5ZM64.59,83.87c31.1,0,42.92-11.57,42.92-32.39,0-17.73-12.33-32.13-37.52-32.13H20.12V83.87Zm-44.47,89.7H70.81c23.64,0,43.44-11.82,43.44-38.3,0-22.87-14.65-38.55-50.9-38.55H20.12Z"/><path class="cls-2" d="M29.23,147.86a2.77,2.77,0,0,0,5.41.86H60l6.6,6.61H78.81v3.42H62.34l-6.61-6.56H44.42a2.76,2.76,0,1,0,0,1.85h10.5l6.6,6.61H82.11l.55-5.12a18.41,18.41,0,0,0,2.62-.7l3,4.15,5.88-3.39-2.09-4.71A21.63,21.63,0,0,0,94,149l4.71,2.08,3.39-5.88-4.15-3a18.41,18.41,0,0,0,.7-2.62l5.11-.55v-6.79l-5.11-.55a17.93,17.93,0,0,0-.7-2.61l4.15-3-3.28-6-4.74,2.14a20.36,20.36,0,0,0-1.92-1.91l2.09-4.71-5.88-3.4-3,4.15a21.52,21.52,0,0,0-2.62-.7l-.55-5.11H61.57l-6.6,6.6H44.47a2.78,2.78,0,1,0,0,1.85H55.73l6.61-6.61H78.81v3.42H66.57L60,122.38H34.64a2.78,2.78,0,1,0,0,1.85h26.1l6.6-6.61H78.81v3.69h-7.2l-6.6,6.6H54.48a2.76,2.76,0,1,0,0,1.85h11.3l6.61-6.6h6.42a12.42,12.42,0,0,1,0,24.83H72.35l-6.61-6.6H54.44a2.78,2.78,0,1,0,0,1.85h10.5l6.6,6.6h7.27v3.69H67.34l-6.6-6.61H34.59a2.77,2.77,0,0,0-5.36,1Zm23.58-5.53a.92.92,0,1,1-.92-.92h0A.92.92,0,0,1,52.81,142.33Zm0-13.61a.92.92,0,1,1-.92-.92h0A.92.92,0,0,1,52.81,128.72Zm-19.88-5.53a.93.93,0,1,1-.94-.92h0A.92.92,0,0,1,32.93,123.19Zm9.88-5.27a.92.92,0,1,1-.92-.92h0A.92.92,0,0,1,42.81,117.92Zm0,35.21a.92.92,0,1,1-1-.94.94.94,0,0,1,1,.86Zm-11.68-5.27a.93.93,0,1,1,.93.93h0a.94.94,0,0,1-1-.88v0Z"/><path class="cls-2" d="M40.26,136.52H72a6.79,6.79,0,1,0,0-1.85H40.31a2.78,2.78,0,1,0,0,1.85Zm36.33-1a2.18,2.18,0,1,1,2.18,2.18h0a2.19,2.19,0,0,1-2.18-2.17Zm-38,0a.92.92,0,1,1-.92-.92h0a.92.92,0,0,1,.92.92h0Z"/><path class="cls-3" d="M33.81,39.4c-5.91,0-6.08-8.76,0-8.76H75c12.42,0,22.57,9.76,22.57,21.71S87.38,74.06,75,74.06H33.81a4.38,4.38,0,0,1-.12-8.76H75a13.66,13.66,0,0,0,9.5-3.8C93,53.27,86.76,39.41,75,39.41Z"/><path class="cls-4" d="M34,46.79H81a1.5,1.5,0,0,0,0-3H34a1.5,1.5,0,0,0,0,3Z"/><path class="cls-4" d="M34,53.79H84a1.5,1.5,0,0,0,0-3H34a1.5,1.5,0,0,0,0,3Z"/><path class="cls-4" d="M34,60.79H81a1.5,1.5,0,0,0,0-3H34a1.5,1.5,0,0,0,0,3Z"/></g></g></svg>