<svg xmlns="http://www.w3.org/2000/svg" viewBox="0 0 750 500"><g id="OBJECTS"><polygon points="132.41 331.4 274.37 248.41 334.42 283.08 440.39 222.63 482.33 242.65 581.82 199.23 558.76 190.74 637.13 174.71 607.97 239.31 599.49 214.98 484.93 280.81 442.81 257.89 345.04 319.54 273.42 274.15 132.41 331.4" fill="#ebfcf9"/><ellipse cx="465.08" cy="347.14" rx="10.38" ry="17.96" transform="translate(-6.88 9.41) rotate(-1.15)" fill="#2f878a"/><ellipse cx="449.28" cy="327.43" rx="17.96" ry="10.38" transform="translate(-42.47 586.75) rotate(-63.89)" fill="#06daae"/><ellipse cx="445.98" cy="367.47" rx="17.78" ry="10.28" transform="translate(-49.55 70.18) rotate(-8.53)" fill="#06daae"/><path d="M406.3,338.72a20.73,20.73,0,0,0,35.26,6.85,20.73,20.73,0,0,0-35.26-6.85Z" fill="#2f878a"/><path d="M491.43,377.84S443,367.46,430,316.43" fill="none" stroke="#00395e" stroke-linecap="round" stroke-miterlimit="10" stroke-width="3.64"/><circle cx="422.87" cy="297.65" r="24.07" fill="#f7e041"/><circle cx="422.87" cy="297.65" r="19.82" fill="#ffa538"/><path d="M424.46,308.79v1.94a1.55,1.55,0,0,1-1.56,1.55h0a1.54,1.54,0,0,1-1.55-1.55v-1.84a17.06,17.06,0,0,1-6-1.44,2.07,2.07,0,0,1-1-2.71l0-.05a2,2,0,0,1,2.7-1.05,13.5,13.5,0,0,0,4.28,1.17v-5.2c-3.46-.84-7.32-2-7.32-6.44,0-3.3,2.4-6.14,7.32-6.7v-1.9A1.54,1.54,0,0,1,422.9,283h0a1.55,1.55,0,0,1,1.56,1.55v1.84a16.17,16.17,0,0,1,4.42,1,2.09,2.09,0,0,1,1.17,2.74h0a2.07,2.07,0,0,1-2.65,1.16,12.11,12.11,0,0,0-2.94-.75v5.29c3.45.81,7.25,2,7.25,6.35C431.71,305.4,429.35,308.2,424.46,308.79ZM421.35,295v-4.42c-1.65.38-2.31,1.28-2.31,2.31S420,294.6,421.35,295Zm5.35,7.51c0-1.09-.9-1.68-2.24-2.15v4.29C426,304.34,426.7,303.53,426.7,302.54Z" fill="#f7e041"/><path d="M170.14,382.59a20.72,20.72,0,0,0,.72,35.91,20.73,20.73,0,0,0-.72-35.91Z" fill="#06daae"/><ellipse cx="154.7" cy="380.84" rx="17.96" ry="10.38" transform="translate(-255.36 352.13) rotate(-63.89)" fill="#2f878a"/><ellipse cx="151.4" cy="420.88" rx="17.78" ry="10.28" transform="translate(-60.72 27.1) rotate(-8.53)" fill="#2f878a"/><ellipse cx="129.35" cy="395.55" rx="10.38" ry="17.96" transform="translate(-283.61 447.14) rotate(-79.01)" fill="#06daae"/><path d="M196.84,431.25s-48.44-10.38-61.41-61.41" fill="none" stroke="#00395e" stroke-linecap="round" stroke-miterlimit="10" stroke-width="3.64"/><circle cx="128.29" cy="351.06" r="24.07" transform="translate(-210.66 193.54) rotate(-45)" fill="#f7e041"/><circle cx="128.29" cy="351.06" r="19.82" fill="#ffa538"/><path d="M129.88,362.2v1.93a1.56,1.56,0,0,1-1.56,1.56h0a1.56,1.56,0,0,1-1.56-1.56V362.3a17.28,17.28,0,0,1-6-1.44,2.08,2.08,0,0,1-1-2.72l0-.05a2.06,2.06,0,0,1,2.7-1,13.32,13.32,0,0,0,4.28,1.18V353c-3.45-.84-7.31-2-7.31-6.45,0-3.3,2.39-6.13,7.31-6.69V338a1.56,1.56,0,0,1,1.56-1.56h0a1.56,1.56,0,0,1,1.56,1.56v1.84a15.81,15.81,0,0,1,4.42,1,2.08,2.08,0,0,1,1.16,2.74h0a2.06,2.06,0,0,1-2.65,1.15,12,12,0,0,0-2.93-.74v5.29c3.45.81,7.25,2,7.25,6.35C137.13,358.81,134.76,361.61,129.88,362.2Zm-3.12-13.76V344c-1.65.37-2.3,1.28-2.3,2.31S125.39,348,126.76,348.44Zm5.36,7.51c0-1.09-.91-1.69-2.24-2.15v4.29C131.43,357.75,132.12,356.94,132.12,356Z" fill="#f7e041"/><path d="M575.64,382.59a20.73,20.73,0,0,1-.72,35.91,20.72,20.72,0,0,1,.72-35.91Z" fill="#2f878a"/><ellipse cx="591.07" cy="380.84" rx="10.38" ry="17.96" transform="translate(-107.29 299.02) rotate(-26.11)" fill="#06daae"/><ellipse cx="594.38" cy="420.88" rx="10.28" ry="17.78" transform="translate(90.03 946.29) rotate(-81.47)" fill="#06daae"/><path d="M634.06,392.13A20.73,20.73,0,0,1,598.8,399a20.72,20.72,0,0,1,35.26-6.85Z" fill="#2f878a"/><path d="M548.93,431.25s48.44-10.38,61.41-61.41" fill="none" stroke="#00395e" stroke-linecap="round" stroke-miterlimit="10" stroke-width="3.64"/><circle cx="617.48" cy="351.06" r="24.07" transform="translate(-64.63 152.94) rotate(-13.42)" fill="#f7e041"/><circle cx="617.48" cy="351.06" r="19.82" fill="#ffa538"/><path d="M619.07,362.2v1.93a1.55,1.55,0,0,1-1.55,1.56h0a1.56,1.56,0,0,1-1.56-1.56V362.3a17.34,17.34,0,0,1-6-1.44,2.08,2.08,0,0,1-1-2.72l0-.05a2.06,2.06,0,0,1,2.7-1,13.25,13.25,0,0,0,4.28,1.18V353c-3.46-.84-7.32-2-7.32-6.45,0-3.3,2.4-6.13,7.32-6.69V338a1.56,1.56,0,0,1,1.56-1.56h0a1.55,1.55,0,0,1,1.55,1.56v1.84a15.88,15.88,0,0,1,4.43,1,2.09,2.09,0,0,1,1.16,2.74h0a2.06,2.06,0,0,1-2.65,1.15,12.08,12.08,0,0,0-2.94-.74v5.29c3.46.81,7.26,2,7.26,6.35C626.33,358.81,624,361.61,619.07,362.2ZM616,348.44V344c-1.65.37-2.31,1.28-2.31,2.31S614.59,348,616,348.44Zm5.35,7.51c0-1.09-.9-1.69-2.24-2.15v4.29C620.63,357.75,621.31,356.94,621.31,356Z" fill="#f7e041"/><path d="M429.15,407.73a10,10,0,0,1-.35,17.37,10,10,0,0,1,.35-17.37Z" fill="#2f878a"/><path d="M432.79,399.09a10,10,0,0,1,7.65,15.59,10,10,0,0,1-7.65-15.59Z" fill="#06daae"/><path d="M446.72,427.52a9.93,9.93,0,0,1-17-2.55,9.93,9.93,0,0,1,17,2.55Z" fill="#06daae"/><path d="M457.4,412.34a10,10,0,0,1-17,3.32,10,10,0,0,1,17-3.32Z" fill="#2f878a"/><path d="M416.23,431.26s23.43-5,29.7-29.7" fill="none" stroke="#00395e" stroke-linecap="round" stroke-miterlimit="10" stroke-width="1.76"/><circle cx="449.39" cy="392.48" r="11.64" fill="#f7e041"/><circle cx="449.39" cy="392.48" r="9.59" fill="#ffa538"/><path d="M450.15,397.87v.94a.75.75,0,0,1-.75.75h0a.76.76,0,0,1-.75-.75v-.89a8.24,8.24,0,0,1-2.9-.7,1,1,0,0,1-.49-1.31v0a1,1,0,0,1,1.31-.51,6.47,6.47,0,0,0,2.07.56v-2.51c-1.67-.41-3.54-1-3.54-3.12,0-1.59,1.16-3,3.54-3.23v-.92a.75.75,0,0,1,.75-.75h0a.74.74,0,0,1,.75.75v.89a7.76,7.76,0,0,1,2.14.46,1,1,0,0,1,.57,1.33h0a1,1,0,0,1-1.29.56,5.73,5.73,0,0,0-1.42-.37v2.56c1.68.39,3.51,1,3.51,3.07C453.66,396.23,452.52,397.59,450.15,397.87Zm-1.5-6.65v-2.14c-.8.18-1.12.62-1.12,1.11S448,391,448.65,391.22Zm2.59,3.63c0-.53-.44-.82-1.09-1v2.07C450.91,395.72,451.24,395.33,451.24,394.85Z" fill="#f7e041"/><rect x="321.88" y="364.71" width="103.79" height="70.93" fill="#ff4757"/><path d="M284.5,400.89a12.94,12.94,0,0,1-.45,22.41,12.94,12.94,0,0,1,.45-22.41Z" fill="#2f878a"/><path d="M289.2,389.73a12.94,12.94,0,0,1,9.87,20.13,12.94,12.94,0,0,1-9.87-20.13Z" fill="#06daae"/><path d="M307.17,426.43a12.81,12.81,0,0,1-21.95-3.29,12.81,12.81,0,0,1,21.95,3.29Z" fill="#06daae"/><path d="M321,406.84a12.93,12.93,0,0,1-22,4.27,12.93,12.93,0,0,1,22-4.27Z" fill="#2f878a"/><path d="M267.83,431.26s30.23-6.48,38.33-38.33" fill="none" stroke="#00395e" stroke-linecap="round" stroke-miterlimit="10" stroke-width="2.27"/><circle cx="310.62" cy="381.21" r="15.03" fill="#f7e041"/><circle cx="310.62" cy="381.21" r="12.37" fill="#ffa538"/><path d="M311.61,388.16v1.21a1,1,0,0,1-1,1h0a1,1,0,0,1-1-1v-1.15a10.38,10.38,0,0,1-3.74-.9,1.28,1.28,0,0,1-.63-1.69v0a1.29,1.29,0,0,1,1.69-.66,8.19,8.19,0,0,0,2.67.73v-3.24c-2.16-.52-4.57-1.24-4.57-4,0-2.06,1.5-3.83,4.57-4.18V373a1,1,0,0,1,1-1h0a1,1,0,0,1,1,1v1.15a10.19,10.19,0,0,1,2.76.6,1.31,1.31,0,0,1,.73,1.71h0a1.29,1.29,0,0,1-1.66.72,7.33,7.33,0,0,0-1.83-.46v3.3c2.16.5,4.53,1.22,4.53,4C316.14,386.05,314.66,387.79,311.61,388.16Zm-1.94-8.59v-2.76c-1,.24-1.44.8-1.44,1.44S308.81,379.3,309.67,379.57Zm3.34,4.69c0-.68-.56-1.05-1.4-1.34v2.68C312.58,385.38,313,384.88,313,384.26Z" fill="#f7e041"/><rect x="176.57" y="274.76" width="103.79" height="160.88" fill="#f7e041"/><rect x="467.19" y="215.94" width="103.79" height="219.7" fill="#06daae"/><path d="M387.39,254.1h1.33l-2.53-35.28a4.83,4.83,0,0,0-2.77-4l-5.58-2.62H364.07l-7.36,5.71a7.07,7.07,0,0,0-2.73,5.95l1.47,30.28h1.48l-1.6,9.39a1.89,1.89,0,0,0,1.87,2.2H390Z" fill="#dff4ff"/><polygon points="357.07 265.69 353.05 358.1 366.99 358.1 373.04 281.83 380.11 358.1 393.38 358.1 390.02 265.98 357.07 265.69" fill="#00395e"/><path d="M410.33,223.93l2.43-7.6a1.37,1.37,0,0,1,1.31-1h0a1.37,1.37,0,0,1,1.35,1.55l-.43,3.19L421.1,215a1.07,1.07,0,0,1,1.42,0h0a1.07,1.07,0,0,1,0,1.57l-3,2.56,5.78-2.1a1.05,1.05,0,0,1,1.27.47h0a1,1,0,0,1-.49,1.46l-5.56,2.51,5.29-1.45a.86.86,0,0,1,1.05.55h0a.88.88,0,0,1-.48,1.09l-6.12,2.57,4-.45a.92.92,0,0,1,1,.89h0a.92.92,0,0,1-.71.91l-5,1.16L415,228.68Z" fill="#ebcba0"/><path d="M385,216l15.27,21.36,9.5-14.26,6.18,6.31-11.74,18.3a5.47,5.47,0,0,1-8.87.47L386,236.48Z" fill="#c9edff"/><polygon points="374.81 214.47 372.94 216.86 373.88 219.19 371.32 249.1 374.81 254.1 377.29 248.56 376.15 219.41 377.02 216.42 374.81 214.47" fill="#00395e"/><polygon points="364.07 197.07 364.07 212.16 374.74 214.47 377.84 212.16 377.84 197.07 364.07 197.07" fill="#ebcba0"/><path d="M364.07,202.5c1.8,2.81,6.24,8.11,13.77,7.57v-13H364.07Z" fill="#dea861"/><path d="M379.5,187.21l2.13-2.06a3.36,3.36,0,0,0,1-2.81h0a3.37,3.37,0,0,0-2.27-2.8l-1.83-.61-1.6,1.49-9,1a7,7,0,0,0-4.94,3h0a7.13,7.13,0,0,0-4.66,6.42h0a9,9,0,0,0,2,5.94l.93,1.15Z" fill="#00395e"/><path d="M379.5,187.21l-17.61,2,.93,8a10.06,10.06,0,0,0,4.44,7.23h0a11,11,0,0,0,7.41,1.78l2.83-.32a4.16,4.16,0,0,0,3.64-4.6Z" fill="#ebcba0"/><path d="M362,194.82l1.68-.19.7,6.06-1.67.19a3,3,0,0,1-3.38-2.68h0A3,3,0,0,1,362,194.82Z" fill="#ebcba0"/><polygon points="362.66 195.85 362.96 198.42 365.31 198.14 364.89 194.49 367.1 191.1 366.82 188.68 361.27 188.39 362.66 195.85" fill="#00395e"/><rect x="372.1" y="237.81" width="21.12" height="31.49" rx="2.33" transform="translate(45.92 -58.42) rotate(9.29)" fill="#bf942a"/><rect x="381.57" y="236.98" width="7.94" height="4.04" rx="0.53" transform="translate(43.61 -59.07) rotate(9.28)" fill="#fff"/><path d="M377.55,256.86l7.66-3.23a.89.89,0,0,1,1,.24h0a1.66,1.66,0,0,1-.35,2.48l-2.43,1.57,8.83.78a1.1,1.1,0,0,1,1,1.14h0a1.09,1.09,0,0,1-1.13,1l-5-.16,6.09,1a1,1,0,0,1,.79,1.36h0a1,1,0,0,1-1.08.66l-6.92-.79,5.26,1.31a.8.8,0,0,1,.5,1.18h0a.8.8,0,0,1-.83.39l-7.2-1.28,4.23,1.47a.83.83,0,0,1,.36,1.32h0a.81.81,0,0,1-.89.25l-6.07-1.95-4.44-2.2Z" fill="#ebcba0"/><path d="M353.28,223.28l-4.78,29a6.43,6.43,0,0,0,4.66,7.26l23.7,6.45,2-9.55-17.76-6.13,1.78-21.5s-.27-6.42-5-8.26A3.45,3.45,0,0,0,353.28,223.28Z" fill="#c9edff"/><path d="M415,220.12a4.46,4.46,0,0,1,.28,4.35" fill="none" stroke="#dea861" stroke-linecap="round" stroke-miterlimit="10" stroke-width="1.1"/><path d="M380.15,358.1l-.58,2v3.5a1.09,1.09,0,0,0,1.09,1.09h20a1.64,1.64,0,0,0,1.5-2.3h0a7.13,7.13,0,0,0-6.53-4.26Z" fill="#00395e"/><path d="M352.89,358.1l-.58,2v3.5a1.09,1.09,0,0,0,1.09,1.09h20a1.64,1.64,0,0,0,1.5-2.3h0a7.15,7.15,0,0,0-6.54-4.26Z" fill="#00395e"/><path d="M509,166.13,495.2,197.71l6.47,1.92a7.27,7.27,0,0,0,7.26-1.9l5-5.13Z" fill="#2f97f7"/><polygon points="538.27 201.73 539.75 201.73 541.4 167.77 531.13 159.79 531.13 159.79 517.36 159.79 517.36 159.79 517.36 159.79 509.03 166.13 506.48 201.73 507.81 201.73 538.27 201.73" fill="#59acf9"/><path d="M541.4,167.77,548.11,187l5.91-1.58,2.88,9.23L547.38,198a5.56,5.56,0,0,1-6.91-3l-8.08-18.71S531.44,166.57,541.4,167.77Z" fill="#2f97f7"/><path d="M557.33,67.39h0a2,2,0,0,0-2,2V215.94h4V69.41A2,2,0,0,0,557.33,67.39Z" fill="#dea861"/><path d="M610.38,85.56c-12.93-17.66-36,1.57-51-14v28C579.3,106.43,591.4,76.13,610.38,85.56Z" fill="#ff4757"/><path d="M553.13,182.3h3.58a0,0,0,0,1,0,0v5.22a0,0,0,0,1,0,0h-3.84a1.38,1.38,0,0,1-1.38-1.38v-2.2A1.64,1.64,0,0,1,553.13,182.3Z" fill="#dea861"/><path d="M559.57,181.63l-3.4.36a3.36,3.36,0,0,0-3,3.34v6.24a3.37,3.37,0,0,0,3.36,3.36H559a2.69,2.69,0,0,0,2.68-2.49l.59-8.17A2.48,2.48,0,0,0,559.57,181.63Z" fill="#ebcba0"/><path d="M491.27,194.09l.36,3.39a3.36,3.36,0,0,0,3.34,3h6.24a3.36,3.36,0,0,0,3.36-3.36v-2.51a2.68,2.68,0,0,0-2.49-2.67l-8.16-.6A2.49,2.49,0,0,0,491.27,194.09Z" fill="#ebcba0"/><path d="M530.12,143.5l1.27-6.37a2.73,2.73,0,0,0-.31-1.86h0a12,12,0,0,0-9.17-5.92l-1.4-.15a10.2,10.2,0,0,0-7.39,2.15h0a5.67,5.67,0,0,0-6.76,2.71h0a6.52,6.52,0,0,0,0,6.13h0a16.61,16.61,0,0,0,4.72,5.55l1.49,1.11Z" fill="#00395e"/><polygon points="520.39 162.11 522.25 164.49 521.32 166.83 520.9 195.88 517.41 200.87 514.92 195.33 519.05 167.05 518.18 164.06 520.39 162.11" fill="#00395e"/><polygon points="527.6 147.53 531.13 159.79 520.46 162.11 517.36 159.79 517.36 144.71 527.6 147.53" fill="#ebcba0"/><polygon points="527.6 147.53 531.13 159.79 520.46 162.11 517.36 159.79 517.36 144.71 527.6 147.53" fill="#ebcba0"/><path d="M527.6,147.53l-10.24-2.82v14C524.12,158.63,526.45,152.69,527.6,147.53Z" fill="#dea861"/><path d="M509.35,138.47l17.61-2,.91,8a10.08,10.08,0,0,1-2.69,8.05h0a11.12,11.12,0,0,1-6.82,3.41l-1.6.18a4.8,4.8,0,0,1-4.33-1.84h0a8.72,8.72,0,0,1-1.78-4.38Z" fill="#ebcba0"/><path d="M528.11,141.94l-1.67.19.69,6.06,1.67-.19a3.06,3.06,0,0,0,2.69-3.37h0A3.06,3.06,0,0,0,528.11,141.94Z" fill="#ebcba0"/><path d="M527.71,143.09l.29,2.57-2.36.26-.41-3.65-1.16-1.11a6.77,6.77,0,0,1-2-4.12h0l5.35-1.53Z" fill="#00395e"/><path d="M495.2,260.62l.58,2v3.5a1.09,1.09,0,0,1-1.09,1.09h-20a1.64,1.64,0,0,1-1.5-2.3h0a7.15,7.15,0,0,1,6.54-4.26Z" fill="#00395e"/><path d="M519.75,260.62l.58,2v3.5a1.09,1.09,0,0,1-1.09,1.09h-20a1.64,1.64,0,0,1-1.5-2.3h0a7.15,7.15,0,0,1,6.54-4.26Z" fill="#00395e"/><path d="M539.75,201.73v7a7.19,7.19,0,0,1-7.19,7.2H493.18V201.73Z" fill="#00395e"/><path d="M500.37,180.27H472.94a1.26,1.26,0,0,0-1.24,1.48l3.69,20H506l-3.65-19.81A2,2,0,0,0,500.37,180.27Z" fill="#c9edff"/><path d="M518.36,199.23h-14.2v2.52h16.72A2.52,2.52,0,0,0,518.36,199.23Z" fill="#c9edff"/><path d="M498.5,180.27H471.06a1.25,1.25,0,0,0-1.23,1.48l3.69,20h30.64l-3.66-19.81A2,2,0,0,0,498.5,180.27Z" fill="#dff4ff"/><path d="M486.64,190.43a2.16,2.16,0,1,0-2.16,2.17A2.16,2.16,0,0,0,486.64,190.43Z" fill="#c9edff"/><path d="M487.64,201.73h7.7a0,0,0,0,1,0,0v58.89a0,0,0,0,1,0,0H479.2a0,0,0,0,1,0,0V210.17A8.44,8.44,0,0,1,487.64,201.73Z" fill="#00395e"/><rect x="503.7" y="201.73" width="16.15" height="58.89" fill="#00395e"/><polygon points="597.8 203.59 585.14 225.51 610.46 225.51 597.8 203.59" fill="#2f97f7"/><polygon points="597.8 225.51 585.14 247.43 610.46 247.43 597.8 225.51" fill="#2f97f7"/><line x1="123.38" y1="435.64" x2="624.18" y2="435.64" fill="none" stroke="#002b47" stroke-linecap="round" stroke-miterlimit="10" stroke-width="4.85"/><path d="M447.39,133.57l-25.65,7.33,4.67,16.36a13.33,13.33,0,0,0,16.49,9.15h0a13.33,13.33,0,0,0,9.16-16.48Z" fill="#00395e"/><path d="M447.05,118.45l-33,9.43,6,21.06a17.16,17.16,0,0,0,21.22,11.79h0a17.17,17.17,0,0,0,11.8-21.22Z" fill="#dff4ff"/><circle cx="426.91" cy="110.45" r="33.56" transform="translate(119.66 426.76) rotate(-60.34)" fill="#f7e041"/><path d="M454.35,102.61A28.54,28.54,0,0,0,419.07,83" fill="none" stroke="#fff" stroke-linecap="round" stroke-miterlimit="10" stroke-width="3.64"/><path d="M439.78,117.42a1.22,1.22,0,0,0-1.14,1.29l.08,1.17a5.06,5.06,0,0,1-2.59.39,7.54,7.54,0,0,0,.47-4.61c-.53-2.34-1.9-3.93-3.5-4-.63,0-2.21.09-3.17,2.49-.82,2,.12,5,2.18,6.83.15.13.3.26.46.38a8.34,8.34,0,0,1-4.35,2.27,4.39,4.39,0,0,1-.78.1,5.63,5.63,0,0,0,.68-1.34,4.88,4.88,0,0,0-1.45-5.32,4.61,4.61,0,0,0-5-1c-1.43.68-1.86,2.55-1.11,4.75a8.62,8.62,0,0,0,2.41,3.61,10.9,10.9,0,0,1-1,.47l-.64-1.2a1.21,1.21,0,0,0-2.14,1.15l10.3,19.1c.86-.06,1.73-.17,2.59-.31L423.11,127a12.55,12.55,0,0,0,2.21-1.22,6.33,6.33,0,0,0,3.42.17c.27-.06.53-.12.79-.2a10.45,10.45,0,0,0,5.26-3.29,7,7,0,0,0,4.08-.06l1.18,18.92c.8-.34,1.59-.7,2.36-1.1l-1.22-19.67h0l-.12-2A1.22,1.22,0,0,0,439.78,117.42Zm-13.95,4.11a3.87,3.87,0,0,1-.86,1.37A6.17,6.17,0,0,1,423.3,121c-.8-1.41-.78-2.6-.6-2.79l.2-.08a2.44,2.44,0,0,1,2.15.68A2.53,2.53,0,0,1,425.83,121.53Zm8.08-2.25-.18-.15c-1.41-1.27-1.94-3.16-1.55-4.13.27-.68.56-.93.69-1h0c.3,0,1,.68,1.32,2.17A5,5,0,0,1,433.91,119.28Z" fill="#ffa538"/><line x1="416" y1="72.26" x2="413.74" y2="64.36" fill="none" stroke="#f7e041" stroke-linecap="round" stroke-miterlimit="10" stroke-width="4.85"/><line x1="392.19" y1="91.16" x2="385.01" y2="87.17" fill="none" stroke="#f7e041" stroke-linecap="round" stroke-miterlimit="10" stroke-width="4.85"/><line x1="388.72" y1="121.36" x2="380.82" y2="123.62" fill="none" stroke="#f7e041" stroke-linecap="round" stroke-miterlimit="10" stroke-width="4.85"/><line x1="407.62" y1="145.17" x2="403.63" y2="152.35" fill="none" stroke="#f7e041" stroke-linecap="round" stroke-miterlimit="10" stroke-width="4.85"/><line x1="461.63" y1="129.74" x2="468.81" y2="133.73" fill="none" stroke="#f7e041" stroke-linecap="round" stroke-miterlimit="10" stroke-width="4.85"/><line x1="465.1" y1="99.54" x2="473" y2="97.28" fill="none" stroke="#f7e041" stroke-linecap="round" stroke-miterlimit="10" stroke-width="4.85"/><line x1="446.2" y1="75.73" x2="450.19" y2="68.55" fill="none" stroke="#f7e041" stroke-linecap="round" stroke-miterlimit="10" stroke-width="4.85"/><path d="M194.08,159.83a27.38,27.38,0,1,0,27.38,27.38A27.37,27.37,0,0,0,194.08,159.83Zm0,44.33A17,17,0,1,1,211,187.21,17,17,0,0,1,194.08,204.16Z" fill="#dff4ff"/><path d="M194.08,159.83v10.43a17,17,0,0,1,16.95,17h10.43A27.38,27.38,0,0,0,194.08,159.83Z" fill="#ff4757"/><path d="M262.85,159.83a27.38,27.38,0,1,0,27.38,27.38A27.37,27.37,0,0,0,262.85,159.83Zm0,44.33a17,17,0,1,1,16.95-16.95A16.94,16.94,0,0,1,262.85,204.16Z" fill="#dff4ff"/><path d="M262.85,159.83v10.43a17,17,0,1,1-10.2,30.46l-6.3,8.33a27.38,27.38,0,1,0,16.5-49.22Z" fill="#06daae"/><polygon points="298.96 296.68 311.61 274.76 286.3 274.76 298.96 296.68" fill="#ff4757"/><path d="M184.27,262.07A16.37,16.37,0,0,0,167.91,246a16.15,16.15,0,0,0-3.77.46,27.24,27.24,0,0,0-50.89-7.67,20.38,20.38,0,0,0-3.15-.27A20.12,20.12,0,0,0,90,258.64a20.44,20.44,0,0,0,.32,3.43Z" fill="#dff4ff"/><path d="M581.2,162a15.67,15.67,0,0,1,15.66-15.38,15.86,15.86,0,0,1,3.61.43,26.08,26.08,0,0,1,48.72-7.33,18.61,18.61,0,0,1,3-.26,19.25,19.25,0,0,1,19.25,19.25,19.83,19.83,0,0,1-.3,3.29Z" fill="#dff4ff"/></g></svg>