<svg id="Layer_1" data-name="Layer 1" xmlns="http://www.w3.org/2000/svg" viewBox="0 0 1637.96 1563.27"><path d="M819,1254.48H597.45a9.92,9.92,0,0,1-9.92-9.91v-20.92a9.92,9.92,0,0,1,9.92-9.92H819a9.92,9.92,0,0,1,9.92,9.92v20.92A9.92,9.92,0,0,1,819,1254.48Z" transform="translate(-196.83 -187.86)" fill="none" stroke="#dee5f8" stroke-miterlimit="10" stroke-width="5"/><path d="M951,1254.07H860.81a12.41,12.41,0,0,1-12.41-12.42v-15.91a12.41,12.41,0,0,1,12.41-12.42H951a12.41,12.41,0,0,1,12.41,12.42v15.91A12.41,12.41,0,0,1,951,1254.07Z" transform="translate(-196.83 -187.86)" fill="none" stroke="#dee5f8" stroke-miterlimit="10" stroke-width="3.75"/><path d="M895.9,703.69H805.73a12.41,12.41,0,0,1-12.41-12.41V675.36a12.42,12.42,0,0,1,12.41-12.42H895.9a12.42,12.42,0,0,1,12.42,12.42v15.92A12.42,12.42,0,0,1,895.9,703.69Z" transform="translate(-196.83 -187.86)" fill="none" stroke="#dee5f8" stroke-miterlimit="10" stroke-width="5"/><path d="M1031.94,703.69H941.77a12.41,12.41,0,0,1-12.41-12.41V675.36a12.42,12.42,0,0,1,12.41-12.42h90.17a12.42,12.42,0,0,1,12.42,12.42v15.92A12.42,12.42,0,0,1,1031.94,703.69Z" transform="translate(-196.83 -187.86)" fill="none" stroke="#dee5f8" stroke-miterlimit="10" stroke-width="5"/><path d="M1377.4,1070.28h-90.16a12.42,12.42,0,0,1-12.42-12.42V1042a12.42,12.42,0,0,1,12.42-12.42h90.16a12.42,12.42,0,0,1,12.42,12.42v15.91A12.42,12.42,0,0,1,1377.4,1070.28Z" transform="translate(-196.83 -187.86)" fill="none" stroke="#dee5f8" stroke-miterlimit="10" stroke-width="5"/><path d="M1809.13,521.85v11.74c3.95,0,8.38,1.07,11.35,9,3.25,8.71,3.4,22.47.42,38.73-3.35,18.32-10.56,39.44-20.84,61.09-21.19,44.65-54.14,89.22-94,127.51l-5.91-130.43,34.8-48.18h29.33a20.27,20.27,0,0,0,20.25-20.24V543.61a9.16,9.16,0,0,1,3.14-2.52c10.67-6.2,17.55-7.5,21.45-7.5V521.85m0,0c-7.51,0-16.65,2.87-27.35,9.09-4.9,2.85-9,6.86-9,12.54v27.6a8.5,8.5,0,0,1-8.5,8.5H1729l-40.7,56.36,7.23,159.57c136.73-118.65,168.87-273.66,113.65-273.66Z" transform="translate(-196.83 -187.86)" fill="#fbc343"/><path d="M1388.33,521.85v11.74c3.9,0,10.78,1.3,21.45,7.5a9.34,9.34,0,0,1,3.14,2.51v27.48a20.27,20.27,0,0,0,20.25,20.24h29.33l34.8,48.18-5.91,130.43c-39.86-38.29-72.8-82.86-94-127.51-10.28-21.65-17.49-42.77-20.84-61.09-3-16.26-2.83-30,.42-38.73,3-7.94,7.4-9,11.35-9V521.85m0,0c-55.22,0-23.08,155,113.65,273.66l7.23-159.57-40.7-56.36h-35.34a8.5,8.5,0,0,1-8.5-8.5v-27.6c0-5.67-4.09-9.69-9-12.54-10.71-6.22-19.84-9.09-27.35-9.09Z" transform="translate(-196.83 -187.86)" fill="#fbc343"/><rect x="1286.82" y="890.8" width="230.16" height="119.44" fill="#6f3428"/><path d="M1678.58,1078.66h-159.7v-39a31.51,31.51,0,0,1,31.51-31.51h96.68a31.51,31.51,0,0,1,31.51,31.51Z" transform="translate(-196.83 -187.86)" fill="#fbc343"/><path d="M1648.44,1008.18H1549V983.92a19.61,19.61,0,0,1,19.62-19.62h60.18a19.61,19.61,0,0,1,19.62,19.62v24.26Z" transform="translate(-196.83 -187.86)" fill="#fbc343"/><path d="M1626.46,952l3.1,12.27h-61.65L1571,952a99.26,99.26,0,0,0,0-49l-3.08-12.27h61.65l-3.1,12.27a100.47,100.47,0,0,0-2.7,16.15A99,99,0,0,0,1626.46,952Z" transform="translate(-196.83 -187.86)" fill="#fbc343"/><path d="M1629.56,890.73l-3.1,12.27a100.47,100.47,0,0,0-2.7,16.15c-3.36-22.46-55.85-28.42-55.85-28.42Z" transform="translate(-196.83 -187.86)" fill="#6f3428" opacity="0.3" style="isolation:isolate"/><path d="M1648.44,846.85V871.1a19.85,19.85,0,0,1-.85,5.75,19.64,19.64,0,0,1-18.78,13.88h-60.17A19.63,19.63,0,0,1,1549,871.1V846.85Z" transform="translate(-196.83 -187.86)" fill="#fbc343"/><path d="M1648.44,846.85V871.1a19.85,19.85,0,0,1-.85,5.75c-26.55-24.4-94-25.12-98.58-25.15v-4.85Z" transform="translate(-196.83 -187.86)" fill="#6f3428" opacity="0.3" style="isolation:isolate"/><path d="M1753.14,553.8l-28.5,124.45L1693,816.38a45.45,45.45,0,0,1-44.32,35.32h-99.93a45.48,45.48,0,0,1-44.27-35.12,1.94,1.94,0,0,1,0-.2L1444.31,553.8a9.74,9.74,0,0,1,7.58-11.75,750.08,750.08,0,0,1,293.67,0A9.74,9.74,0,0,1,1753.14,553.8Z" transform="translate(-196.83 -187.86)" fill="#fbc343"/><path d="M1533.22,628.78c2.19,17.93-1.39,33.12-8,33.92s-13.73-13.08-15.92-31,1.4-33.12,8-33.92S1531,610.84,1533.22,628.78Z" transform="translate(-196.83 -187.86)" fill="#fff" opacity="0.6" style="isolation:isolate"/><path d="M1724.64,678.25,1693,816.38a45.45,45.45,0,0,1-44.32,35.32h-99.93a45.48,45.48,0,0,1-44.27-35.12C1614.31,809.65,1687.36,740,1724.64,678.25Z" transform="translate(-196.83 -187.86)" fill="#6f3428" opacity="0.1" style="isolation:isolate"/><g opacity="0.3"><path d="M1567.91,964.3a111.45,111.45,0,0,1,15.33-2.56c5.14-.55,10.31-.79,15.49-.88,10.33,0,20.79.67,30.83,3.44-5.2.14-10.32.13-15.45.16l-15.35.15C1588.52,964.65,1578.29,964.81,1567.91,964.3Z" transform="translate(-196.83 -187.86)" fill="#6f3428"/></g><g opacity="0.3"><path d="M1549,1008.18a421.76,421.76,0,0,1,49.7-3.38c8.31-.08,16.62,0,24.93.46a157.76,157.76,0,0,1,24.79,2.92c-8.31-.28-16.57-.07-24.85,0l-24.82.36C1582.21,1008.71,1565.65,1008.89,1549,1008.18Z" transform="translate(-196.83 -187.86)" fill="#6f3428"/></g><path d="M1554,355.42l10.29,74.08A3.94,3.94,0,0,1,1557,432l-37.4-64.78a7.29,7.29,0,0,1,4-10.53l20.88-7.17A7.28,7.28,0,0,1,1554,355.42Z" transform="translate(-196.83 -187.86)" fill="#fbc343"/><path d="M1657.44,311.07,1617,438.24c-2.35,7.37-13.13,6.12-13.73-1.59l-10.32-133.06a13,13,0,0,1,14.48-13.9l39.13,4.53A13,13,0,0,1,1657.44,311.07Z" transform="translate(-196.83 -187.86)" fill="#fbc343"/><path d="M1704.71,389l-48.29,46a3.52,3.52,0,0,1-5.64-4l27.43-60.83a6.49,6.49,0,0,1,9.68-2.62L1704,379A6.5,6.5,0,0,1,1704.71,389Z" transform="translate(-196.83 -187.86)" fill="#fbc343"/><path d="M618.54,765.12c21.67,13.49,44.67-4,47.19-18.8,3.75-22.08-16.35-47.5-47.19-28.65,0,0-26.72-31.25-52.68-.31,0,0-44.3,22.29-19.71,61s55.43-14,55.43-14Z" transform="translate(-196.83 -187.86)" fill="#102048"/><path d="M634.28,774.8c11.88,15.93,17.1,22.21,15.43,27.2s-13.55,5.39-13.55,5.39Z" transform="translate(-196.83 -187.86)" fill="#e28b6d"/><polygon points="419.01 636.18 412.21 653.18 385.92 718.95 343.49 668.73 383.54 609.5 407.44 627.48 419.01 636.18" fill="#f9b384"/><path d="M615.85,824l-6.8,17a211.7,211.7,0,0,1-22-26.45l17.2.75Z" transform="translate(-196.83 -187.86)" fill="#102048"/><path d="M640.47,815.51c-.37,9-2.15,15.93-6.52,19-12.58,8.9-58.75-29-58.75-29l-3.15-53.43L637,756.69c.13,8.57,1,18.22,1.93,27.75C639.9,795.56,640.87,806.54,640.47,815.51Z" transform="translate(-196.83 -187.86)" fill="#f9b384"/><path d="M578.07,778.3c15.89,3,20-14.59,20-14.59,17-10.41,31.08,13.65,46.37,4.69l2.36-30.73-67.3-3.43-24.26,15.62,6.87,18.75Z" transform="translate(-196.83 -187.86)" fill="#102048"/><path d="M588,778.64c-8.55-9.72-22.36-5.56-23.68,4.86s7.29,28,21.27,17.8Z" transform="translate(-196.83 -187.86)" fill="#f9b384"/><path d="M640.47,815.51a15.15,15.15,0,0,1-4.3.6,16,16,0,1,1,0-31.92,13.66,13.66,0,0,1,2.73.25C639.9,795.56,640.87,806.54,640.47,815.51Z" transform="translate(-196.83 -187.86)" fill="#fc8879"/><path d="M582.19,785.56a7.6,7.6,0,0,0-2.37-2.85,9.36,9.36,0,0,0-3.28-1.67,4.81,4.81,0,0,0-3.35.1,6.36,6.36,0,0,0-2.64,2.46l-.68-.28a5.81,5.81,0,0,1,2.57-3.64,6,6,0,0,1,4.61-.43,9.4,9.4,0,0,1,3.82,2.28,6.36,6.36,0,0,1,2,3.89Z" transform="translate(-196.83 -187.86)" fill="#102048"/><path d="M644.42,946.83c14-16.3,15.42-39.58,20.73-44.36,9.89-8.9,5.38,18.29,5.38,18.29s6.43-18.31,21.9-22.46c10.13-2.71,11.94,6.71,11.06,14.6C702,926,697.73,941,687.15,949.66c-4.51,3.71-10.26,6.53-13.51,11.53a33.88,33.88,0,0,0-4.33,9.33Z" transform="translate(-196.83 -187.86)" fill="#f9b384"/><polygon points="445.36 759.5 451.88 750.72 478.39 774.29 470.98 785 445.36 759.5" fill="#708cd5"/><path d="M558.37,1033.83l84.36-94,31.32,30.73c-22.4,50.94-52.07,83.62-99.64,108.61Z" transform="translate(-196.83 -187.86)" fill="#102048"/><path d="M678.41,920a9.46,9.46,0,0,1,4.77.52,21.61,21.61,0,0,1,4.23,1.93,23.69,23.69,0,0,1,3.76,2.67,10.28,10.28,0,0,1,3,3.78l-.92.35a30.85,30.85,0,0,0-3.43-2.37c-1.23-.77-2.46-1.55-3.71-2.28s-2.51-1.45-3.77-2.13a16.38,16.38,0,0,0-3.91-1.49Z" transform="translate(-196.83 -187.86)" fill="#e28b6d"/><path d="M670.34,925.7A10,10,0,0,1,675,929a8.11,8.11,0,0,1,1.42,5.78,11.5,11.5,0,0,1-2.14,5.34,8.65,8.65,0,0,1-4.49,3.53l-.31-.93a12,12,0,0,0,3-3.77,13.17,13.17,0,0,0,1.52-4.47,7.32,7.32,0,0,0-.73-4.34,13.4,13.4,0,0,0-3.29-3.56Z" transform="translate(-196.83 -187.86)" fill="#e28b6d"/><path d="M378,1033.83l-89.84-24.5h0a12.49,12.49,0,0,1,15.34-8.77l65.73,17.92a12.5,12.5,0,0,1,8.77,15.35Z" transform="translate(-196.83 -187.86)" fill="#708cd5"/><path d="M343.33,1524.86s18.37,39.08,71.22,26.52l-25.48-33.81Z" transform="translate(-196.83 -187.86)" fill="#1f3c88"/><polygon points="164.43 1332.19 145.62 1374.51 166.15 1406.88 191.55 1386.22 202.78 1339.65 164.43 1332.19" fill="#f9b384"/><path d="M342.45,1562.36l45.93,11.72,26.06,64.47a7.11,7.11,0,0,1-9.69,9.07l-81.5-39.4a12.07,12.07,0,0,1-5.73-15.86l.72-1.58a68,68,0,0,1,24.21-28.42Z" transform="translate(-196.83 -187.86)" fill="#1f3c88"/><path d="M342.45,1562.36l45.93,11.72,26.06,64.47a7.11,7.11,0,0,1-9.69,9.07l-81.5-39.4a12.07,12.07,0,0,1-5.73-15.86l.72-1.58a68,68,0,0,1,24.21-28.42Z" transform="translate(-196.83 -187.86)" fill="#1f3c88"/><rect x="385.05" y="1598.19" width="13.05" height="2.5" transform="matrix(0.87, -0.49, 0.49, 0.87, -928.67, 207.63)" fill="#acbfee"/><rect x="390.8" y="1612.41" width="13.05" height="2.5" transform="translate(-936.13 213.43) rotate(-29.32)" fill="#acbfee"/><path d="M404.5,1088.57c-8.89,20.91-20.95,53.07-.74,91.69a74.1,74.1,0,0,1,7,51l-67.45,293.59,71.22,26.52,145.74-425.14Z" transform="translate(-196.83 -187.86)" fill="#102048"/><path d="M595,877.15c14.39,41.32,14.8,111.86-12.55,186.29l-42.17,12,16.95-137.85Z" transform="translate(-196.83 -187.86)" fill="#708cd5"/><path d="M548.74,841.68l11.55-25.57s32.73,22.81,49.92,50l-20.05,37.73Z" transform="translate(-196.83 -187.86)" fill="#708cd5"/><path d="M557.25,1058c-112-3.6-170.7,59.2-170.28,56.75,18-61.15,35-106.88,50.2-141,27.55-61.93,49.2-85.83,60.45-94.83,5.5-4.42,8.53-5.27,8.53-5.27l51-42.73A56.24,56.24,0,0,1,569.6,840c14.37,13.5,22.6,32.15,24.55,51.75C601.8,968.49,557.25,1058,557.25,1058Z" transform="translate(-196.83 -187.86)" fill="#1f3c88"/><path d="M524.9,881.32c-16.35,8.68-44.76,54-87.73,92.42,27.55-61.93,49.2-85.83,60.45-94.83Z" transform="translate(-196.83 -187.86)" fill="#102048"/><path d="M340.67,976.49l-18,25.62s-2.24,10.47-7.06,14.63c0,0,2.16,10.73,10.6,14.49,9.63,4.3,21.51,4.07,29.21-6.93s8.71-43.6,8.71-43.6Z" transform="translate(-196.83 -187.86)" fill="#f9b384"/><path d="M328.23,981.74c0,1.66-3.33,10.83-3.33,10.83L364.1,998V980.7Z" transform="translate(-196.83 -187.86)" fill="#708cd5"/><path d="M557.18,830.9s-74.64-11.19-135.27,20.23A98.73,98.73,0,0,0,398.64,868c-29.28,28.36-55.43,56.29-75.21,115.6L370,991.23l47-69.44a28.46,28.46,0,0,1,17.2-11.74c24.89-5.67,84.54-19.63,93.9-25.09Z" transform="translate(-196.83 -187.86)" fill="#1f3c88"/><path d="M622.6,1277.32s28.07,37.4,74.56,18.62l-31-33Z" transform="translate(-196.83 -187.86)" fill="#1f3c88"/><polygon points="442.95 1079.64 424.13 1121.96 444.67 1154.34 470.06 1133.68 481.29 1087.11 442.95 1079.64" fill="#f9b384"/><path d="M621,1309.82l45.94,11.72L693,1386a7.12,7.12,0,0,1-9.69,9.08l-81.49-39.41a12.05,12.05,0,0,1-5.73-15.85l.72-1.58a67.91,67.91,0,0,1,24.2-28.42Z" transform="translate(-196.83 -187.86)" fill="#1f3c88"/><rect x="663.4" y="1344.5" width="13.05" height="2.5" transform="matrix(0.87, -0.49, 0.49, 0.87, -769.15, 311.32)" fill="#acbfee"/><rect x="669.14" y="1358.71" width="13.05" height="2.5" transform="translate(-776.24 317.23) rotate(-29.32)" fill="#acbfee"/><path d="M404.5,1088.57c15.31-10.6,113-36.21,175-34.33,68.91,2.08,124.22,9.91,146.7,60.37s-29,181.33-29,181.33l-74.56-18.62,18-121.32s-94.42,11.9-139.42,12.4Z" transform="translate(-196.83 -187.86)" fill="#102048"/><path d="M560.28,1165.18c-7.68,0-15,2-22.65,3.52a109.23,109.23,0,0,1-23.18,2.09,210.06,210.06,0,0,1-23.13-1.9c-3.82-.56-7.62-1.23-11.43-1.84-3.78-.77-7.56-1.51-11.33-2.33l.18-1c3.82.47,7.62,1,11.42,1.57s7.62,1,11.43,1.39c7.63.83,15.26,1.46,22.9,1.59a118.21,118.21,0,0,0,22.77-1.68c3.77-.61,7.55-1.4,11.4-1.94a71.9,71.9,0,0,1,11.64-.49Z" transform="translate(-196.83 -187.86)" fill="#708cd5"/><path d="M417.9,1092.61l-23.68,86.88-2.77,10.12a20.12,20.12,0,0,1-24.7,14.1l-155.08-42.27a20.11,20.11,0,0,1-14.12-24.7l15.6-57.18,10.85-39.8a20.09,20.09,0,0,1,24.67-14.12l155.1,42.27A20.14,20.14,0,0,1,417.9,1092.61Z" transform="translate(-196.83 -187.86)" fill="#acbfee"/><path d="M274.37,1060l13.76-50.47a12.5,12.5,0,0,1,15.35-8.77h0l-17.05,62.53Z" transform="translate(-196.83 -187.86)" fill="#708cd5"/><path d="M353,1078l16.24-59.56h0a12.49,12.49,0,0,1,8.77,15.34l-12.95,47.51Z" transform="translate(-196.83 -187.86)" fill="#708cd5"/><circle cx="82.68" cy="877.05" r="10.76" fill="#102048"/><circle cx="161.49" cy="894.5" r="10.76" fill="#102048"/><path d="M394.22,1179.49l-2.77,10.12a20.12,20.12,0,0,1-24.7,14.1l-155.08-42.27a20.11,20.11,0,0,1-14.12-24.7l20.7-75.91C213,1132.63,324.9,1179.24,394.22,1179.49Z" transform="translate(-196.83 -187.86)" fill="#102048" opacity="0.15" style="isolation:isolate"/><polygon points="1548.36 1013.55 1548.36 1119.7 383.7 1563.27 110.15 1563.27 110.15 1461.17 381.25 1461.17 381.55 1404.92 381.88 1348.52 654.2 1348.52 654.2 1235.89 925.3 1235.89 925.3 1126.09 1196.43 1126.09 1196.43 1013.44 1548.36 1013.55" fill="#acbfee" opacity="0.2" style="isolation:isolate"/><path d="M1119.2,1426.67H851.82a5.46,5.46,0,0,1-5.44-5.44h0a5.46,5.46,0,0,1,5.44-5.44H1119.2a5.45,5.45,0,0,1,5.44,5.44h0A5.45,5.45,0,0,1,1119.2,1426.67Z" transform="translate(-196.83 -187.86)" fill="#acbfee"/><path d="M1390.87,1318.34H1123.49a5.46,5.46,0,0,1-5.44-5.44h0a5.46,5.46,0,0,1,5.44-5.45h267.38a5.46,5.46,0,0,1,5.44,5.45h0A5.46,5.46,0,0,1,1390.87,1318.34Z" transform="translate(-196.83 -187.86)" fill="#acbfee"/><path d="M1745.36,1204.24h-352.6a5.46,5.46,0,0,1-5.44-5.44h0a5.46,5.46,0,0,1,5.44-5.44h352.6a5.46,5.46,0,0,1,5.44,5.44h0A5.46,5.46,0,0,1,1745.36,1204.24Z" transform="translate(-196.83 -187.86)" fill="#acbfee"/><path d="M847.88,1538.66H580.5a5.46,5.46,0,0,1-5.45-5.44h0a5.46,5.46,0,0,1,5.45-5.44H847.88a5.46,5.46,0,0,1,5.44,5.44h0A5.46,5.46,0,0,1,847.88,1538.66Z" transform="translate(-196.83 -187.86)" fill="#acbfee"/><path d="M575.5,1651.3H308.12a5.46,5.46,0,0,1-5.44-5.45h0a5.46,5.46,0,0,1,5.44-5.44H575.5a5.46,5.46,0,0,1,5.44,5.44h0A5.46,5.46,0,0,1,575.5,1651.3Z" transform="translate(-196.83 -187.86)" fill="#acbfee"/><path d="M874.06,1052.74l-1.49-16.81,26.8-2.37A343.58,343.58,0,0,0,1197.61,794l34.29-108.77,16.09,5.08L1213.7,799a360.44,360.44,0,0,1-312.84,251.34Z" transform="translate(-196.83 -187.86)" fill="#dee5f8"/><polygon points="1043.55 600.51 1036.22 520.45 981.81 583.5 969.03 572.48 1049.4 479.35 1060.35 598.97 1043.55 600.51" fill="#dee5f8"/><path d="M616.46,469.14a13.33,13.33,0,0,1-3.12,8.24H307.63a20,20,0,0,1-1.79-8.24c0-15.34,17.82-27.77,39.81-27.77a53.31,53.31,0,0,1,19.21,3.46c3-21.78,32.85-38.9,69.23-38.9,37.93,0,68.75,18.58,69.49,41.65,11.9-3.87,27.1-6.21,43.65-6.21C585.47,441.36,616.46,453.8,616.46,469.14Z" transform="translate(-196.83 -187.86)" fill="#dee5f8"/><path d="M1149.27,263.5a16,16,0,0,1-3.73,9.87H779.66a23.91,23.91,0,0,1-2.14-9.87c0-18.36,21.32-33.23,47.64-33.23a63.9,63.9,0,0,1,23,4.14c3.59-26.07,39.32-46.55,82.86-46.55,45.4,0,82.28,22.23,83.17,49.84,14.24-4.63,32.43-7.43,52.23-7.43C1112.18,230.26,1149.27,245.14,1149.27,263.5Z" transform="translate(-196.83 -187.86)" fill="#dee5f8"/></svg>